<svg xmlns="http://www.w3.org/2000/svg" xmlns:xlink="http://www.w3.org/1999/xlink" xmlns:lucid="lucid" width="1137" height="576"><g transform="translate(-566 -2486)" lucid:page-tab-id="0_0"><path d="M560 2497.53a6 6 0 0 1 6-6h1128a6 6 0 0 1 6 6v548a6 6 0 0 1-6 6H566a6 6 0 0 1-6-6z" stroke="#6f7681" fill="#edf5ff" fill-opacity=".58"/><path d="M701.46 2682.72c2.88 0 5.3 1.6 7.2 4.25 1.62 2.17 3.06 5.14 4.18 8.83 2.25 7.13 3.53 16.75 3.53 27.02 0 10.26-1.28 19.88-3.53 27.02-1.12 3.7-2.56 6.65-4.17 8.82-1.92 2.65-4.33 4.25-7.2 4.25-6.5 0-10.52-5.68-12.68-15.3-.1-.33-.1-.65 0-.9h6.48c.88 3.86 2 7.7 3.2 9 .8.88 1.7 1.2 2.98 1.2.08 0 .08 0 .16-.08.08 0 .16-.08.32-.16.4-.24.88-.73 1.36-1.37 1.12-1.6 2.25-4.02 3.3-7.14 2-6.58 3.2-15.64 3.2-25.34s-1.2-18.77-3.2-25.34c-1.05-3.13-2.18-5.53-3.3-7.14-.48-.64-.96-1.12-1.36-1.36-.16-.08-.24-.16-.32-.16-.08-.08-.08-.08-.16-.08-1.05 0-2 .56-2.97 1.84-1.37 1.77-2.5 4.57-3.38 8.58h-6.65c1.04-5.37 2.56-9.3 4.65-12.02 2.16-2.9 5.05-4.42 8.34-4.42zm.88 50.04v6H670.6c-1.7 0-3.06-1.35-3.06-3.03 0-1.7 1.36-2.97 3.05-2.97h31.74zm34.8-6.4c1.68 0 3.05 1.27 3.05 2.95 0 1.7-1.38 3.06-3.06 3.06h-15c.25-2 .4-4 .57-6h14.44zm-34.8-6.43v6.02h-39.3c-1.68 0-3.04-1.37-3.04-3.05 0-1.7 1.36-2.97 3.05-2.97h39.3zm20.04-6.5l14.76.1c1.68 0 3.05 1.27 3.05 2.95 0 1.53-1.14 2.8-2.66 2.97l-.4.08H722.8c-.1-2.1-.25-4.1-.4-6.1zm-20.04-6.33v6H670.6c-1.7 0-3.06-1.35-3.06-3.03 0-1.53 1.2-2.8 2.64-2.97H702.34z" stroke="#000" stroke-opacity="0" fill="#4285f4"/><path d="M660 2706.78v32.07h80.2v-32.07z" stroke="#000" stroke-opacity="0" fill-opacity="0"/><path d="M700.1 2682.72c4.42 0 8 17.97 8 40.1 0 22.13-3.58 40.1-8 40.1-4.43 0-8.03-17.97-8.03-40.1 0-22.13 3.6-40.1 8.02-40.1z" fill-opacity="0"/><use xlink:href="#a" transform="matrix(1,0,0,1,660,2767.9103275700063) translate(0.5493827160493936 14.222222222222221)"/><use xlink:href="#b" transform="matrix(1,0,0,1,660,2767.9103275700063) translate(51.80864197530864 14.222222222222221)"/><use xlink:href="#c" transform="matrix(1,0,0,1,660,2767.9103275700063) translate(5.462962962962976 35.55555555555556)"/><g opacity=".4" stroke="#3a414a"><path d="M1308.18 2851.7a12.8 12.8 0 0 1 4.6-9.84l2.56-2.13a16.57 16.57 0 0 1 10.6-3.84h85.82a6 6 0 0 1 6 6v74.3a16.57 16.57 0 0 1-3.84 10.62l-2.12 2.55a12.8 12.8 0 0 1-9.84 4.6h-87.78a6 6 0 0 1-6-6z" fill="#fff"/><path d="M1314.18 2845.7a2.17 2.17 0 0 1-1.4-3.84l2.56-2.13a16.57 16.57 0 0 1 10.6-3.84h85.82a2.48 2.48 0 0 1 1.76 4.23l-1.32 1.32a14.48 14.48 0 0 1-10.24 4.25z" fill="#e6e6e6"/><path d="M1407.96 2851.7a14.48 14.48 0 0 1 4.24-10.24l1.32-1.33a2.48 2.48 0 0 1 4.24 1.76v74.3a16.57 16.57 0 0 1-3.84 10.62l-2.12 2.55a2.17 2.17 0 0 1-3.84-1.4z" fill="#ccc"/></g><path d="M1358.9 2886.14l2.37-4.1h11.28l3.47-6.07-6.97-12.16h-9.8l-3.37-6.08h-3.8v-4.1h6.2l3.38 6.1h5.05l-6.96-12.17h-13.64v16.26h5.53l2.34 4.04h-7.87v8.13h7.2l3.36-6.08h8.97l2.3 4.08H1359l-3.36 6.02h-9.54v14.27h10.86l-2.3 4.03h-8.56v6.08h13.64l10.47-18.24h-6.66l-2.33 4.04h-9.12v-4.04h6.82z" stroke="#000" stroke-opacity="0" fill="#4285f4"/><path d="M1329.2 2886.14l-2.33-4.1h-11.3l-3.48-6.07 6.95-12.16h9.83l3.4-6.08h3.8v-4.1h-6.2l-3.4 6.1h-5.1l7.02-12.17h13.67v16.26h-5.58l-2.3 4.04h7.87v8.13h-7.25l-3.36-6.08h-9l-2.28 4.08h8.94l3.36 6.02h9.6v14.27h-10.92l2.3 4.03h8.6v6.08h-13.66l-10.5-18.24h6.7l2.33 4.04h9.14v-4.04h-6.86z" stroke="#000" stroke-opacity="0" fill="#669df6"/><path d="M1328.13 2847.67l-16.04 27 18.6 29.6 29.33.1 16-26.92-18.68-29.9z" fill-opacity="0"/><path d="M1390 2895.2v3.9h-4v-3.9h-4.34v3.9h-4v-3.9h-4.42v3.9c-1.97.08-3.5 1.43-3.57 3.18h-4.4v3.92h4.4v3.53h-4.4v3.93h4.4v3.53h-4.4v3.9h4.4c.08 1.73 1.6 3.08 3.53 3.15l.04 3.93h4.4v-3.93h4.02v3.93h4.34v-3.93h4v3.93h4.43v-3.93c1.93-.07 3.45-1.42 3.52-3.14h4.42v-3.9h-4.42v-3.54h4.42v-3.93h-4.42v-3.53h4.42v-3.92h-4.42c-.07-1.75-1.6-3.1-3.52-3.17v-3.9zm2.83 25.12h-18.03c-.38 0-.7-.3-.7-.62v-16.04c0-.33.33-.62.7-.62h18.03c.37 0 .7.3.7.62v16.04c0 .33-.33.62-.7.62z" stroke="#000" stroke-opacity="0" fill="#4285f4"/><path d="M1385.34 2904.32v5.9h3.63l-6.48 8.03v-6h-3.85l6.7-7.93z" stroke="#000" stroke-opacity="0" fill="#4285f4"/><path d="M1382.9 2875.97h4.43a6 6 0 0 1 6 6v12.72" stroke="#3a414a" fill="none"/><path d="M1377 2875.97l12.9-7.64v15.27z" stroke="#3a414a" fill="#3a414a"/><path d="M1393.83 2895.2h-1v-.53h1z" stroke="#3a414a" stroke-width=".05" fill="#3a414a"/><g opacity=".4" stroke="#3a414a"><path d="M1308.18 2737.47a12.8 12.8 0 0 1 4.6-9.84l2.56-2.13a16.57 16.57 0 0 1 10.6-3.84h85.82a6 6 0 0 1 6 6v74.32a16.57 16.57 0 0 1-3.84 10.6l-2.12 2.56a12.8 12.8 0 0 1-9.84 4.6h-87.78a6 6 0 0 1-6-6z" fill="#fff"/><path d="M1314.18 2731.47a2.17 2.17 0 0 1-1.4-3.84l2.56-2.13a16.57 16.57 0 0 1 10.6-3.84h85.82a2.48 2.48 0 0 1 1.76 4.25l-1.32 1.33a14.48 14.48 0 0 1-10.24 4.24z" fill="#e6e6e6"/><path d="M1407.96 2737.47a14.48 14.48 0 0 1 4.24-10.24l1.32-1.32a2.48 2.48 0 0 1 4.24 1.76v74.32a16.57 16.57 0 0 1-3.84 10.6l-2.12 2.56a2.17 2.17 0 0 1-3.84-1.4z" fill="#ccc"/></g><path d="M1355.94 2771.8l2.37-4.1h11.28l3.47-6.07-6.97-12.16h-9.78l-3.38-6.08h-3.8v-4.1h6.2l3.37 6.08h5.05l-6.97-12.16h-13.64v16.25h5.53l2.34 4.04h-7.86v8.13h7.2l3.36-6.08h8.97l2.3 4.1h-8.94l-3.35 6.02h-9.54v14.26H1354l-2.3 4.04h-8.56v6.08h13.64l10.47-18.25h-6.67l-2.34 4.04h-9.12v-4.04h6.82z" stroke="#000" stroke-opacity="0" fill="#4285f4"/><path d="M1326.25 2771.8l-2.34-4.1h-11.3l-3.47-6.07 6.95-12.16h9.84l3.38-6.08h3.8v-4.1h-6.2l-3.38 6.08h-5.1l7.02-12.16h13.67v16.25h-5.57l-2.3 4.04h7.88v8.13h-7.25l-3.35-6.08h-9l-2.28 4.1h8.94l3.36 6.02h9.6v14.26h-10.92l2.3 4.04h8.6v6.08h-13.66l-10.5-18.25h6.7l2.33 4.04h9.14v-4.04h-6.85z" stroke="#000" stroke-opacity="0" fill="#669df6"/><path d="M1325.17 2733.33l-16.04 27 18.6 29.6 29.34.12 15.98-26.94-18.66-29.88z" fill-opacity="0"/><path d="M1390 2780.96v3.93h-4v-3.94h-4.34v3.93h-4v-3.94h-4.42v3.93c-1.97.05-3.5 1.4-3.57 3.15h-4.4v3.93h4.4v3.53h-4.4v3.93h4.4v3.53h-4.4v3.93h4.4c.08 1.7 1.6 3.06 3.53 3.12l.04 3.93h4.4v-3.93h4.02v3.93h4.34v-3.93h4v3.93h4.43v-3.93c1.93-.06 3.45-1.4 3.52-3.13h4.42v-3.94h-4.42v-3.53h4.42v-3.92h-4.42V2792h4.42v-3.93h-4.42c-.07-1.75-1.6-3.1-3.52-3.16v-3.94zm2.83 25.14h-18.03c-.38 0-.7-.3-.7-.63v-16.03c0-.33.33-.63.7-.63h18.03c.37 0 .7.3.7.64v16.03c0 .33-.33.63-.7.63z" stroke="#000" stroke-opacity="0" fill="#4285f4"/><path d="M1385.34 2790.1v5.9h3.63l-6.48 8.02v-6h-3.85l6.7-7.92z" stroke="#000" stroke-opacity="0" fill="#4285f4"/><path d="M1379.93 2761.63h7.4a6 6 0 0 1 6 6v12.83" stroke="#3a414a" fill="none"/><path d="M1374.04 2761.63l12.9-7.63v15.27z" stroke="#3a414a" fill="#3a414a"/><path d="M1393.83 2780.96h-1v-.5h1z" stroke="#3a414a" stroke-width=".05" fill="#3a414a"/><g opacity=".4" stroke="#3a414a"><path d="M1308.18 2958.87a12.8 12.8 0 0 1 4.6-9.84l2.56-2.13a16.57 16.57 0 0 1 10.6-3.84h85.82a6 6 0 0 1 6 6v74.32a16.57 16.57 0 0 1-3.84 10.6l-2.12 2.56a12.8 12.8 0 0 1-9.84 4.6h-87.78a6 6 0 0 1-6-6z" fill="#fff"/><path d="M1314.18 2952.87a2.17 2.17 0 0 1-1.4-3.84l2.56-2.13a16.57 16.57 0 0 1 10.6-3.84h85.82a2.48 2.48 0 0 1 1.76 4.24l-1.32 1.32a14.48 14.48 0 0 1-10.24 4.25z" fill="#e6e6e6"/><path d="M1407.96 2958.87a14.48 14.48 0 0 1 4.24-10.24l1.32-1.33a2.48 2.48 0 0 1 4.24 1.76v74.32a16.57 16.57 0 0 1-3.84 10.6l-2.12 2.56a2.17 2.17 0 0 1-3.84-1.4z" fill="#ccc"/></g><path d="M1359.55 2994.2l2.37-4.1h11.28l3.47-6.08-6.98-12.16h-9.8l-3.37-6.08h-3.8v-4.1h6.2l3.38 6.1h5.06l-6.97-12.17h-13.65v16.26h5.53l2.34 4.04h-7.87v8.12h7.2l3.36-6.08h9l2.3 4.1h-8.96l-3.35 6.02h-9.55v14.26h10.86l-2.3 4.04h-8.55v6.08h13.64l10.46-18.24h-6.67l-2.34 4.03h-9.13v-4.03h6.82z" stroke="#000" stroke-opacity="0" fill="#4285f4"/><path d="M1329.86 2994.2l-2.34-4.1h-11.3l-3.48-6.08 6.95-12.16h9.83l3.4-6.08h3.8v-4.1h-6.2l-3.4 6.1h-5.1l7.02-12.17h13.67v16.26h-5.58l-2.3 4.04h7.88v8.12h-7.25l-3.36-6.08h-9l-2.26 4.1h8.93l3.36 6.02h9.6v14.26h-10.92l2.32 4.04h8.6v6.08h-13.67l-10.5-18.24h6.7l2.33 4.03h9.14v-4.03h-6.86z" stroke="#000" stroke-opacity="0" fill="#669df6"/><path d="M1328.8 2955.72l-16.06 27 18.6 29.6 29.35.12 15.97-26.94-18.67-29.9z" fill-opacity="0"/><path d="M1390 3002.36v3.92h-4v-3.92h-4.34v3.92h-4v-3.92h-4.42v3.92c-1.97.07-3.5 1.42-3.57 3.17h-4.4v3.92h4.4v3.53h-4.4v3.93h4.4v3.53h-4.4v3.93h4.4c.08 1.7 1.6 3.05 3.53 3.12l.04 3.92h4.4v-3.92h4.02v3.92h4.34v-3.92h4v3.92h4.43v-3.92c1.93-.07 3.45-1.42 3.52-3.13h4.42v-3.94h-4.42v-3.53h4.42v-3.93h-4.42v-3.53h4.42v-3.92h-4.42c-.07-1.75-1.6-3.1-3.52-3.17v-3.92zm2.83 25.13h-18.03c-.38 0-.7-.3-.7-.63v-16.04c0-.33.33-.62.7-.62h18.03c.37 0 .7.3.7.63v16.04c0 .33-.33.62-.7.62z" stroke="#000" stroke-opacity="0" fill="#4285f4"/><path d="M1385.34 3011.5v5.9h3.63l-6.48 8v-5.97h-3.85l6.7-7.94z" stroke="#000" stroke-opacity="0" fill="#4285f4"/><path d="M1383.54 2984.02h3.8a6 6 0 0 1 6 6v11.84" stroke="#3a414a" fill="none"/><path d="M1377.65 2984.02l12.9-7.63v15.26z" stroke="#3a414a" fill="#3a414a"/><path d="M1393.83 3002.36h-1v-.52h1z" stroke="#3a414a" stroke-width=".05" fill="#3a414a"/><g opacity=".4" stroke="#3a414a"><path d="M1308.18 2624.75a12.8 12.8 0 0 1 4.6-9.84l2.56-2.1a16.57 16.57 0 0 1 10.6-3.86h85.82a6 6 0 0 1 6 6v74.32a16.57 16.57 0 0 1-3.84 10.6l-2.12 2.56a12.8 12.8 0 0 1-9.84 4.6h-87.78a6 6 0 0 1-6-6z" fill="#fff"/><path d="M1314.18 2618.75a2.17 2.17 0 0 1-1.4-3.84l2.56-2.1a16.57 16.57 0 0 1 10.6-3.86h85.82a2.48 2.48 0 0 1 1.76 4.25l-1.32 1.3a14.48 14.48 0 0 1-10.24 4.25z" fill="#e6e6e6"/><path d="M1407.96 2624.75a14.48 14.48 0 0 1 4.24-10.24l1.32-1.3a2.48 2.48 0 0 1 4.24 1.75v74.3a16.57 16.57 0 0 1-3.84 10.62l-2.12 2.55a2.17 2.17 0 0 1-3.84-1.4z" fill="#ccc"/></g><path d="M1358.22 2659.4l2.36-4.1h11.28l3.47-6.08-6.97-12.16h-9.78l-3.38-6.08h-3.8v-4.1h6.2l3.37 6.1h5.06l-6.97-12.17h-13.65v16.26h5.55l2.33 4.03h-7.87v8.12h7.22l3.35-6.08h8.98l2.3 4.1h-8.94l-3.34 6.02h-9.55v14.26h10.87l-2.3 4.04h-8.56v6.08h13.65l10.48-18.24h-6.68l-2.33 4.03h-9.12v-4.03h6.82z" stroke="#000" stroke-opacity="0" fill="#4285f4"/><path d="M1328.52 2659.4l-2.34-4.1h-11.3l-3.48-6.08 6.96-12.16h9.83l3.38-6.08h3.8v-4.1h-6.2l-3.4 6.1h-5.08l7-12.17h13.68v16.26h-5.57l-2.3 4.03h7.88v8.12h-7.25l-3.36-6.08h-9l-2.27 4.1h8.93l3.36 6.02h9.6l-.02 14.26h-10.9l2.3 4.04h8.6v6.08h-13.67l-10.48-18.24h6.7l2.32 4.03h9.15v-4.03h-6.88z" stroke="#000" stroke-opacity="0" fill="#669df6"/><path d="M1327.45 2620.92l-16.05 27 18.6 29.6 29.35.12 15.98-26.94-18.67-29.9z" fill-opacity="0"/><path d="M1390 2668.24v3.93h-4v-3.93h-4.34v3.93h-4v-3.93h-4.42v3.93c-1.97.06-3.5 1.42-3.57 3.16h-4.4v3.93h4.4v3.53h-4.4v3.9l4.4.02v3.53h-4.4v3.92h4.4c.08 1.72 1.6 3.07 3.53 3.13l.04 3.93h4.4v-3.93h4.02v3.93h4.34v-3.93h4v3.93h4.43v-3.93c1.93-.06 3.45-1.4 3.52-3.13h4.42v-3.93h-4.42v-3.52h4.42v-3.93h-4.42v-3.54h4.42v-3.93h-4.42c-.07-1.74-1.6-3.1-3.52-3.16v-3.93zm2.83 25.14h-18.03c-.38 0-.7-.3-.7-.63v-16.03c0-.33.33-.63.7-.63h18.03c.37 0 .7.3.7.62v16.03c0 .33-.33.63-.7.63z" stroke="#000" stroke-opacity="0" fill="#4285f4"/><path d="M1385.34 2677.38v5.9h3.63l-6.48 8.02v-6h-3.85l6.7-7.92z" stroke="#000" stroke-opacity="0" fill="#4285f4"/><path d="M1382.2 2649.22h5.13a6 6 0 0 1 6 6v12.52" stroke="#3a414a" fill="none"/><path d="M1376.3 2649.22l12.92-7.63v15.26z" stroke="#3a414a" fill="#3a414a"/><path d="M1393.83 2668.24h-1v-.5h1z" stroke="#3a414a" stroke-width=".05" fill="#3a414a"/><path d="M820 2952.7c0 9.56 7.76 17.32 17.33 17.32h52c9.56 0 17.32-7.76 17.32-17.33v-426.26c0-9.57-7.76-17.33-17.33-17.33h-52c-9.56 0-17.32 7.77-17.32 17.34z" stroke="#fff" fill="#669df6"/><use xlink:href="#d" transform="matrix(6.123233995736766e-17,-1,1,6.123233995736766e-17,828,2962.019641377914) translate(61.882716049384385 28.388888888888964)"/><use xlink:href="#e" transform="matrix(6.123233995736766e-17,-1,1,6.123233995736766e-17,828,2962.019641377914) translate(126.27777777777878 28.388888888888964)"/><use xlink:href="#f" transform="matrix(6.123233995736766e-17,-1,1,6.123233995736766e-17,828,2962.019641377914) translate(196.84567901234595 28.388888888888964)"/><use xlink:href="#g" transform="matrix(6.123233995736766e-17,-1,1,6.123233995736766e-17,828,2962.019641377914) translate(304.2530864197522 28.388888888888964)"/><use xlink:href="#h" transform="matrix(6.123233995736766e-17,-1,1,6.123233995736766e-17,828,2962.019641377914) translate(377.2407407407391 28.388888888888964)"/><use xlink:href="#i" transform="matrix(6.123233995736766e-17,-1,1,6.123233995736766e-17,828,2962.019641377914) translate(49.11728395061911 49.72222222222207)"/><use xlink:href="#j" transform="matrix(6.123233995736766e-17,-1,1,6.123233995736766e-17,828,2962.019641377914) translate(54.05555555555733 49.72222222222207)"/><use xlink:href="#k" transform="matrix(6.123233995736766e-17,-1,1,6.123233995736766e-17,828,2962.019641377914) translate(136.96913580247005 49.72222222222207)"/><use xlink:href="#l" transform="matrix(6.123233995736766e-17,-1,1,6.123233995736766e-17,828,2962.019641377914) translate(212.91975308641986 49.72222222222207)"/><use xlink:href="#m" transform="matrix(6.123233995736766e-17,-1,1,6.123233995736766e-17,828,2962.019641377914) translate(235.5864197530863 49.72222222222207)"/><use xlink:href="#n" transform="matrix(6.123233995736766e-17,-1,1,6.123233995736766e-17,828,2962.019641377914) translate(304.2283950617275 49.72222222222207)"/><path d="M749.18 2722.82h61.33" stroke="#3a414a" stroke-width="2" fill="none"/><path d="M742.15 2722.82l12.9-7.64v15.27zM817.54 2722.82l-12.92 7.63v-15.27z" stroke="#3a414a" stroke-width="2" fill="#3a414a"/><path d="M960 2888.37c-.1 1.16.8 2.3 2.7 3.2l40.7 17.97c3.6 1.62 9.6 1.62 13.2 0l40.7-17.97c1.9-.9 2.8-2.04 2.7-3.2v-10.3c.1 1.12-.8 2.28-2.7 3.14l-40.7 17.97c-3.6 1.62-9.6 1.62-13.2 0l-40.7-17.96c-2.1-.95-3-2.24-2.6-3.46l-.1 10.63z" stroke="#000" stroke-opacity="0" fill="#ba141a"/><path d="M1057.3 2875.35c3.6 1.6 3.6 4.25 0 5.84l-40.7 18c-3.6 1.6-9.6 1.6-13.2 0l-40.7-18c-3.6-1.6-3.6-4.26 0-5.85l40.7-18c3.6-1.6 9.6-1.6 13.2 0l40.7 18z" stroke="#000" stroke-opacity="0" fill="#ba141a"/><path d="M960 2870.17c-.1 1.16.8 2.32 2.7 3.2l40.7 17.97c3.6 1.62 9.6 1.62 13.2 0l40.7-17.96c1.9-.9 2.8-2.05 2.7-3.2v-10.3c.1 1.1-.8 2.27-2.7 3.13l-40.7 17.97c-3.6 1.62-9.6 1.62-13.2 0L962.7 2863c-2.1-.95-3-2.24-2.6-3.46l-.1 10.63z" stroke="#000" stroke-opacity="0" fill="#ba141a"/><path d="M1057.3 2857.15c3.6 1.6 3.6 4.25 0 5.84l-40.7 18c-3.6 1.6-9.6 1.6-13.2 0l-40.7-18c-3.6-1.6-3.6-4.25 0-5.85l40.7-18c3.6-1.6 9.6-1.6 13.2 0l40.7 18z" stroke="#000" stroke-opacity="0" fill="#ba141a"/><path d="M960 2851.97c-.1 1.16.8 2.32 2.7 3.2l40.7 17.97c3.6 1.62 9.6 1.62 13.2 0l40.7-17.96c1.9-.9 2.8-2.05 2.7-3.2v-10.3c.1 1.12-.8 2.27-2.7 3.13l-40.7 17.97c-3.6 1.62-9.6 1.62-13.2 0l-40.7-17.96c-2.1-.95-3-2.24-2.6-3.46l-.1 10.63z" stroke="#000" stroke-opacity="0" fill="#ba141a"/><path d="M960 2888.37c-.1 1.16.8 2.3 2.7 3.2l40.7 17.97c3.6 1.62 9.6 1.62 13.2 0l40.7-17.97c1.9-.9 2.8-2.04 2.7-3.2v-10.3c.1 1.12-.8 2.28-2.7 3.14l-40.7 17.97c-3.6 1.62-9.6 1.62-13.2 0l-40.7-17.96c-2.1-.95-3-2.24-2.6-3.46l-.1 10.63z" stroke="#000" stroke-opacity="0" fill="#93171b"/><path d="M960 2870.17c-.1 1.16.8 2.32 2.7 3.2l40.7 17.97c3.6 1.62 9.6 1.62 13.2 0l40.7-17.96c1.9-.9 2.8-2.05 2.7-3.2v-10.3c.1 1.1-.8 2.27-2.7 3.13l-40.7 17.97c-3.6 1.62-9.6 1.62-13.2 0L962.7 2863c-2.1-.95-3-2.24-2.6-3.46l-.1 10.63z" stroke="#000" stroke-opacity="0" fill="#93171b"/><path d="M960 2851.97c-.1 1.16.8 2.32 2.7 3.2l40.7 17.97c3.6 1.62 9.6 1.62 13.2 0l40.7-17.96c1.9-.9 2.8-2.05 2.7-3.2v-10.3c.1 1.12-.8 2.27-2.7 3.13l-40.7 17.97c-3.6 1.62-9.6 1.62-13.2 0l-40.7-17.96c-2.1-.95-3-2.24-2.6-3.46l-.1 10.63z" stroke="#000" stroke-opacity="0" fill="#93171b"/><path d="M1057.3 2838.95c3.6 1.6 3.6 4.25 0 5.85l-40.7 18c-3.6 1.6-9.6 1.6-13.2 0l-40.7-18c-3.6-1.6-3.6-4.25 0-5.85l40.7-18c3.6-1.6 9.6-1.6 13.2 0l40.7 18z" stroke="#000" stroke-opacity="0" fill="#ba141a"/><path d="M997.5 2845.27c-4.66 2.22-12.17 2.22-16.82 0-4.63-2.24-4.63-5.84 0-8.08 4.65-2.23 12.16-2.23 16.8 0 4.64 2.23 4.64 5.83 0 8.07zM994.33 2851l23.8-3.06-6.38 11.43-17.42-8.37z" stroke="#000" stroke-opacity="0" fill="#fff"/><path d="M1031.62 2848.13l-14.23-6.84 14.22-6.84v13.67z" stroke="#000" stroke-opacity="0" fill="#76191c"/><path d="M1005.44 2832.93l-9.3-.9 8.27-2.24-1.08-4.54 7 3.08 8.62-1.9-3.95 4.15 6.4 3.35-9.4-.52-4.7 3.97-1.86-4.47z" stroke="#000" stroke-opacity="0" fill="#fff"/><path d="M1045.85 2841.3l-14.23-6.84v13.67l14.23-6.84z" fill="#93171b"/><use xlink:href="#o" transform="matrix(1,0,0,1,930,2919.762573109393) translate(16.512345679012334 17.77777777777778)"/><path d="M1010 2813.05v-67.5a6 6 0 0 0-6-6h-89.97" stroke="#3a414a" fill="none"/><path d="M1010 2818.94l-7.64-12.9h15.28zM908.14 2739.57l12.9-7.64v15.27z" stroke="#3a414a" fill="#3a414a"/><path d="M1030.9 2583.93h-52.44a6 6 0 0 0-6 6v21.4a6 6 0 0 1-6 6h-52.43" stroke="#3a414a" fill="none"/><path d="M1036.78 2583.93l-12.9 7.64v-15.28zM908.14 2617.32l12.9-7.63v15.26z" stroke="#3a414a" fill="#3a414a"/><path d="M1103.54 2589.93l26.15 14.9v5.6l-28.4-16.13 2.24-4.37z" stroke="#000" stroke-opacity="0" fill="#4285f4"/><path d="M1076.5 2593.27l-29.98 17.05-1.85-4.53 29.24-16.66 2.6 4.13z" stroke="#000" stroke-opacity="0" fill="#669df6"/><path d="M1085.6 2534.6h4.94v32.74h-4.95v-32.73z" stroke="#000" stroke-opacity="0" fill="#aecbfa"/><path d="M1037.76 2555.62v56.63l50.35 28.3 50.35-28.3v-56.63l-50.34-28.32zm90.02 50.4L1088.1 2628l-39.56-21.98v-44.06l39.57-22.1 39.58 22.1v44.06z" stroke="#000" stroke-opacity="0" fill="#aecbfa"/><path d="M1088 2581l22.96-12.96-22.95-13-22.85 13L1088 2581z" stroke="#000" stroke-opacity="0" fill="#aecbfa"/><path d="M1085.4 2585.58l-22.26-12.97v26l22.25 12.97v-26z" stroke="#000" stroke-opacity="0" fill="#669df6"/><path d="M1090.93 2585.58v26l22.25-13v-25.97l-22.25 12.98z" stroke="#000" stroke-opacity="0" fill="#4285f4"/><use xlink:href="#p" transform="matrix(1,0,0,1,1037.7644103059101,2645.559091303627) translate(21.88271604938273 14.222222222222218)"/><use xlink:href="#q" transform="matrix(1,0,0,1,1037.7644103059101,2645.559091303627) translate(5.0925925925926165 35.55555555555554)"/><use xlink:href="#r" transform="matrix(1,0,0,1,1037.7644103059101,2645.559091303627) translate(22.870370370370384 56.88888888888887)"/><path d="M1138.95 2583.93h78.1a6 6 0 0 1 6 6V2652a6 6 0 0 0 6 6h71.75" stroke="#4c535d" fill="none"/><path d="M1138.96 2584.43h-.5v-1h.5z" stroke="#4c535d" stroke-width=".05" fill="#4c535d"/><path d="M1306.7 2658l-12.92 7.62v-15.27z" stroke="#4c535d" fill="#4c535d"/><path d="M1138.95 2583.93h78.1a6 6 0 0 1 6 6v287.73a6 6 0 0 0 6 6h71.75" stroke="#4c535d" fill="none"/><path d="M1138.96 2584.43h-.5v-1h.5z" stroke="#4c535d" stroke-width=".05" fill="#4c535d"/><path d="M1306.7 2883.66l-12.92 7.64v-15.27z" stroke="#4c535d" fill="#4c535d"/><path d="M1138.95 2583.93h78.1a6 6 0 0 1 6 6v396.17a6 6 0 0 0 6 6h71.75" stroke="#4c535d" fill="none"/><path d="M1138.96 2584.43h-.5v-1h.5z" stroke="#4c535d" stroke-width=".05" fill="#4c535d"/><path d="M1306.7 2992.1l-12.92 7.64v-15.27z" stroke="#4c535d" fill="#4c535d"/><path d="M1138.95 2583.93h78.1a6 6 0 0 1 6 6v174.78a6 6 0 0 0 6 6h71.75" stroke="#4c535d" fill="none"/><path d="M1138.96 2584.43h-.5v-1h.5z" stroke="#4c535d" stroke-width=".05" fill="#4c535d"/><path d="M1306.7 2770.7l-12.92 7.64v-15.27z" stroke="#4c535d" fill="#4c535d"/><path d="M1520 2626.8a6 6 0 0 1 6-6h108a6 6 0 0 1 6 6v389.92a6 6 0 0 1-6 6h-108a6 6 0 0 1-6-6z" fill="none"/><path d="M1520 3022.72c5.52 0 10-4.47 10-10v-180.95c0-5.53 4.48-10 10-10-5.52 0-10-4.48-10-10V2630.8c0-5.52-4.48-10-10-10" stroke="#4c535d" fill="none"/><path d="M1428.83 2658h34.28a6 6 0 0 0 6-6v-24.9a6 6 0 0 1 6-6h44.6" stroke="#4c535d" stroke-width=".5" fill="none"/><path d="M1418.76 2658l12.9-7.65v15.27z" stroke="#4c535d" stroke-width=".5" fill="#fff"/><path d="M1519.93 2621.3l.28.04h-.5v-.5h.3z" stroke="#4c535d" stroke-width=".05" fill="#4c535d"/><path d="M1418.76 2770.7h50.14a6 6 0 0 1 6 6v39.07a6 6 0 0 0 6 6h50.13" stroke="#4c535d" fill="none"/><path d="M1418.78 2771.2h-.52v-1h.52z" stroke="#4c535d" stroke-width=".05" fill="#4c535d"/><path d="M1531.02 2821.76h3.5M1418.76 2884.93h50.14a6 6 0 0 0 6-6v-51.16a6 6 0 0 1 6-6h50.13" stroke="#4c535d" fill="none"/><path d="M1418.78 2885.43h-.52v-1h.52z" stroke="#4c535d" stroke-width=".05" fill="#4c535d"/><path d="M1531.02 2821.76h3.5M1418.76 2992.1h44.4a6 6 0 0 1 6 6v19.12a6 6 0 0 0 6 6h44.42" stroke="#4c535d" fill="none"/><path d="M1418.78 2992.6h-.52v-1h.52zM1520.08 3023.22l3-.5v1h-3.5v-1h.42z" stroke="#4c535d" stroke-width=".05" fill="#4c535d"/><path d="M1540 2771.53h128v44.68h-128v-44.67z" stroke="#000" stroke-opacity="0" fill="#aecbfa"/><path d="M1655.2 2771.53h12.8v44.68h-12.8v-44.67z" stroke="#000" stroke-opacity="0" fill="#669df6"/><path d="M1668 2771.53h-12.8v44.68l12.8-44.67z" stroke="#000" stroke-opacity="0" fill="#4285f4"/><path d="M1540 2771.53h12.8v44.68H1540v-44.67z" stroke="#000" stroke-opacity="0" fill="#669df6"/><path d="M1565.6 2790.7h38.4v6.38h-38.4v-6.37zM1632.8 2784.28c6.4 0 9.6 3.2 9.6 9.6 0 6.37-3.2 9.58-9.6 9.58-6.4 0-9.6-3.2-9.6-9.6 0-6.38 3.2-9.58 9.6-9.58z" stroke="#000" stroke-opacity="0" fill="#fff"/><path d="M1540 2828.96h128v44.67h-128v-44.67z" stroke="#000" stroke-opacity="0" fill="#aecbfa"/><path d="M1655.2 2828.96h12.8v44.67h-12.8v-44.67z" stroke="#000" stroke-opacity="0" fill="#669df6"/><path d="M1668 2828.96h-12.8v44.67l12.8-44.67z" stroke="#000" stroke-opacity="0" fill="#4285f4"/><path d="M1540 2828.96h12.8v44.67H1540v-44.67z" stroke="#000" stroke-opacity="0" fill="#669df6"/><path d="M1565.6 2848.03h38.4v6.38h-38.4v-6.37zM1632.8 2841.7c6.4 0 9.6 3.2 9.6 9.6 0 6.38-3.2 9.58-9.6 9.58-6.4 0-9.6-3.2-9.6-9.6 0-6.37 3.2-9.57 9.6-9.57z" stroke="#000" stroke-opacity="0" fill="#fff"/><path d="M1541.28 2772.55v99.96h125.44v-99.95z" stroke="#000" stroke-opacity="0" fill-opacity="0"/><g><use xlink:href="#s" transform="matrix(1,0,0,1,1540,2878.5296639630237) translate(0.19444444444446418 15.999999999999995)"/><use xlink:href="#t" transform="matrix(1,0,0,1,1540,2878.5296639630237) translate(57.86111111111111 15.999999999999995)"/></g><defs><path fill="#3a414a" d="M212-179c-10-28-35-45-73-45-59 0-87 40-87 99 0 60 29 101 89 101 43 0 62-24 78-52l27 14C228-24 195 4 139 4 59 4 22-46 18-125c-6-104 99-153 187-111 19 9 31 26 39 46" id="u"/><path fill="#3a414a" d="M24 0v-261h32V0H24" id="v"/><path fill="#3a414a" d="M100-194c62-1 85 37 85 99 1 63-27 99-86 99S16-35 15-95c0-66 28-99 85-99zM99-20c44 1 53-31 53-75 0-43-8-75-51-75s-53 32-53 75 10 74 51 75" id="w"/><path fill="#3a414a" d="M84 4C-5 8 30-112 23-190h32v120c0 31 7 50 39 49 72-2 45-101 50-169h31l1 190h-30c-1-10 1-25-2-33-11 22-28 36-60 37" id="x"/><path fill="#3a414a" d="M85-194c31 0 48 13 60 33l-1-100h32l1 261h-30c-2-10 0-23-3-31C134-8 116 4 85 4 32 4 16-35 15-94c0-66 23-100 70-100zm9 24c-40 0-46 34-46 75 0 40 6 74 45 74 42 0 51-32 51-76 0-42-9-74-50-73" id="y"/><g id="a"><use transform="matrix(0.049382716049382706,0,0,0.049382716049382706,0,0)" xlink:href="#u"/><use transform="matrix(0.049382716049382706,0,0,0.049382716049382706,12.790123456790122,0)" xlink:href="#v"/><use transform="matrix(0.049382716049382706,0,0,0.049382716049382706,16.691358024691354,0)" xlink:href="#w"/><use transform="matrix(0.049382716049382706,0,0,0.049382716049382706,26.567901234567895,0)" xlink:href="#x"/><use transform="matrix(0.049382716049382706,0,0,0.049382716049382706,36.444444444444436,0)" xlink:href="#y"/></g><path fill="#3a414a" d="M205 0l-28-72H64L36 0H1l101-248h38L239 0h-34zm-38-99l-47-123c-12 45-31 82-46 123h93" id="z"/><path fill="#3a414a" d="M30-248c87 1 191-15 191 75 0 78-77 80-158 76V0H30v-248zm33 125c57 0 124 11 124-50 0-59-68-47-124-48v98" id="A"/><path fill="#3a414a" d="M33 0v-248h34V0H33" id="B"/><g id="b"><use transform="matrix(0.049382716049382706,0,0,0.049382716049382706,0,0)" xlink:href="#z"/><use transform="matrix(0.049382716049382706,0,0,0.049382716049382706,11.85185185185185,0)" xlink:href="#A"/><use transform="matrix(0.049382716049382706,0,0,0.049382716049382706,23.7037037037037,0)" xlink:href="#B"/></g><path fill="#3a414a" d="M143 4C61 4 22-44 18-125c-5-107 100-154 193-111 17 8 29 25 37 43l-32 9c-13-25-37-40-76-40-61 0-88 39-88 99 0 61 29 100 91 101 35 0 62-11 79-27v-45h-74v-28h105v86C228-13 192 4 143 4" id="C"/><path fill="#3a414a" d="M141-36C126-15 110 5 73 4 37 3 15-17 15-53c-1-64 63-63 125-63 3-35-9-54-41-54-24 1-41 7-42 31l-33-3c5-37 33-52 76-52 45 0 72 20 72 64v82c-1 20 7 32 28 27v20c-31 9-61-2-59-35zM48-53c0 20 12 33 32 33 41-3 63-29 60-74-43 2-92-5-92 41" id="D"/><path fill="#3a414a" d="M59-47c-2 24 18 29 38 22v24C64 9 27 4 27-40v-127H5v-23h24l9-43h21v43h35v23H59v120" id="E"/><path fill="#3a414a" d="M100-194c63 0 86 42 84 106H49c0 40 14 67 53 68 26 1 43-12 49-29l28 8c-11 28-37 45-77 45C44 4 14-33 15-96c1-61 26-98 85-98zm52 81c6-60-76-77-97-28-3 7-6 17-6 28h103" id="F"/><path fill="#3a414a" d="M206 0h-36l-40-164L89 0H53L-1-190h32L70-26l43-164h34l41 164 42-164h31" id="G"/><path fill="#3a414a" d="M179-190L93 31C79 59 56 82 12 73V49c39 6 53-20 64-50L1-190h34L92-34l54-156h33" id="H"/><g id="c"><use transform="matrix(0.049382716049382706,0,0,0.049382716049382706,0,0)" xlink:href="#C"/><use transform="matrix(0.049382716049382706,0,0,0.049382716049382706,13.827160493827158,0)" xlink:href="#D"/><use transform="matrix(0.049382716049382706,0,0,0.049382716049382706,23.7037037037037,0)" xlink:href="#E"/><use transform="matrix(0.049382716049382706,0,0,0.049382716049382706,28.64197530864197,0)" xlink:href="#F"/><use transform="matrix(0.049382716049382706,0,0,0.049382716049382706,38.518518518518505,0)" xlink:href="#G"/><use transform="matrix(0.049382716049382706,0,0,0.049382716049382706,51.30864197530862,0)" xlink:href="#D"/><use transform="matrix(0.049382716049382706,0,0,0.049382716049382706,61.18518518518516,0)" xlink:href="#H"/></g><path fill="#333" d="M175 0L67-191c6 58 2 128 3 191H24v-248h59L193-55c-6-58-2-129-3-193h46V0h-61" id="I"/><path fill="#333" d="M147 0H94L2-248h55l64 206c17-72 42-137 63-206h54" id="J"/><path fill="#333" d="M24 0v-248h52V0H24" id="K"/><path fill="#333" d="M24-248c120-7 223 5 221 122C244-46 201 0 124 0H24v-248zM76-40c74 7 117-18 117-86 0-67-45-88-117-82v168" id="L"/><path fill="#333" d="M199 0l-22-63H83L61 0H9l90-248h61L250 0h-51zm-33-102l-36-108c-10 38-24 72-36 108h72" id="M"/><g id="d"><use transform="matrix(0.04938271604938219,0,0,0.04938271604938219,0,0)" xlink:href="#I"/><use transform="matrix(0.04938271604938219,0,0,0.04938271604938219,12.790123456789988,0)" xlink:href="#J"/><use transform="matrix(0.04938271604938219,0,0,0.04938271604938219,24.641975308641715,0)" xlink:href="#K"/><use transform="matrix(0.04938271604938219,0,0,0.04938271604938219,29.580246913579934,0)" xlink:href="#L"/><use transform="matrix(0.04938271604938219,0,0,0.04938271604938219,42.370370370369926,0)" xlink:href="#K"/><use transform="matrix(0.04938271604938219,0,0,0.04938271604938219,47.30864197530815,0)" xlink:href="#M"/></g><path fill="#333" d="M136-208V0H84v-208H4v-40h212v40h-80" id="N"/><path fill="#333" d="M240-174c0 40-23 61-54 70L253 0h-59l-57-94H76V0H24v-248c93 4 217-23 216 74zM76-134c48-2 112 12 112-38 0-48-66-32-112-35v73" id="O"/><path fill="#333" d="M140-251c80 0 125 45 125 126S219 4 139 4C58 4 15-44 15-125s44-126 125-126zm-1 214c52 0 73-35 73-88 0-50-21-86-72-86-52 0-73 35-73 86s22 88 72 88" id="P"/><g id="e"><use transform="matrix(0.04938271604938219,0,0,0.04938271604938219,0,0)" xlink:href="#N"/><use transform="matrix(0.04938271604938219,0,0,0.04938271604938219,10.8148148148147,0)" xlink:href="#O"/><use transform="matrix(0.04938271604938219,0,0,0.04938271604938219,23.604938271604688,0)" xlink:href="#K"/><use transform="matrix(0.04938271604938219,0,0,0.04938271604938219,28.543209876542907,0)" xlink:href="#N"/><use transform="matrix(0.04938271604938219,0,0,0.04938271604938219,39.01234567901193,0)" xlink:href="#P"/><use transform="matrix(0.04938271604938219,0,0,0.04938271604938219,52.839506172838945,0)" xlink:href="#I"/></g><path fill="#333" d="M76-208v77h127v40H76V0H24v-248h183v40H76" id="Q"/><path fill="#333" d="M24 0v-248h195v40H76v63h132v40H76v65h150V0H24" id="R"/><path fill="#333" d="M67-125c0 53 21 87 73 88 37 1 54-22 65-47l45 17C233-25 199 4 140 4 58 4 20-42 15-125 8-235 124-281 211-232c18 10 29 29 36 50l-46 12c-8-25-30-41-62-41-52 0-71 34-72 86" id="S"/><g id="f"><use transform="matrix(0.04938271604938219,0,0,0.04938271604938219,0,0)" xlink:href="#K"/><use transform="matrix(0.04938271604938219,0,0,0.04938271604938219,4.938271604938219,0)" xlink:href="#I"/><use transform="matrix(0.04938271604938219,0,0,0.04938271604938219,17.728395061728207,0)" xlink:href="#Q"/><use transform="matrix(0.04938271604938219,0,0,0.04938271604938219,28.543209876542907,0)" xlink:href="#R"/><use transform="matrix(0.04938271604938219,0,0,0.04938271604938219,40.39506172839464,0)" xlink:href="#O"/><use transform="matrix(0.04938271604938219,0,0,0.04938271604938219,53.18518518518462,0)" xlink:href="#R"/><use transform="matrix(0.04938271604938219,0,0,0.04938271604938219,65.03703703703636,0)" xlink:href="#I"/><use transform="matrix(0.04938271604938219,0,0,0.04938271604938219,77.82716049382634,0)" xlink:href="#S"/><use transform="matrix(0.04938271604938219,0,0,0.04938271604938219,90.61728395061633,0)" xlink:href="#R"/></g><path fill="#333" d="M67-125c0 54 23 88 75 88 28 0 53-7 68-21v-34h-60v-39h108v91C232-14 192 4 140 4 58 4 20-42 15-125 8-236 126-280 215-234c19 10 29 26 37 47l-47 15c-11-23-29-39-63-39-53 1-75 33-75 86" id="T"/><g id="g"><use transform="matrix(0.04938271604938219,0,0,0.04938271604938219,0,0)" xlink:href="#R"/><use transform="matrix(0.04938271604938219,0,0,0.04938271604938219,11.851851851851727,0)" xlink:href="#I"/><use transform="matrix(0.04938271604938219,0,0,0.04938271604938219,24.641975308641715,0)" xlink:href="#T"/><use transform="matrix(0.04938271604938219,0,0,0.04938271604938219,38.46913580246873,0)" xlink:href="#K"/><use transform="matrix(0.04938271604938219,0,0,0.04938271604938219,43.40740740740695,0)" xlink:href="#I"/><use transform="matrix(0.04938271604938219,0,0,0.04938271604938219,56.197530864196935,0)" xlink:href="#R"/></g><path fill="#333" d="M14-72v-43h91v43H14" id="U"/><use transform="matrix(0.04938271604938219,0,0,0.04938271604938219,0,0)" xlink:href="#U" id="h"/><path fill="#333" d="M24 0v-248h52v208h133V0H24" id="V"/><g id="j"><use transform="matrix(0.04938271604938219,0,0,0.04938271604938219,0,0)" xlink:href="#T"/><use transform="matrix(0.04938271604938219,0,0,0.04938271604938219,13.827160493827014,0)" xlink:href="#P"/><use transform="matrix(0.04938271604938219,0,0,0.04938271604938219,27.654320987654028,0)" xlink:href="#P"/><use transform="matrix(0.04938271604938219,0,0,0.04938271604938219,41.48148148148104,0)" xlink:href="#T"/><use transform="matrix(0.04938271604938219,0,0,0.04938271604938219,55.308641975308056,0)" xlink:href="#V"/><use transform="matrix(0.04938271604938219,0,0,0.04938271604938219,66.12345679012276,0)" xlink:href="#R"/></g><path fill="#333" d="M182 0l-62-99L58 0H3l86-130-79-118h55l55 88 55-88h55l-75 118L237 0h-55" id="W"/><g id="k"><use transform="matrix(0.04938271604938219,0,0,0.04938271604938219,0,0)" xlink:href="#J"/><use transform="matrix(0.04938271604938219,0,0,0.04938271604938219,11.851851851851727,0)" xlink:href="#R"/><use transform="matrix(0.04938271604938219,0,0,0.04938271604938219,23.703703703703454,0)" xlink:href="#O"/><use transform="matrix(0.04938271604938219,0,0,0.04938271604938219,36.49382716049344,0)" xlink:href="#N"/><use transform="matrix(0.04938271604938219,0,0,0.04938271604938219,47.308641975308134,0)" xlink:href="#R"/><use transform="matrix(0.04938271604938219,0,0,0.04938271604938219,59.160493827159854,0)" xlink:href="#W"/></g><g id="l"><use transform="matrix(0.04938271604938219,0,0,0.04938271604938219,0,0)" xlink:href="#M"/><use transform="matrix(0.04938271604938219,0,0,0.04938271604938219,12.790123456789988,0)" xlink:href="#K"/></g><path fill="#333" d="M230 0l2-204L168 0h-37L68-204 70 0H24v-248h70l56 185 57-185h69V0h-46" id="X"/><g id="m"><use transform="matrix(0.04938271604938219,0,0,0.04938271604938219,0,0)" xlink:href="#X"/><use transform="matrix(0.04938271604938219,0,0,0.04938271604938219,14.765432098765276,0)" xlink:href="#P"/><use transform="matrix(0.04938271604938219,0,0,0.04938271604938219,28.59259259259229,0)" xlink:href="#L"/><use transform="matrix(0.04938271604938219,0,0,0.04938271604938219,41.38271604938228,0)" xlink:href="#R"/><use transform="matrix(0.04938271604938219,0,0,0.04938271604938219,53.234567901234,0)" xlink:href="#V"/></g><path fill="#333" d="M24-248c93 1 206-16 204 79-1 75-69 88-152 82V0H24v-248zm52 121c47 0 100 7 100-41 0-47-54-39-100-39v80" id="Y"/><g id="n"><use transform="matrix(0.04938271604938219,0,0,0.04938271604938219,0,0)" xlink:href="#R"/><use transform="matrix(0.04938271604938219,0,0,0.04938271604938219,11.851851851851727,0)" xlink:href="#I"/><use transform="matrix(0.04938271604938219,0,0,0.04938271604938219,24.641975308641715,0)" xlink:href="#L"/><use transform="matrix(0.04938271604938219,0,0,0.04938271604938219,37.432098765431704,0)" xlink:href="#Y"/><use transform="matrix(0.04938271604938219,0,0,0.04938271604938219,49.28395061728343,0)" xlink:href="#P"/><use transform="matrix(0.04938271604938219,0,0,0.04938271604938219,63.11111111111044,0)" xlink:href="#K"/><use transform="matrix(0.04938271604938219,0,0,0.04938271604938219,68.04938271604867,0)" xlink:href="#I"/><use transform="matrix(0.04938271604938219,0,0,0.04938271604938219,80.83950617283865,0)" xlink:href="#N"/></g><path d="M233-177c-1 41-23 64-60 70L243 0h-38l-65-103H63V0H30v-248c88 3 205-21 203 71zM63-129c60-2 137 13 137-47 0-61-80-42-137-45v92" id="Z"/><path d="M100-194c63 0 86 42 84 106H49c0 40 14 67 53 68 26 1 43-12 49-29l28 8c-11 28-37 45-77 45C44 4 14-33 15-96c1-61 26-98 85-98zm52 81c6-60-76-77-97-28-3 7-6 17-6 28h103" id="aa"/><path d="M85-194c31 0 48 13 60 33l-1-100h32l1 261h-30c-2-10 0-23-3-31C134-8 116 4 85 4 32 4 16-35 15-94c0-66 23-100 70-100zm9 24c-40 0-46 34-46 75 0 40 6 74 45 74 42 0 51-32 51-76 0-42-9-74-50-73" id="ab"/><path d="M24-231v-30h32v30H24zM24 0v-190h32V0H24" id="ac"/><path d="M135-143c-3-34-86-38-87 0 15 53 115 12 119 90S17 21 10-45l28-5c4 36 97 45 98 0-10-56-113-15-118-90-4-57 82-63 122-42 12 7 21 19 24 35" id="ad"/><path d="M0 4l72-265h28L28 4H0" id="ae"/><path d="M212-179c-10-28-35-45-73-45-59 0-87 40-87 99 0 60 29 101 89 101 43 0 62-24 78-52l27 14C228-24 195 4 139 4 59 4 22-46 18-125c-6-104 99-153 187-111 19 9 31 26 39 46" id="af"/><path d="M141-36C126-15 110 5 73 4 37 3 15-17 15-53c-1-64 63-63 125-63 3-35-9-54-41-54-24 1-41 7-42 31l-33-3c5-37 33-52 76-52 45 0 72 20 72 64v82c-1 20 7 32 28 27v20c-31 9-61-2-59-35zM48-53c0 20 12 33 32 33 41-3 63-29 60-74-43 2-92-5-92 41" id="ag"/><path d="M96-169c-40 0-48 33-48 73s9 75 48 75c24 0 41-14 43-38l32 2c-6 37-31 61-74 61-59 0-76-41-82-99-10-93 101-131 147-64 4 7 5 14 7 22l-32 3c-4-21-16-35-41-35" id="ah"/><path d="M106-169C34-169 62-67 57 0H25v-261h32l-1 103c12-21 28-36 61-36 89 0 53 116 60 194h-32v-121c2-32-8-49-39-48" id="ai"/><g id="o"><use transform="matrix(0.06172839506172839,0,0,0.06172839506172839,0,0)" xlink:href="#Z"/><use transform="matrix(0.06172839506172839,0,0,0.06172839506172839,15.987654320987653,0)" xlink:href="#aa"/><use transform="matrix(0.06172839506172839,0,0,0.06172839506172839,28.333333333333332,0)" xlink:href="#ab"/><use transform="matrix(0.06172839506172839,0,0,0.06172839506172839,40.67901234567901,0)" xlink:href="#ac"/><use transform="matrix(0.06172839506172839,0,0,0.06172839506172839,45.55555555555556,0)" xlink:href="#ad"/><use transform="matrix(0.06172839506172839,0,0,0.06172839506172839,56.66666666666667,0)" xlink:href="#ae"/><use transform="matrix(0.06172839506172839,0,0,0.06172839506172839,62.83950617283951,0)" xlink:href="#af"/><use transform="matrix(0.06172839506172839,0,0,0.06172839506172839,78.82716049382717,0)" xlink:href="#ag"/><use transform="matrix(0.06172839506172839,0,0,0.06172839506172839,91.17283950617285,0)" xlink:href="#ah"/><use transform="matrix(0.06172839506172839,0,0,0.06172839506172839,102.28395061728396,0)" xlink:href="#ai"/><use transform="matrix(0.06172839506172839,0,0,0.06172839506172839,114.62962962962965,0)" xlink:href="#aa"/></g><path fill="#3a414a" d="M177-190C167-65 218 103 67 71c-23-6-38-20-44-43l32-5c15 47 100 32 89-28v-30C133-14 115 1 83 1 29 1 15-40 15-95c0-56 16-97 71-98 29-1 48 16 59 35 1-10 0-23 2-32h30zM94-22c36 0 50-32 50-73 0-42-14-75-50-75-39 0-46 34-46 75s6 73 46 73" id="aj"/><g id="p"><use transform="matrix(0.0493827160493827,0,0,0.0493827160493827,0,0)" xlink:href="#C"/><use transform="matrix(0.0493827160493827,0,0,0.0493827160493827,13.827160493827156,0)" xlink:href="#w"/><use transform="matrix(0.0493827160493827,0,0,0.0493827160493827,23.703703703703695,0)" xlink:href="#w"/><use transform="matrix(0.0493827160493827,0,0,0.0493827160493827,33.58024691358023,0)" xlink:href="#aj"/><use transform="matrix(0.0493827160493827,0,0,0.0493827160493827,43.45679012345677,0)" xlink:href="#v"/><use transform="matrix(0.0493827160493827,0,0,0.0493827160493827,47.358024691358004,0)" xlink:href="#F"/></g><path fill="#3a414a" d="M194 0L95-120 63-95V0H30v-248h33v124l119-124h40L117-140 236 0h-42" id="ak"/><path fill="#3a414a" d="M115-194c53 0 69 39 70 98 0 66-23 100-70 100C84 3 66-7 56-30L54 0H23l1-261h32v101c10-23 28-34 59-34zm-8 174c40 0 45-34 45-75 0-40-5-75-45-74-42 0-51 32-51 76 0 43 10 73 51 73" id="al"/><path fill="#3a414a" d="M114-163C36-179 61-72 57 0H25l-1-190h30c1 12-1 29 2 39 6-27 23-49 58-41v29" id="am"/><path fill="#3a414a" d="M117-194c89-4 53 116 60 194h-32v-121c0-31-8-49-39-48C34-167 62-67 57 0H25l-1-190h30c1 10-1 24 2 32 11-22 29-35 61-36" id="an"/><path fill="#3a414a" d="M135-143c-3-34-86-38-87 0 15 53 115 12 119 90S17 21 10-45l28-5c4 36 97 45 98 0-10-56-113-15-118-90-4-57 82-63 122-42 12 7 21 19 24 35" id="ao"/><g id="q"><use transform="matrix(0.0493827160493827,0,0,0.0493827160493827,0,0)" xlink:href="#ak"/><use transform="matrix(0.0493827160493827,0,0,0.0493827160493827,11.851851851851848,0)" xlink:href="#x"/><use transform="matrix(0.0493827160493827,0,0,0.0493827160493827,21.728395061728385,0)" xlink:href="#al"/><use transform="matrix(0.0493827160493827,0,0,0.0493827160493827,31.604938271604922,0)" xlink:href="#F"/><use transform="matrix(0.0493827160493827,0,0,0.0493827160493827,41.48148148148146,0)" xlink:href="#am"/><use transform="matrix(0.0493827160493827,0,0,0.0493827160493827,47.358024691358,0)" xlink:href="#an"/><use transform="matrix(0.0493827160493827,0,0,0.0493827160493827,57.234567901234534,0)" xlink:href="#F"/><use transform="matrix(0.0493827160493827,0,0,0.0493827160493827,67.11111111111107,0)" xlink:href="#E"/><use transform="matrix(0.0493827160493827,0,0,0.0493827160493827,72.04938271604934,0)" xlink:href="#F"/><use transform="matrix(0.0493827160493827,0,0,0.0493827160493827,81.92592592592588,0)" xlink:href="#ao"/></g><path fill="#3a414a" d="M30 0v-248h187v28H63v79h144v27H63v87h162V0H30" id="ap"/><path fill="#3a414a" d="M24-231v-30h32v30H24zM24 0v-190h32V0H24" id="aq"/><g id="r"><use transform="matrix(0.0493827160493827,0,0,0.0493827160493827,0,0)" xlink:href="#ap"/><use transform="matrix(0.0493827160493827,0,0,0.0493827160493827,11.851851851851848,0)" xlink:href="#an"/><use transform="matrix(0.0493827160493827,0,0,0.0493827160493827,21.728395061728385,0)" xlink:href="#aj"/><use transform="matrix(0.0493827160493827,0,0,0.0493827160493827,31.604938271604922,0)" xlink:href="#aq"/><use transform="matrix(0.0493827160493827,0,0,0.0493827160493827,35.506172839506156,0)" xlink:href="#an"/><use transform="matrix(0.0493827160493827,0,0,0.0493827160493827,45.382716049382694,0)" xlink:href="#F"/></g><g id="s"><use transform="matrix(0.05555555555555554,0,0,0.05555555555555554,0,0)" xlink:href="#u"/><use transform="matrix(0.05555555555555554,0,0,0.05555555555555554,14.388888888888884,0)" xlink:href="#v"/><use transform="matrix(0.05555555555555554,0,0,0.05555555555555554,18.77777777777777,0)" xlink:href="#w"/><use transform="matrix(0.05555555555555554,0,0,0.05555555555555554,29.88888888888888,0)" xlink:href="#x"/><use transform="matrix(0.05555555555555554,0,0,0.05555555555555554,40.999999999999986,0)" xlink:href="#y"/></g><path fill="#3a414a" d="M185-189c-5-48-123-54-124 2 14 75 158 14 163 119 3 78-121 87-175 55-17-10-28-26-33-46l33-7c5 56 141 63 141-1 0-78-155-14-162-118-5-82 145-84 179-34 5 7 8 16 11 25" id="ar"/><g id="t"><use transform="matrix(0.05555555555555554,0,0,0.05555555555555554,0,0)" xlink:href="#ar"/><use transform="matrix(0.05555555555555554,0,0,0.05555555555555554,13.333333333333329,0)" xlink:href="#E"/><use transform="matrix(0.05555555555555554,0,0,0.05555555555555554,18.888888888888882,0)" xlink:href="#w"/><use transform="matrix(0.05555555555555554,0,0,0.05555555555555554,29.99999999999999,0)" xlink:href="#am"/><use transform="matrix(0.05555555555555554,0,0,0.05555555555555554,36.6111111111111,0)" xlink:href="#D"/><use transform="matrix(0.05555555555555554,0,0,0.05555555555555554,47.72222222222221,0)" xlink:href="#aj"/><use transform="matrix(0.05555555555555554,0,0,0.05555555555555554,58.833333333333314,0)" xlink:href="#F"/></g></defs></g></svg>