<svg xmlns="http://www.w3.org/2000/svg" xmlns:xlink="http://www.w3.org/1999/xlink" xmlns:lucid="lucid" width="1361" height="680.82"><g transform="translate(-859.4999999970582 -1139.4999999985425)" lucid:page-tab-id="0_0"><path d="M860 1146a6 6 0 0 1 6-6h1348a6 6 0 0 1 6 6v667.82a6 6 0 0 1-6 6H866a6 6 0 0 1-6-6z" stroke="#6f7681" fill="#edf5ff" fill-opacity=".58"/><path d="M1791.48 1470.8a5 5 0 0 1 5-5h314.5a5 5 0 0 1 5 5v160a5 5 0 0 1-5 5h-314.5a5 5 0 0 1-5-5z" fill="#fff"/><path d="M1791.48 1531.8v27h324.5v-27M1791.48 1583.8v27h324.5v-27" fill="#e6e6e6"/><path d="M1791.48 1505.8v-35a5 5 0 0 1 5-5h314.5a5 5 0 0 1 5 5v35" fill="#dedeff"/><path d="M1791.48 1470.8a5 5 0 0 1 5-5h314.5a5 5 0 0 1 5 5v160a5 5 0 0 1-5 5h-314.5a5 5 0 0 1-5-5zM1791.48 1505.8h324.5M1985.8 1505.8v130" stroke="#282c33" fill="none"/><use xlink:href="#a" transform="matrix(1,0,0,1,1801.4767525993332,1465.8143264230343) translate(0 22.711111111111112)"/><use xlink:href="#b" transform="matrix(1,0,0,1,1796.4767525993332,1508.3143264230343) translate(0 13.211111111111112)"/><use xlink:href="#c" transform="matrix(1,0,0,1,1990.806456614224,1508.3143264230343) translate(0 13.211111111111112)"/><use xlink:href="#d" transform="matrix(1,0,0,1,1796.4767525993332,1534.3143264230343) translate(0 13.211111111111112)"/><use xlink:href="#e" transform="matrix(1,0,0,1,1990.806456614224,1534.3143264230343) translate(0 13.211111111111112)"/><use xlink:href="#f" transform="matrix(1,0,0,1,1796.4767525993332,1560.3143264230343) translate(0 13.211111111111112)"/><use xlink:href="#g" transform="matrix(1,0,0,1,1990.806456614224,1560.3143264230343) translate(0 13.211111111111112)"/><use xlink:href="#h" transform="matrix(1,0,0,1,1796.4767525993332,1586.3143264230343) translate(0 13.211111111111112)"/><use xlink:href="#i" transform="matrix(1,0,0,1,1990.806456614224,1586.3143264230343) translate(0 13.211111111111112)"/><use xlink:href="#j" transform="matrix(1,0,0,1,1796.4767525993332,1612.3143264230343) translate(0 13.211111111111112)"/><use xlink:href="#k" transform="matrix(1,0,0,1,1990.806456614224,1612.3143264230343) translate(0 13.211111111111112)"/><path d="M1791.48 1642.05a5 5 0 0 1 5-5h314.5a5 5 0 0 1 5 5v108a5 5 0 0 1-5 5h-314.5a5 5 0 0 1-5-5z" fill="#fff"/><path d="M1791.48 1703.05v27h324.5v-27" fill="#e6e6e6"/><path d="M1791.48 1677.05v-35a5 5 0 0 1 5-5h314.5a5 5 0 0 1 5 5v35" fill="#dedeff"/><path d="M1791.48 1642.05a5 5 0 0 1 5-5h314.5a5 5 0 0 1 5 5v108a5 5 0 0 1-5 5h-314.5a5 5 0 0 1-5-5zM1791.48 1677.05h324.5M1985.8 1677.05v78" stroke="#282c33" fill="none"/><use xlink:href="#l" transform="matrix(1,0,0,1,1801.4767525993332,1637.0528857672405) translate(0 22.711111111111112)"/><use xlink:href="#b" transform="matrix(1,0,0,1,1796.4767525993332,1679.5528857672405) translate(0 13.211111111111112)"/><use xlink:href="#c" transform="matrix(1,0,0,1,1990.806456614224,1679.5528857672405) translate(0 13.211111111111112)"/><use xlink:href="#m" transform="matrix(1,0,0,1,1796.4767525993332,1705.5528857672405) translate(0 13.211111111111112)"/><use xlink:href="#e" transform="matrix(1,0,0,1,1990.806456614224,1705.5528857672405) translate(0 13.211111111111112)"/><use xlink:href="#f" transform="matrix(1,0,0,1,1796.4767525993332,1731.5528857672405) translate(0 13.211111111111112)"/><use xlink:href="#g" transform="matrix(1,0,0,1,1990.806456614224,1731.5528857672405) translate(0 13.211111111111112)"/><path d="M1993.67 1443.46a9.7 9.7 0 0 0 8.68 5.36h142.93a6 6 0 0 1 6 6V1774a6 6 0 0 1-6 6h-407.93a6 6 0 0 1-6-6v-345.18a6 6 0 0 1 6-6h240a9.7 9.7 0 0 1 8.68 5.37zm-262.32 5.36h265" fill-opacity="0"/><path d="M1998.85 1448.16l.34.13 1.02.3 1.06.16 1.07.06h4.77m4.76 0h9.53m4.77 0h9.53m4.76 0h9.53m4.76 0h9.53m4.75 0h9.53m4.76 0h9.53m4.77 0h9.53m4.76 0h9.53m4.76 0h9.53m4.76 0h4.78l.94.08.9.22.88.36.8.5.72.6.6.72.5.8.37.87.2.9.08.95v5.07m0 5.05v10.14m0 5.05v10.14m0 5.05v10.13m0 5.07v10.13m0 5.07v10.13m0 5.07v10.13m0 5.07v10.13m0 5.07v10.13m0 5.07v10.13m0 5.06v10.14m0 5.06v10.14m0 5.06v10.14m0 5.06v10.13m0 5.07v10.13m0 5.07v10.13m0 5.07v10.13m0 5.07v10.13m0 5.07v10.13m0 5.07v10.13m0 5.06v10.14m0 5.06v5.07l-.08.94-.2.9-.38.88-.5.8-.6.72-.7.6-.82.5-.87.37-.9.23-.95.07h-5.04m-5.03 0h-10.07m-5.03 0h-10.07m-5.04 0h-10.08m-5.04 0h-10.07m-5.03 0h-10.07m-5.04 0h-10.07m-5.04 0h-10.08m-5.03 0h-10.08m-5.03 0h-10.07m-5.04 0h-10.07m-5.04 0h-10.07m-5.04 0h-10.06m-5.04 0h-10.07m-5.03 0h-10.08m-5.03 0h-10.08m-5.04 0h-10.07m-5.03 0h-10.07m-5.04 0h-10.07m-5.05 0h-10.07m-5.03 0h-10.08m-5.03 0h-10.08m-5.03 0h-10.07m-5.04 0h-10.07m-5.04 0h-10.06m-5.04 0h-10.07m-5.04 0h-10.08m-5.03 0h-5.05l-.94-.07-.9-.22-.87-.35-.8-.5-.72-.6-.6-.72-.5-.8-.36-.88-.22-.9-.07-.95v-5m0-5v-10m0-5v-10.02m0-5v-10m0-5v-10m0-5.02v-10m0-5v-10m0-5v-10.02m0-5v-10m0-5v-10m0-5.02v-10m0-5v-10m0-5v-10.02m0-5v-10m0-5v-10m0-5v-10.02m0-5v-10m0-5v-10m0-5.02v-10m0-5v-10m0-5v-10.02m0-5v-10m0-5v-10m0-5v-5.02l.08-.94.2-.9.38-.88.5-.8.6-.72.72-.6.8-.5.88-.36.9-.22.95-.08h5m5 0h10m5 0h10m5 0h10m5 0h10m5 0h10m5 0h10m5 0h10m5 0h10m5 0h10m5 0h10m5 0h10m5 0h10m5 0h10m5 0h10m5 0h10m5 0h5l1.07.06 1.06.18 1.04.3.33.13m3.02 1.86l.27.24.73.8.63.86.53.93 2.55 5.08m2.54 5.1l2.55 5.08.53.93.63.86.73.8.27.23m-264.48 2.52h4.9m4.9 0h9.83m4.9 0h9.82m4.9 0h9.83m4.9 0h9.82m4.9 0h9.82m4.9 0h9.82m4.9 0h9.8m4.92 0h9.82m4.9 0h9.82m4.9 0h9.82m4.9 0h9.82m4.9 0h9.83m4.9 0h9.82m4.9 0h9.82m4.9 0h9.82m4.9 0h9.8m4.92 0h9.82m4.9 0h4.9" stroke="#3a414a" fill="none"/><use xlink:href="#n" transform="matrix(1,0,0,1,1739.3506370053983,1422.822308438718) translate(0 16.555555555555557)"/><path d="M1715.13 1426a6 6 0 0 1 6-6h388.84a6 6 0 0 1 6 6v20.93a6 6 0 0 1-6 6h-388.84a6 6 0 0 1-6-6z" fill="#fff"/><path d="M1731.1 1420h9.97m4.98 0h9.97m5 0h9.96m4.98 0h9.97m5 0h9.96m4.97 0h9.97m5 0h9.96m4.98 0h9.98m4.98 0h9.97m5 0h9.96m5 0h9.96m5 0h9.96m4.98 0h9.97m5 0h9.96m4.97 0h9.97m5 0h9.96m4.98 0h9.97m5 0h9.96m5 0h9.96m5 0h9.96m4.98 0h9.97m5 0h9.96m5 0h9.96m4.97 0h9.97m5 0h9.96m4.98 0h5l.93.07.92.22.87.35.8.5.7.6.62.72.5.8.35.88.22.9.07.95v6.98m0 6.97v6.98l-.08.94-.23.9-.36.88-.48.8-.6.72-.73.6-.8.5-.88.36-.9.22-.95.08h-5m-4.97 0h-9.97m-5 0h-9.96m-4.98 0h-9.98m-5 0h-9.96m-5 0h-9.96m-4.98 0h-9.97m-5 0h-9.96m-5 0h-9.96m-5 0h-9.96m-4.98 0h-9.97m-5 0h-9.96m-4.98 0h-9.98m-5 0h-9.96m-4.98 0h-9.97m-4.98 0h-9.97m-5 0h-9.96m-5 0h-9.96m-4.98 0h-9.98m-4.98 0h-9.97m-5 0h-9.96m-4.98 0h-9.98m-5 0h-9.96m-4.98 0H1761m-4.98 0h-9.97m-4.98 0h-9.97m-5 0h-4.97l-.94-.08-.93-.22-.87-.36-.8-.5-.72-.6-.6-.72-.5-.8-.36-.87-.22-.9-.07-.95v-6.98m0-6.97V1426l.07-.94.22-.9.36-.88.5-.8.6-.72.72-.6.8-.5.87-.37.92-.23.93-.07h4.98" stroke="#3a414a" fill="none"/><use xlink:href="#o" transform="matrix(1,0,0,1,1715.12612962291,1420) translate(8.01 19.301582222222223)"/><use xlink:href="#p" transform="matrix(1,0,0,1,1715.12612962291,1420) translate(63.26925925925926 19.301582222222223)"/><path d="M2132.85 1436.46H2184a6 6 0 0 0 6-6V1201.3a6 6 0 0 0-6-6h-541.02" stroke="#3a414a" fill="none"/><path d="M2118.1 1436.46l14.25-4.63v9.27zM1628.2 1195.3l14.28-4.64v9.27z" stroke="#3a414a" fill="#3a414a"/><use xlink:href="#q" transform="matrix(1,0,0,1,2075.490844637655,1175.2985165355014) translate(0 10.666666666666668)"/><use xlink:href="#r" transform="matrix(1,0,0,1,2075.490844637655,1175.2985165355014) translate(57.7037037037037 10.666666666666668)"/><g stroke="#3a414a" fill="#fff"><path d="M1585.14 1298.8a6 6 0 0 1-6 6h-311.4a6 6 0 0 1-6-6v-122.52a6 6 0 0 1 6-6h311.4a6 6 0 0 1 6 6z"/><path d="M1605.14 1275.17a6 6 0 0 1-6 6h-28a6 6 0 0 1-6-6v-8a6 6 0 0 1 6-6h28a6 6 0 0 1 6 6zM1605.14 1207.9a6 6 0 0 1-6 6h-28a6 6 0 0 1-6-6v-8a6 6 0 0 1 6-6h28a6 6 0 0 1 6 6z"/></g><use xlink:href="#s" transform="matrix(1,-2.4492935982947064e-16,2.4492935982947064e-16,1,1296.0713346456166,1183.7361334488592) translate(33.970370370370375 56.71111111111111)"/><use xlink:href="#t" transform="matrix(1,-2.4492935982947064e-16,2.4492935982947064e-16,1,1296.0713346456166,1183.7361334488592) translate(95.68580246913581 56.71111111111111)"/><use xlink:href="#u" transform="matrix(1,-2.4492935982947064e-16,2.4492935982947064e-16,1,1296.0713346456166,1183.7361334488592) translate(154.35123456790123 56.71111111111111)"/><path d="M1637.4 1299.82c4.96 0 8.98-4 8.98-8.96v-26.9c0-4.96-4.02-8.98-8.97-8.98h-109.14c-4.96 0-8.97 4.02-8.97 8.97v26.9c0 4.96 4 8.97 8.96 8.97z" stroke="#3a414a" fill="#d7faf5"/><use xlink:href="#v" transform="matrix(1,-2.4492935982947064e-16,2.4492935982947064e-16,1,1527.288011090928,1262.9836881318033) translate(21.46296296296299 10.055555555555559)"/><use xlink:href="#w" transform="matrix(1,-2.4492935982947064e-16,2.4492935982947064e-16,1,1527.288011090928,1262.9836881318033) translate(67.11111111111111 10.055555555555559)"/><use xlink:href="#x" transform="matrix(1,-2.4492935982947064e-16,2.4492935982947064e-16,1,1527.288011090928,1262.9836881318033) translate(19.317901234567927 23.388888888888886)"/><use xlink:href="#y" transform="matrix(1,-2.4492935982947064e-16,2.4492935982947064e-16,1,1527.288011090928,1262.9836881318033) translate(64.93518518518518 23.388888888888886)"/><path d="M1616.1 1220.3c5.52 0 10-4.47 10-10v-30c0-5.54-4.48-10.02-10-10.02h-65.85c-5.53 0-10 4.48-10 10v30.03c0 5.53 4.47 10 10 10z" stroke="#3a414a" fill="#cfe4ff"/><use xlink:href="#z" transform="matrix(1,-2.4492935982947064e-16,2.4492935982947064e-16,1,1548.2425494245492,1178.2845205456333) translate(0 13.055555555555559)"/><use xlink:href="#A" transform="matrix(1,-2.4492935982947064e-16,2.4492935982947064e-16,1,1548.2425494245492,1178.2845205456333) translate(0 26.388888888888886)"/><path d="M920 1432.45a5 5 0 0 1 5-5h237.66a5 5 0 0 1 5 5v160a5 5 0 0 1-5 5H925a5 5 0 0 1-5-5z" fill="#fff"/><path d="M920 1493.45v27h247.66v-27M920 1545.45v27h247.66v-27" fill="#e6e6e6"/><path d="M920 1467.45v-35a5 5 0 0 1 5-5h237.66a5 5 0 0 1 5 5v35" fill="#dedeff"/><path d="M920 1432.45a5 5 0 0 1 5-5h237.66a5 5 0 0 1 5 5v160a5 5 0 0 1-5 5H925a5 5 0 0 1-5-5zM920 1467.45h247.66M1058.28 1467.45v130" stroke="#282c33" fill="none"/><use xlink:href="#B" transform="matrix(1,0,0,1,930,1427.4511187681615) translate(0 22.711111111111112)"/><use xlink:href="#C" transform="matrix(1,0,0,1,925,1469.9511187681615) translate(0 13.211111111111112)"/><use xlink:href="#c" transform="matrix(1,0,0,1,1063.2798345758615,1469.9511187681615) translate(0 13.211111111111112)"/><use xlink:href="#D" transform="matrix(1,0,0,1,925,1495.9511187681615) translate(0 13.211111111111112)"/><use xlink:href="#E" transform="matrix(1,0,0,1,1063.2798345758615,1495.9511187681615) translate(0 13.211111111111112)"/><use xlink:href="#F" transform="matrix(1,0,0,1,1063.2798345758615,1495.9511187681615) translate(49.59074074074074 13.211111111111112)"/><use xlink:href="#G" transform="matrix(1,0,0,1,925,1521.9511187681615) translate(0 13.211111111111112)"/><use xlink:href="#H" transform="matrix(1,0,0,1,1063.2798345758615,1521.9511187681615) translate(0 13.211111111111112)"/><use xlink:href="#I" transform="matrix(1,0,0,1,925,1547.9511187681615) translate(0 13.211111111111112)"/><use xlink:href="#J" transform="matrix(1,0,0,1,1063.2798345758615,1547.9511187681615) translate(0 13.211111111111112)"/><use xlink:href="#b" transform="matrix(1,0,0,1,925,1573.9511187681615) translate(0 13.211111111111112)"/><use xlink:href="#K" transform="matrix(1,0,0,1,1063.2798345758615,1573.9511187681615) translate(0 13.211111111111112)"/><path d="M1242.64 1365a5 5 0 0 1 5-5h350.55a5 5 0 0 1 5 5v212a5 5 0 0 1-5 5h-350.56a5 5 0 0 1-5-5z" fill="#fff"/><path d="M1242.64 1426v27h360.55v-27M1242.64 1478v27h360.55v-27M1242.64 1530v27h360.55v-27" fill="#e6e6e6"/><path d="M1242.64 1400v-35a5 5 0 0 1 5-5h350.55a5 5 0 0 1 5 5v35" fill="#dedeff"/><path d="M1242.64 1365a5 5 0 0 1 5-5h350.55a5 5 0 0 1 5 5v212a5 5 0 0 1-5 5h-350.56a5 5 0 0 1-5-5zM1242.64 1400h360.55M1380.92 1400v182" stroke="#282c33" fill="none"/><use xlink:href="#L" transform="matrix(1,0,0,1,1252.642651756078,1360) translate(0 22.711111111111112)"/><use xlink:href="#D" transform="matrix(1,0,0,1,1247.642651756078,1402.5) translate(0 13.211111111111112)"/><use xlink:href="#c" transform="matrix(1,0,0,1,1385.9224863319396,1402.5) translate(0 13.211111111111112)"/><use xlink:href="#I" transform="matrix(1,0,0,1,1247.642651756078,1428.5) translate(0 13.211111111111112)"/><use xlink:href="#J" transform="matrix(1,0,0,1,1385.9224863319396,1428.5) translate(0 13.211111111111112)"/><use xlink:href="#M" transform="matrix(1,0,0,1,1247.642651756078,1454.5) translate(0 13.211111111111112)"/><use xlink:href="#K" transform="matrix(1,0,0,1,1385.9224863319396,1454.5) translate(0 13.211111111111112)"/><use xlink:href="#N" transform="matrix(1,0,0,1,1247.642651756078,1480.5) translate(0 13.211111111111112)"/><use xlink:href="#O" transform="matrix(1,0,0,1,1385.9224863319396,1480.5) translate(0 13.211111111111112)"/><use xlink:href="#P" transform="matrix(1,0,0,1,1247.642651756078,1506.5) translate(0 13.211111111111112)"/><use xlink:href="#k" transform="matrix(1,0,0,1,1385.9224863319396,1506.5) translate(0 13.211111111111112)"/><use xlink:href="#Q" transform="matrix(1,0,0,1,1247.642651756078,1532.5) translate(0 13.211111111111112)"/><use xlink:href="#k" transform="matrix(1,0,0,1,1385.9224863319396,1532.5) translate(0 13.211111111111112)"/><use xlink:href="#R" transform="matrix(1,0,0,1,1247.642651756078,1558.5) translate(0 13.211111111111112)"/><use xlink:href="#S" transform="matrix(1,0,0,1,1385.9224863319396,1558.5) translate(0 13.211111111111112)"/><path d="M1222.14 1407.1h-11a6 6 0 0 0-6 6v83.15a6 6 0 0 1-6 6h-11.57" stroke="#3a414a" fill="none"/><path d="M1222.14 1397.1v20M1242.14 1407.1h-20" stroke="#3a414a" fill="#fff"/><path d="M1168.4 1492.25l20 10-20 10" stroke="#3a414a" fill="#fff" fill-opacity="0"/><path d="M1168.4 1502.25h20" stroke="#3a414a" fill="#fff"/><path d="M1242.64 1640.8a5 5 0 0 1 5-5h237.66a5 5 0 0 1 5 5v134a5 5 0 0 1-5 5h-237.66a5 5 0 0 1-5-5z" fill="#fff"/><path d="M1242.64 1701.8v27h247.66v-27M1242.64 1753.8v21a5 5 0 0 0 5 5h237.66a5 5 0 0 0 5-5v-21" fill="#e6e6e6"/><path d="M1242.64 1675.8v-35a5 5 0 0 1 5-5h237.66a5 5 0 0 1 5 5v35" fill="#dedeff"/><path d="M1242.64 1640.8a5 5 0 0 1 5-5h237.66a5 5 0 0 1 5 5v134a5 5 0 0 1-5 5h-237.66a5 5 0 0 1-5-5zM1242.64 1675.8h247.66M1380.92 1675.8v104" stroke="#282c33" fill="none"/><use xlink:href="#T" transform="matrix(1,0,0,1,1252.642651756078,1635.8143264230343) translate(0 22.711111111111112)"/><use xlink:href="#C" transform="matrix(1,0,0,1,1247.642651756078,1678.3143264230343) translate(0 13.211111111111112)"/><use xlink:href="#c" transform="matrix(1,0,0,1,1385.9224863319396,1678.3143264230343) translate(0 13.211111111111112)"/><use xlink:href="#U" transform="matrix(1,0,0,1,1247.642651756078,1704.3143264230343) translate(0 13.211111111111112)"/><use xlink:href="#V" transform="matrix(1,0,0,1,1385.9224863319396,1704.3143264230343) translate(0 13.211111111111112)"/><use xlink:href="#W" transform="matrix(1,0,0,1,1247.642651756078,1730.3143264230343) translate(0 13.211111111111112)"/><use xlink:href="#k" transform="matrix(1,0,0,1,1385.9224863319396,1730.3143264230343) translate(0 13.211111111111112)"/><use xlink:href="#I" transform="matrix(1,0,0,1,1247.642651756078,1756.3143264230343) translate(0 13.211111111111112)"/><use xlink:href="#J" transform="matrix(1,0,0,1,1385.9224863319396,1756.3143264230343) translate(0 13.211111111111112)"/><path d="M899.5 1475.04H896a6 6 0 0 0-6 6v135.4a6 6 0 0 0 6 6h300.14a6 6 0 0 1 6 6v49.28a6 6 0 0 0 6 6h14" stroke="#3a414a" fill="none"/><path d="M899.5 1465.04v20M919.5 1475.04h-20M1222.14 1673.72v20M1242.14 1683.72h-20" stroke="#3a414a" fill="#fff"/><path d="M1700.75 1231.78a5 5 0 0 1 5-5h314.5a5 5 0 0 1 5 5v134a5 5 0 0 1-5 5h-314.5a5 5 0 0 1-5-5z" fill="#fff"/><path d="M1700.75 1292.78v27h324.5v-27M1700.75 1344.78v21a5 5 0 0 0 5 5h314.5a5 5 0 0 0 5-5v-21" fill="#e6e6e6"/><path d="M1700.75 1266.78v-35a5 5 0 0 1 5-5h314.5a5 5 0 0 1 5 5v35" fill="#dedeff"/><path d="M1700.75 1231.78a5 5 0 0 1 5-5h314.5a5 5 0 0 1 5 5v134a5 5 0 0 1-5 5h-314.5a5 5 0 0 1-5-5zM1700.75 1266.78h324.5M1902.23 1266.78v104" stroke="#282c33" fill="none"/><use xlink:href="#a" transform="matrix(1,0,0,1,1710.7463896146214,1226.7760684925938) translate(0 22.711111111111112)"/><use xlink:href="#b" transform="matrix(1,0,0,1,1705.7463896146214,1269.2760684925938) translate(0 13.211111111111112)"/><use xlink:href="#c" transform="matrix(1,0,0,1,1907.2263922940488,1269.2760684925938) translate(0 13.211111111111112)"/><use xlink:href="#X" transform="matrix(1,0,0,1,1705.7463896146214,1295.2760684925938) translate(0 13.211111111111112)"/><use xlink:href="#Y" transform="matrix(1,0,0,1,1907.2263922940488,1295.2760684925938) translate(0 13.211111111111112)"/><use xlink:href="#I" transform="matrix(1,0,0,1,1705.7463896146214,1321.2760684925938) translate(0 13.211111111111112)"/><use xlink:href="#J" transform="matrix(1,0,0,1,1907.2263922940488,1321.2760684925938) translate(0 13.211111111111112)"/><use xlink:href="#Z" transform="matrix(1,0,0,1,1705.7463896146214,1347.2760684925938) translate(0 13.211111111111112)"/><use xlink:href="#k" transform="matrix(1,0,0,1,1907.2263922940488,1347.2760684925938) translate(0 13.211111111111112)"/><path d="M1623.7 1407.1h22.27a6 6 0 0 0 6-6v-92.9a6 6 0 0 1 6-6h22.87" stroke="#3a414a" fill="none"/><path d="M1623.7 1417.1v-20M1603.7 1407.1h20" stroke="#3a414a" fill="#fff"/><path d="M1700.02 1312.2l-20-10 20-10" stroke="#3a414a" fill="#fff" fill-opacity="0"/><path d="M1700.02 1302.2h-20" stroke="#3a414a" fill="#fff"/><path d="M1680.25 1357.07H1676a6 6 0 0 0-6 6V1744a6 6 0 0 1-6 6h-108.5a5.6 5.6 0 0 1-5.6-5.6 5.6 5.6 0 0 0-5.6-5.6h-34.08" stroke="#3a414a" fill="none"/><path d="M1680.25 1347.07v20M1700.25 1357.07h-20" stroke="#3a414a" fill="#fff"/><path d="M1491.03 1728.8l20 10-20 10" stroke="#3a414a" fill="#fff" fill-opacity="0"/><path d="M1491.03 1738.8h20" stroke="#3a414a" fill="#fff"/><path d="M2045.74 1274.77h104.73a6 6 0 0 1 6 6v231.95a6 6 0 0 1-6 6h-14" stroke="#54c45e" stroke-width="5" fill="none"/><path d="M2045.74 1284.77v-20M2025.74 1274.77h20M2136.47 1528.72v-20M2116.47 1518.72h20" stroke="#54c45e" stroke-width="5" fill="#fff"/><path d="M1770.98 1622.43h-14a6 6 0 0 0-6 6v51.18a6 6 0 0 0 6 6h14" stroke="#3a414a" fill="none"/><path d="M1770.98 1612.43v20M1790.98 1622.43h-20M1770.98 1675.6v20M1790.98 1685.6h-20" stroke="#3a414a" fill="#fff"/><path d="M960 1326.55a6 6 0 0 1 6-6h293.4a6 6 0 0 1 6 6V1354a6 6 0 0 1-6 6H966a6 6 0 0 1-6-6z" fill="#fff"/><path d="M975.78 1320.55h9.78m4.9 0h9.77m4.9 0h9.77m4.9 0h9.77m4.9 0h9.77m4.9 0h9.77m4.9 0h9.78m4.9 0h9.77m4.9 0h9.77m4.9 0h9.77m4.88 0h9.78m4.9 0h9.77m4.9 0h9.77m4.9 0h9.77m4.9 0h9.77m4.9 0h9.77m4.9 0h9.78m4.9 0h9.77m4.9 0h9.77m4.9 0h4.88l.94.07.92.22.87.36.8.5.7.6.63.72.5.8.35.87.23.9.07.95v4.57m0 4.58v9.15m0 4.57v4.58l-.07.94-.22.9-.35.88-.5.8-.6.72-.72.6-.8.5-.87.37-.92.23-.94.07h-4.9m-4.88 0h-9.78m-4.9 0h-9.77m-4.9 0h-9.77m-4.9 0h-9.77m-4.9 0h-9.77m-4.9 0h-9.77m-4.9 0h-9.78m-4.9 0h-9.77m-4.9 0h-9.77m-4.9 0h-9.77m-4.88 0h-9.78m-4.9 0h-9.77m-4.9 0h-9.77m-4.9 0h-9.77m-4.9 0h-9.77m-4.9 0h-9.77m-4.9 0h-9.78m-4.9 0h-9.77m-4.9 0h-9.77m-4.9 0H966l-.94-.07-.9-.22-.88-.35-.8-.5-.72-.6-.6-.72-.5-.8-.37-.88-.23-.9-.07-.95v-4.58m0-4.57v-9.15m0-4.58v-4.57l.07-.94.22-.9.35-.88.5-.8.6-.72.72-.6.8-.5.88-.36.9-.22.95-.07h4.9" stroke="#3a414a" fill="none"/><g><use xlink:href="#aa" transform="matrix(1,0,0,1,960,1320.5462257738106) translate(9.01 27.69422222222222)"/></g><path d="M1314 1340.77h-31.7v-1h31.7zm269.33-11.53l-.08 1-.23 1-.4.94-.53.87-.67.77-.78.66-.87.54-.94.4-1 .23-1 .07H1462v-1h114.8l.9-.07.83-.2.8-.33.73-.45.66-.56.56-.64.45-.74.33-.8.2-.84.07-.88v-28.38h1z" stroke="#3a414a" stroke-width=".05" fill="#3a414a"/><path d="M1583.33 1300.84h-1v-.52h1z" fill="#3a414a"/><path d="M1583.36 1300.86h-1.05v-.56h1.06zm-1-.5v.45h.95v-.45z" stroke="#3a414a" stroke-width=".05" fill="#3a414a"/><path d="M1281.8 1344.9l-14.28-4.63 14.27-4.63z" fill="#3a414a"/><path d="M1282.3 1345.6l-16.4-5.33 16.4-5.32zm-13.16-5.33l12.15 3.95v-7.9z" stroke="#3a414a" stroke-width=".05" fill="#3a414a"/><g><use xlink:href="#ab" transform="matrix(1,0,0,1,1313.9950105311364,1327.2240113517207) translate(0 10.666666666666668)"/><use xlink:href="#ac" transform="matrix(1,0,0,1,1313.9950105311364,1327.2240113517207) translate(77.70370370370372 10.666666666666668)"/><use xlink:href="#ad" transform="matrix(1,0,0,1,1313.9950105311364,1327.2240113517207) translate(114.70370370370372 10.666666666666668)"/></g><defs><path fill="#333" d="M33 0v-248h34V0H33" id="ae"/><path fill="#333" d="M117-194c89-4 53 116 60 194h-32v-121c0-31-8-49-39-48C34-167 62-67 57 0H25l-1-190h30c1 10-1 24 2 32 11-22 29-35 61-36" id="af"/><path fill="#333" d="M85-194c31 0 48 13 60 33l-1-100h32l1 261h-30c-2-10 0-23-3-31C134-8 116 4 85 4 32 4 16-35 15-94c0-66 23-100 70-100zm9 24c-40 0-46 34-46 75 0 40 6 74 45 74 42 0 51-32 51-76 0-42-9-74-50-73" id="ag"/><path fill="#333" d="M100-194c63 0 86 42 84 106H49c0 40 14 67 53 68 26 1 43-12 49-29l28 8c-11 28-37 45-77 45C44 4 14-33 15-96c1-61 26-98 85-98zm52 81c6-60-76-77-97-28-3 7-6 17-6 28h103" id="ah"/><path fill="#333" d="M141 0L90-78 38 0H4l68-98-65-92h35l48 74 47-74h35l-64 92 68 98h-35" id="ai"/><path fill="#333" d="M30-248c87 1 191-15 191 75 0 78-77 80-158 76V0H30v-248zm33 125c57 0 124 11 124-50 0-59-68-47-124-48v98" id="aj"/><path fill="#333" d="M114-163C36-179 61-72 57 0H25l-1-190h30c1 12-1 29 2 39 6-27 23-49 58-41v29" id="ak"/><path fill="#333" d="M100-194c62-1 85 37 85 99 1 63-27 99-86 99S16-35 15-95c0-66 28-99 85-99zM99-20c44 1 53-31 53-75 0-43-8-75-51-75s-53 32-53 75 10 74 51 75" id="al"/><path fill="#333" d="M84 4C-5 8 30-112 23-190h32v120c0 31 7 50 39 49 72-2 45-101 50-169h31l1 190h-30c-1-10 1-25-2-33-11 22-28 36-60 37" id="am"/><path fill="#333" d="M96-169c-40 0-48 33-48 73s9 75 48 75c24 0 41-14 43-38l32 2c-6 37-31 61-74 61-59 0-76-41-82-99-10-93 101-131 147-64 4 7 5 14 7 22l-32 3c-4-21-16-35-41-35" id="an"/><path fill="#333" d="M59-47c-2 24 18 29 38 22v24C64 9 27 4 27-40v-127H5v-23h24l9-43h21v43h35v23H59v120" id="ao"/><g id="a"><use transform="matrix(0.03765432098765432,0,0,0.03765432098765432,0,0)" xlink:href="#ae"/><use transform="matrix(0.03765432098765432,0,0,0.03765432098765432,3.765432098765432,0)" xlink:href="#af"/><use transform="matrix(0.03765432098765432,0,0,0.03765432098765432,11.296296296296296,0)" xlink:href="#ag"/><use transform="matrix(0.03765432098765432,0,0,0.03765432098765432,18.827160493827158,0)" xlink:href="#ah"/><use transform="matrix(0.03765432098765432,0,0,0.03765432098765432,26.358024691358022,0)" xlink:href="#ai"/><use transform="matrix(0.03765432098765432,0,0,0.03765432098765432,33.1358024691358,0)" xlink:href="#ah"/><use transform="matrix(0.03765432098765432,0,0,0.03765432098765432,40.66666666666666,0)" xlink:href="#ag"/><use transform="matrix(0.03765432098765432,0,0,0.03765432098765432,48.19753086419752,0)" xlink:href="#aj"/><use transform="matrix(0.03765432098765432,0,0,0.03765432098765432,57.234567901234556,0)" xlink:href="#ak"/><use transform="matrix(0.03765432098765432,0,0,0.03765432098765432,61.71543209876542,0)" xlink:href="#al"/><use transform="matrix(0.03765432098765432,0,0,0.03765432098765432,69.24629629629628,0)" xlink:href="#ag"/><use transform="matrix(0.03765432098765432,0,0,0.03765432098765432,76.77716049382714,0)" xlink:href="#am"/><use transform="matrix(0.03765432098765432,0,0,0.03765432098765432,84.308024691358,0)" xlink:href="#an"/><use transform="matrix(0.03765432098765432,0,0,0.03765432098765432,91.08580246913577,0)" xlink:href="#ao"/></g><path fill="#333" d="M-5 72V49h209v23H-5" id="ap"/><path fill="#333" d="M24-231v-30h32v30H24zM24 0v-190h32V0H24" id="aq"/><g id="b"><use transform="matrix(0.03765432098765432,0,0,0.03765432098765432,0,0)" xlink:href="#al"/><use transform="matrix(0.03765432098765432,0,0,0.03765432098765432,7.530864197530864,0)" xlink:href="#af"/><use transform="matrix(0.03765432098765432,0,0,0.03765432098765432,15.061728395061728,0)" xlink:href="#ag"/><use transform="matrix(0.03765432098765432,0,0,0.03765432098765432,22.59259259259259,0)" xlink:href="#an"/><use transform="matrix(0.03765432098765432,0,0,0.03765432098765432,29.370370370370367,0)" xlink:href="#ap"/><use transform="matrix(0.03765432098765432,0,0,0.03765432098765432,36.90123456790123,0)" xlink:href="#aq"/><use transform="matrix(0.03765432098765432,0,0,0.03765432098765432,39.87592592592592,0)" xlink:href="#ag"/></g><path fill="#333" d="M115-194c55 1 70 41 70 98S169 2 115 4C84 4 66-9 55-30l1 105H24l-1-265h31l2 30c10-21 28-34 59-34zm-8 174c40 0 45-34 45-75s-6-73-45-74c-42 0-51 32-51 76 0 43 10 73 51 73" id="ar"/><path fill="#333" d="M210-169c-67 3-38 105-44 169h-31v-121c0-29-5-50-35-48C34-165 62-65 56 0H25l-1-190h30c1 10-1 24 2 32 10-44 99-50 107 0 11-21 27-35 58-36 85-2 47 119 55 194h-31v-121c0-29-5-49-35-48" id="as"/><path fill="#333" d="M141-36C126-15 110 5 73 4 37 3 15-17 15-53c-1-64 63-63 125-63 3-35-9-54-41-54-24 1-41 7-42 31l-33-3c5-37 33-52 76-52 45 0 72 20 72 64v82c-1 20 7 32 28 27v20c-31 9-61-2-59-35zM48-53c0 20 12 33 32 33 41-3 63-29 60-74-43 2-92-5-92 41" id="at"/><path fill="#333" d="M179-190L93 31C79 59 56 82 12 73V49c39 6 53-20 64-50L1-190h34L92-34l54-156h33" id="au"/><path fill="#333" d="M143 0L79-87 56-68V0H24v-261h32v163l83-92h37l-77 82L181 0h-38" id="av"/><g id="c"><use transform="matrix(0.03765432098765432,0,0,0.03765432098765432,0,0)" xlink:href="#ar"/><use transform="matrix(0.03765432098765432,0,0,0.03765432098765432,7.530864197530864,0)" xlink:href="#ak"/><use transform="matrix(0.03765432098765432,0,0,0.03765432098765432,12.011728395061727,0)" xlink:href="#aq"/><use transform="matrix(0.03765432098765432,0,0,0.03765432098765432,14.986419753086418,0)" xlink:href="#as"/><use transform="matrix(0.03765432098765432,0,0,0.03765432098765432,26.245061728395058,0)" xlink:href="#at"/><use transform="matrix(0.03765432098765432,0,0,0.03765432098765432,33.77592592592592,0)" xlink:href="#ak"/><use transform="matrix(0.03765432098765432,0,0,0.03765432098765432,38.25679012345678,0)" xlink:href="#au"/><use transform="matrix(0.03765432098765432,0,0,0.03765432098765432,45.03456790123457,0)" xlink:href="#ap"/><use transform="matrix(0.03765432098765432,0,0,0.03765432098765432,52.56543209876543,0)" xlink:href="#av"/><use transform="matrix(0.03765432098765432,0,0,0.03765432098765432,59.343209876543206,0)" xlink:href="#ah"/><use transform="matrix(0.03765432098765432,0,0,0.03765432098765432,66.87407407407407,0)" xlink:href="#au"/></g><g id="d"><use transform="matrix(0.03765432098765432,0,0,0.03765432098765432,0,0)" xlink:href="#ar"/><use transform="matrix(0.03765432098765432,0,0,0.03765432098765432,7.530864197530864,0)" xlink:href="#ak"/><use transform="matrix(0.03765432098765432,0,0,0.03765432098765432,12.011728395061727,0)" xlink:href="#al"/><use transform="matrix(0.03765432098765432,0,0,0.03765432098765432,19.54259259259259,0)" xlink:href="#ag"/><use transform="matrix(0.03765432098765432,0,0,0.03765432098765432,27.073456790123455,0)" xlink:href="#am"/><use transform="matrix(0.03765432098765432,0,0,0.03765432098765432,34.60432098765432,0)" xlink:href="#an"/><use transform="matrix(0.03765432098765432,0,0,0.03765432098765432,41.3820987654321,0)" xlink:href="#ao"/><use transform="matrix(0.03765432098765432,0,0,0.03765432098765432,45.14753086419753,0)" xlink:href="#ap"/><use transform="matrix(0.03765432098765432,0,0,0.03765432098765432,52.6783950617284,0)" xlink:href="#as"/><use transform="matrix(0.03765432098765432,0,0,0.03765432098765432,63.93703703703704,0)" xlink:href="#ah"/><use transform="matrix(0.03765432098765432,0,0,0.03765432098765432,71.4679012345679,0)" xlink:href="#ao"/><use transform="matrix(0.03765432098765432,0,0,0.03765432098765432,75.23333333333333,0)" xlink:href="#at"/><use transform="matrix(0.03765432098765432,0,0,0.03765432098765432,82.7641975308642,0)" xlink:href="#ap"/><use transform="matrix(0.03765432098765432,0,0,0.03765432098765432,90.29506172839505,0)" xlink:href="#ag"/><use transform="matrix(0.03765432098765432,0,0,0.03765432098765432,97.82592592592592,0)" xlink:href="#at"/><use transform="matrix(0.03765432098765432,0,0,0.03765432098765432,105.35679012345678,0)" xlink:href="#ao"/><use transform="matrix(0.03765432098765432,0,0,0.03765432098765432,109.1222222222222,0)" xlink:href="#at"/></g><path fill="#333" d="M153-248C145-148 188 4 80 4 36 3 13-21 6-62l32-5c4 25 16 42 43 43 27 0 39-20 39-49v-147H72v-28h81" id="aw"/><path fill="#333" d="M185-189c-5-48-123-54-124 2 14 75 158 14 163 119 3 78-121 87-175 55-17-10-28-26-33-46l33-7c5 56 141 63 141-1 0-78-155-14-162-118-5-82 145-84 179-34 5 7 8 16 11 25" id="ax"/><path fill="#333" d="M140-251c81 0 123 46 123 126C263-46 219 4 140 4 59 4 17-45 17-125s42-126 123-126zm0 227c63 0 89-41 89-101s-29-99-89-99c-61 0-89 39-89 99S79-25 140-24" id="ay"/><path fill="#333" d="M190 0L58-211 59 0H30v-248h39L202-35l-2-213h31V0h-41" id="az"/><g id="e"><use transform="matrix(0.03765432098765432,0,0,0.03765432098765432,0,0)" xlink:href="#aw"/><use transform="matrix(0.03765432098765432,0,0,0.03765432098765432,6.777777777777777,0)" xlink:href="#ax"/><use transform="matrix(0.03765432098765432,0,0,0.03765432098765432,15.814814814814813,0)" xlink:href="#ay"/><use transform="matrix(0.03765432098765432,0,0,0.03765432098765432,26.358024691358022,0)" xlink:href="#az"/></g><path fill="#333" d="M135-143c-3-34-86-38-87 0 15 53 115 12 119 90S17 21 10-45l28-5c4 36 97 45 98 0-10-56-113-15-118-90-4-57 82-63 122-42 12 7 21 19 24 35" id="aA"/><path fill="#333" d="M108 0H70L1-190h34L89-25l56-165h34" id="aB"/><g id="f"><use transform="matrix(0.03765432098765432,0,0,0.03765432098765432,0,0)" xlink:href="#ag"/><use transform="matrix(0.03765432098765432,0,0,0.03765432098765432,7.530864197530864,0)" xlink:href="#ah"/><use transform="matrix(0.03765432098765432,0,0,0.03765432098765432,15.061728395061728,0)" xlink:href="#af"/><use transform="matrix(0.03765432098765432,0,0,0.03765432098765432,22.59259259259259,0)" xlink:href="#aA"/><use transform="matrix(0.03765432098765432,0,0,0.03765432098765432,29.370370370370367,0)" xlink:href="#ah"/><use transform="matrix(0.03765432098765432,0,0,0.03765432098765432,36.90123456790123,0)" xlink:href="#ap"/><use transform="matrix(0.03765432098765432,0,0,0.03765432098765432,44.43209876543209,0)" xlink:href="#aB"/><use transform="matrix(0.03765432098765432,0,0,0.03765432098765432,51.209876543209866,0)" xlink:href="#ah"/><use transform="matrix(0.03765432098765432,0,0,0.03765432098765432,58.74074074074073,0)" xlink:href="#an"/><use transform="matrix(0.03765432098765432,0,0,0.03765432098765432,65.5185185185185,0)" xlink:href="#ao"/><use transform="matrix(0.03765432098765432,0,0,0.03765432098765432,69.28395061728394,0)" xlink:href="#al"/><use transform="matrix(0.03765432098765432,0,0,0.03765432098765432,76.8148148148148,0)" xlink:href="#ak"/></g><path fill="#333" d="M137 0h-34L2-248h35l83 218 83-218h36" id="aC"/><path fill="#333" d="M26 75v-336h71v23H56V52h41v23H26" id="aD"/><path fill="#333" d="M64 0c3-98 48-159 88-221H18v-27h164v26C143-157 98-101 97 0H64" id="aE"/><path fill="#333" d="M110-160c48 1 74 30 74 79 0 53-28 85-80 85-65 0-83-55-86-122-5-90 50-162 133-122 14 7 22 21 27 39l-31 6c-5-40-67-38-82-6-9 19-15 44-15 74 11-20 30-34 60-33zm-7 138c34 0 49-23 49-58s-16-56-50-56c-29 0-50 16-49 49 1 36 15 65 50 65" id="aF"/><path fill="#333" d="M134-131c28 9 52 24 51 62-1 50-34 73-85 73S17-19 16-69c0-36 21-54 49-61-75-25-45-126 34-121 46 3 78 18 79 63 0 33-17 51-44 57zm-34-11c31 1 46-15 46-44 0-28-17-43-47-42-29 0-46 13-45 42 1 28 16 44 46 44zm1 122c35 0 51-18 51-52 0-30-18-46-53-46-33 0-51 17-51 47 0 34 19 51 53 51" id="aG"/><path fill="#333" d="M3 75V52h41v-290H3v-23h71V75H3" id="aH"/><g id="g"><use transform="matrix(0.03765432098765432,0,0,0.03765432098765432,0,0)" xlink:href="#aC"/><use transform="matrix(0.03765432098765432,0,0,0.03765432098765432,8.28395061728395,0)" xlink:href="#ah"/><use transform="matrix(0.03765432098765432,0,0,0.03765432098765432,15.814814814814813,0)" xlink:href="#an"/><use transform="matrix(0.03765432098765432,0,0,0.03765432098765432,22.592592592592585,0)" xlink:href="#ao"/><use transform="matrix(0.03765432098765432,0,0,0.03765432098765432,26.35802469135802,0)" xlink:href="#al"/><use transform="matrix(0.03765432098765432,0,0,0.03765432098765432,33.888888888888886,0)" xlink:href="#ak"/><use transform="matrix(0.03765432098765432,0,0,0.03765432098765432,38.36975308641975,0)" xlink:href="#aD"/><use transform="matrix(0.03765432098765432,0,0,0.03765432098765432,42.13518518518518,0)" xlink:href="#aE"/><use transform="matrix(0.03765432098765432,0,0,0.03765432098765432,49.66604938271604,0)" xlink:href="#aF"/><use transform="matrix(0.03765432098765432,0,0,0.03765432098765432,57.1969135802469,0)" xlink:href="#aG"/><use transform="matrix(0.03765432098765432,0,0,0.03765432098765432,64.72777777777776,0)" xlink:href="#aH"/></g><g id="h"><use transform="matrix(0.03765432098765432,0,0,0.03765432098765432,0,0)" xlink:href="#aA"/><use transform="matrix(0.03765432098765432,0,0,0.03765432098765432,6.777777777777777,0)" xlink:href="#ar"/><use transform="matrix(0.03765432098765432,0,0,0.03765432098765432,14.30864197530864,0)" xlink:href="#at"/><use transform="matrix(0.03765432098765432,0,0,0.03765432098765432,21.83950617283951,0)" xlink:href="#ak"/><use transform="matrix(0.03765432098765432,0,0,0.03765432098765432,26.32037037037037,0)" xlink:href="#aA"/><use transform="matrix(0.03765432098765432,0,0,0.03765432098765432,33.09814814814815,0)" xlink:href="#ah"/><use transform="matrix(0.03765432098765432,0,0,0.03765432098765432,40.629012345679016,0)" xlink:href="#ap"/><use transform="matrix(0.03765432098765432,0,0,0.03765432098765432,48.15987654320987,0)" xlink:href="#aB"/><use transform="matrix(0.03765432098765432,0,0,0.03765432098765432,54.937654320987654,0)" xlink:href="#ah"/><use transform="matrix(0.03765432098765432,0,0,0.03765432098765432,62.46851851851852,0)" xlink:href="#an"/><use transform="matrix(0.03765432098765432,0,0,0.03765432098765432,69.2462962962963,0)" xlink:href="#ao"/><use transform="matrix(0.03765432098765432,0,0,0.03765432098765432,73.01172839506172,0)" xlink:href="#al"/><use transform="matrix(0.03765432098765432,0,0,0.03765432098765432,80.54259259259258,0)" xlink:href="#ak"/></g><path fill="#333" d="M126-127c33 6 58 20 58 59 0 88-139 92-164 29-3-8-5-16-6-25l32-3c6 27 21 44 54 44 32 0 52-15 52-46 0-38-36-46-79-43v-28c39 1 72-4 72-42 0-27-17-43-46-43-28 0-47 15-49 41l-32-3c6-42 35-63 81-64 48-1 79 21 79 65 0 36-21 52-52 59" id="aI"/><path fill="#333" d="M101-251c68 0 85 55 85 127S166 4 100 4C33 4 14-52 14-124c0-73 17-127 87-127zm-1 229c47 0 54-49 54-102s-4-102-53-102c-51 0-55 48-55 102 0 53 5 102 54 102" id="aJ"/><path fill="#333" d="M54-142c48-35 137-8 131 61C196 18 31 33 14-55l32-4c7 23 22 37 52 37 35-1 51-22 54-58 4-55-73-65-99-34H22l8-134h141v27H59" id="aK"/><path fill="#333" d="M101-251c82-7 93 87 43 132L82-64C71-53 59-42 53-27h129V0H18c2-99 128-94 128-182 0-28-16-43-45-43s-46 15-49 41l-32-3c6-41 34-60 81-64" id="aL"/><g id="i"><use transform="matrix(0.03765432098765432,0,0,0.03765432098765432,0,0)" xlink:href="#ax"/><use transform="matrix(0.03765432098765432,0,0,0.03765432098765432,9.037037037037036,0)" xlink:href="#ar"/><use transform="matrix(0.03765432098765432,0,0,0.03765432098765432,16.5679012345679,0)" xlink:href="#at"/><use transform="matrix(0.03765432098765432,0,0,0.03765432098765432,24.098765432098762,0)" xlink:href="#ak"/><use transform="matrix(0.03765432098765432,0,0,0.03765432098765432,28.579629629629625,0)" xlink:href="#aA"/><use transform="matrix(0.03765432098765432,0,0,0.03765432098765432,35.3574074074074,0)" xlink:href="#ah"/><use transform="matrix(0.03765432098765432,0,0,0.03765432098765432,42.88827160493827,0)" xlink:href="#aD"/><use transform="matrix(0.03765432098765432,0,0,0.03765432098765432,46.6537037037037,0)" xlink:href="#aI"/><use transform="matrix(0.03765432098765432,0,0,0.03765432098765432,54.18456790123455,0)" xlink:href="#aJ"/><use transform="matrix(0.03765432098765432,0,0,0.03765432098765432,61.71543209876542,0)" xlink:href="#aK"/><use transform="matrix(0.03765432098765432,0,0,0.03765432098765432,69.24629629629628,0)" xlink:href="#aL"/><use transform="matrix(0.03765432098765432,0,0,0.03765432098765432,76.77716049382714,0)" xlink:href="#aL"/><use transform="matrix(0.03765432098765432,0,0,0.03765432098765432,84.308024691358,0)" xlink:href="#aH"/></g><path fill="#333" d="M177-190C167-65 218 103 67 71c-23-6-38-20-44-43l32-5c15 47 100 32 89-28v-30C133-14 115 1 83 1 29 1 15-40 15-95c0-56 16-97 71-98 29-1 48 16 59 35 1-10 0-23 2-32h30zM94-22c36 0 50-32 50-73 0-42-14-75-50-75-39 0-46 34-46 75s6 73 46 73" id="aM"/><g id="j"><use transform="matrix(0.03765432098765432,0,0,0.03765432098765432,0,0)" xlink:href="#aq"/><use transform="matrix(0.03765432098765432,0,0,0.03765432098765432,2.974691358024691,0)" xlink:href="#af"/><use transform="matrix(0.03765432098765432,0,0,0.03765432098765432,10.505555555555555,0)" xlink:href="#ag"/><use transform="matrix(0.03765432098765432,0,0,0.03765432098765432,18.03641975308642,0)" xlink:href="#ah"/><use transform="matrix(0.03765432098765432,0,0,0.03765432098765432,25.567283950617284,0)" xlink:href="#ai"/><use transform="matrix(0.03765432098765432,0,0,0.03765432098765432,32.34506172839506,0)" xlink:href="#ah"/><use transform="matrix(0.03765432098765432,0,0,0.03765432098765432,39.875925925925934,0)" xlink:href="#ag"/><use transform="matrix(0.03765432098765432,0,0,0.03765432098765432,47.40679012345679,0)" xlink:href="#ap"/><use transform="matrix(0.03765432098765432,0,0,0.03765432098765432,54.93765432098765,0)" xlink:href="#an"/><use transform="matrix(0.03765432098765432,0,0,0.03765432098765432,61.715432098765426,0)" xlink:href="#at"/><use transform="matrix(0.03765432098765432,0,0,0.03765432098765432,69.2462962962963,0)" xlink:href="#ao"/><use transform="matrix(0.03765432098765432,0,0,0.03765432098765432,73.01172839506172,0)" xlink:href="#ah"/><use transform="matrix(0.03765432098765432,0,0,0.03765432098765432,80.54259259259258,0)" xlink:href="#aM"/><use transform="matrix(0.03765432098765432,0,0,0.03765432098765432,88.07345679012344,0)" xlink:href="#al"/><use transform="matrix(0.03765432098765432,0,0,0.03765432098765432,95.60432098765432,0)" xlink:href="#ak"/><use transform="matrix(0.03765432098765432,0,0,0.03765432098765432,100.08518518518518,0)" xlink:href="#au"/><use transform="matrix(0.03765432098765432,0,0,0.03765432098765432,106.86296296296294,0)" xlink:href="#ap"/><use transform="matrix(0.03765432098765432,0,0,0.03765432098765432,114.3938271604938,0)" xlink:href="#aq"/><use transform="matrix(0.03765432098765432,0,0,0.03765432098765432,117.36851851851848,0)" xlink:href="#ag"/></g><g id="k"><use transform="matrix(0.03765432098765432,0,0,0.03765432098765432,0,0)" xlink:href="#aA"/><use transform="matrix(0.03765432098765432,0,0,0.03765432098765432,6.777777777777777,0)" xlink:href="#ao"/><use transform="matrix(0.03765432098765432,0,0,0.03765432098765432,10.543209876543209,0)" xlink:href="#ak"/><use transform="matrix(0.03765432098765432,0,0,0.03765432098765432,15.024074074074072,0)" xlink:href="#aq"/><use transform="matrix(0.03765432098765432,0,0,0.03765432098765432,17.998765432098764,0)" xlink:href="#af"/><use transform="matrix(0.03765432098765432,0,0,0.03765432098765432,25.52962962962963,0)" xlink:href="#aM"/></g><path fill="#333" d="M212-179c-10-28-35-45-73-45-59 0-87 40-87 99 0 60 29 101 89 101 43 0 62-24 78-52l27 14C228-24 195 4 139 4 59 4 22-46 18-125c-6-104 99-153 187-111 19 9 31 26 39 46" id="aN"/><g id="l"><use transform="matrix(0.03765432098765432,0,0,0.03765432098765432,0,0)" xlink:href="#ae"/><use transform="matrix(0.03765432098765432,0,0,0.03765432098765432,3.765432098765432,0)" xlink:href="#af"/><use transform="matrix(0.03765432098765432,0,0,0.03765432098765432,11.296296296296296,0)" xlink:href="#ag"/><use transform="matrix(0.03765432098765432,0,0,0.03765432098765432,18.827160493827158,0)" xlink:href="#ah"/><use transform="matrix(0.03765432098765432,0,0,0.03765432098765432,26.358024691358022,0)" xlink:href="#ai"/><use transform="matrix(0.03765432098765432,0,0,0.03765432098765432,33.1358024691358,0)" xlink:href="#ah"/><use transform="matrix(0.03765432098765432,0,0,0.03765432098765432,40.66666666666666,0)" xlink:href="#ag"/><use transform="matrix(0.03765432098765432,0,0,0.03765432098765432,48.19753086419752,0)" xlink:href="#aN"/><use transform="matrix(0.03765432098765432,0,0,0.03765432098765432,57.94999999999999,0)" xlink:href="#at"/><use transform="matrix(0.03765432098765432,0,0,0.03765432098765432,65.48086419753085,0)" xlink:href="#ao"/><use transform="matrix(0.03765432098765432,0,0,0.03765432098765432,69.24629629629628,0)" xlink:href="#ah"/><use transform="matrix(0.03765432098765432,0,0,0.03765432098765432,76.77716049382714,0)" xlink:href="#aM"/><use transform="matrix(0.03765432098765432,0,0,0.03765432098765432,84.308024691358,0)" xlink:href="#al"/><use transform="matrix(0.03765432098765432,0,0,0.03765432098765432,91.83888888888886,0)" xlink:href="#ak"/><use transform="matrix(0.03765432098765432,0,0,0.03765432098765432,96.31975308641972,0)" xlink:href="#au"/></g><g id="m"><use transform="matrix(0.03765432098765432,0,0,0.03765432098765432,0,0)" xlink:href="#an"/><use transform="matrix(0.03765432098765432,0,0,0.03765432098765432,6.777777777777777,0)" xlink:href="#at"/><use transform="matrix(0.03765432098765432,0,0,0.03765432098765432,14.30864197530864,0)" xlink:href="#ao"/><use transform="matrix(0.03765432098765432,0,0,0.03765432098765432,18.074074074074073,0)" xlink:href="#ah"/><use transform="matrix(0.03765432098765432,0,0,0.03765432098765432,25.604938271604937,0)" xlink:href="#aM"/><use transform="matrix(0.03765432098765432,0,0,0.03765432098765432,33.1358024691358,0)" xlink:href="#al"/><use transform="matrix(0.03765432098765432,0,0,0.03765432098765432,40.66666666666666,0)" xlink:href="#ak"/><use transform="matrix(0.03765432098765432,0,0,0.03765432098765432,45.14753086419752,0)" xlink:href="#au"/><use transform="matrix(0.03765432098765432,0,0,0.03765432098765432,51.92530864197529,0)" xlink:href="#ap"/><use transform="matrix(0.03765432098765432,0,0,0.03765432098765432,59.456172839506166,0)" xlink:href="#af"/><use transform="matrix(0.03765432098765432,0,0,0.03765432098765432,66.98703703703703,0)" xlink:href="#at"/><use transform="matrix(0.03765432098765432,0,0,0.03765432098765432,74.51790123456789,0)" xlink:href="#as"/><use transform="matrix(0.03765432098765432,0,0,0.03765432098765432,85.77654320987654,0)" xlink:href="#ah"/></g><path fill="#3a414a" d="M137 0h-34L2-248h35l83 218 83-218h36" id="aO"/><path fill="#3a414a" d="M100-194c63 0 86 42 84 106H49c0 40 14 67 53 68 26 1 43-12 49-29l28 8c-11 28-37 45-77 45C44 4 14-33 15-96c1-61 26-98 85-98zm52 81c6-60-76-77-97-28-3 7-6 17-6 28h103" id="aP"/><path fill="#3a414a" d="M96-169c-40 0-48 33-48 73s9 75 48 75c24 0 41-14 43-38l32 2c-6 37-31 61-74 61-59 0-76-41-82-99-10-93 101-131 147-64 4 7 5 14 7 22l-32 3c-4-21-16-35-41-35" id="aQ"/><path fill="#3a414a" d="M59-47c-2 24 18 29 38 22v24C64 9 27 4 27-40v-127H5v-23h24l9-43h21v43h35v23H59v120" id="aR"/><path fill="#3a414a" d="M100-194c62-1 85 37 85 99 1 63-27 99-86 99S16-35 15-95c0-66 28-99 85-99zM99-20c44 1 53-31 53-75 0-43-8-75-51-75s-53 32-53 75 10 74 51 75" id="aS"/><path fill="#3a414a" d="M114-163C36-179 61-72 57 0H25l-1-190h30c1 12-1 29 2 39 6-27 23-49 58-41v29" id="aT"/><path fill="#3a414a" d="M30-248c118-7 216 8 213 122C240-48 200 0 122 0H30v-248zM63-27c89 8 146-16 146-99s-60-101-146-95v194" id="aU"/><path fill="#3a414a" d="M160-131c35 5 61 23 61 61C221 17 115-2 30 0v-248c76 3 177-17 177 60 0 33-19 50-47 57zm-97-11c50-1 110 9 110-42 0-47-63-36-110-37v79zm0 115c55-2 124 14 124-45 0-56-70-42-124-44v89" id="aV"/><g id="n"><use transform="matrix(0.049382716049382706,0,0,0.049382716049382706,0,0)" xlink:href="#aO"/><use transform="matrix(0.049382716049382706,0,0,0.049382716049382706,10.864197530864196,0)" xlink:href="#aP"/><use transform="matrix(0.049382716049382706,0,0,0.049382716049382706,20.740740740740737,0)" xlink:href="#aQ"/><use transform="matrix(0.049382716049382706,0,0,0.049382716049382706,29.629629629629623,0)" xlink:href="#aR"/><use transform="matrix(0.049382716049382706,0,0,0.049382716049382706,34.5679012345679,0)" xlink:href="#aS"/><use transform="matrix(0.049382716049382706,0,0,0.049382716049382706,44.44444444444444,0)" xlink:href="#aT"/><use transform="matrix(0.049382716049382706,0,0,0.049382716049382706,50.32098765432099,0)" xlink:href="#aU"/><use transform="matrix(0.049382716049382706,0,0,0.049382716049382706,63.11111111111111,0)" xlink:href="#aV"/></g><g id="o"><use transform="matrix(0.049382716049382706,0,0,0.049382716049382706,0,0)" xlink:href="#aO"/><use transform="matrix(0.049382716049382706,0,0,0.049382716049382706,10.864197530864196,0)" xlink:href="#aP"/><use transform="matrix(0.049382716049382706,0,0,0.049382716049382706,20.740740740740737,0)" xlink:href="#aQ"/><use transform="matrix(0.049382716049382706,0,0,0.049382716049382706,29.629629629629623,0)" xlink:href="#aR"/><use transform="matrix(0.049382716049382706,0,0,0.049382716049382706,34.5679012345679,0)" xlink:href="#aS"/><use transform="matrix(0.049382716049382706,0,0,0.049382716049382706,44.44444444444444,0)" xlink:href="#aT"/></g><g id="p"><use transform="matrix(0.049382716049382706,0,0,0.049382716049382706,0,0)" xlink:href="#aU"/><use transform="matrix(0.049382716049382706,0,0,0.049382716049382706,12.790123456790122,0)" xlink:href="#aV"/></g><path fill="#333" d="M140-251c81 0 123 46 123 126C263-53 228-8 163 1c7 30 30 48 69 40v23c-55 16-95-15-103-61C56-3 17-48 17-125c0-80 42-126 123-126zm0 227c63 0 89-41 89-101s-29-99-89-99c-61 0-89 39-89 99S79-25 140-24" id="aW"/><g id="q"><use transform="matrix(0.03703703703703704,0,0,0.03703703703703704,0,0)" xlink:href="#aW"/><use transform="matrix(0.03703703703703704,0,0,0.03703703703703704,10.370370370370372,0)" xlink:href="#am"/><use transform="matrix(0.03703703703703704,0,0,0.03703703703703704,17.77777777777778,0)" xlink:href="#ah"/><use transform="matrix(0.03703703703703704,0,0,0.03703703703703704,25.185185185185187,0)" xlink:href="#ak"/><use transform="matrix(0.03703703703703704,0,0,0.03703703703703704,29.592592592592595,0)" xlink:href="#au"/><use transform="matrix(0.03703703703703704,0,0,0.03703703703703704,36.25925925925927,0)" xlink:href="#aq"/><use transform="matrix(0.03703703703703704,0,0,0.03703703703703704,39.18518518518519,0)" xlink:href="#af"/><use transform="matrix(0.03703703703703704,0,0,0.03703703703703704,46.592592592592595,0)" xlink:href="#aM"/></g><path fill="#333" d="M30 0v-248h33v221h125V0H30" id="aX"/><path fill="#333" d="M16-82v-28h88v28H16" id="aY"/><path fill="#333" d="M18-100v-36l175-74v27L42-118l151 64v27" id="aZ"/><path fill="#333" d="M18-27v-27l151-64-151-65v-27l175 74v36" id="ba"/><g id="r"><use transform="matrix(0.03703703703703704,0,0,0.03703703703703704,0,0)" xlink:href="#aX"/><use transform="matrix(0.03703703703703704,0,0,0.03703703703703704,7.407407407407408,0)" xlink:href="#at"/><use transform="matrix(0.03703703703703704,0,0,0.03703703703703704,14.814814814814817,0)" xlink:href="#au"/><use transform="matrix(0.03703703703703704,0,0,0.03703703703703704,21.481481481481485,0)" xlink:href="#ah"/><use transform="matrix(0.03703703703703704,0,0,0.03703703703703704,28.888888888888893,0)" xlink:href="#ak"/><use transform="matrix(0.03703703703703704,0,0,0.03703703703703704,33.296296296296305,0)" xlink:href="#aY"/><use transform="matrix(0.03703703703703704,0,0,0.03703703703703704,37.70370370370371,0)" xlink:href="#aZ"/><use transform="matrix(0.03703703703703704,0,0,0.03703703703703704,45.48148148148149,0)" xlink:href="#aq"/><use transform="matrix(0.03703703703703704,0,0,0.03703703703703704,48.40740740740741,0)" xlink:href="#ag"/><use transform="matrix(0.03703703703703704,0,0,0.03703703703703704,55.814814814814824,0)" xlink:href="#ba"/></g><path d="M30-248c118-7 216 8 213 122C240-48 200 0 122 0H30v-248zM63-27c89 8 146-16 146-99s-60-101-146-95v194" id="bb"/><path d="M141-36C126-15 110 5 73 4 37 3 15-17 15-53c-1-64 63-63 125-63 3-35-9-54-41-54-24 1-41 7-42 31l-33-3c5-37 33-52 76-52 45 0 72 20 72 64v82c-1 20 7 32 28 27v20c-31 9-61-2-59-35zM48-53c0 20 12 33 32 33 41-3 63-29 60-74-43 2-92-5-92 41" id="bc"/><path d="M59-47c-2 24 18 29 38 22v24C64 9 27 4 27-40v-127H5v-23h24l9-43h21v43h35v23H59v120" id="bd"/><path d="M115-194c53 0 69 39 70 98 0 66-23 100-70 100C84 3 66-7 56-30L54 0H23l1-261h32v101c10-23 28-34 59-34zm-8 174c40 0 45-34 45-75 0-40-5-75-45-74-42 0-51 32-51 76 0 43 10 73 51 73" id="be"/><path d="M135-143c-3-34-86-38-87 0 15 53 115 12 119 90S17 21 10-45l28-5c4 36 97 45 98 0-10-56-113-15-118-90-4-57 82-63 122-42 12 7 21 19 24 35" id="bf"/><path d="M100-194c63 0 86 42 84 106H49c0 40 14 67 53 68 26 1 43-12 49-29l28 8c-11 28-37 45-77 45C44 4 14-33 15-96c1-61 26-98 85-98zm52 81c6-60-76-77-97-28-3 7-6 17-6 28h103" id="bg"/><g id="s"><use transform="matrix(0.03765432098765432,0,0,0.03765432098765432,0,0)" xlink:href="#bb"/><use transform="matrix(0.03765432098765432,0,0,0.03765432098765432,9.752469135802468,0)" xlink:href="#bc"/><use transform="matrix(0.03765432098765432,0,0,0.03765432098765432,17.28333333333333,0)" xlink:href="#bd"/><use transform="matrix(0.03765432098765432,0,0,0.03765432098765432,21.048765432098765,0)" xlink:href="#bc"/><use transform="matrix(0.03765432098765432,0,0,0.03765432098765432,28.579629629629625,0)" xlink:href="#be"/><use transform="matrix(0.03765432098765432,0,0,0.03765432098765432,36.11049382716049,0)" xlink:href="#bc"/><use transform="matrix(0.03765432098765432,0,0,0.03765432098765432,43.64135802469136,0)" xlink:href="#bf"/><use transform="matrix(0.03765432098765432,0,0,0.03765432098765432,50.41913580246913,0)" xlink:href="#bg"/></g><path d="M140-251c81 0 123 46 123 126C263-53 228-8 163 1c7 30 30 48 69 40v23c-55 16-95-15-103-61C56-3 17-48 17-125c0-80 42-126 123-126zm0 227c63 0 89-41 89-101s-29-99-89-99c-61 0-89 39-89 99S79-25 140-24" id="bh"/><path d="M84 4C-5 8 30-112 23-190h32v120c0 31 7 50 39 49 72-2 45-101 50-169h31l1 190h-30c-1-10 1-25-2-33-11 22-28 36-60 37" id="bi"/><path d="M114-163C36-179 61-72 57 0H25l-1-190h30c1 12-1 29 2 39 6-27 23-49 58-41v29" id="bj"/><path d="M179-190L93 31C79 59 56 82 12 73V49c39 6 53-20 64-50L1-190h34L92-34l54-156h33" id="bk"/><path d="M24-231v-30h32v30H24zM24 0v-190h32V0H24" id="bl"/><path d="M117-194c89-4 53 116 60 194h-32v-121c0-31-8-49-39-48C34-167 62-67 57 0H25l-1-190h30c1 10-1 24 2 32 11-22 29-35 61-36" id="bm"/><path d="M177-190C167-65 218 103 67 71c-23-6-38-20-44-43l32-5c15 47 100 32 89-28v-30C133-14 115 1 83 1 29 1 15-40 15-95c0-56 16-97 71-98 29-1 48 16 59 35 1-10 0-23 2-32h30zM94-22c36 0 50-32 50-73 0-42-14-75-50-75-39 0-46 34-46 75s6 73 46 73" id="bn"/><g id="t"><use transform="matrix(0.03765432098765432,0,0,0.03765432098765432,0,0)" xlink:href="#bh"/><use transform="matrix(0.03765432098765432,0,0,0.03765432098765432,10.543209876543209,0)" xlink:href="#bi"/><use transform="matrix(0.03765432098765432,0,0,0.03765432098765432,18.074074074074073,0)" xlink:href="#bg"/><use transform="matrix(0.03765432098765432,0,0,0.03765432098765432,25.604938271604937,0)" xlink:href="#bj"/><use transform="matrix(0.03765432098765432,0,0,0.03765432098765432,30.0858024691358,0)" xlink:href="#bk"/><use transform="matrix(0.03765432098765432,0,0,0.03765432098765432,36.86358024691358,0)" xlink:href="#bl"/><use transform="matrix(0.03765432098765432,0,0,0.03765432098765432,39.83827160493827,0)" xlink:href="#bm"/><use transform="matrix(0.03765432098765432,0,0,0.03765432098765432,47.36913580246913,0)" xlink:href="#bn"/></g><path d="M33 0v-248h34V0H33" id="bo"/><path d="M101-234c-31-9-42 10-38 44h38v23H63V0H32v-167H5v-23h27c-7-52 17-82 69-68v24" id="bp"/><path d="M96-169c-40 0-48 33-48 73s9 75 48 75c24 0 41-14 43-38l32 2c-6 37-31 61-74 61-59 0-76-41-82-99-10-93 101-131 147-64 4 7 5 14 7 22l-32 3c-4-21-16-35-41-35" id="bq"/><g id="u"><use transform="matrix(0.03765432098765432,0,0,0.03765432098765432,0,0)" xlink:href="#bo"/><use transform="matrix(0.03765432098765432,0,0,0.03765432098765432,3.765432098765432,0)" xlink:href="#bm"/><use transform="matrix(0.03765432098765432,0,0,0.03765432098765432,11.296296296296296,0)" xlink:href="#bd"/><use transform="matrix(0.03765432098765432,0,0,0.03765432098765432,15.061728395061728,0)" xlink:href="#bg"/><use transform="matrix(0.03765432098765432,0,0,0.03765432098765432,22.59259259259259,0)" xlink:href="#bj"/><use transform="matrix(0.03765432098765432,0,0,0.03765432098765432,27.073456790123455,0)" xlink:href="#bp"/><use transform="matrix(0.03765432098765432,0,0,0.03765432098765432,30.83888888888889,0)" xlink:href="#bc"/><use transform="matrix(0.03765432098765432,0,0,0.03765432098765432,38.36975308641975,0)" xlink:href="#bq"/><use transform="matrix(0.03765432098765432,0,0,0.03765432098765432,45.14753086419753,0)" xlink:href="#bg"/></g><path fill="#3a414a" d="M30-248c87 1 191-15 191 75 0 78-77 80-158 76V0H30v-248zm33 125c57 0 124 11 124-50 0-59-68-47-124-48v98" id="br"/><path fill="#3a414a" d="M179-190L93 31C79 59 56 82 12 73V49c39 6 53-20 64-50L1-190h34L92-34l54-156h33" id="bs"/><path fill="#3a414a" d="M85-194c31 0 48 13 60 33l-1-100h32l1 261h-30c-2-10 0-23-3-31C134-8 116 4 85 4 32 4 16-35 15-94c0-66 23-100 70-100zm9 24c-40 0-46 34-46 75 0 40 6 74 45 74 42 0 51-32 51-76 0-42-9-74-50-73" id="bt"/><path fill="#3a414a" d="M141-36C126-15 110 5 73 4 37 3 15-17 15-53c-1-64 63-63 125-63 3-35-9-54-41-54-24 1-41 7-42 31l-33-3c5-37 33-52 76-52 45 0 72 20 72 64v82c-1 20 7 32 28 27v20c-31 9-61-2-59-35zM48-53c0 20 12 33 32 33 41-3 63-29 60-74-43 2-92-5-92 41" id="bu"/><path fill="#3a414a" d="M117-194c89-4 53 116 60 194h-32v-121c0-31-8-49-39-48C34-167 62-67 57 0H25l-1-190h30c1 10-1 24 2 32 11-22 29-35 61-36" id="bv"/><path fill="#3a414a" d="M24-231v-30h32v30H24zM24 0v-190h32V0H24" id="bw"/><g id="v"><use transform="matrix(0.030864197530864175,0,0,0.030864197530864175,0,0)" xlink:href="#br"/><use transform="matrix(0.030864197530864175,0,0,0.030864197530864175,7.407407407407402,0)" xlink:href="#bs"/><use transform="matrix(0.030864197530864175,0,0,0.030864197530864175,12.962962962962955,0)" xlink:href="#bt"/><use transform="matrix(0.030864197530864175,0,0,0.030864197530864175,19.13580246913579,0)" xlink:href="#bu"/><use transform="matrix(0.030864197530864175,0,0,0.030864197530864175,25.308641975308625,0)" xlink:href="#bv"/><use transform="matrix(0.030864197530864175,0,0,0.030864197530864175,31.48148148148146,0)" xlink:href="#aR"/><use transform="matrix(0.030864197530864175,0,0,0.030864197530864175,34.56790123456788,0)" xlink:href="#bw"/><use transform="matrix(0.030864197530864175,0,0,0.030864197530864175,37.00617283950615,0)" xlink:href="#aQ"/></g><g id="w"><use transform="matrix(0.030864197530864175,0,0,0.030864197530864175,0,0)" xlink:href="#aU"/><use transform="matrix(0.030864197530864175,0,0,0.030864197530864175,7.993827160493821,0)" xlink:href="#bu"/><use transform="matrix(0.030864197530864175,0,0,0.030864197530864175,14.166666666666657,0)" xlink:href="#aR"/><use transform="matrix(0.030864197530864175,0,0,0.030864197530864175,17.253086419753075,0)" xlink:href="#bu"/></g><path fill="#3a414a" d="M63-220v92h138v28H63V0H30v-248h175v28H63" id="bx"/><path fill="#3a414a" d="M106-169C34-169 62-67 57 0H25v-261h32l-1 103c12-21 28-36 61-36 89 0 53 116 60 194h-32v-121c2-32-8-49-39-48" id="by"/><path fill="#3a414a" d="M177-190C167-65 218 103 67 71c-23-6-38-20-44-43l32-5c15 47 100 32 89-28v-30C133-14 115 1 83 1 29 1 15-40 15-95c0-56 16-97 71-98 29-1 48 16 59 35 1-10 0-23 2-32h30zM94-22c36 0 50-32 50-73 0-42-14-75-50-75-39 0-46 34-46 75s6 73 46 73" id="bz"/><g id="x"><use transform="matrix(0.030864197530864175,0,0,0.030864197530864175,0,0)" xlink:href="#bx"/><use transform="matrix(0.030864197530864175,0,0,0.030864197530864175,6.759259259259254,0)" xlink:href="#aP"/><use transform="matrix(0.030864197530864175,0,0,0.030864197530864175,12.93209876543209,0)" xlink:href="#aR"/><use transform="matrix(0.030864197530864175,0,0,0.030864197530864175,16.018518518518505,0)" xlink:href="#aQ"/><use transform="matrix(0.030864197530864175,0,0,0.030864197530864175,21.574074074074055,0)" xlink:href="#by"/><use transform="matrix(0.030864197530864175,0,0,0.030864197530864175,27.74691358024689,0)" xlink:href="#bw"/><use transform="matrix(0.030864197530864175,0,0,0.030864197530864175,30.18518518518516,0)" xlink:href="#bv"/><use transform="matrix(0.030864197530864175,0,0,0.030864197530864175,36.358024691358,0)" xlink:href="#bz"/></g><path fill="#3a414a" d="M30 0v-248h33v221h125V0H30" id="bA"/><g id="y"><use transform="matrix(0.030864197530864175,0,0,0.030864197530864175,0,0)" xlink:href="#bA"/><use transform="matrix(0.030864197530864175,0,0,0.030864197530864175,6.172839506172835,0)" xlink:href="#bu"/><use transform="matrix(0.030864197530864175,0,0,0.030864197530864175,12.34567901234567,0)" xlink:href="#bs"/><use transform="matrix(0.030864197530864175,0,0,0.030864197530864175,17.90123456790122,0)" xlink:href="#aP"/><use transform="matrix(0.030864197530864175,0,0,0.030864197530864175,24.074074074074055,0)" xlink:href="#aT"/></g><path fill="#3a414a" d="M140-251c81 0 123 46 123 126C263-53 228-8 163 1c7 30 30 48 69 40v23c-55 16-95-15-103-61C56-3 17-48 17-125c0-80 42-126 123-126zm0 227c63 0 89-41 89-101s-29-99-89-99c-61 0-89 39-89 99S79-25 140-24" id="bB"/><path fill="#3a414a" d="M84 4C-5 8 30-112 23-190h32v120c0 31 7 50 39 49 72-2 45-101 50-169h31l1 190h-30c-1-10 1-25-2-33-11 22-28 36-60 37" id="bC"/><g id="z"><use transform="matrix(0.030864197530864175,0,0,0.030864197530864175,0,0)" xlink:href="#bB"/><use transform="matrix(0.030864197530864175,0,0,0.030864197530864175,8.64197530864197,0)" xlink:href="#bC"/><use transform="matrix(0.030864197530864175,0,0,0.030864197530864175,14.814814814814804,0)" xlink:href="#aP"/><use transform="matrix(0.030864197530864175,0,0,0.030864197530864175,20.987654320987637,0)" xlink:href="#aT"/><use transform="matrix(0.030864197530864175,0,0,0.030864197530864175,24.660493827160472,0)" xlink:href="#bs"/></g><path fill="#3a414a" d="M127-220V0H93v-220H8v-28h204v28h-85" id="bD"/><path fill="#3a414a" d="M135-143c-3-34-86-38-87 0 15 53 115 12 119 90S17 21 10-45l28-5c4 36 97 45 98 0-10-56-113-15-118-90-4-57 82-63 122-42 12 7 21 19 24 35" id="bE"/><path fill="#3a414a" d="M101-234c-31-9-42 10-38 44h38v23H63V0H32v-167H5v-23h27c-7-52 17-82 69-68v24" id="bF"/><path fill="#3a414a" d="M210-169c-67 3-38 105-44 169h-31v-121c0-29-5-50-35-48C34-165 62-65 56 0H25l-1-190h30c1 10-1 24 2 32 10-44 99-50 107 0 11-21 27-35 58-36 85-2 47 119 55 194h-31v-121c0-29-5-49-35-48" id="bG"/><g id="A"><use transform="matrix(0.030864197530864175,0,0,0.030864197530864175,0,0)" xlink:href="#bD"/><use transform="matrix(0.030864197530864175,0,0,0.030864197530864175,6.35802469135802,0)" xlink:href="#aT"/><use transform="matrix(0.030864197530864175,0,0,0.030864197530864175,10.030864197530857,0)" xlink:href="#bu"/><use transform="matrix(0.030864197530864175,0,0,0.030864197530864175,16.20370370370369,0)" xlink:href="#bv"/><use transform="matrix(0.030864197530864175,0,0,0.030864197530864175,22.376543209876527,0)" xlink:href="#bE"/><use transform="matrix(0.030864197530864175,0,0,0.030864197530864175,27.93209876543208,0)" xlink:href="#bF"/><use transform="matrix(0.030864197530864175,0,0,0.030864197530864175,31.018518518518498,0)" xlink:href="#aS"/><use transform="matrix(0.030864197530864175,0,0,0.030864197530864175,37.19135802469133,0)" xlink:href="#aT"/><use transform="matrix(0.030864197530864175,0,0,0.030864197530864175,40.86419753086417,0)" xlink:href="#bG"/><use transform="matrix(0.030864197530864175,0,0,0.030864197530864175,50.09259259259255,0)" xlink:href="#bu"/><use transform="matrix(0.030864197530864175,0,0,0.030864197530864175,56.26543209876539,0)" xlink:href="#aR"/><use transform="matrix(0.030864197530864175,0,0,0.030864197530864175,59.351851851851805,0)" xlink:href="#bw"/><use transform="matrix(0.030864197530864175,0,0,0.030864197530864175,61.79012345679008,0)" xlink:href="#aS"/><use transform="matrix(0.030864197530864175,0,0,0.030864197530864175,67.9629629629629,0)" xlink:href="#bv"/></g><path fill="#333" d="M233-177c-1 41-23 64-60 70L243 0h-38l-65-103H63V0H30v-248c88 3 205-21 203 71zM63-129c60-2 137 13 137-47 0-61-80-42-137-45v92" id="bH"/><path fill="#333" d="M206 0h-36l-40-164L89 0H53L-1-190h32L70-26l43-164h34l41 164 42-164h31" id="bI"/><path fill="#333" d="M24 0v-261h32V0H24" id="bJ"/><g id="B"><use transform="matrix(0.03765432098765432,0,0,0.03765432098765432,0,0)" xlink:href="#bH"/><use transform="matrix(0.03765432098765432,0,0,0.03765432098765432,9.752469135802468,0)" xlink:href="#at"/><use transform="matrix(0.03765432098765432,0,0,0.03765432098765432,17.28333333333333,0)" xlink:href="#bI"/><use transform="matrix(0.03765432098765432,0,0,0.03765432098765432,27.0358024691358,0)" xlink:href="#aN"/><use transform="matrix(0.03765432098765432,0,0,0.03765432098765432,36.78827160493827,0)" xlink:href="#at"/><use transform="matrix(0.03765432098765432,0,0,0.03765432098765432,44.319135802469134,0)" xlink:href="#ao"/><use transform="matrix(0.03765432098765432,0,0,0.03765432098765432,48.084567901234564,0)" xlink:href="#at"/><use transform="matrix(0.03765432098765432,0,0,0.03765432098765432,55.615432098765424,0)" xlink:href="#bJ"/><use transform="matrix(0.03765432098765432,0,0,0.03765432098765432,58.59012345679012,0)" xlink:href="#al"/><use transform="matrix(0.03765432098765432,0,0,0.03765432098765432,66.12098765432098,0)" xlink:href="#aM"/><use transform="matrix(0.03765432098765432,0,0,0.03765432098765432,73.65185185185184,0)" xlink:href="#aj"/><use transform="matrix(0.03765432098765432,0,0,0.03765432098765432,82.68888888888888,0)" xlink:href="#ak"/><use transform="matrix(0.03765432098765432,0,0,0.03765432098765432,87.16975308641975,0)" xlink:href="#al"/><use transform="matrix(0.03765432098765432,0,0,0.03765432098765432,94.7006172839506,0)" xlink:href="#ag"/><use transform="matrix(0.03765432098765432,0,0,0.03765432098765432,102.23148148148147,0)" xlink:href="#am"/><use transform="matrix(0.03765432098765432,0,0,0.03765432098765432,109.76234567901234,0)" xlink:href="#an"/><use transform="matrix(0.03765432098765432,0,0,0.03765432098765432,116.5401234567901,0)" xlink:href="#ao"/></g><g id="C"><use transform="matrix(0.03765432098765432,0,0,0.03765432098765432,0,0)" xlink:href="#aA"/><use transform="matrix(0.03765432098765432,0,0,0.03765432098765432,6.777777777777777,0)" xlink:href="#av"/><use transform="matrix(0.03765432098765432,0,0,0.03765432098765432,13.555555555555554,0)" xlink:href="#am"/></g><g id="D"><use transform="matrix(0.03765432098765432,0,0,0.03765432098765432,0,0)" xlink:href="#an"/><use transform="matrix(0.03765432098765432,0,0,0.03765432098765432,6.777777777777777,0)" xlink:href="#at"/><use transform="matrix(0.03765432098765432,0,0,0.03765432098765432,14.30864197530864,0)" xlink:href="#ao"/><use transform="matrix(0.03765432098765432,0,0,0.03765432098765432,18.074074074074073,0)" xlink:href="#at"/><use transform="matrix(0.03765432098765432,0,0,0.03765432098765432,25.604938271604937,0)" xlink:href="#bJ"/><use transform="matrix(0.03765432098765432,0,0,0.03765432098765432,28.579629629629625,0)" xlink:href="#al"/><use transform="matrix(0.03765432098765432,0,0,0.03765432098765432,36.1104938271605,0)" xlink:href="#aM"/><use transform="matrix(0.03765432098765432,0,0,0.03765432098765432,43.64135802469136,0)" xlink:href="#ap"/><use transform="matrix(0.03765432098765432,0,0,0.03765432098765432,51.17222222222222,0)" xlink:href="#aq"/><use transform="matrix(0.03765432098765432,0,0,0.03765432098765432,54.14691358024691,0)" xlink:href="#ag"/></g><path fill="#333" d="M63-220v92h138v28H63V0H30v-248h175v28H63" id="bK"/><g id="E"><use transform="matrix(0.03765432098765432,0,0,0.03765432098765432,0,0)" xlink:href="#bK"/><use transform="matrix(0.03765432098765432,0,0,0.03765432098765432,8.246296296296295,0)" xlink:href="#al"/><use transform="matrix(0.03765432098765432,0,0,0.03765432098765432,15.777160493827159,0)" xlink:href="#ak"/><use transform="matrix(0.03765432098765432,0,0,0.03765432098765432,20.258024691358024,0)" xlink:href="#ah"/><use transform="matrix(0.03765432098765432,0,0,0.03765432098765432,27.788888888888888,0)" xlink:href="#aq"/><use transform="matrix(0.03765432098765432,0,0,0.03765432098765432,30.76358024691358,0)" xlink:href="#aM"/><use transform="matrix(0.03765432098765432,0,0,0.03765432098765432,38.294444444444444,0)" xlink:href="#af"/></g><path fill="#333" d="M194 0L95-120 63-95V0H30v-248h33v124l119-124h40L117-140 236 0h-42" id="bL"/><g id="F"><use transform="matrix(0.03765432098765432,0,0,0.03765432098765432,0,0)" xlink:href="#bL"/><use transform="matrix(0.03765432098765432,0,0,0.03765432098765432,9.037037037037036,0)" xlink:href="#ah"/><use transform="matrix(0.03765432098765432,0,0,0.03765432098765432,16.5679012345679,0)" xlink:href="#au"/></g><g id="G"><use transform="matrix(0.03765432098765432,0,0,0.03765432098765432,0,0)" xlink:href="#ag"/><use transform="matrix(0.03765432098765432,0,0,0.03765432098765432,7.530864197530864,0)" xlink:href="#at"/><use transform="matrix(0.03765432098765432,0,0,0.03765432098765432,15.061728395061728,0)" xlink:href="#ao"/><use transform="matrix(0.03765432098765432,0,0,0.03765432098765432,18.827160493827158,0)" xlink:href="#at"/></g><path fill="#333" d="M160-131c35 5 61 23 61 61C221 17 115-2 30 0v-248c76 3 177-17 177 60 0 33-19 50-47 57zm-97-11c50-1 110 9 110-42 0-47-63-36-110-37v79zm0 115c55-2 124 14 124-45 0-56-70-42-124-44v89" id="bM"/><g id="H"><use transform="matrix(0.03765432098765432,0,0,0.03765432098765432,0,0)" xlink:href="#aw"/><use transform="matrix(0.03765432098765432,0,0,0.03765432098765432,6.777777777777777,0)" xlink:href="#ax"/><use transform="matrix(0.03765432098765432,0,0,0.03765432098765432,15.814814814814813,0)" xlink:href="#ay"/><use transform="matrix(0.03765432098765432,0,0,0.03765432098765432,26.358024691358022,0)" xlink:href="#az"/><use transform="matrix(0.03765432098765432,0,0,0.03765432098765432,36.11049382716049,0)" xlink:href="#bM"/></g><g id="I"><use transform="matrix(0.03765432098765432,0,0,0.03765432098765432,0,0)" xlink:href="#bJ"/><use transform="matrix(0.03765432098765432,0,0,0.03765432098765432,2.974691358024691,0)" xlink:href="#at"/><use transform="matrix(0.03765432098765432,0,0,0.03765432098765432,10.505555555555555,0)" xlink:href="#aA"/><use transform="matrix(0.03765432098765432,0,0,0.03765432098765432,17.28333333333333,0)" xlink:href="#ao"/><use transform="matrix(0.03765432098765432,0,0,0.03765432098765432,21.048765432098765,0)" xlink:href="#ap"/><use transform="matrix(0.03765432098765432,0,0,0.03765432098765432,28.579629629629625,0)" xlink:href="#am"/><use transform="matrix(0.03765432098765432,0,0,0.03765432098765432,36.11049382716049,0)" xlink:href="#ar"/><use transform="matrix(0.03765432098765432,0,0,0.03765432098765432,43.64135802469136,0)" xlink:href="#ag"/><use transform="matrix(0.03765432098765432,0,0,0.03765432098765432,51.17222222222222,0)" xlink:href="#at"/><use transform="matrix(0.03765432098765432,0,0,0.03765432098765432,58.70308641975308,0)" xlink:href="#ao"/><use transform="matrix(0.03765432098765432,0,0,0.03765432098765432,62.46851851851851,0)" xlink:href="#ah"/><use transform="matrix(0.03765432098765432,0,0,0.03765432098765432,69.99938271604937,0)" xlink:href="#ag"/><use transform="matrix(0.03765432098765432,0,0,0.03765432098765432,77.53024691358023,0)" xlink:href="#ap"/><use transform="matrix(0.03765432098765432,0,0,0.03765432098765432,85.06111111111109,0)" xlink:href="#at"/><use transform="matrix(0.03765432098765432,0,0,0.03765432098765432,92.59197530864195,0)" xlink:href="#ao"/></g><g id="J"><use transform="matrix(0.03765432098765432,0,0,0.03765432098765432,0,0)" xlink:href="#ag"/><use transform="matrix(0.03765432098765432,0,0,0.03765432098765432,7.530864197530864,0)" xlink:href="#at"/><use transform="matrix(0.03765432098765432,0,0,0.03765432098765432,15.061728395061728,0)" xlink:href="#ao"/><use transform="matrix(0.03765432098765432,0,0,0.03765432098765432,18.827160493827158,0)" xlink:href="#ah"/><use transform="matrix(0.03765432098765432,0,0,0.03765432098765432,26.358024691358022,0)" xlink:href="#ao"/><use transform="matrix(0.03765432098765432,0,0,0.03765432098765432,30.123456790123456,0)" xlink:href="#aq"/><use transform="matrix(0.03765432098765432,0,0,0.03765432098765432,33.09814814814815,0)" xlink:href="#as"/><use transform="matrix(0.03765432098765432,0,0,0.03765432098765432,44.35679012345678,0)" xlink:href="#ah"/></g><g id="K"><use transform="matrix(0.03765432098765432,0,0,0.03765432098765432,0,0)" xlink:href="#aq"/><use transform="matrix(0.03765432098765432,0,0,0.03765432098765432,2.974691358024691,0)" xlink:href="#af"/><use transform="matrix(0.03765432098765432,0,0,0.03765432098765432,10.505555555555555,0)" xlink:href="#ao"/><use transform="matrix(0.03765432098765432,0,0,0.03765432098765432,14.270987654320987,0)" xlink:href="#ah"/><use transform="matrix(0.03765432098765432,0,0,0.03765432098765432,21.80185185185185,0)" xlink:href="#aM"/><use transform="matrix(0.03765432098765432,0,0,0.03765432098765432,29.332716049382714,0)" xlink:href="#ah"/><use transform="matrix(0.03765432098765432,0,0,0.03765432098765432,36.86358024691358,0)" xlink:href="#ak"/></g><path fill="#333" d="M240 0l2-218c-23 76-54 145-80 218h-23L58-218 59 0H30v-248h44l77 211c21-75 51-140 76-211h43V0h-30" id="bN"/><path fill="#333" d="M30-248c118-7 216 8 213 122C240-48 200 0 122 0H30v-248zM63-27c89 8 146-16 146-99s-60-101-146-95v194" id="bO"/><g id="L"><use transform="matrix(0.03765432098765432,0,0,0.03765432098765432,0,0)" xlink:href="#aN"/><use transform="matrix(0.03765432098765432,0,0,0.03765432098765432,9.752469135802468,0)" xlink:href="#at"/><use transform="matrix(0.03765432098765432,0,0,0.03765432098765432,17.28333333333333,0)" xlink:href="#ao"/><use transform="matrix(0.03765432098765432,0,0,0.03765432098765432,21.048765432098765,0)" xlink:href="#at"/><use transform="matrix(0.03765432098765432,0,0,0.03765432098765432,28.579629629629625,0)" xlink:href="#bJ"/><use transform="matrix(0.03765432098765432,0,0,0.03765432098765432,31.554320987654318,0)" xlink:href="#al"/><use transform="matrix(0.03765432098765432,0,0,0.03765432098765432,39.08518518518518,0)" xlink:href="#aM"/><use transform="matrix(0.03765432098765432,0,0,0.03765432098765432,46.61604938271604,0)" xlink:href="#bN"/><use transform="matrix(0.03765432098765432,0,0,0.03765432098765432,57.874691358024684,0)" xlink:href="#ah"/><use transform="matrix(0.03765432098765432,0,0,0.03765432098765432,65.40555555555555,0)" xlink:href="#ao"/><use transform="matrix(0.03765432098765432,0,0,0.03765432098765432,69.17098765432098,0)" xlink:href="#at"/><use transform="matrix(0.03765432098765432,0,0,0.03765432098765432,76.70185185185184,0)" xlink:href="#bO"/><use transform="matrix(0.03765432098765432,0,0,0.03765432098765432,86.45432098765431,0)" xlink:href="#at"/><use transform="matrix(0.03765432098765432,0,0,0.03765432098765432,93.98518518518517,0)" xlink:href="#ao"/><use transform="matrix(0.03765432098765432,0,0,0.03765432098765432,97.7506172839506,0)" xlink:href="#at"/></g><g id="M"><use transform="matrix(0.03765432098765432,0,0,0.03765432098765432,0,0)" xlink:href="#ar"/><use transform="matrix(0.03765432098765432,0,0,0.03765432098765432,7.530864197530864,0)" xlink:href="#ak"/><use transform="matrix(0.03765432098765432,0,0,0.03765432098765432,12.011728395061727,0)" xlink:href="#al"/><use transform="matrix(0.03765432098765432,0,0,0.03765432098765432,19.54259259259259,0)" xlink:href="#ag"/><use transform="matrix(0.03765432098765432,0,0,0.03765432098765432,27.073456790123455,0)" xlink:href="#am"/><use transform="matrix(0.03765432098765432,0,0,0.03765432098765432,34.60432098765432,0)" xlink:href="#an"/><use transform="matrix(0.03765432098765432,0,0,0.03765432098765432,41.3820987654321,0)" xlink:href="#ao"/><use transform="matrix(0.03765432098765432,0,0,0.03765432098765432,45.14753086419753,0)" xlink:href="#ap"/><use transform="matrix(0.03765432098765432,0,0,0.03765432098765432,52.6783950617284,0)" xlink:href="#an"/><use transform="matrix(0.03765432098765432,0,0,0.03765432098765432,59.45617283950617,0)" xlink:href="#al"/><use transform="matrix(0.03765432098765432,0,0,0.03765432098765432,66.98703703703704,0)" xlink:href="#am"/><use transform="matrix(0.03765432098765432,0,0,0.03765432098765432,74.5179012345679,0)" xlink:href="#af"/><use transform="matrix(0.03765432098765432,0,0,0.03765432098765432,82.04876543209876,0)" xlink:href="#ao"/></g><g id="N"><use transform="matrix(0.03765432098765432,0,0,0.03765432098765432,0,0)" xlink:href="#an"/><use transform="matrix(0.03765432098765432,0,0,0.03765432098765432,6.777777777777777,0)" xlink:href="#at"/><use transform="matrix(0.03765432098765432,0,0,0.03765432098765432,14.30864197530864,0)" xlink:href="#ao"/><use transform="matrix(0.03765432098765432,0,0,0.03765432098765432,18.074074074074073,0)" xlink:href="#at"/><use transform="matrix(0.03765432098765432,0,0,0.03765432098765432,25.604938271604937,0)" xlink:href="#bJ"/><use transform="matrix(0.03765432098765432,0,0,0.03765432098765432,28.579629629629625,0)" xlink:href="#al"/><use transform="matrix(0.03765432098765432,0,0,0.03765432098765432,36.1104938271605,0)" xlink:href="#aM"/><use transform="matrix(0.03765432098765432,0,0,0.03765432098765432,43.64135802469136,0)" xlink:href="#ap"/><use transform="matrix(0.03765432098765432,0,0,0.03765432098765432,51.17222222222222,0)" xlink:href="#af"/><use transform="matrix(0.03765432098765432,0,0,0.03765432098765432,58.70308641975308,0)" xlink:href="#at"/><use transform="matrix(0.03765432098765432,0,0,0.03765432098765432,66.23395061728394,0)" xlink:href="#as"/><use transform="matrix(0.03765432098765432,0,0,0.03765432098765432,77.49259259259259,0)" xlink:href="#ah"/></g><g id="O"><use transform="matrix(0.03765432098765432,0,0,0.03765432098765432,0,0)" xlink:href="#ay"/><use transform="matrix(0.03765432098765432,0,0,0.03765432098765432,10.543209876543209,0)" xlink:href="#ar"/><use transform="matrix(0.03765432098765432,0,0,0.03765432098765432,18.074074074074073,0)" xlink:href="#ao"/><use transform="matrix(0.03765432098765432,0,0,0.03765432098765432,21.83950617283951,0)" xlink:href="#aq"/><use transform="matrix(0.03765432098765432,0,0,0.03765432098765432,24.8141975308642,0)" xlink:href="#al"/><use transform="matrix(0.03765432098765432,0,0,0.03765432098765432,32.345061728395066,0)" xlink:href="#af"/><use transform="matrix(0.03765432098765432,0,0,0.03765432098765432,39.875925925925934,0)" xlink:href="#at"/><use transform="matrix(0.03765432098765432,0,0,0.03765432098765432,47.40679012345679,0)" xlink:href="#bJ"/><use transform="matrix(0.03765432098765432,0,0,0.03765432098765432,50.38148148148148,0)" xlink:href="#aD"/><use transform="matrix(0.03765432098765432,0,0,0.03765432098765432,54.14691358024691,0)" xlink:href="#aA"/><use transform="matrix(0.03765432098765432,0,0,0.03765432098765432,60.92469135802469,0)" xlink:href="#ao"/><use transform="matrix(0.03765432098765432,0,0,0.03765432098765432,64.69012345679012,0)" xlink:href="#ak"/><use transform="matrix(0.03765432098765432,0,0,0.03765432098765432,69.17098765432098,0)" xlink:href="#aq"/><use transform="matrix(0.03765432098765432,0,0,0.03765432098765432,72.14567901234567,0)" xlink:href="#af"/><use transform="matrix(0.03765432098765432,0,0,0.03765432098765432,79.67654320987654,0)" xlink:href="#aM"/><use transform="matrix(0.03765432098765432,0,0,0.03765432098765432,87.20740740740739,0)" xlink:href="#aH"/></g><g id="P"><use transform="matrix(0.03765432098765432,0,0,0.03765432098765432,0,0)" xlink:href="#an"/><use transform="matrix(0.03765432098765432,0,0,0.03765432098765432,6.777777777777777,0)" xlink:href="#at"/><use transform="matrix(0.03765432098765432,0,0,0.03765432098765432,14.30864197530864,0)" xlink:href="#ao"/><use transform="matrix(0.03765432098765432,0,0,0.03765432098765432,18.074074074074073,0)" xlink:href="#at"/><use transform="matrix(0.03765432098765432,0,0,0.03765432098765432,25.604938271604937,0)" xlink:href="#bJ"/><use transform="matrix(0.03765432098765432,0,0,0.03765432098765432,28.579629629629625,0)" xlink:href="#al"/><use transform="matrix(0.03765432098765432,0,0,0.03765432098765432,36.1104938271605,0)" xlink:href="#aM"/><use transform="matrix(0.03765432098765432,0,0,0.03765432098765432,43.64135802469136,0)" xlink:href="#ap"/><use transform="matrix(0.03765432098765432,0,0,0.03765432098765432,51.17222222222222,0)" xlink:href="#am"/><use transform="matrix(0.03765432098765432,0,0,0.03765432098765432,58.70308641975308,0)" xlink:href="#ak"/><use transform="matrix(0.03765432098765432,0,0,0.03765432098765432,63.18395061728395,0)" xlink:href="#bJ"/></g><path fill="#333" d="M106-169C34-169 62-67 57 0H25v-261h32l-1 103c12-21 28-36 61-36 89 0 53 116 60 194h-32v-121c2-32-8-49-39-48" id="bP"/><g id="Q"><use transform="matrix(0.03765432098765432,0,0,0.03765432098765432,0,0)" xlink:href="#an"/><use transform="matrix(0.03765432098765432,0,0,0.03765432098765432,6.777777777777777,0)" xlink:href="#at"/><use transform="matrix(0.03765432098765432,0,0,0.03765432098765432,14.30864197530864,0)" xlink:href="#ao"/><use transform="matrix(0.03765432098765432,0,0,0.03765432098765432,18.074074074074073,0)" xlink:href="#at"/><use transform="matrix(0.03765432098765432,0,0,0.03765432098765432,25.604938271604937,0)" xlink:href="#bJ"/><use transform="matrix(0.03765432098765432,0,0,0.03765432098765432,28.579629629629625,0)" xlink:href="#al"/><use transform="matrix(0.03765432098765432,0,0,0.03765432098765432,36.1104938271605,0)" xlink:href="#aM"/><use transform="matrix(0.03765432098765432,0,0,0.03765432098765432,43.64135802469136,0)" xlink:href="#ap"/><use transform="matrix(0.03765432098765432,0,0,0.03765432098765432,51.17222222222222,0)" xlink:href="#bP"/><use transform="matrix(0.03765432098765432,0,0,0.03765432098765432,58.70308641975308,0)" xlink:href="#at"/><use transform="matrix(0.03765432098765432,0,0,0.03765432098765432,66.23395061728394,0)" xlink:href="#aA"/><use transform="matrix(0.03765432098765432,0,0,0.03765432098765432,73.01172839506171,0)" xlink:href="#bP"/></g><g id="R"><use transform="matrix(0.03765432098765432,0,0,0.03765432098765432,0,0)" xlink:href="#ar"/><use transform="matrix(0.03765432098765432,0,0,0.03765432098765432,7.530864197530864,0)" xlink:href="#ak"/><use transform="matrix(0.03765432098765432,0,0,0.03765432098765432,12.011728395061727,0)" xlink:href="#al"/><use transform="matrix(0.03765432098765432,0,0,0.03765432098765432,19.54259259259259,0)" xlink:href="#ag"/><use transform="matrix(0.03765432098765432,0,0,0.03765432098765432,27.073456790123455,0)" xlink:href="#am"/><use transform="matrix(0.03765432098765432,0,0,0.03765432098765432,34.60432098765432,0)" xlink:href="#an"/><use transform="matrix(0.03765432098765432,0,0,0.03765432098765432,41.3820987654321,0)" xlink:href="#ao"/><use transform="matrix(0.03765432098765432,0,0,0.03765432098765432,45.14753086419753,0)" xlink:href="#aA"/></g><path fill="#333" d="M33 0v-38h34V0H33" id="bQ"/><g id="S"><use transform="matrix(0.03765432098765432,0,0,0.03765432098765432,0,0)" xlink:href="#bJ"/><use transform="matrix(0.03765432098765432,0,0,0.03765432098765432,2.974691358024691,0)" xlink:href="#aq"/><use transform="matrix(0.03765432098765432,0,0,0.03765432098765432,5.949382716049382,0)" xlink:href="#aA"/><use transform="matrix(0.03765432098765432,0,0,0.03765432098765432,12.72716049382716,0)" xlink:href="#ao"/><use transform="matrix(0.03765432098765432,0,0,0.03765432098765432,16.492592592592594,0)" xlink:href="#aD"/><use transform="matrix(0.03765432098765432,0,0,0.03765432098765432,20.258024691358024,0)" xlink:href="#bH"/><use transform="matrix(0.03765432098765432,0,0,0.03765432098765432,30.01049382716049,0)" xlink:href="#at"/><use transform="matrix(0.03765432098765432,0,0,0.03765432098765432,37.541358024691355,0)" xlink:href="#bI"/><use transform="matrix(0.03765432098765432,0,0,0.03765432098765432,47.29382716049382,0)" xlink:href="#aN"/><use transform="matrix(0.03765432098765432,0,0,0.03765432098765432,57.04629629629629,0)" xlink:href="#at"/><use transform="matrix(0.03765432098765432,0,0,0.03765432098765432,64.57716049382715,0)" xlink:href="#ao"/><use transform="matrix(0.03765432098765432,0,0,0.03765432098765432,68.34259259259258,0)" xlink:href="#at"/><use transform="matrix(0.03765432098765432,0,0,0.03765432098765432,75.87345679012344,0)" xlink:href="#bJ"/><use transform="matrix(0.03765432098765432,0,0,0.03765432098765432,78.84814814814813,0)" xlink:href="#al"/><use transform="matrix(0.03765432098765432,0,0,0.03765432098765432,86.37901234567899,0)" xlink:href="#aM"/><use transform="matrix(0.03765432098765432,0,0,0.03765432098765432,93.90987654320985,0)" xlink:href="#aj"/><use transform="matrix(0.03765432098765432,0,0,0.03765432098765432,102.94691358024689,0)" xlink:href="#ak"/><use transform="matrix(0.03765432098765432,0,0,0.03765432098765432,107.42777777777775,0)" xlink:href="#al"/><use transform="matrix(0.03765432098765432,0,0,0.03765432098765432,114.95864197530861,0)" xlink:href="#ag"/><use transform="matrix(0.03765432098765432,0,0,0.03765432098765432,122.48950617283948,0)" xlink:href="#am"/><use transform="matrix(0.03765432098765432,0,0,0.03765432098765432,130.02037037037033,0)" xlink:href="#an"/><use transform="matrix(0.03765432098765432,0,0,0.03765432098765432,136.7981481481481,0)" xlink:href="#ao"/><use transform="matrix(0.03765432098765432,0,0,0.03765432098765432,140.56358024691355,0)" xlink:href="#bQ"/><use transform="matrix(0.03765432098765432,0,0,0.03765432098765432,144.329012345679,0)" xlink:href="#aA"/><use transform="matrix(0.03765432098765432,0,0,0.03765432098765432,151.10679012345676,0)" xlink:href="#av"/><use transform="matrix(0.03765432098765432,0,0,0.03765432098765432,157.88456790123453,0)" xlink:href="#am"/><use transform="matrix(0.03765432098765432,0,0,0.03765432098765432,165.4154320987654,0)" xlink:href="#aH"/></g><path fill="#333" d="M30 0v-248h187v28H63v79h144v27H63v87h162V0H30" id="bR"/><path fill="#333" d="M115-194c53 0 69 39 70 98 0 66-23 100-70 100C84 3 66-7 56-30L54 0H23l1-261h32v101c10-23 28-34 59-34zm-8 174c40 0 45-34 45-75 0-40-5-75-45-74-42 0-51 32-51 76 0 43 10 73 51 73" id="bS"/><path fill="#333" d="M127-220V0H93v-220H8v-28h204v28h-85" id="bT"/><g id="T"><use transform="matrix(0.03765432098765432,0,0,0.03765432098765432,0,0)" xlink:href="#bR"/><use transform="matrix(0.03765432098765432,0,0,0.03765432098765432,9.037037037037036,0)" xlink:href="#as"/><use transform="matrix(0.03765432098765432,0,0,0.03765432098765432,20.29567901234568,0)" xlink:href="#bS"/><use transform="matrix(0.03765432098765432,0,0,0.03765432098765432,27.826543209876544,0)" xlink:href="#ah"/><use transform="matrix(0.03765432098765432,0,0,0.03765432098765432,35.35740740740741,0)" xlink:href="#ag"/><use transform="matrix(0.03765432098765432,0,0,0.03765432098765432,42.88827160493827,0)" xlink:href="#ag"/><use transform="matrix(0.03765432098765432,0,0,0.03765432098765432,50.41913580246913,0)" xlink:href="#aq"/><use transform="matrix(0.03765432098765432,0,0,0.03765432098765432,53.39382716049382,0)" xlink:href="#af"/><use transform="matrix(0.03765432098765432,0,0,0.03765432098765432,60.92469135802469,0)" xlink:href="#aM"/><use transform="matrix(0.03765432098765432,0,0,0.03765432098765432,68.45555555555555,0)" xlink:href="#bT"/><use transform="matrix(0.03765432098765432,0,0,0.03765432098765432,75.19567901234566,0)" xlink:href="#ah"/><use transform="matrix(0.03765432098765432,0,0,0.03765432098765432,82.72654320987652,0)" xlink:href="#ai"/><use transform="matrix(0.03765432098765432,0,0,0.03765432098765432,89.5043209876543,0)" xlink:href="#ao"/></g><g id="U"><use transform="matrix(0.03765432098765432,0,0,0.03765432098765432,0,0)" xlink:href="#ar"/><use transform="matrix(0.03765432098765432,0,0,0.03765432098765432,7.530864197530864,0)" xlink:href="#ak"/><use transform="matrix(0.03765432098765432,0,0,0.03765432098765432,12.011728395061727,0)" xlink:href="#al"/><use transform="matrix(0.03765432098765432,0,0,0.03765432098765432,19.54259259259259,0)" xlink:href="#ag"/><use transform="matrix(0.03765432098765432,0,0,0.03765432098765432,27.073456790123455,0)" xlink:href="#am"/><use transform="matrix(0.03765432098765432,0,0,0.03765432098765432,34.60432098765432,0)" xlink:href="#an"/><use transform="matrix(0.03765432098765432,0,0,0.03765432098765432,41.3820987654321,0)" xlink:href="#ao"/><use transform="matrix(0.03765432098765432,0,0,0.03765432098765432,45.14753086419753,0)" xlink:href="#ap"/><use transform="matrix(0.03765432098765432,0,0,0.03765432098765432,52.6783950617284,0)" xlink:href="#ag"/><use transform="matrix(0.03765432098765432,0,0,0.03765432098765432,60.209259259259255,0)" xlink:href="#al"/><use transform="matrix(0.03765432098765432,0,0,0.03765432098765432,67.74012345679012,0)" xlink:href="#an"/></g><g id="V"><use transform="matrix(0.03765432098765432,0,0,0.03765432098765432,0,0)" xlink:href="#ao"/><use transform="matrix(0.03765432098765432,0,0,0.03765432098765432,3.765432098765432,0)" xlink:href="#ah"/><use transform="matrix(0.03765432098765432,0,0,0.03765432098765432,11.296296296296296,0)" xlink:href="#ai"/><use transform="matrix(0.03765432098765432,0,0,0.03765432098765432,18.074074074074073,0)" xlink:href="#ao"/></g><g id="W"><use transform="matrix(0.03765432098765432,0,0,0.03765432098765432,0,0)" xlink:href="#as"/><use transform="matrix(0.03765432098765432,0,0,0.03765432098765432,11.258641975308642,0)" xlink:href="#ag"/><use transform="matrix(0.03765432098765432,0,0,0.03765432098765432,18.789506172839506,0)" xlink:href="#aK"/><use transform="matrix(0.03765432098765432,0,0,0.03765432098765432,26.32037037037037,0)" xlink:href="#ap"/><use transform="matrix(0.03765432098765432,0,0,0.03765432098765432,33.85123456790123,0)" xlink:href="#bP"/><use transform="matrix(0.03765432098765432,0,0,0.03765432098765432,41.38209876543208,0)" xlink:href="#at"/><use transform="matrix(0.03765432098765432,0,0,0.03765432098765432,48.91296296296295,0)" xlink:href="#aA"/><use transform="matrix(0.03765432098765432,0,0,0.03765432098765432,55.69074074074073,0)" xlink:href="#bP"/></g><g id="X"><use transform="matrix(0.03765432098765432,0,0,0.03765432098765432,0,0)" xlink:href="#an"/><use transform="matrix(0.03765432098765432,0,0,0.03765432098765432,6.777777777777777,0)" xlink:href="#at"/><use transform="matrix(0.03765432098765432,0,0,0.03765432098765432,14.30864197530864,0)" xlink:href="#ao"/><use transform="matrix(0.03765432098765432,0,0,0.03765432098765432,18.074074074074073,0)" xlink:href="#at"/><use transform="matrix(0.03765432098765432,0,0,0.03765432098765432,25.604938271604937,0)" xlink:href="#bJ"/><use transform="matrix(0.03765432098765432,0,0,0.03765432098765432,28.579629629629625,0)" xlink:href="#al"/><use transform="matrix(0.03765432098765432,0,0,0.03765432098765432,36.1104938271605,0)" xlink:href="#aM"/><use transform="matrix(0.03765432098765432,0,0,0.03765432098765432,43.64135802469136,0)" xlink:href="#ap"/><use transform="matrix(0.03765432098765432,0,0,0.03765432098765432,51.17222222222222,0)" xlink:href="#ar"/><use transform="matrix(0.03765432098765432,0,0,0.03765432098765432,58.70308641975308,0)" xlink:href="#ak"/><use transform="matrix(0.03765432098765432,0,0,0.03765432098765432,63.18395061728395,0)" xlink:href="#al"/><use transform="matrix(0.03765432098765432,0,0,0.03765432098765432,70.7148148148148,0)" xlink:href="#ag"/><use transform="matrix(0.03765432098765432,0,0,0.03765432098765432,78.24567901234566,0)" xlink:href="#am"/><use transform="matrix(0.03765432098765432,0,0,0.03765432098765432,85.77654320987652,0)" xlink:href="#an"/><use transform="matrix(0.03765432098765432,0,0,0.03765432098765432,92.5543209876543,0)" xlink:href="#ao"/><use transform="matrix(0.03765432098765432,0,0,0.03765432098765432,96.31975308641972,0)" xlink:href="#ap"/><use transform="matrix(0.03765432098765432,0,0,0.03765432098765432,103.85061728395058,0)" xlink:href="#aA"/><use transform="matrix(0.03765432098765432,0,0,0.03765432098765432,110.62839506172836,0)" xlink:href="#av"/><use transform="matrix(0.03765432098765432,0,0,0.03765432098765432,117.40617283950613,0)" xlink:href="#am"/></g><g id="Y"><use transform="matrix(0.03765432098765432,0,0,0.03765432098765432,0,0)" xlink:href="#bJ"/><use transform="matrix(0.03765432098765432,0,0,0.03765432098765432,2.974691358024691,0)" xlink:href="#aq"/><use transform="matrix(0.03765432098765432,0,0,0.03765432098765432,5.949382716049382,0)" xlink:href="#aA"/><use transform="matrix(0.03765432098765432,0,0,0.03765432098765432,12.72716049382716,0)" xlink:href="#ao"/><use transform="matrix(0.03765432098765432,0,0,0.03765432098765432,16.492592592592594,0)" xlink:href="#aD"/><use transform="matrix(0.03765432098765432,0,0,0.03765432098765432,20.258024691358024,0)" xlink:href="#ar"/><use transform="matrix(0.03765432098765432,0,0,0.03765432098765432,27.788888888888888,0)" xlink:href="#ak"/><use transform="matrix(0.03765432098765432,0,0,0.03765432098765432,32.269753086419755,0)" xlink:href="#al"/><use transform="matrix(0.03765432098765432,0,0,0.03765432098765432,39.800617283950615,0)" xlink:href="#ag"/><use transform="matrix(0.03765432098765432,0,0,0.03765432098765432,47.331481481481475,0)" xlink:href="#am"/><use transform="matrix(0.03765432098765432,0,0,0.03765432098765432,54.86234567901233,0)" xlink:href="#an"/><use transform="matrix(0.03765432098765432,0,0,0.03765432098765432,61.64012345679012,0)" xlink:href="#ao"/><use transform="matrix(0.03765432098765432,0,0,0.03765432098765432,65.40555555555555,0)" xlink:href="#ap"/><use transform="matrix(0.03765432098765432,0,0,0.03765432098765432,72.93641975308641,0)" xlink:href="#aA"/><use transform="matrix(0.03765432098765432,0,0,0.03765432098765432,79.71419753086418,0)" xlink:href="#av"/><use transform="matrix(0.03765432098765432,0,0,0.03765432098765432,86.49197530864195,0)" xlink:href="#am"/><use transform="matrix(0.03765432098765432,0,0,0.03765432098765432,94.02283950617282,0)" xlink:href="#aH"/></g><g id="Z"><use transform="matrix(0.03765432098765432,0,0,0.03765432098765432,0,0)" xlink:href="#bP"/><use transform="matrix(0.03765432098765432,0,0,0.03765432098765432,7.530864197530864,0)" xlink:href="#at"/><use transform="matrix(0.03765432098765432,0,0,0.03765432098765432,15.061728395061728,0)" xlink:href="#aA"/><use transform="matrix(0.03765432098765432,0,0,0.03765432098765432,21.83950617283951,0)" xlink:href="#bP"/></g><path fill="#3a414a" d="M185-189c-5-48-123-54-124 2 14 75 158 14 163 119 3 78-121 87-175 55-17-10-28-26-33-46l33-7c5 56 141 63 141-1 0-78-155-14-162-118-5-82 145-84 179-34 5 7 8 16 11 25" id="bU"/><path fill="#3a414a" d="M33 0v-248h34V0H33" id="bV"/><path fill="#3a414a" d="M190 0L58-211 59 0H30v-248h39L202-35l-2-213h31V0h-41" id="bW"/><path fill="#3a414a" d="M194 0L95-120 63-95V0H30v-248h33v124l119-124h40L117-140 236 0h-42" id="bX"/><g id="aa"><use transform="matrix(0.049382716049382706,0,0,0.049382716049382706,0,0)" xlink:href="#aU"/><use transform="matrix(0.049382716049382706,0,0,0.049382716049382706,12.790123456790122,0)" xlink:href="#bu"/><use transform="matrix(0.049382716049382706,0,0,0.049382716049382706,22.666666666666664,0)" xlink:href="#aR"/><use transform="matrix(0.049382716049382706,0,0,0.049382716049382706,27.60493827160494,0)" xlink:href="#bu"/><use transform="matrix(0.049382716049382706,0,0,0.049382716049382706,37.48148148148148,0)" xlink:href="#bU"/><use transform="matrix(0.049382716049382706,0,0,0.049382716049382706,49.33333333333333,0)" xlink:href="#bV"/><use transform="matrix(0.049382716049382706,0,0,0.049382716049382706,54.27160493827161,0)" xlink:href="#bW"/><use transform="matrix(0.049382716049382706,0,0,0.049382716049382706,67.06172839506172,0)" xlink:href="#bX"/></g><g id="ab"><use transform="matrix(0.03703703703703704,0,0,0.03703703703703704,0,0)" xlink:href="#aj"/><use transform="matrix(0.03703703703703704,0,0,0.03703703703703704,8.88888888888889,0)" xlink:href="#ak"/><use transform="matrix(0.03703703703703704,0,0,0.03703703703703704,13.296296296296298,0)" xlink:href="#al"/><use transform="matrix(0.03703703703703704,0,0,0.03703703703703704,20.703703703703706,0)" xlink:href="#ag"/><use transform="matrix(0.03703703703703704,0,0,0.03703703703703704,28.111111111111114,0)" xlink:href="#am"/><use transform="matrix(0.03703703703703704,0,0,0.03703703703703704,35.51851851851852,0)" xlink:href="#an"/><use transform="matrix(0.03703703703703704,0,0,0.03703703703703704,42.18518518518519,0)" xlink:href="#ao"/><use transform="matrix(0.03703703703703704,0,0,0.03703703703703704,45.88888888888889,0)" xlink:href="#bO"/><use transform="matrix(0.03703703703703704,0,0,0.03703703703703704,55.48148148148149,0)" xlink:href="#at"/><use transform="matrix(0.03703703703703704,0,0,0.03703703703703704,62.8888888888889,0)" xlink:href="#ao"/><use transform="matrix(0.03703703703703704,0,0,0.03703703703703704,66.59259259259261,0)" xlink:href="#at"/></g><g id="ac"><use transform="matrix(0.03703703703703704,0,0,0.03703703703703704,0,0)" xlink:href="#bK"/><use transform="matrix(0.03703703703703704,0,0,0.03703703703703704,8.111111111111112,0)" xlink:href="#ah"/><use transform="matrix(0.03703703703703704,0,0,0.03703703703703704,15.51851851851852,0)" xlink:href="#ao"/><use transform="matrix(0.03703703703703704,0,0,0.03703703703703704,19.222222222222225,0)" xlink:href="#an"/><use transform="matrix(0.03703703703703704,0,0,0.03703703703703704,25.888888888888893,0)" xlink:href="#bP"/></g><g id="ad"><use transform="matrix(0.03703703703703704,0,0,0.03703703703703704,0,0)" xlink:href="#aX"/><use transform="matrix(0.03703703703703704,0,0,0.03703703703703704,7.407407407407408,0)" xlink:href="#at"/><use transform="matrix(0.03703703703703704,0,0,0.03703703703703704,14.814814814814817,0)" xlink:href="#au"/><use transform="matrix(0.03703703703703704,0,0,0.03703703703703704,21.481481481481485,0)" xlink:href="#ah"/><use transform="matrix(0.03703703703703704,0,0,0.03703703703703704,28.888888888888893,0)" xlink:href="#ak"/></g></defs></g></svg>