<svg xmlns="http://www.w3.org/2000/svg" xmlns:xlink="http://www.w3.org/1999/xlink" xmlns:lucid="lucid" width="1300" height="610.72"><g transform="translate(-890 -1169.7845205253689)" lucid:page-tab-id="0_0"><path d="M2132.85 1436.46H2184a6 6 0 0 0 6-6V1201.3a6 6 0 0 0-6-6h-541.02" stroke="#3a414a" fill="none"/><path d="M2118.1 1436.46l14.25-4.63v9.27zM1628.2 1195.3l14.28-4.64v9.27z" stroke="#3a414a" fill="#3a414a"/><use xlink:href="#a" transform="matrix(1,0,0,1,2075.490844637655,1175.2985165355014) translate(0 10.666666666666668)"/><use xlink:href="#b" transform="matrix(1,0,0,1,2075.490844637655,1175.2985165355014) translate(57.7037037037037 10.666666666666668)"/><path d="M920 1432.45a5 5 0 0 1 5-5h237.66a5 5 0 0 1 5 5v160a5 5 0 0 1-5 5H925a5 5 0 0 1-5-5z" fill="#fff"/><path d="M920 1493.45v27h247.66v-27M920 1545.45v27h247.66v-27" fill="#e6e6e6"/><path d="M920 1467.45v-35a5 5 0 0 1 5-5h237.66a5 5 0 0 1 5 5v35" fill="#dedeff"/><path d="M920 1432.45a5 5 0 0 1 5-5h237.66a5 5 0 0 1 5 5v160a5 5 0 0 1-5 5H925a5 5 0 0 1-5-5zM920 1467.45h247.66M1058.28 1467.45v130" stroke="#282c33" fill="none"/><use xlink:href="#c" transform="matrix(1,0,0,1,930,1427.4511187681615) translate(0 22.711111111111112)"/><use xlink:href="#d" transform="matrix(1,0,0,1,925,1469.9511187681615) translate(0 13.211111111111112)"/><use xlink:href="#e" transform="matrix(1,0,0,1,1063.2798345758615,1469.9511187681615) translate(0 13.211111111111112)"/><use xlink:href="#f" transform="matrix(1,0,0,1,925,1495.9511187681615) translate(0 13.211111111111112)"/><use xlink:href="#g" transform="matrix(1,0,0,1,1063.2798345758615,1495.9511187681615) translate(0 13.211111111111112)"/><use xlink:href="#h" transform="matrix(1,0,0,1,1063.2798345758615,1495.9511187681615) translate(49.59074074074074 13.211111111111112)"/><use xlink:href="#i" transform="matrix(1,0,0,1,925,1521.9511187681615) translate(0 13.211111111111112)"/><use xlink:href="#j" transform="matrix(1,0,0,1,1063.2798345758615,1521.9511187681615) translate(0 13.211111111111112)"/><use xlink:href="#k" transform="matrix(1,0,0,1,925,1547.9511187681615) translate(0 13.211111111111112)"/><use xlink:href="#l" transform="matrix(1,0,0,1,1063.2798345758615,1547.9511187681615) translate(0 13.211111111111112)"/><use xlink:href="#m" transform="matrix(1,0,0,1,925,1573.9511187681615) translate(0 13.211111111111112)"/><use xlink:href="#n" transform="matrix(1,0,0,1,1063.2798345758615,1573.9511187681615) translate(0 13.211111111111112)"/><path d="M1242.64 1365a5 5 0 0 1 5-5h350.55a5 5 0 0 1 5 5v212a5 5 0 0 1-5 5h-350.56a5 5 0 0 1-5-5z" fill="#fff"/><path d="M1242.64 1426v27h360.55v-27M1242.64 1478v27h360.55v-27M1242.64 1530v27h360.55v-27" fill="#e6e6e6"/><path d="M1242.64 1400v-35a5 5 0 0 1 5-5h350.55a5 5 0 0 1 5 5v35" fill="#dedeff"/><path d="M1242.64 1365a5 5 0 0 1 5-5h350.55a5 5 0 0 1 5 5v212a5 5 0 0 1-5 5h-350.56a5 5 0 0 1-5-5zM1242.64 1400h360.55M1380.92 1400v182" stroke="#282c33" fill="none"/><use xlink:href="#o" transform="matrix(1,0,0,1,1252.642651756078,1360) translate(0 22.711111111111112)"/><use xlink:href="#f" transform="matrix(1,0,0,1,1247.642651756078,1402.5) translate(0 13.211111111111112)"/><use xlink:href="#e" transform="matrix(1,0,0,1,1385.9224863319396,1402.5) translate(0 13.211111111111112)"/><use xlink:href="#k" transform="matrix(1,0,0,1,1247.642651756078,1428.5) translate(0 13.211111111111112)"/><use xlink:href="#l" transform="matrix(1,0,0,1,1385.9224863319396,1428.5) translate(0 13.211111111111112)"/><use xlink:href="#p" transform="matrix(1,0,0,1,1247.642651756078,1454.5) translate(0 13.211111111111112)"/><use xlink:href="#n" transform="matrix(1,0,0,1,1385.9224863319396,1454.5) translate(0 13.211111111111112)"/><use xlink:href="#q" transform="matrix(1,0,0,1,1247.642651756078,1480.5) translate(0 13.211111111111112)"/><use xlink:href="#r" transform="matrix(1,0,0,1,1385.9224863319396,1480.5) translate(0 13.211111111111112)"/><use xlink:href="#s" transform="matrix(1,0,0,1,1247.642651756078,1506.5) translate(0 13.211111111111112)"/><use xlink:href="#t" transform="matrix(1,0,0,1,1385.9224863319396,1506.5) translate(0 13.211111111111112)"/><use xlink:href="#u" transform="matrix(1,0,0,1,1247.642651756078,1532.5) translate(0 13.211111111111112)"/><use xlink:href="#t" transform="matrix(1,0,0,1,1385.9224863319396,1532.5) translate(0 13.211111111111112)"/><use xlink:href="#v" transform="matrix(1,0,0,1,1247.642651756078,1558.5) translate(0 13.211111111111112)"/><use xlink:href="#w" transform="matrix(1,0,0,1,1385.9224863319396,1558.5) translate(0 13.211111111111112)"/><path d="M1222.14 1407.1h-11a6 6 0 0 0-6 6v83.15a6 6 0 0 1-6 6h-11.57" stroke="#3a414a" fill="none"/><path d="M1222.14 1397.1v20M1242.14 1407.1h-20" stroke="#3a414a" fill="#fff"/><path d="M1168.4 1492.25l20 10-20 10" stroke="#3a414a" fill="#fff" fill-opacity="0"/><path d="M1168.4 1502.25h20" stroke="#3a414a" fill="#fff"/><path d="M1242.64 1640.8a5 5 0 0 1 5-5h237.66a5 5 0 0 1 5 5v134a5 5 0 0 1-5 5h-237.66a5 5 0 0 1-5-5z" fill="#fff"/><path d="M1242.64 1701.8v27h247.66v-27M1242.64 1753.8v21a5 5 0 0 0 5 5h237.66a5 5 0 0 0 5-5v-21" fill="#e6e6e6"/><path d="M1242.64 1675.8v-35a5 5 0 0 1 5-5h237.66a5 5 0 0 1 5 5v35" fill="#dedeff"/><path d="M1242.64 1640.8a5 5 0 0 1 5-5h237.66a5 5 0 0 1 5 5v134a5 5 0 0 1-5 5h-237.66a5 5 0 0 1-5-5zM1242.64 1675.8h247.66M1380.92 1675.8v104" stroke="#282c33" fill="none"/><use xlink:href="#x" transform="matrix(1,0,0,1,1252.642651756078,1635.8143264230343) translate(0 22.711111111111112)"/><use xlink:href="#d" transform="matrix(1,0,0,1,1247.642651756078,1678.3143264230343) translate(0 13.211111111111112)"/><use xlink:href="#e" transform="matrix(1,0,0,1,1385.9224863319396,1678.3143264230343) translate(0 13.211111111111112)"/><use xlink:href="#y" transform="matrix(1,0,0,1,1247.642651756078,1704.3143264230343) translate(0 13.211111111111112)"/><use xlink:href="#z" transform="matrix(1,0,0,1,1385.9224863319396,1704.3143264230343) translate(0 13.211111111111112)"/><use xlink:href="#A" transform="matrix(1,0,0,1,1247.642651756078,1730.3143264230343) translate(0 13.211111111111112)"/><use xlink:href="#t" transform="matrix(1,0,0,1,1385.9224863319396,1730.3143264230343) translate(0 13.211111111111112)"/><use xlink:href="#k" transform="matrix(1,0,0,1,1247.642651756078,1756.3143264230343) translate(0 13.211111111111112)"/><use xlink:href="#l" transform="matrix(1,0,0,1,1385.9224863319396,1756.3143264230343) translate(0 13.211111111111112)"/><path d="M899.5 1475.04H896a6 6 0 0 0-6 6v135.4a6 6 0 0 0 6 6h300.14a6 6 0 0 1 6 6v49.28a6 6 0 0 0 6 6h14" stroke="#3a414a" fill="none"/><path d="M899.5 1465.04v20M919.5 1475.04h-20M1222.14 1673.72v20M1242.14 1683.72h-20" stroke="#3a414a" fill="#fff"/><path d="M1700.75 1231.78a5 5 0 0 1 5-5h314.5a5 5 0 0 1 5 5v134a5 5 0 0 1-5 5h-314.5a5 5 0 0 1-5-5z" fill="#fff"/><path d="M1700.75 1292.78v27h324.5v-27M1700.75 1344.78v21a5 5 0 0 0 5 5h314.5a5 5 0 0 0 5-5v-21" fill="#e6e6e6"/><path d="M1700.75 1266.78v-35a5 5 0 0 1 5-5h314.5a5 5 0 0 1 5 5v35" fill="#dedeff"/><path d="M1700.75 1231.78a5 5 0 0 1 5-5h314.5a5 5 0 0 1 5 5v134a5 5 0 0 1-5 5h-314.5a5 5 0 0 1-5-5zM1700.75 1266.78h324.5M1902.23 1266.78v104" stroke="#282c33" fill="none"/><use xlink:href="#B" transform="matrix(1,0,0,1,1710.7463896146214,1226.7760684925938) translate(0 22.711111111111112)"/><use xlink:href="#m" transform="matrix(1,0,0,1,1705.7463896146214,1269.2760684925938) translate(0 13.211111111111112)"/><use xlink:href="#e" transform="matrix(1,0,0,1,1907.2263922940488,1269.2760684925938) translate(0 13.211111111111112)"/><use xlink:href="#C" transform="matrix(1,0,0,1,1705.7463896146214,1295.2760684925938) translate(0 13.211111111111112)"/><use xlink:href="#D" transform="matrix(1,0,0,1,1907.2263922940488,1295.2760684925938) translate(0 13.211111111111112)"/><use xlink:href="#k" transform="matrix(1,0,0,1,1705.7463896146214,1321.2760684925938) translate(0 13.211111111111112)"/><use xlink:href="#l" transform="matrix(1,0,0,1,1907.2263922940488,1321.2760684925938) translate(0 13.211111111111112)"/><use xlink:href="#E" transform="matrix(1,0,0,1,1705.7463896146214,1347.2760684925938) translate(0 13.211111111111112)"/><use xlink:href="#t" transform="matrix(1,0,0,1,1907.2263922940488,1347.2760684925938) translate(0 13.211111111111112)"/><path d="M1623.7 1407.1h22.27a6 6 0 0 0 6-6v-92.9a6 6 0 0 1 6-6h22.87" stroke="#3a414a" fill="none"/><path d="M1623.7 1417.1v-20M1603.7 1407.1h20" stroke="#3a414a" fill="#fff"/><path d="M1700.02 1312.2l-20-10 20-10" stroke="#3a414a" fill="#fff" fill-opacity="0"/><path d="M1700.02 1302.2h-20" stroke="#3a414a" fill="#fff"/><path d="M1680.25 1357.07H1676a6 6 0 0 0-6 6V1744a6 6 0 0 1-6 6h-108.5a5.6 5.6 0 0 1-5.6-5.6 5.6 5.6 0 0 0-5.6-5.6h-34.08" stroke="#3a414a" fill="none"/><path d="M1680.25 1347.07v20M1700.25 1357.07h-20" stroke="#3a414a" fill="#fff"/><path d="M1491.03 1728.8l20 10-20 10" stroke="#3a414a" fill="#fff" fill-opacity="0"/><path d="M1491.03 1738.8h20" stroke="#3a414a" fill="#fff"/><path d="M2045.74 1274.77h104.73a6 6 0 0 1 6 6v231.95a6 6 0 0 1-6 6h-14" stroke="#54c45e" stroke-width="5" fill="none"/><path d="M2045.74 1284.77v-20M2025.74 1274.77h20M2136.47 1528.72v-20M2116.47 1518.72h20" stroke="#54c45e" stroke-width="5" fill="#fff"/><path d="M1770.98 1622.43h-14a6 6 0 0 0-6 6v51.18a6 6 0 0 0 6 6h14" stroke="#3a414a" fill="none"/><path d="M1770.98 1612.43v20M1790.98 1622.43h-20M1770.98 1675.6v20M1790.98 1685.6h-20" stroke="#3a414a" fill="#fff"/><path d="M960 1326.55a6 6 0 0 1 6-6h293.4a6 6 0 0 1 6 6V1354a6 6 0 0 1-6 6H966a6 6 0 0 1-6-6z" fill="#fff"/><path d="M975.78 1320.55h9.78m4.9 0h9.77m4.9 0h9.77m4.9 0h9.77m4.9 0h9.77m4.9 0h9.77m4.9 0h9.78m4.9 0h9.77m4.9 0h9.77m4.9 0h9.77m4.88 0h9.78m4.9 0h9.77m4.9 0h9.77m4.9 0h9.77m4.9 0h9.77m4.9 0h9.77m4.9 0h9.78m4.9 0h9.77m4.9 0h9.77m4.9 0h4.88l.94.07.92.22.87.36.8.5.7.6.63.72.5.8.35.87.23.9.07.95v4.57m0 4.58v9.15m0 4.57v4.58l-.07.94-.22.9-.35.88-.5.8-.6.72-.72.6-.8.5-.87.37-.92.23-.94.07h-4.9m-4.88 0h-9.78m-4.9 0h-9.77m-4.9 0h-9.77m-4.9 0h-9.77m-4.9 0h-9.77m-4.9 0h-9.77m-4.9 0h-9.78m-4.9 0h-9.77m-4.9 0h-9.77m-4.9 0h-9.77m-4.88 0h-9.78m-4.9 0h-9.77m-4.9 0h-9.77m-4.9 0h-9.77m-4.9 0h-9.77m-4.9 0h-9.77m-4.9 0h-9.78m-4.9 0h-9.77m-4.9 0h-9.77m-4.9 0H966l-.94-.07-.9-.22-.88-.35-.8-.5-.72-.6-.6-.72-.5-.8-.37-.88-.23-.9-.07-.95v-4.58m0-4.57v-9.15m0-4.58v-4.57l.07-.94.22-.9.35-.88.5-.8.6-.72.72-.6.8-.5.88-.36.9-.22.95-.07h4.9" stroke="#3a414a" fill="none"/><use xlink:href="#F" transform="matrix(1,0,0,1,960,1320.5462257738106) translate(9.01 27.69422222222222)"/><path d="M1314 1340.77h-31.7v-1h31.7zm269.33-11.53l-.08 1-.23 1-.4.94-.53.87-.67.77-.78.66-.87.54-.94.4-1 .23-1 .07H1462v-1h114.8l.9-.07.83-.2.8-.33.73-.45.66-.56.56-.64.45-.74.33-.8.2-.84.07-.88v-28.38h1z" stroke="#3a414a" stroke-width=".05" fill="#3a414a"/><path d="M1583.33 1300.84h-1v-.52h1z" fill="#3a414a"/><path d="M1583.36 1300.86h-1.05v-.56h1.06zm-1-.5v.45h.95v-.45z" stroke="#3a414a" stroke-width=".05" fill="#3a414a"/><path d="M1281.8 1344.9l-14.28-4.63 14.27-4.63z" fill="#3a414a"/><path d="M1282.3 1345.6l-16.4-5.33 16.4-5.32zm-13.16-5.33l12.15 3.95v-7.9z" stroke="#3a414a" stroke-width=".05" fill="#3a414a"/><g><use xlink:href="#G" transform="matrix(1,0,0,1,1313.9950105311364,1327.2240113517207) translate(0 10.666666666666668)"/><use xlink:href="#H" transform="matrix(1,0,0,1,1313.9950105311364,1327.2240113517207) translate(77.70370370370372 10.666666666666668)"/><use xlink:href="#I" transform="matrix(1,0,0,1,1313.9950105311364,1327.2240113517207) translate(114.70370370370372 10.666666666666668)"/></g><defs><path fill="#333" d="M140-251c81 0 123 46 123 126C263-53 228-8 163 1c7 30 30 48 69 40v23c-55 16-95-15-103-61C56-3 17-48 17-125c0-80 42-126 123-126zm0 227c63 0 89-41 89-101s-29-99-89-99c-61 0-89 39-89 99S79-25 140-24" id="J"/><path fill="#333" d="M84 4C-5 8 30-112 23-190h32v120c0 31 7 50 39 49 72-2 45-101 50-169h31l1 190h-30c-1-10 1-25-2-33-11 22-28 36-60 37" id="K"/><path fill="#333" d="M100-194c63 0 86 42 84 106H49c0 40 14 67 53 68 26 1 43-12 49-29l28 8c-11 28-37 45-77 45C44 4 14-33 15-96c1-61 26-98 85-98zm52 81c6-60-76-77-97-28-3 7-6 17-6 28h103" id="L"/><path fill="#333" d="M114-163C36-179 61-72 57 0H25l-1-190h30c1 12-1 29 2 39 6-27 23-49 58-41v29" id="M"/><path fill="#333" d="M179-190L93 31C79 59 56 82 12 73V49c39 6 53-20 64-50L1-190h34L92-34l54-156h33" id="N"/><path fill="#333" d="M24-231v-30h32v30H24zM24 0v-190h32V0H24" id="O"/><path fill="#333" d="M117-194c89-4 53 116 60 194h-32v-121c0-31-8-49-39-48C34-167 62-67 57 0H25l-1-190h30c1 10-1 24 2 32 11-22 29-35 61-36" id="P"/><path fill="#333" d="M177-190C167-65 218 103 67 71c-23-6-38-20-44-43l32-5c15 47 100 32 89-28v-30C133-14 115 1 83 1 29 1 15-40 15-95c0-56 16-97 71-98 29-1 48 16 59 35 1-10 0-23 2-32h30zM94-22c36 0 50-32 50-73 0-42-14-75-50-75-39 0-46 34-46 75s6 73 46 73" id="Q"/><g id="a"><use transform="matrix(0.03703703703703704,0,0,0.03703703703703704,0,0)" xlink:href="#J"/><use transform="matrix(0.03703703703703704,0,0,0.03703703703703704,10.370370370370372,0)" xlink:href="#K"/><use transform="matrix(0.03703703703703704,0,0,0.03703703703703704,17.77777777777778,0)" xlink:href="#L"/><use transform="matrix(0.03703703703703704,0,0,0.03703703703703704,25.185185185185187,0)" xlink:href="#M"/><use transform="matrix(0.03703703703703704,0,0,0.03703703703703704,29.592592592592595,0)" xlink:href="#N"/><use transform="matrix(0.03703703703703704,0,0,0.03703703703703704,36.25925925925927,0)" xlink:href="#O"/><use transform="matrix(0.03703703703703704,0,0,0.03703703703703704,39.18518518518519,0)" xlink:href="#P"/><use transform="matrix(0.03703703703703704,0,0,0.03703703703703704,46.592592592592595,0)" xlink:href="#Q"/></g><path fill="#333" d="M30 0v-248h33v221h125V0H30" id="R"/><path fill="#333" d="M141-36C126-15 110 5 73 4 37 3 15-17 15-53c-1-64 63-63 125-63 3-35-9-54-41-54-24 1-41 7-42 31l-33-3c5-37 33-52 76-52 45 0 72 20 72 64v82c-1 20 7 32 28 27v20c-31 9-61-2-59-35zM48-53c0 20 12 33 32 33 41-3 63-29 60-74-43 2-92-5-92 41" id="S"/><path fill="#333" d="M16-82v-28h88v28H16" id="T"/><path fill="#333" d="M18-100v-36l175-74v27L42-118l151 64v27" id="U"/><path fill="#333" d="M85-194c31 0 48 13 60 33l-1-100h32l1 261h-30c-2-10 0-23-3-31C134-8 116 4 85 4 32 4 16-35 15-94c0-66 23-100 70-100zm9 24c-40 0-46 34-46 75 0 40 6 74 45 74 42 0 51-32 51-76 0-42-9-74-50-73" id="V"/><path fill="#333" d="M18-27v-27l151-64-151-65v-27l175 74v36" id="W"/><g id="b"><use transform="matrix(0.03703703703703704,0,0,0.03703703703703704,0,0)" xlink:href="#R"/><use transform="matrix(0.03703703703703704,0,0,0.03703703703703704,7.407407407407408,0)" xlink:href="#S"/><use transform="matrix(0.03703703703703704,0,0,0.03703703703703704,14.814814814814817,0)" xlink:href="#N"/><use transform="matrix(0.03703703703703704,0,0,0.03703703703703704,21.481481481481485,0)" xlink:href="#L"/><use transform="matrix(0.03703703703703704,0,0,0.03703703703703704,28.888888888888893,0)" xlink:href="#M"/><use transform="matrix(0.03703703703703704,0,0,0.03703703703703704,33.296296296296305,0)" xlink:href="#T"/><use transform="matrix(0.03703703703703704,0,0,0.03703703703703704,37.70370370370371,0)" xlink:href="#U"/><use transform="matrix(0.03703703703703704,0,0,0.03703703703703704,45.48148148148149,0)" xlink:href="#O"/><use transform="matrix(0.03703703703703704,0,0,0.03703703703703704,48.40740740740741,0)" xlink:href="#V"/><use transform="matrix(0.03703703703703704,0,0,0.03703703703703704,55.814814814814824,0)" xlink:href="#W"/></g><path fill="#333" d="M233-177c-1 41-23 64-60 70L243 0h-38l-65-103H63V0H30v-248c88 3 205-21 203 71zM63-129c60-2 137 13 137-47 0-61-80-42-137-45v92" id="X"/><path fill="#333" d="M206 0h-36l-40-164L89 0H53L-1-190h32L70-26l43-164h34l41 164 42-164h31" id="Y"/><path fill="#333" d="M212-179c-10-28-35-45-73-45-59 0-87 40-87 99 0 60 29 101 89 101 43 0 62-24 78-52l27 14C228-24 195 4 139 4 59 4 22-46 18-125c-6-104 99-153 187-111 19 9 31 26 39 46" id="Z"/><path fill="#333" d="M59-47c-2 24 18 29 38 22v24C64 9 27 4 27-40v-127H5v-23h24l9-43h21v43h35v23H59v120" id="aa"/><path fill="#333" d="M24 0v-261h32V0H24" id="ab"/><path fill="#333" d="M100-194c62-1 85 37 85 99 1 63-27 99-86 99S16-35 15-95c0-66 28-99 85-99zM99-20c44 1 53-31 53-75 0-43-8-75-51-75s-53 32-53 75 10 74 51 75" id="ac"/><path fill="#333" d="M30-248c87 1 191-15 191 75 0 78-77 80-158 76V0H30v-248zm33 125c57 0 124 11 124-50 0-59-68-47-124-48v98" id="ad"/><path fill="#333" d="M96-169c-40 0-48 33-48 73s9 75 48 75c24 0 41-14 43-38l32 2c-6 37-31 61-74 61-59 0-76-41-82-99-10-93 101-131 147-64 4 7 5 14 7 22l-32 3c-4-21-16-35-41-35" id="ae"/><g id="c"><use transform="matrix(0.03765432098765432,0,0,0.03765432098765432,0,0)" xlink:href="#X"/><use transform="matrix(0.03765432098765432,0,0,0.03765432098765432,9.752469135802468,0)" xlink:href="#S"/><use transform="matrix(0.03765432098765432,0,0,0.03765432098765432,17.28333333333333,0)" xlink:href="#Y"/><use transform="matrix(0.03765432098765432,0,0,0.03765432098765432,27.0358024691358,0)" xlink:href="#Z"/><use transform="matrix(0.03765432098765432,0,0,0.03765432098765432,36.78827160493827,0)" xlink:href="#S"/><use transform="matrix(0.03765432098765432,0,0,0.03765432098765432,44.319135802469134,0)" xlink:href="#aa"/><use transform="matrix(0.03765432098765432,0,0,0.03765432098765432,48.084567901234564,0)" xlink:href="#S"/><use transform="matrix(0.03765432098765432,0,0,0.03765432098765432,55.615432098765424,0)" xlink:href="#ab"/><use transform="matrix(0.03765432098765432,0,0,0.03765432098765432,58.59012345679012,0)" xlink:href="#ac"/><use transform="matrix(0.03765432098765432,0,0,0.03765432098765432,66.12098765432098,0)" xlink:href="#Q"/><use transform="matrix(0.03765432098765432,0,0,0.03765432098765432,73.65185185185184,0)" xlink:href="#ad"/><use transform="matrix(0.03765432098765432,0,0,0.03765432098765432,82.68888888888888,0)" xlink:href="#M"/><use transform="matrix(0.03765432098765432,0,0,0.03765432098765432,87.16975308641975,0)" xlink:href="#ac"/><use transform="matrix(0.03765432098765432,0,0,0.03765432098765432,94.7006172839506,0)" xlink:href="#V"/><use transform="matrix(0.03765432098765432,0,0,0.03765432098765432,102.23148148148147,0)" xlink:href="#K"/><use transform="matrix(0.03765432098765432,0,0,0.03765432098765432,109.76234567901234,0)" xlink:href="#ae"/><use transform="matrix(0.03765432098765432,0,0,0.03765432098765432,116.5401234567901,0)" xlink:href="#aa"/></g><path fill="#333" d="M135-143c-3-34-86-38-87 0 15 53 115 12 119 90S17 21 10-45l28-5c4 36 97 45 98 0-10-56-113-15-118-90-4-57 82-63 122-42 12 7 21 19 24 35" id="af"/><path fill="#333" d="M143 0L79-87 56-68V0H24v-261h32v163l83-92h37l-77 82L181 0h-38" id="ag"/><g id="d"><use transform="matrix(0.03765432098765432,0,0,0.03765432098765432,0,0)" xlink:href="#af"/><use transform="matrix(0.03765432098765432,0,0,0.03765432098765432,6.777777777777777,0)" xlink:href="#ag"/><use transform="matrix(0.03765432098765432,0,0,0.03765432098765432,13.555555555555554,0)" xlink:href="#K"/></g><path fill="#333" d="M115-194c55 1 70 41 70 98S169 2 115 4C84 4 66-9 55-30l1 105H24l-1-265h31l2 30c10-21 28-34 59-34zm-8 174c40 0 45-34 45-75s-6-73-45-74c-42 0-51 32-51 76 0 43 10 73 51 73" id="ah"/><path fill="#333" d="M210-169c-67 3-38 105-44 169h-31v-121c0-29-5-50-35-48C34-165 62-65 56 0H25l-1-190h30c1 10-1 24 2 32 10-44 99-50 107 0 11-21 27-35 58-36 85-2 47 119 55 194h-31v-121c0-29-5-49-35-48" id="ai"/><path fill="#333" d="M-5 72V49h209v23H-5" id="aj"/><g id="e"><use transform="matrix(0.03765432098765432,0,0,0.03765432098765432,0,0)" xlink:href="#ah"/><use transform="matrix(0.03765432098765432,0,0,0.03765432098765432,7.530864197530864,0)" xlink:href="#M"/><use transform="matrix(0.03765432098765432,0,0,0.03765432098765432,12.011728395061727,0)" xlink:href="#O"/><use transform="matrix(0.03765432098765432,0,0,0.03765432098765432,14.986419753086418,0)" xlink:href="#ai"/><use transform="matrix(0.03765432098765432,0,0,0.03765432098765432,26.245061728395058,0)" xlink:href="#S"/><use transform="matrix(0.03765432098765432,0,0,0.03765432098765432,33.77592592592592,0)" xlink:href="#M"/><use transform="matrix(0.03765432098765432,0,0,0.03765432098765432,38.25679012345678,0)" xlink:href="#N"/><use transform="matrix(0.03765432098765432,0,0,0.03765432098765432,45.03456790123457,0)" xlink:href="#aj"/><use transform="matrix(0.03765432098765432,0,0,0.03765432098765432,52.56543209876543,0)" xlink:href="#ag"/><use transform="matrix(0.03765432098765432,0,0,0.03765432098765432,59.343209876543206,0)" xlink:href="#L"/><use transform="matrix(0.03765432098765432,0,0,0.03765432098765432,66.87407407407407,0)" xlink:href="#N"/></g><g id="f"><use transform="matrix(0.03765432098765432,0,0,0.03765432098765432,0,0)" xlink:href="#ae"/><use transform="matrix(0.03765432098765432,0,0,0.03765432098765432,6.777777777777777,0)" xlink:href="#S"/><use transform="matrix(0.03765432098765432,0,0,0.03765432098765432,14.30864197530864,0)" xlink:href="#aa"/><use transform="matrix(0.03765432098765432,0,0,0.03765432098765432,18.074074074074073,0)" xlink:href="#S"/><use transform="matrix(0.03765432098765432,0,0,0.03765432098765432,25.604938271604937,0)" xlink:href="#ab"/><use transform="matrix(0.03765432098765432,0,0,0.03765432098765432,28.579629629629625,0)" xlink:href="#ac"/><use transform="matrix(0.03765432098765432,0,0,0.03765432098765432,36.1104938271605,0)" xlink:href="#Q"/><use transform="matrix(0.03765432098765432,0,0,0.03765432098765432,43.64135802469136,0)" xlink:href="#aj"/><use transform="matrix(0.03765432098765432,0,0,0.03765432098765432,51.17222222222222,0)" xlink:href="#O"/><use transform="matrix(0.03765432098765432,0,0,0.03765432098765432,54.14691358024691,0)" xlink:href="#V"/></g><path fill="#333" d="M63-220v92h138v28H63V0H30v-248h175v28H63" id="ak"/><g id="g"><use transform="matrix(0.03765432098765432,0,0,0.03765432098765432,0,0)" xlink:href="#ak"/><use transform="matrix(0.03765432098765432,0,0,0.03765432098765432,8.246296296296295,0)" xlink:href="#ac"/><use transform="matrix(0.03765432098765432,0,0,0.03765432098765432,15.777160493827159,0)" xlink:href="#M"/><use transform="matrix(0.03765432098765432,0,0,0.03765432098765432,20.258024691358024,0)" xlink:href="#L"/><use transform="matrix(0.03765432098765432,0,0,0.03765432098765432,27.788888888888888,0)" xlink:href="#O"/><use transform="matrix(0.03765432098765432,0,0,0.03765432098765432,30.76358024691358,0)" xlink:href="#Q"/><use transform="matrix(0.03765432098765432,0,0,0.03765432098765432,38.294444444444444,0)" xlink:href="#P"/></g><path fill="#333" d="M194 0L95-120 63-95V0H30v-248h33v124l119-124h40L117-140 236 0h-42" id="al"/><g id="h"><use transform="matrix(0.03765432098765432,0,0,0.03765432098765432,0,0)" xlink:href="#al"/><use transform="matrix(0.03765432098765432,0,0,0.03765432098765432,9.037037037037036,0)" xlink:href="#L"/><use transform="matrix(0.03765432098765432,0,0,0.03765432098765432,16.5679012345679,0)" xlink:href="#N"/></g><g id="i"><use transform="matrix(0.03765432098765432,0,0,0.03765432098765432,0,0)" xlink:href="#V"/><use transform="matrix(0.03765432098765432,0,0,0.03765432098765432,7.530864197530864,0)" xlink:href="#S"/><use transform="matrix(0.03765432098765432,0,0,0.03765432098765432,15.061728395061728,0)" xlink:href="#aa"/><use transform="matrix(0.03765432098765432,0,0,0.03765432098765432,18.827160493827158,0)" xlink:href="#S"/></g><path fill="#333" d="M153-248C145-148 188 4 80 4 36 3 13-21 6-62l32-5c4 25 16 42 43 43 27 0 39-20 39-49v-147H72v-28h81" id="am"/><path fill="#333" d="M185-189c-5-48-123-54-124 2 14 75 158 14 163 119 3 78-121 87-175 55-17-10-28-26-33-46l33-7c5 56 141 63 141-1 0-78-155-14-162-118-5-82 145-84 179-34 5 7 8 16 11 25" id="an"/><path fill="#333" d="M140-251c81 0 123 46 123 126C263-46 219 4 140 4 59 4 17-45 17-125s42-126 123-126zm0 227c63 0 89-41 89-101s-29-99-89-99c-61 0-89 39-89 99S79-25 140-24" id="ao"/><path fill="#333" d="M190 0L58-211 59 0H30v-248h39L202-35l-2-213h31V0h-41" id="ap"/><path fill="#333" d="M160-131c35 5 61 23 61 61C221 17 115-2 30 0v-248c76 3 177-17 177 60 0 33-19 50-47 57zm-97-11c50-1 110 9 110-42 0-47-63-36-110-37v79zm0 115c55-2 124 14 124-45 0-56-70-42-124-44v89" id="aq"/><g id="j"><use transform="matrix(0.03765432098765432,0,0,0.03765432098765432,0,0)" xlink:href="#am"/><use transform="matrix(0.03765432098765432,0,0,0.03765432098765432,6.777777777777777,0)" xlink:href="#an"/><use transform="matrix(0.03765432098765432,0,0,0.03765432098765432,15.814814814814813,0)" xlink:href="#ao"/><use transform="matrix(0.03765432098765432,0,0,0.03765432098765432,26.358024691358022,0)" xlink:href="#ap"/><use transform="matrix(0.03765432098765432,0,0,0.03765432098765432,36.11049382716049,0)" xlink:href="#aq"/></g><g id="k"><use transform="matrix(0.03765432098765432,0,0,0.03765432098765432,0,0)" xlink:href="#ab"/><use transform="matrix(0.03765432098765432,0,0,0.03765432098765432,2.974691358024691,0)" xlink:href="#S"/><use transform="matrix(0.03765432098765432,0,0,0.03765432098765432,10.505555555555555,0)" xlink:href="#af"/><use transform="matrix(0.03765432098765432,0,0,0.03765432098765432,17.28333333333333,0)" xlink:href="#aa"/><use transform="matrix(0.03765432098765432,0,0,0.03765432098765432,21.048765432098765,0)" xlink:href="#aj"/><use transform="matrix(0.03765432098765432,0,0,0.03765432098765432,28.579629629629625,0)" xlink:href="#K"/><use transform="matrix(0.03765432098765432,0,0,0.03765432098765432,36.11049382716049,0)" xlink:href="#ah"/><use transform="matrix(0.03765432098765432,0,0,0.03765432098765432,43.64135802469136,0)" xlink:href="#V"/><use transform="matrix(0.03765432098765432,0,0,0.03765432098765432,51.17222222222222,0)" xlink:href="#S"/><use transform="matrix(0.03765432098765432,0,0,0.03765432098765432,58.70308641975308,0)" xlink:href="#aa"/><use transform="matrix(0.03765432098765432,0,0,0.03765432098765432,62.46851851851851,0)" xlink:href="#L"/><use transform="matrix(0.03765432098765432,0,0,0.03765432098765432,69.99938271604937,0)" xlink:href="#V"/><use transform="matrix(0.03765432098765432,0,0,0.03765432098765432,77.53024691358023,0)" xlink:href="#aj"/><use transform="matrix(0.03765432098765432,0,0,0.03765432098765432,85.06111111111109,0)" xlink:href="#S"/><use transform="matrix(0.03765432098765432,0,0,0.03765432098765432,92.59197530864195,0)" xlink:href="#aa"/></g><g id="l"><use transform="matrix(0.03765432098765432,0,0,0.03765432098765432,0,0)" xlink:href="#V"/><use transform="matrix(0.03765432098765432,0,0,0.03765432098765432,7.530864197530864,0)" xlink:href="#S"/><use transform="matrix(0.03765432098765432,0,0,0.03765432098765432,15.061728395061728,0)" xlink:href="#aa"/><use transform="matrix(0.03765432098765432,0,0,0.03765432098765432,18.827160493827158,0)" xlink:href="#L"/><use transform="matrix(0.03765432098765432,0,0,0.03765432098765432,26.358024691358022,0)" xlink:href="#aa"/><use transform="matrix(0.03765432098765432,0,0,0.03765432098765432,30.123456790123456,0)" xlink:href="#O"/><use transform="matrix(0.03765432098765432,0,0,0.03765432098765432,33.09814814814815,0)" xlink:href="#ai"/><use transform="matrix(0.03765432098765432,0,0,0.03765432098765432,44.35679012345678,0)" xlink:href="#L"/></g><g id="m"><use transform="matrix(0.03765432098765432,0,0,0.03765432098765432,0,0)" xlink:href="#ac"/><use transform="matrix(0.03765432098765432,0,0,0.03765432098765432,7.530864197530864,0)" xlink:href="#P"/><use transform="matrix(0.03765432098765432,0,0,0.03765432098765432,15.061728395061728,0)" xlink:href="#V"/><use transform="matrix(0.03765432098765432,0,0,0.03765432098765432,22.59259259259259,0)" xlink:href="#ae"/><use transform="matrix(0.03765432098765432,0,0,0.03765432098765432,29.370370370370367,0)" xlink:href="#aj"/><use transform="matrix(0.03765432098765432,0,0,0.03765432098765432,36.90123456790123,0)" xlink:href="#O"/><use transform="matrix(0.03765432098765432,0,0,0.03765432098765432,39.87592592592592,0)" xlink:href="#V"/></g><g id="n"><use transform="matrix(0.03765432098765432,0,0,0.03765432098765432,0,0)" xlink:href="#O"/><use transform="matrix(0.03765432098765432,0,0,0.03765432098765432,2.974691358024691,0)" xlink:href="#P"/><use transform="matrix(0.03765432098765432,0,0,0.03765432098765432,10.505555555555555,0)" xlink:href="#aa"/><use transform="matrix(0.03765432098765432,0,0,0.03765432098765432,14.270987654320987,0)" xlink:href="#L"/><use transform="matrix(0.03765432098765432,0,0,0.03765432098765432,21.80185185185185,0)" xlink:href="#Q"/><use transform="matrix(0.03765432098765432,0,0,0.03765432098765432,29.332716049382714,0)" xlink:href="#L"/><use transform="matrix(0.03765432098765432,0,0,0.03765432098765432,36.86358024691358,0)" xlink:href="#M"/></g><path fill="#333" d="M240 0l2-218c-23 76-54 145-80 218h-23L58-218 59 0H30v-248h44l77 211c21-75 51-140 76-211h43V0h-30" id="ar"/><path fill="#333" d="M30-248c118-7 216 8 213 122C240-48 200 0 122 0H30v-248zM63-27c89 8 146-16 146-99s-60-101-146-95v194" id="as"/><g id="o"><use transform="matrix(0.03765432098765432,0,0,0.03765432098765432,0,0)" xlink:href="#Z"/><use transform="matrix(0.03765432098765432,0,0,0.03765432098765432,9.752469135802468,0)" xlink:href="#S"/><use transform="matrix(0.03765432098765432,0,0,0.03765432098765432,17.28333333333333,0)" xlink:href="#aa"/><use transform="matrix(0.03765432098765432,0,0,0.03765432098765432,21.048765432098765,0)" xlink:href="#S"/><use transform="matrix(0.03765432098765432,0,0,0.03765432098765432,28.579629629629625,0)" xlink:href="#ab"/><use transform="matrix(0.03765432098765432,0,0,0.03765432098765432,31.554320987654318,0)" xlink:href="#ac"/><use transform="matrix(0.03765432098765432,0,0,0.03765432098765432,39.08518518518518,0)" xlink:href="#Q"/><use transform="matrix(0.03765432098765432,0,0,0.03765432098765432,46.61604938271604,0)" xlink:href="#ar"/><use transform="matrix(0.03765432098765432,0,0,0.03765432098765432,57.874691358024684,0)" xlink:href="#L"/><use transform="matrix(0.03765432098765432,0,0,0.03765432098765432,65.40555555555555,0)" xlink:href="#aa"/><use transform="matrix(0.03765432098765432,0,0,0.03765432098765432,69.17098765432098,0)" xlink:href="#S"/><use transform="matrix(0.03765432098765432,0,0,0.03765432098765432,76.70185185185184,0)" xlink:href="#as"/><use transform="matrix(0.03765432098765432,0,0,0.03765432098765432,86.45432098765431,0)" xlink:href="#S"/><use transform="matrix(0.03765432098765432,0,0,0.03765432098765432,93.98518518518517,0)" xlink:href="#aa"/><use transform="matrix(0.03765432098765432,0,0,0.03765432098765432,97.7506172839506,0)" xlink:href="#S"/></g><g id="p"><use transform="matrix(0.03765432098765432,0,0,0.03765432098765432,0,0)" xlink:href="#ah"/><use transform="matrix(0.03765432098765432,0,0,0.03765432098765432,7.530864197530864,0)" xlink:href="#M"/><use transform="matrix(0.03765432098765432,0,0,0.03765432098765432,12.011728395061727,0)" xlink:href="#ac"/><use transform="matrix(0.03765432098765432,0,0,0.03765432098765432,19.54259259259259,0)" xlink:href="#V"/><use transform="matrix(0.03765432098765432,0,0,0.03765432098765432,27.073456790123455,0)" xlink:href="#K"/><use transform="matrix(0.03765432098765432,0,0,0.03765432098765432,34.60432098765432,0)" xlink:href="#ae"/><use transform="matrix(0.03765432098765432,0,0,0.03765432098765432,41.3820987654321,0)" xlink:href="#aa"/><use transform="matrix(0.03765432098765432,0,0,0.03765432098765432,45.14753086419753,0)" xlink:href="#aj"/><use transform="matrix(0.03765432098765432,0,0,0.03765432098765432,52.6783950617284,0)" xlink:href="#ae"/><use transform="matrix(0.03765432098765432,0,0,0.03765432098765432,59.45617283950617,0)" xlink:href="#ac"/><use transform="matrix(0.03765432098765432,0,0,0.03765432098765432,66.98703703703704,0)" xlink:href="#K"/><use transform="matrix(0.03765432098765432,0,0,0.03765432098765432,74.5179012345679,0)" xlink:href="#P"/><use transform="matrix(0.03765432098765432,0,0,0.03765432098765432,82.04876543209876,0)" xlink:href="#aa"/></g><g id="q"><use transform="matrix(0.03765432098765432,0,0,0.03765432098765432,0,0)" xlink:href="#ae"/><use transform="matrix(0.03765432098765432,0,0,0.03765432098765432,6.777777777777777,0)" xlink:href="#S"/><use transform="matrix(0.03765432098765432,0,0,0.03765432098765432,14.30864197530864,0)" xlink:href="#aa"/><use transform="matrix(0.03765432098765432,0,0,0.03765432098765432,18.074074074074073,0)" xlink:href="#S"/><use transform="matrix(0.03765432098765432,0,0,0.03765432098765432,25.604938271604937,0)" xlink:href="#ab"/><use transform="matrix(0.03765432098765432,0,0,0.03765432098765432,28.579629629629625,0)" xlink:href="#ac"/><use transform="matrix(0.03765432098765432,0,0,0.03765432098765432,36.1104938271605,0)" xlink:href="#Q"/><use transform="matrix(0.03765432098765432,0,0,0.03765432098765432,43.64135802469136,0)" xlink:href="#aj"/><use transform="matrix(0.03765432098765432,0,0,0.03765432098765432,51.17222222222222,0)" xlink:href="#P"/><use transform="matrix(0.03765432098765432,0,0,0.03765432098765432,58.70308641975308,0)" xlink:href="#S"/><use transform="matrix(0.03765432098765432,0,0,0.03765432098765432,66.23395061728394,0)" xlink:href="#ai"/><use transform="matrix(0.03765432098765432,0,0,0.03765432098765432,77.49259259259259,0)" xlink:href="#L"/></g><path fill="#333" d="M26 75v-336h71v23H56V52h41v23H26" id="at"/><path fill="#333" d="M3 75V52h41v-290H3v-23h71V75H3" id="au"/><g id="r"><use transform="matrix(0.03765432098765432,0,0,0.03765432098765432,0,0)" xlink:href="#ao"/><use transform="matrix(0.03765432098765432,0,0,0.03765432098765432,10.543209876543209,0)" xlink:href="#ah"/><use transform="matrix(0.03765432098765432,0,0,0.03765432098765432,18.074074074074073,0)" xlink:href="#aa"/><use transform="matrix(0.03765432098765432,0,0,0.03765432098765432,21.83950617283951,0)" xlink:href="#O"/><use transform="matrix(0.03765432098765432,0,0,0.03765432098765432,24.8141975308642,0)" xlink:href="#ac"/><use transform="matrix(0.03765432098765432,0,0,0.03765432098765432,32.345061728395066,0)" xlink:href="#P"/><use transform="matrix(0.03765432098765432,0,0,0.03765432098765432,39.875925925925934,0)" xlink:href="#S"/><use transform="matrix(0.03765432098765432,0,0,0.03765432098765432,47.40679012345679,0)" xlink:href="#ab"/><use transform="matrix(0.03765432098765432,0,0,0.03765432098765432,50.38148148148148,0)" xlink:href="#at"/><use transform="matrix(0.03765432098765432,0,0,0.03765432098765432,54.14691358024691,0)" xlink:href="#af"/><use transform="matrix(0.03765432098765432,0,0,0.03765432098765432,60.92469135802469,0)" xlink:href="#aa"/><use transform="matrix(0.03765432098765432,0,0,0.03765432098765432,64.69012345679012,0)" xlink:href="#M"/><use transform="matrix(0.03765432098765432,0,0,0.03765432098765432,69.17098765432098,0)" xlink:href="#O"/><use transform="matrix(0.03765432098765432,0,0,0.03765432098765432,72.14567901234567,0)" xlink:href="#P"/><use transform="matrix(0.03765432098765432,0,0,0.03765432098765432,79.67654320987654,0)" xlink:href="#Q"/><use transform="matrix(0.03765432098765432,0,0,0.03765432098765432,87.20740740740739,0)" xlink:href="#au"/></g><g id="s"><use transform="matrix(0.03765432098765432,0,0,0.03765432098765432,0,0)" xlink:href="#ae"/><use transform="matrix(0.03765432098765432,0,0,0.03765432098765432,6.777777777777777,0)" xlink:href="#S"/><use transform="matrix(0.03765432098765432,0,0,0.03765432098765432,14.30864197530864,0)" xlink:href="#aa"/><use transform="matrix(0.03765432098765432,0,0,0.03765432098765432,18.074074074074073,0)" xlink:href="#S"/><use transform="matrix(0.03765432098765432,0,0,0.03765432098765432,25.604938271604937,0)" xlink:href="#ab"/><use transform="matrix(0.03765432098765432,0,0,0.03765432098765432,28.579629629629625,0)" xlink:href="#ac"/><use transform="matrix(0.03765432098765432,0,0,0.03765432098765432,36.1104938271605,0)" xlink:href="#Q"/><use transform="matrix(0.03765432098765432,0,0,0.03765432098765432,43.64135802469136,0)" xlink:href="#aj"/><use transform="matrix(0.03765432098765432,0,0,0.03765432098765432,51.17222222222222,0)" xlink:href="#K"/><use transform="matrix(0.03765432098765432,0,0,0.03765432098765432,58.70308641975308,0)" xlink:href="#M"/><use transform="matrix(0.03765432098765432,0,0,0.03765432098765432,63.18395061728395,0)" xlink:href="#ab"/></g><g id="t"><use transform="matrix(0.03765432098765432,0,0,0.03765432098765432,0,0)" xlink:href="#af"/><use transform="matrix(0.03765432098765432,0,0,0.03765432098765432,6.777777777777777,0)" xlink:href="#aa"/><use transform="matrix(0.03765432098765432,0,0,0.03765432098765432,10.543209876543209,0)" xlink:href="#M"/><use transform="matrix(0.03765432098765432,0,0,0.03765432098765432,15.024074074074072,0)" xlink:href="#O"/><use transform="matrix(0.03765432098765432,0,0,0.03765432098765432,17.998765432098764,0)" xlink:href="#P"/><use transform="matrix(0.03765432098765432,0,0,0.03765432098765432,25.52962962962963,0)" xlink:href="#Q"/></g><path fill="#333" d="M106-169C34-169 62-67 57 0H25v-261h32l-1 103c12-21 28-36 61-36 89 0 53 116 60 194h-32v-121c2-32-8-49-39-48" id="av"/><g id="u"><use transform="matrix(0.03765432098765432,0,0,0.03765432098765432,0,0)" xlink:href="#ae"/><use transform="matrix(0.03765432098765432,0,0,0.03765432098765432,6.777777777777777,0)" xlink:href="#S"/><use transform="matrix(0.03765432098765432,0,0,0.03765432098765432,14.30864197530864,0)" xlink:href="#aa"/><use transform="matrix(0.03765432098765432,0,0,0.03765432098765432,18.074074074074073,0)" xlink:href="#S"/><use transform="matrix(0.03765432098765432,0,0,0.03765432098765432,25.604938271604937,0)" xlink:href="#ab"/><use transform="matrix(0.03765432098765432,0,0,0.03765432098765432,28.579629629629625,0)" xlink:href="#ac"/><use transform="matrix(0.03765432098765432,0,0,0.03765432098765432,36.1104938271605,0)" xlink:href="#Q"/><use transform="matrix(0.03765432098765432,0,0,0.03765432098765432,43.64135802469136,0)" xlink:href="#aj"/><use transform="matrix(0.03765432098765432,0,0,0.03765432098765432,51.17222222222222,0)" xlink:href="#av"/><use transform="matrix(0.03765432098765432,0,0,0.03765432098765432,58.70308641975308,0)" xlink:href="#S"/><use transform="matrix(0.03765432098765432,0,0,0.03765432098765432,66.23395061728394,0)" xlink:href="#af"/><use transform="matrix(0.03765432098765432,0,0,0.03765432098765432,73.01172839506171,0)" xlink:href="#av"/></g><g id="v"><use transform="matrix(0.03765432098765432,0,0,0.03765432098765432,0,0)" xlink:href="#ah"/><use transform="matrix(0.03765432098765432,0,0,0.03765432098765432,7.530864197530864,0)" xlink:href="#M"/><use transform="matrix(0.03765432098765432,0,0,0.03765432098765432,12.011728395061727,0)" xlink:href="#ac"/><use transform="matrix(0.03765432098765432,0,0,0.03765432098765432,19.54259259259259,0)" xlink:href="#V"/><use transform="matrix(0.03765432098765432,0,0,0.03765432098765432,27.073456790123455,0)" xlink:href="#K"/><use transform="matrix(0.03765432098765432,0,0,0.03765432098765432,34.60432098765432,0)" xlink:href="#ae"/><use transform="matrix(0.03765432098765432,0,0,0.03765432098765432,41.3820987654321,0)" xlink:href="#aa"/><use transform="matrix(0.03765432098765432,0,0,0.03765432098765432,45.14753086419753,0)" xlink:href="#af"/></g><path fill="#333" d="M33 0v-38h34V0H33" id="aw"/><g id="w"><use transform="matrix(0.03765432098765432,0,0,0.03765432098765432,0,0)" xlink:href="#ab"/><use transform="matrix(0.03765432098765432,0,0,0.03765432098765432,2.974691358024691,0)" xlink:href="#O"/><use transform="matrix(0.03765432098765432,0,0,0.03765432098765432,5.949382716049382,0)" xlink:href="#af"/><use transform="matrix(0.03765432098765432,0,0,0.03765432098765432,12.72716049382716,0)" xlink:href="#aa"/><use transform="matrix(0.03765432098765432,0,0,0.03765432098765432,16.492592592592594,0)" xlink:href="#at"/><use transform="matrix(0.03765432098765432,0,0,0.03765432098765432,20.258024691358024,0)" xlink:href="#X"/><use transform="matrix(0.03765432098765432,0,0,0.03765432098765432,30.01049382716049,0)" xlink:href="#S"/><use transform="matrix(0.03765432098765432,0,0,0.03765432098765432,37.541358024691355,0)" xlink:href="#Y"/><use transform="matrix(0.03765432098765432,0,0,0.03765432098765432,47.29382716049382,0)" xlink:href="#Z"/><use transform="matrix(0.03765432098765432,0,0,0.03765432098765432,57.04629629629629,0)" xlink:href="#S"/><use transform="matrix(0.03765432098765432,0,0,0.03765432098765432,64.57716049382715,0)" xlink:href="#aa"/><use transform="matrix(0.03765432098765432,0,0,0.03765432098765432,68.34259259259258,0)" xlink:href="#S"/><use transform="matrix(0.03765432098765432,0,0,0.03765432098765432,75.87345679012344,0)" xlink:href="#ab"/><use transform="matrix(0.03765432098765432,0,0,0.03765432098765432,78.84814814814813,0)" xlink:href="#ac"/><use transform="matrix(0.03765432098765432,0,0,0.03765432098765432,86.37901234567899,0)" xlink:href="#Q"/><use transform="matrix(0.03765432098765432,0,0,0.03765432098765432,93.90987654320985,0)" xlink:href="#ad"/><use transform="matrix(0.03765432098765432,0,0,0.03765432098765432,102.94691358024689,0)" xlink:href="#M"/><use transform="matrix(0.03765432098765432,0,0,0.03765432098765432,107.42777777777775,0)" xlink:href="#ac"/><use transform="matrix(0.03765432098765432,0,0,0.03765432098765432,114.95864197530861,0)" xlink:href="#V"/><use transform="matrix(0.03765432098765432,0,0,0.03765432098765432,122.48950617283948,0)" xlink:href="#K"/><use transform="matrix(0.03765432098765432,0,0,0.03765432098765432,130.02037037037033,0)" xlink:href="#ae"/><use transform="matrix(0.03765432098765432,0,0,0.03765432098765432,136.7981481481481,0)" xlink:href="#aa"/><use transform="matrix(0.03765432098765432,0,0,0.03765432098765432,140.56358024691355,0)" xlink:href="#aw"/><use transform="matrix(0.03765432098765432,0,0,0.03765432098765432,144.329012345679,0)" xlink:href="#af"/><use transform="matrix(0.03765432098765432,0,0,0.03765432098765432,151.10679012345676,0)" xlink:href="#ag"/><use transform="matrix(0.03765432098765432,0,0,0.03765432098765432,157.88456790123453,0)" xlink:href="#K"/><use transform="matrix(0.03765432098765432,0,0,0.03765432098765432,165.4154320987654,0)" xlink:href="#au"/></g><path fill="#333" d="M30 0v-248h187v28H63v79h144v27H63v87h162V0H30" id="ax"/><path fill="#333" d="M115-194c53 0 69 39 70 98 0 66-23 100-70 100C84 3 66-7 56-30L54 0H23l1-261h32v101c10-23 28-34 59-34zm-8 174c40 0 45-34 45-75 0-40-5-75-45-74-42 0-51 32-51 76 0 43 10 73 51 73" id="ay"/><path fill="#333" d="M127-220V0H93v-220H8v-28h204v28h-85" id="az"/><path fill="#333" d="M141 0L90-78 38 0H4l68-98-65-92h35l48 74 47-74h35l-64 92 68 98h-35" id="aA"/><g id="x"><use transform="matrix(0.03765432098765432,0,0,0.03765432098765432,0,0)" xlink:href="#ax"/><use transform="matrix(0.03765432098765432,0,0,0.03765432098765432,9.037037037037036,0)" xlink:href="#ai"/><use transform="matrix(0.03765432098765432,0,0,0.03765432098765432,20.29567901234568,0)" xlink:href="#ay"/><use transform="matrix(0.03765432098765432,0,0,0.03765432098765432,27.826543209876544,0)" xlink:href="#L"/><use transform="matrix(0.03765432098765432,0,0,0.03765432098765432,35.35740740740741,0)" xlink:href="#V"/><use transform="matrix(0.03765432098765432,0,0,0.03765432098765432,42.88827160493827,0)" xlink:href="#V"/><use transform="matrix(0.03765432098765432,0,0,0.03765432098765432,50.41913580246913,0)" xlink:href="#O"/><use transform="matrix(0.03765432098765432,0,0,0.03765432098765432,53.39382716049382,0)" xlink:href="#P"/><use transform="matrix(0.03765432098765432,0,0,0.03765432098765432,60.92469135802469,0)" xlink:href="#Q"/><use transform="matrix(0.03765432098765432,0,0,0.03765432098765432,68.45555555555555,0)" xlink:href="#az"/><use transform="matrix(0.03765432098765432,0,0,0.03765432098765432,75.19567901234566,0)" xlink:href="#L"/><use transform="matrix(0.03765432098765432,0,0,0.03765432098765432,82.72654320987652,0)" xlink:href="#aA"/><use transform="matrix(0.03765432098765432,0,0,0.03765432098765432,89.5043209876543,0)" xlink:href="#aa"/></g><g id="y"><use transform="matrix(0.03765432098765432,0,0,0.03765432098765432,0,0)" xlink:href="#ah"/><use transform="matrix(0.03765432098765432,0,0,0.03765432098765432,7.530864197530864,0)" xlink:href="#M"/><use transform="matrix(0.03765432098765432,0,0,0.03765432098765432,12.011728395061727,0)" xlink:href="#ac"/><use transform="matrix(0.03765432098765432,0,0,0.03765432098765432,19.54259259259259,0)" xlink:href="#V"/><use transform="matrix(0.03765432098765432,0,0,0.03765432098765432,27.073456790123455,0)" xlink:href="#K"/><use transform="matrix(0.03765432098765432,0,0,0.03765432098765432,34.60432098765432,0)" xlink:href="#ae"/><use transform="matrix(0.03765432098765432,0,0,0.03765432098765432,41.3820987654321,0)" xlink:href="#aa"/><use transform="matrix(0.03765432098765432,0,0,0.03765432098765432,45.14753086419753,0)" xlink:href="#aj"/><use transform="matrix(0.03765432098765432,0,0,0.03765432098765432,52.6783950617284,0)" xlink:href="#V"/><use transform="matrix(0.03765432098765432,0,0,0.03765432098765432,60.209259259259255,0)" xlink:href="#ac"/><use transform="matrix(0.03765432098765432,0,0,0.03765432098765432,67.74012345679012,0)" xlink:href="#ae"/></g><g id="z"><use transform="matrix(0.03765432098765432,0,0,0.03765432098765432,0,0)" xlink:href="#aa"/><use transform="matrix(0.03765432098765432,0,0,0.03765432098765432,3.765432098765432,0)" xlink:href="#L"/><use transform="matrix(0.03765432098765432,0,0,0.03765432098765432,11.296296296296296,0)" xlink:href="#aA"/><use transform="matrix(0.03765432098765432,0,0,0.03765432098765432,18.074074074074073,0)" xlink:href="#aa"/></g><path fill="#333" d="M54-142c48-35 137-8 131 61C196 18 31 33 14-55l32-4c7 23 22 37 52 37 35-1 51-22 54-58 4-55-73-65-99-34H22l8-134h141v27H59" id="aB"/><g id="A"><use transform="matrix(0.03765432098765432,0,0,0.03765432098765432,0,0)" xlink:href="#ai"/><use transform="matrix(0.03765432098765432,0,0,0.03765432098765432,11.258641975308642,0)" xlink:href="#V"/><use transform="matrix(0.03765432098765432,0,0,0.03765432098765432,18.789506172839506,0)" xlink:href="#aB"/><use transform="matrix(0.03765432098765432,0,0,0.03765432098765432,26.32037037037037,0)" xlink:href="#aj"/><use transform="matrix(0.03765432098765432,0,0,0.03765432098765432,33.85123456790123,0)" xlink:href="#av"/><use transform="matrix(0.03765432098765432,0,0,0.03765432098765432,41.38209876543208,0)" xlink:href="#S"/><use transform="matrix(0.03765432098765432,0,0,0.03765432098765432,48.91296296296295,0)" xlink:href="#af"/><use transform="matrix(0.03765432098765432,0,0,0.03765432098765432,55.69074074074073,0)" xlink:href="#av"/></g><path fill="#333" d="M33 0v-248h34V0H33" id="aC"/><g id="B"><use transform="matrix(0.03765432098765432,0,0,0.03765432098765432,0,0)" xlink:href="#aC"/><use transform="matrix(0.03765432098765432,0,0,0.03765432098765432,3.765432098765432,0)" xlink:href="#P"/><use transform="matrix(0.03765432098765432,0,0,0.03765432098765432,11.296296296296296,0)" xlink:href="#V"/><use transform="matrix(0.03765432098765432,0,0,0.03765432098765432,18.827160493827158,0)" xlink:href="#L"/><use transform="matrix(0.03765432098765432,0,0,0.03765432098765432,26.358024691358022,0)" xlink:href="#aA"/><use transform="matrix(0.03765432098765432,0,0,0.03765432098765432,33.1358024691358,0)" xlink:href="#L"/><use transform="matrix(0.03765432098765432,0,0,0.03765432098765432,40.66666666666666,0)" xlink:href="#V"/><use transform="matrix(0.03765432098765432,0,0,0.03765432098765432,48.19753086419752,0)" xlink:href="#ad"/><use transform="matrix(0.03765432098765432,0,0,0.03765432098765432,57.234567901234556,0)" xlink:href="#M"/><use transform="matrix(0.03765432098765432,0,0,0.03765432098765432,61.71543209876542,0)" xlink:href="#ac"/><use transform="matrix(0.03765432098765432,0,0,0.03765432098765432,69.24629629629628,0)" xlink:href="#V"/><use transform="matrix(0.03765432098765432,0,0,0.03765432098765432,76.77716049382714,0)" xlink:href="#K"/><use transform="matrix(0.03765432098765432,0,0,0.03765432098765432,84.308024691358,0)" xlink:href="#ae"/><use transform="matrix(0.03765432098765432,0,0,0.03765432098765432,91.08580246913577,0)" xlink:href="#aa"/></g><g id="C"><use transform="matrix(0.03765432098765432,0,0,0.03765432098765432,0,0)" xlink:href="#ae"/><use transform="matrix(0.03765432098765432,0,0,0.03765432098765432,6.777777777777777,0)" xlink:href="#S"/><use transform="matrix(0.03765432098765432,0,0,0.03765432098765432,14.30864197530864,0)" xlink:href="#aa"/><use transform="matrix(0.03765432098765432,0,0,0.03765432098765432,18.074074074074073,0)" xlink:href="#S"/><use transform="matrix(0.03765432098765432,0,0,0.03765432098765432,25.604938271604937,0)" xlink:href="#ab"/><use transform="matrix(0.03765432098765432,0,0,0.03765432098765432,28.579629629629625,0)" xlink:href="#ac"/><use transform="matrix(0.03765432098765432,0,0,0.03765432098765432,36.1104938271605,0)" xlink:href="#Q"/><use transform="matrix(0.03765432098765432,0,0,0.03765432098765432,43.64135802469136,0)" xlink:href="#aj"/><use transform="matrix(0.03765432098765432,0,0,0.03765432098765432,51.17222222222222,0)" xlink:href="#ah"/><use transform="matrix(0.03765432098765432,0,0,0.03765432098765432,58.70308641975308,0)" xlink:href="#M"/><use transform="matrix(0.03765432098765432,0,0,0.03765432098765432,63.18395061728395,0)" xlink:href="#ac"/><use transform="matrix(0.03765432098765432,0,0,0.03765432098765432,70.7148148148148,0)" xlink:href="#V"/><use transform="matrix(0.03765432098765432,0,0,0.03765432098765432,78.24567901234566,0)" xlink:href="#K"/><use transform="matrix(0.03765432098765432,0,0,0.03765432098765432,85.77654320987652,0)" xlink:href="#ae"/><use transform="matrix(0.03765432098765432,0,0,0.03765432098765432,92.5543209876543,0)" xlink:href="#aa"/><use transform="matrix(0.03765432098765432,0,0,0.03765432098765432,96.31975308641972,0)" xlink:href="#aj"/><use transform="matrix(0.03765432098765432,0,0,0.03765432098765432,103.85061728395058,0)" xlink:href="#af"/><use transform="matrix(0.03765432098765432,0,0,0.03765432098765432,110.62839506172836,0)" xlink:href="#ag"/><use transform="matrix(0.03765432098765432,0,0,0.03765432098765432,117.40617283950613,0)" xlink:href="#K"/></g><g id="D"><use transform="matrix(0.03765432098765432,0,0,0.03765432098765432,0,0)" xlink:href="#ab"/><use transform="matrix(0.03765432098765432,0,0,0.03765432098765432,2.974691358024691,0)" xlink:href="#O"/><use transform="matrix(0.03765432098765432,0,0,0.03765432098765432,5.949382716049382,0)" xlink:href="#af"/><use transform="matrix(0.03765432098765432,0,0,0.03765432098765432,12.72716049382716,0)" xlink:href="#aa"/><use transform="matrix(0.03765432098765432,0,0,0.03765432098765432,16.492592592592594,0)" xlink:href="#at"/><use transform="matrix(0.03765432098765432,0,0,0.03765432098765432,20.258024691358024,0)" xlink:href="#ah"/><use transform="matrix(0.03765432098765432,0,0,0.03765432098765432,27.788888888888888,0)" xlink:href="#M"/><use transform="matrix(0.03765432098765432,0,0,0.03765432098765432,32.269753086419755,0)" xlink:href="#ac"/><use transform="matrix(0.03765432098765432,0,0,0.03765432098765432,39.800617283950615,0)" xlink:href="#V"/><use transform="matrix(0.03765432098765432,0,0,0.03765432098765432,47.331481481481475,0)" xlink:href="#K"/><use transform="matrix(0.03765432098765432,0,0,0.03765432098765432,54.86234567901233,0)" xlink:href="#ae"/><use transform="matrix(0.03765432098765432,0,0,0.03765432098765432,61.64012345679012,0)" xlink:href="#aa"/><use transform="matrix(0.03765432098765432,0,0,0.03765432098765432,65.40555555555555,0)" xlink:href="#aj"/><use transform="matrix(0.03765432098765432,0,0,0.03765432098765432,72.93641975308641,0)" xlink:href="#af"/><use transform="matrix(0.03765432098765432,0,0,0.03765432098765432,79.71419753086418,0)" xlink:href="#ag"/><use transform="matrix(0.03765432098765432,0,0,0.03765432098765432,86.49197530864195,0)" xlink:href="#K"/><use transform="matrix(0.03765432098765432,0,0,0.03765432098765432,94.02283950617282,0)" xlink:href="#au"/></g><g id="E"><use transform="matrix(0.03765432098765432,0,0,0.03765432098765432,0,0)" xlink:href="#av"/><use transform="matrix(0.03765432098765432,0,0,0.03765432098765432,7.530864197530864,0)" xlink:href="#S"/><use transform="matrix(0.03765432098765432,0,0,0.03765432098765432,15.061728395061728,0)" xlink:href="#af"/><use transform="matrix(0.03765432098765432,0,0,0.03765432098765432,21.83950617283951,0)" xlink:href="#av"/></g><path fill="#3a414a" d="M30-248c118-7 216 8 213 122C240-48 200 0 122 0H30v-248zM63-27c89 8 146-16 146-99s-60-101-146-95v194" id="aD"/><path fill="#3a414a" d="M141-36C126-15 110 5 73 4 37 3 15-17 15-53c-1-64 63-63 125-63 3-35-9-54-41-54-24 1-41 7-42 31l-33-3c5-37 33-52 76-52 45 0 72 20 72 64v82c-1 20 7 32 28 27v20c-31 9-61-2-59-35zM48-53c0 20 12 33 32 33 41-3 63-29 60-74-43 2-92-5-92 41" id="aE"/><path fill="#3a414a" d="M59-47c-2 24 18 29 38 22v24C64 9 27 4 27-40v-127H5v-23h24l9-43h21v43h35v23H59v120" id="aF"/><path fill="#3a414a" d="M185-189c-5-48-123-54-124 2 14 75 158 14 163 119 3 78-121 87-175 55-17-10-28-26-33-46l33-7c5 56 141 63 141-1 0-78-155-14-162-118-5-82 145-84 179-34 5 7 8 16 11 25" id="aG"/><path fill="#3a414a" d="M33 0v-248h34V0H33" id="aH"/><path fill="#3a414a" d="M190 0L58-211 59 0H30v-248h39L202-35l-2-213h31V0h-41" id="aI"/><path fill="#3a414a" d="M194 0L95-120 63-95V0H30v-248h33v124l119-124h40L117-140 236 0h-42" id="aJ"/><g id="F"><use transform="matrix(0.049382716049382706,0,0,0.049382716049382706,0,0)" xlink:href="#aD"/><use transform="matrix(0.049382716049382706,0,0,0.049382716049382706,12.790123456790122,0)" xlink:href="#aE"/><use transform="matrix(0.049382716049382706,0,0,0.049382716049382706,22.666666666666664,0)" xlink:href="#aF"/><use transform="matrix(0.049382716049382706,0,0,0.049382716049382706,27.60493827160494,0)" xlink:href="#aE"/><use transform="matrix(0.049382716049382706,0,0,0.049382716049382706,37.48148148148148,0)" xlink:href="#aG"/><use transform="matrix(0.049382716049382706,0,0,0.049382716049382706,49.33333333333333,0)" xlink:href="#aH"/><use transform="matrix(0.049382716049382706,0,0,0.049382716049382706,54.27160493827161,0)" xlink:href="#aI"/><use transform="matrix(0.049382716049382706,0,0,0.049382716049382706,67.06172839506172,0)" xlink:href="#aJ"/></g><g id="G"><use transform="matrix(0.03703703703703704,0,0,0.03703703703703704,0,0)" xlink:href="#ad"/><use transform="matrix(0.03703703703703704,0,0,0.03703703703703704,8.88888888888889,0)" xlink:href="#M"/><use transform="matrix(0.03703703703703704,0,0,0.03703703703703704,13.296296296296298,0)" xlink:href="#ac"/><use transform="matrix(0.03703703703703704,0,0,0.03703703703703704,20.703703703703706,0)" xlink:href="#V"/><use transform="matrix(0.03703703703703704,0,0,0.03703703703703704,28.111111111111114,0)" xlink:href="#K"/><use transform="matrix(0.03703703703703704,0,0,0.03703703703703704,35.51851851851852,0)" xlink:href="#ae"/><use transform="matrix(0.03703703703703704,0,0,0.03703703703703704,42.18518518518519,0)" xlink:href="#aa"/><use transform="matrix(0.03703703703703704,0,0,0.03703703703703704,45.88888888888889,0)" xlink:href="#as"/><use transform="matrix(0.03703703703703704,0,0,0.03703703703703704,55.48148148148149,0)" xlink:href="#S"/><use transform="matrix(0.03703703703703704,0,0,0.03703703703703704,62.8888888888889,0)" xlink:href="#aa"/><use transform="matrix(0.03703703703703704,0,0,0.03703703703703704,66.59259259259261,0)" xlink:href="#S"/></g><g id="H"><use transform="matrix(0.03703703703703704,0,0,0.03703703703703704,0,0)" xlink:href="#ak"/><use transform="matrix(0.03703703703703704,0,0,0.03703703703703704,8.111111111111112,0)" xlink:href="#L"/><use transform="matrix(0.03703703703703704,0,0,0.03703703703703704,15.51851851851852,0)" xlink:href="#aa"/><use transform="matrix(0.03703703703703704,0,0,0.03703703703703704,19.222222222222225,0)" xlink:href="#ae"/><use transform="matrix(0.03703703703703704,0,0,0.03703703703703704,25.888888888888893,0)" xlink:href="#av"/></g><g id="I"><use transform="matrix(0.03703703703703704,0,0,0.03703703703703704,0,0)" xlink:href="#R"/><use transform="matrix(0.03703703703703704,0,0,0.03703703703703704,7.407407407407408,0)" xlink:href="#S"/><use transform="matrix(0.03703703703703704,0,0,0.03703703703703704,14.814814814814817,0)" xlink:href="#N"/><use transform="matrix(0.03703703703703704,0,0,0.03703703703703704,21.481481481481485,0)" xlink:href="#L"/><use transform="matrix(0.03703703703703704,0,0,0.03703703703703704,28.888888888888893,0)" xlink:href="#M"/></g></defs></g></svg>