<svg xmlns="http://www.w3.org/2000/svg" xmlns:xlink="http://www.w3.org/1999/xlink" xmlns:lucid="lucid" width="2194" height="1104"><g transform="translate(-945 1264)" lucid:page-tab-id="0_0"><path d="M1948-1114c-26.5 0-48-16.12-48-36 0-15.9 13-29.32 33.17-34.24C1932-1231 2012-1240 2044-1222c16-27 96-18 96 9 48-9 96 27 64 72 32 36 0 81-64 63-16 23.4-80 23.4-96 0-32 18-96 9-96-36z" stroke="#f4d9ff" fill="#6db1ff"/><use xlink:href="#a" transform="matrix(1,0,0,1,1905,-1235) translate(127.16358024691357 86.81944444444444)"/><path d="M2200-1234a6 6 0 0 1 6-6h228a6 6 0 0 1 6 6v48a6 6 0 0 1-6 6h-228a6 6 0 0 1-6-6z" fill="none"/><use xlink:href="#b" transform="matrix(1,0,0,1,2200,-1240) translate(57.21604938271605 33.111111111111114)"/><use xlink:href="#c" transform="matrix(1,0,0,1,2200,-1240) translate(101.67901234567901 33.111111111111114)"/><path d="M1165.37-929.5h-79.35l-.88.07-.84.2-.8.33-.73.45-.66.56-.55.67-.45.73-.33.8-.2.84-.07.88v177.6h-1v-177.64l.08-1 .24-1 .4-.93.52-.87.66-.78.78-.66.87-.53.94-.38.98-.24 1-.08h79.38zm514.13 0h-284.86v-1h284.86z" stroke="#3a414a" stroke-width=".05" fill="#3a414a"/><path d="M1680-930l.03.5h-.54v-1h.55z" fill="#3a414a"/><path d="M1680.03-930l.02.52h-.6v-1.04h.63zm-.52-.48v.96h.5l-.03-.47.05-.48z" stroke="#3a414a" stroke-width=".05" fill="#3a414a"/><path d="M1080-731.62l-4.63-14.26h9.27z" fill="#3a414a"/><path d="M1080-730l-5.32-16.38h10.64zm-3.95-15.38l3.95 12.14 3.95-12.14z" stroke="#3a414a" stroke-width=".05" fill="#3a414a"/><use xlink:href="#d" transform="matrix(1,0,0,1,1165.3648791512196,-939.3333333333334) translate(0 12.444444444444446)"/><use xlink:href="#e" transform="matrix(1,0,0,1,1165.3648791512196,-939.3333333333334) translate(43.98765432098766 12.444444444444446)"/><use xlink:href="#f" transform="matrix(1,0,0,1,1165.3648791512196,-939.3333333333334) translate(102.62345679012347 12.444444444444446)"/><use xlink:href="#g" transform="matrix(1,0,0,1,1165.3648791512196,-939.3333333333334) translate(138.83333333333334 12.444444444444446)"/><g filter="url(#h)"><path d="M1020-406a2 2 0 0 1 2-2h84a2 2 0 0 1 2 2v124a2 2 0 0 1-2 2h-84a2 2 0 0 1-2-2z" fill="#fff"/><path d="M1076-367c2.5 0 4.6-.88 6.36-2.64 1.76-1.75 2.64-3.87 2.64-6.36 0-2.5-.88-4.6-2.64-6.36-1.75-1.76-3.87-2.64-6.36-2.64-2.5 0-4.6.88-6.36 2.64-1.76 1.75-2.64 3.87-2.64 6.36 0 2.5.88 4.6 2.64 6.36 1.75 1.76 3.87 2.64 6.36 2.64zm-24 0c2.5 0 4.6-.88 6.36-2.64 1.76-1.75 2.64-3.87 2.64-6.36 0-2.5-.88-4.6-2.64-6.36-1.75-1.76-3.87-2.64-6.36-2.64-2.5 0-4.6.88-6.36 2.64-1.76 1.75-2.64 3.87-2.64 6.36 0 2.5.88 4.6 2.64 6.36 1.75 1.76 3.87 2.64 6.36 2.64zm0 6c-7 0-21 3.5-21 10.5v7.5h42v-7.5c0-7-14-10.5-21-10.5zm24 0c-.87 0-1.86.06-2.9.15 3.47 2.52 5.9 5.9 5.9 10.35v7.5h18v-7.5c0-7-14-10.5-21-10.5zm0 0" fill="#757575"/><use xlink:href="#i" transform="matrix(1,0,0,1,1020,-327) translate(23.84157986111111 28.81684027777778)"/></g><path d="M2106.46-448.9l-26.36-45.3c-2.05-3.64-5.64-5.7-9.86-5.8h-52.48c-4.22.1-7.8 2.16-9.86 5.8l-26.36 45.18c-2.05 3.52-2.05 7.62 0 11.26l26.36 45.52c2.05 3.75 5.5 5.92 9.86 6.03h52.48c4.22-.12 7.8-2.3 9.86-6.04l26.36-45.18c2.05-3.75 2.05-7.85 0-11.5z" stroke="#000" stroke-opacity="0" fill="#4285f4"/><path d="M2098.87-424.53l-43.25-42.83-3.1 6.66-6.75-6.66-3.1 6.66-6.66-6.66-1.65 8.04-5.96.97-1.2 5.2-7.7 1.85 6.9 6.82-6.82 2.92 6.83 6.73-6.9 3 46.12 45.6h4.68c4.2-.17 7.78-2.28 9.84-6z" stroke="#000" stroke-opacity="0" fill-opacity=".07"/><path d="M2049.82-449.94h-11.4c-.67 0-1.2.53-1.2 1.2v11.28c0 .66.53 1.2 1.2 1.2h11.4c.66-.02 1.17-.56 1.17-1.2v-11.3c0-.65-.55-1.2-1.22-1.2" stroke="#000" stroke-opacity="0" fill="#fff"/><path d="M2067.88-450.88c.6 0 1.1-.44 1.1-1.08v-1.72c0-.6-.5-1.08-1.1-1.08h-5.56v-5.16c0-.7-.55-1.23-1.2-1.23h-5.2v-5.46c0-.6-.5-1.1-1.1-1.1h-1.8c-.6 0-1.04.5-1.04 1.1v5.5h-5.86v-5.5c-.05-.6-.55-1.1-1.15-1.1h-1.74c-.6 0-1.1.5-1.1 1.1v5.5h-5.85v-5.5c0-.6-.5-1.1-1.1-1.1h-1.73c-.65 0-1.1.5-1.1 1.1v5.5h-5.22c-.64 0-1.2.5-1.2 1.18v5.1h-5.55c-.6 0-1.1.5-1.1 1.1v1.76c0 .6.5 1.08 1.1 1.08h5.56v5.76h-5.56c-.6 0-1.1.5-1.1 1.08v1.82c0 .6.5 1.08 1.1 1.08h5.56v5.8h-5.56c-.6 0-1.1.5-1.1 1.1v1.76c0 .6.5 1.03 1.1 1.03h5.56v5.16c0 .65.5 1.2 1.2 1.2h5.2v5.5c0 .6.46 1.08 1.1 1.08h1.74c.6 0 1.1-.5 1.1-1.08v-5.5h5.86v5.5c0 .6.5 1.08 1.1 1.08h1.73c.6 0 1.1-.5 1.1-1.08v-5.5h5.9v5.5c0 .6.5 1.08 1.1 1.08h1.8c.6 0 1.1-.5 1.1-1.08v-5.5h5.2c.65-.06 1.15-.55 1.15-1.2v-5.15h5.56c.6 0 1.1-.5 1.1-1.08v-1.72c0-.64-.5-1.1-1.1-1.1h-5.56v-5.8h5.56c.6 0 1.1-.48 1.1-1.07V-444v-.04c0-.6-.5-1.08-1.1-1.08h-5.56v-5.75h5.56zm-9.64 21.8h-28.22v-28h28.22z" stroke="#000" stroke-opacity="0" fill="#fff"/><use xlink:href="#j" transform="matrix(1,0,0,1,1980,-381.21) translate(5.796296296296298 12.444444444444446)"/><use xlink:href="#k" transform="matrix(1,0,0,1,1980,-381.21) translate(55.01234567901235 12.444444444444446)"/><use xlink:href="#l" transform="matrix(1,0,0,1,1980,-381.21) translate(38.138888888888886 31.111111111111118)"/><path d="M2420-497.1a6 6 0 0 1 6-6h148a6 6 0 0 1 6 6v108a6 6 0 0 1-6 6h-148a6 6 0 0 1-6-6zm16-6v120m-16-104h160" stroke="#3a414a" fill="#fff"/><use xlink:href="#m" transform="matrix(1,0,0,1,2441,-482.105) translate(17.351851851851848 50.63194444444444)"/><use xlink:href="#n" transform="matrix(1,0,0,1,2441,-482.105) translate(68.25308641975309 50.63194444444444)"/><path d="M2114.83-443.1h288.3" stroke="#3a414a" fill="none"/><path d="M2108.94-443.1l12.9-7.64v15.27zM2417.88-443.1l-14.26 4.63v-9.27z" stroke="#3a414a" fill="#3a414a"/><path d="M2686.12-665.17l-24.64-39.78c-1-1.55-1.48-3.23-1.48-5.04 0-1.8.5-3.48 1.48-5.03l24.55-39.87c.95-1.58 2.27-2.83 3.95-3.74 1.68-.9 3.48-1.36 5.42-1.34h49.2c1.93 0 3.74.46 5.4 1.37 1.68.9 3 2.13 3.97 3.7l24.55 39.87c1 1.55 1.48 3.23 1.48 5.04 0 1.82-.5 3.5-1.48 5.05l-24.55 39.87c-.97 1.57-2.3 2.8-3.96 3.7-1.66.92-3.47 1.37-5.4 1.38h-49.1c-1.94-.05-3.74-.53-5.4-1.45-1.67-.92-3-2.16-3.98-3.72zm0 0" fill="#0e62c2"/><path d="M2744.04-723.7l-24-10-22.95 11.66-.94 25.67 38.7 36.2h9.84c1.93-.02 3.74-.47 5.4-1.38 1.68-.9 3-2.14 3.97-3.7l19.2-31.2z" fill="#0851b0"/><path d="M2743.47-724.06l-22.2-12c-.4-.22-.8-.33-1.27-.33-.46 0-.88.12-1.26.34l-22.12 12c-.38.2-.7.5-.9.85-.22.35-.33.74-.32 1.16v23.92c0 .4.1.8.32 1.16.22.36.52.65.9.86l22.2 12c.4.22.82.33 1.28.33.45 0 .87-.1 1.26-.33l22.1-11.92c.4-.2.7-.48.92-.84.22-.36.33-.75.32-1.17v-24c-.02-.42-.12-.8-.34-1.16-.22-.35-.52-.64-.9-.86zm-3 23.75l-7.77-4.22v-11.04l-11.44 6.14v12.35l10.22-5.52 7.78 4.22-19.2 10.43-19.22-10.43 7.77-4.2 10.22 5.5v-12.25l-11.42-6.14v10.95l-7.8 4.12v-20.68l19.22-10.34v8.33l-10.2 5.53 11.43 6.13 11.43-6.13-10.22-5.52v-8.32l19.2 10.34z" fill="#fff"/><use xlink:href="#o" transform="matrix(1,0,0,1,2660,-655) translate(16.055555555555557 12.444444444444446)"/><use xlink:href="#k" transform="matrix(1,0,0,1,2660,-655) translate(26.404320987654323 31.111111111111118)"/><use xlink:href="#p" transform="matrix(1,0,0,1,2660,-655) translate(13.074074074074069 49.777777777777786)"/><path d="M2000-334a6 6 0 0 1 6-6h228a6 6 0 0 1 6 6v48a6 6 0 0 1-6 6h-228a6 6 0 0 1-6-6z" fill="none"/><use xlink:href="#q" transform="matrix(1,0,0,1,2000,-340) translate(120 12.444444444444446)"/><use xlink:href="#r" transform="matrix(1,0,0,1,2000,-340) translate(8.38888888888889 31.111111111111118)"/><use xlink:href="#s" transform="matrix(1,0,0,1,2000,-340) translate(22.22222222222222 31.111111111111118)"/><use xlink:href="#t" transform="matrix(1,0,0,1,2000,-340) translate(64.48148148148148 31.111111111111118)"/><use xlink:href="#r" transform="matrix(1,0,0,1,2000,-340) translate(8.38888888888889 49.777777777777786)"/><use xlink:href="#u" transform="matrix(1,0,0,1,2000,-340) translate(22.22222222222222 49.777777777777786)"/><use xlink:href="#v" transform="matrix(1,0,0,1,2000,-340) translate(66.20987654320987 49.777777777777786)"/><use xlink:href="#r" transform="matrix(1,0,0,1,2000,-340) translate(8.38888888888889 68.44444444444446)"/><use xlink:href="#w" transform="matrix(1,0,0,1,2000,-340) translate(22.22222222222222 68.44444444444446)"/><use xlink:href="#x" transform="matrix(1,0,0,1,2000,-340) translate(95.50617283950618 68.44444444444446)"/><path d="M1114.87-344h268.75" stroke="#3a414a" fill="none"/><path d="M1108.98-344l12.9-7.64v15.28zM1398.38-344l-14.26 4.63v-9.26z" stroke="#3a414a" fill="#3a414a"/><path d="M1100-402a6 6 0 0 1 6-6h228a6 6 0 0 1 6 6v48a6 6 0 0 1-6 6h-228a6 6 0 0 1-6-6z" fill="none"/><use xlink:href="#y" transform="matrix(1,0,0,1,1100,-408) translate(91.07098765432099 33.111111111111114)"/><path d="M1544.02-344.42l1 .24.93.4.87.52.78.66.66.78.53.87.38.94.24.98.08 1v22l.07.88.2.84.33.8.45.74.56.65.67.55.73.45.8.33.84.2.88.07h271.65v1h-271.7l-1-.07-.98-.24-.95-.4-.87-.54-.78-.66-.66-.78-.53-.87-.38-.94-.24-.98-.08-1v-22l-.07-.88-.2-.84-.33-.8-.45-.73-.56-.66-.67-.55-.73-.45-.8-.33-.84-.2-.88-.07h-14.48v-1h14.52zm468.6-27l-.05.76-.2.78-.3.75-.42.68-.52.6-.6.53-.7.42-.74.3-.8.2-.77.06h-51.5l-.9.07-.83.2-.8.33-.73.45-.66.57-.55.66-.45.73-.33.8-.2.84-.07.88v44.84l-.08 1-.24 1-.4.94-.52.87-.66.77-.78.66-.87.54-.94.4-.98.23-1 .07h-68.14v-1h68.1l.88-.07.84-.2.8-.33.73-.45.66-.56.55-.66.45-.74.33-.8.2-.84.07-.88v-44.84l.08-1 .24-1 .4-.93.52-.86.66-.78.78-.66.87-.53.94-.4.98-.23 1-.08h51.5l.67-.05.63-.14.6-.25.55-.33.5-.42.4-.5.35-.54.24-.6.15-.6.06-.7z" stroke="#3a414a" stroke-width=".05" fill="#3a414a"/><path d="M1528.5-343.5h-.5v-1h.5z" fill="#3a414a"/><path d="M1528.54-343.48h-.57v-1.04h.57zm-.5-1v.96h.45v-.96z" stroke="#3a414a" stroke-width=".05" fill="#3a414a"/><path d="M2016.76-371.96h-9.27l4.63-14.26z" fill="#3a414a"/><path d="M2017.45-371.46h-10.65l5.33-16.38zm-9.27-1h7.9l-3.95-12.15z" stroke="#3a414a" stroke-width=".05" fill="#3a414a"/><use xlink:href="#z" transform="matrix(1,0,0,1,1826.6676609428107,-319.33011365644677) translate(0 12.444444444444446)"/><use xlink:href="#A" transform="matrix(1,0,0,1,1826.6676609428107,-319.33011365644677) translate(4.320987654320988 12.444444444444446)"/><path d="M2140-494a6 6 0 0 1 6-6h228a6 6 0 0 1 6 6v48a6 6 0 0 1-6 6h-228a6 6 0 0 1-6-6z" fill="none"/><use xlink:href="#B" transform="matrix(1,0,0,1,2140,-500) translate(3.095679012345684 33.111111111111114)"/><use xlink:href="#C" transform="matrix(1,0,0,1,2140,-500) translate(74.73765432098766 33.111111111111114)"/><use xlink:href="#D" transform="matrix(1,0,0,1,2140,-500) translate(119.5895061728395 33.111111111111114)"/><use xlink:href="#E" transform="matrix(1,0,0,1,2140,-500) translate(168.76234567901236 33.111111111111114)"/><use xlink:href="#F" transform="matrix(1,0,0,1,2140,-500) translate(192.00925925925924 33.111111111111114)"/><path d="M1753.5-1149.3h-15.4l-.87.07-.84.2-.8.33-.74.45-.66.56-.56.66-.45.74-.34.8-.2.84-.07.88v129.25h-1v-129.3l.07-1 .24-.98.4-.96.53-.87.66-.77.77-.66.87-.54.94-.4 1-.22 1-.08h15.42zm145.5 0h-49.83v-1H1899z" stroke="#3a414a" stroke-width=".05" fill="#3a414a"/><path d="M1899.5-1150.02v.26l.03.46h-.54v-1h.52z" fill="#3a414a"/><path d="M1899.53-1150.02v.26l.03.48h-.6v-1.05h.6zm-.52-.26v.95h.5l-.02-.43v-.52z" stroke="#3a414a" stroke-width=".05" fill="#3a414a"/><path d="M1732.1-999.76l-4.64-14.27h9.27z" fill="#3a414a"/><path d="M1732.1-998.15l-5.33-16.38h10.64zm-3.96-15.38l3.95 12.15 3.94-12.15z" stroke="#3a414a" stroke-width=".05" fill="#3a414a"/><use xlink:href="#G" transform="matrix(1,0,0,1,1753.5000000000002,-1159.1366699870473) translate(0 12.444444444444446)"/><use xlink:href="#H" transform="matrix(1,0,0,1,1753.5000000000002,-1159.1366699870473) translate(58.635802469135804 12.444444444444446)"/><path d="M1973.17-443.1h-107.6a6 6 0 0 1-6-6v-114.36" stroke="#3a414a" fill="none"/><path d="M1979.06-443.1l-12.9 7.63v-15.27zM1859.56-578.23l4.63 14.27h-9.28z" stroke="#3a414a" fill="#3a414a"/><path d="M1466.18-408c4.6 0 8.44 2.56 11.52 6.78 2.56 3.46 4.86 8.2 6.65 14.08 3.6 11.4 5.63 26.76 5.63 43.14s-2.04 31.74-5.63 43.14c-1.8 5.88-4.1 10.62-6.65 14.08-3.08 4.22-6.92 6.78-11.52 6.78-10.37 0-16.77-9.1-20.23-24.45-.13-.5-.13-1.02 0-1.4h10.37c1.4 6.14 3.2 12.28 5.12 14.33 1.28 1.4 2.7 1.92 4.74 1.92.12 0 .12 0 .25-.13.13 0 .26-.13.5-.25.65-.4 1.42-1.16 2.2-2.18 1.78-2.56 3.57-6.4 5.24-11.4 3.2-10.5 5.12-24.95 5.12-40.44 0-15.5-1.93-29.95-5.13-40.45-1.67-5-3.46-8.83-5.25-11.4-.77-1-1.54-1.78-2.18-2.17-.25-.12-.38-.25-.5-.25-.14-.13-.14-.13-.26-.13-1.67 0-3.2.9-4.74 2.94-2.18 2.82-3.97 7.3-5.38 13.7h-10.62c1.66-8.58 4.1-14.85 7.42-19.2 3.46-4.6 8.07-7.04 13.32-7.04zm1.4 79.87v9.6h-50.68c-2.7 0-4.87-2.17-4.87-4.86 0-2.68 2.18-4.73 4.87-4.73h50.68zm55.56-10.24c2.68 0 4.86 2.05 4.86 4.74 0 2.7-2.18 4.86-4.86 4.86h-23.94c.38-3.2.64-6.4.9-9.6h23.04zm-55.56-10.24v9.6h-62.72c-2.68 0-4.86-2.18-4.86-4.87 0-2.7 2.18-4.74 4.86-4.74h62.72zm32-10.38l23.56.13c2.68 0 4.86 2.05 4.86 4.74 0 2.42-1.8 4.47-4.22 4.72l-.64.13h-22.92c-.12-3.33-.38-6.53-.64-9.73zm-32-10.1v9.6h-50.68c-2.7 0-4.87-2.18-4.87-4.87 0-2.43 1.92-4.48 4.23-4.74h51.32z" stroke="#000" stroke-opacity="0" fill="#4285f4"/><path d="M1400-369.6v51.2h128v-51.2z" stroke="#000" stroke-opacity="0" fill-opacity="0"/><path d="M1464-408c7.07 0 12.8 28.67 12.8 64s-5.73 64-12.8 64-12.8-28.67-12.8-64 5.73-64 12.8-64z" fill-opacity="0"/><use xlink:href="#I" transform="matrix(1,0,0,1,1400,-275) translate(26.94753086419753 12.444444444444446)"/><use xlink:href="#J" transform="matrix(1,0,0,1,1400,-275) translate(75.16975308641975 12.444444444444446)"/><use xlink:href="#K" transform="matrix(1,0,0,1,1400,-275) translate(32.0462962962963 31.111111111111118)"/><path d="M2023.52-703.74h-5.4l-.87.07-.84.2-.8.33-.72.45-.66.57-.56.66-.45.73-.32.8-.2.84-.07.88v199.32h-1v-199.36l.1-1 .22-1 .4-.93.53-.86.66-.78.8-.66.86-.53.94-.4 1-.23 1-.08h5.42zm622 0h-327.3v-1h327.3z" stroke="#3a414a" stroke-width=".05" fill="#3a414a"/><path d="M2012.6-498.7l-1 .6v-.8l1-.02z" fill="#3a414a"/><path d="M2012.63-498.7l-1.05.64v-.88h1.05zm-1-.2v.75l.95-.56v-.2z" stroke="#3a414a" stroke-width=".05" fill="#3a414a"/><path d="M2660.3-704.24l-14.27 4.63v-9.28z" fill="#3a414a"/><path d="M2661.9-704.24l-16.37 5.32v-10.65zm-15.37 3.95l12.15-3.94-12.15-3.95z" stroke="#3a414a" stroke-width=".05" fill="#3a414a"/><use xlink:href="#L" transform="matrix(1,0,0,1,2023.5174221643967,-713.5750653059359) translate(0 12.444444444444446)"/><use xlink:href="#M" transform="matrix(1,0,0,1,2023.5174221643967,-713.5750653059359) translate(56.04320987654321 12.444444444444446)"/><use xlink:href="#f" transform="matrix(1,0,0,1,2023.5174221643967,-713.5750653059359) translate(74.96913580246914 12.444444444444446)"/><use xlink:href="#N" transform="matrix(1,0,0,1,2023.5174221643967,-713.5750653059359) translate(111.17901234567901 12.444444444444446)"/><use xlink:href="#O" transform="matrix(1,0,0,1,2023.5174221643967,-713.5750653059359) translate(136.15432098765433 12.444444444444446)"/><use xlink:href="#P" transform="matrix(1,0,0,1,2023.5174221643967,-713.5750653059359) translate(226.6358024691358 12.444444444444446)"/><path d="M2178.1-798.17H1876l-.88.07-.84.2-.8.33-.73.45-.66.56-.55.65-.45.73-.33.8-.2.84-.07.88v75.77h-1v-75.8l.08-1 .24-1 .4-.95.52-.87.66-.77.78-.66.87-.54.94-.4.98-.23 1-.07h302.1zm506.97-.93l1 .24.94.4.88.53.77.66.66.77.55.88.4.94.22 1 .08 1v27.13h-1v-27.1l-.07-.88-.2-.84-.33-.8-.45-.74-.56-.66-.65-.56-.75-.45-.8-.33-.84-.2-.87-.07H2323.8v-1h360.27z" stroke="#3a414a" stroke-width=".05" fill="#3a414a"/><path d="M2690.05-759.66l-7.63-12.9h15.27z" fill="#3a414a"/><path d="M2690.05-758.67l-8.5-14.4h17.02zm-6.76-13.4l6.75 11.43 6.76-11.43z" stroke="#3a414a" stroke-width=".05" fill="#3a414a"/><path d="M1870-702.12l-4.63-14.26h9.27z" fill="#3a414a"/><path d="M1870-700.5l-5.32-16.38h10.64zm-3.95-15.38l3.95 12.14 3.95-12.14z" stroke="#3a414a" stroke-width=".05" fill="#3a414a"/><use xlink:href="#Q" transform="matrix(1,0,0,1,2178.088447077728,-808.006738405099) translate(0 12.444444444444446)"/><use xlink:href="#R" transform="matrix(1,0,0,1,2178.088447077728,-808.006738405099) translate(42.25925925925926 12.444444444444446)"/><use xlink:href="#S" transform="matrix(1,0,0,1,2178.088447077728,-808.006738405099) translate(112.08641975308643 12.444444444444446)"/><path d="M2690.12-654.56v205.45a6 6 0 0 1-6 6h-87.24" stroke="#3a414a" fill="none"/><path d="M2690.12-660.46l7.64 12.92h-15.27zM2582.12-443.1l14.26-4.64v9.27z" stroke="#3a414a" fill="#3a414a"/><path d="M2339.88-276.9c-25.06 0-45.24-7.17-45.24-16.54v59.66c0 9.07 19.9 16.46 44.6 16.54h.64c24.97 0 45.24-7.1 45.24-16.53v-59.67c-.1 9.14-20.36 16.54-45.24 16.54z" stroke="#000" stroke-opacity="0" fill="url(#T)"/><path d="M2385.15-293.44c0 9.14-20.3 16.56-45.3 16.56-25 0-45.2-7.15-45.2-16.56 0-9.4 20.2-16.56 45.3-16.56 25.1 0 45.3 7.15 45.3 16.56" stroke="#000" stroke-opacity="0" fill="#eaeaea"/><path d="M2374.73-294.84c0 5.84-15.6 10.54-34.8 10.54-19.2 0-34.73-4.7-34.73-10.54 0-5.84 15.6-10.46 34.8-10.46 19.2 0 34.8 4.7 34.8 10.46" stroke="#000" stroke-opacity="0" fill="#50e6ff"/><path d="M2339.88-292.2c-9.78-.22-18.14 1-27.48 4 9.34 3.06 17.7 4.27 27.48 3.98 9.84.25 18.2-1 27.48-4.13-9.34-2.96-17.7-4.13-27.48-3.85z" stroke="#000" stroke-opacity="0" fill="#198ab3"/><path d="M2371.92-305.3c15.5 0 28.08 12.53 28.08 27.96 0 15.44-12.58 27.96-28.08 27.96-15.5 0-28.08-12.52-28.08-27.96 0-15.43 12.58-27.96 28.08-27.96z" stroke="#000" stroke-opacity="0" fill="#32bedd"/><path d="M2393.52-277.44c0 12-9.65 21.72-21.54 21.72-11.9 0-21.54-9.73-21.54-21.72 0-12 9.65-21.72 21.54-21.72 11.9 0 21.54 9.73 21.54 21.72z" stroke="#000" stroke-opacity="0" fill="#fff"/><path d="M2371.98-275.32c-1.08-.04-1.94-.9-1.98-2v-16.12c.2-1.13 1.28-1.86 2.4-1.64.85.16 1.47.8 1.63 1.64v16.12c-.03 1.13-.94 2-2.05 2z" stroke="#000" stroke-opacity="0" fill="#9f9f9f"/><path d="M2381.47-267.84c-.94.94-1.87.94-2.8 0l-7.25-7.3c-.93-.95-.93-1.9 0-2.84.94-.93 1.86-.93 2.8 0l7.25 7.3c.93.96.93 1.9 0 2.84z" stroke="#000" stroke-opacity="0" stroke-width=".71" fill="#9f9f9f"/><path d="M2376.06-277.47c0 2.32-1.87 4.2-4.17 4.2s-4.18-1.88-4.18-4.2c0-2.33 1.87-4.2 4.17-4.2s4.16 1.87 4.16 4.2z" stroke="#000" stroke-opacity="0" fill="#5e5e5e"/><path d="M2358.7-208.15l-17.37 17.5c-.76.82-1.98.87-2.8.13-.02-.04-.06-.1-.1-.13l-17.36-17.5c-.35-.4-.35-.95 0-1.34.2-.12.38-.2.6-.25h10.7c.5 0 .9-.4.9-.9v-21.98c.05-.4.4-.7.77-.7h11.68c.38 0 .7.3.7.7V-210.58c.02.52.48.87.98.83h10.68c.5.04.88.47.88.95 0 .26-.08.48-.27.65zM2306.67-205.24h-24.62c-1.13 0-2.05-.93-2.05-2.07v-24.8c0-.5.42-.94.95-.9.25 0 .43.07.6.25l7.1 7.12.42.5c.35.36.95.36 1.34 0l15.35-15.54c.3-.28.74-.28 1.06 0l8.27 8.34c.28.3.28.75 0 1.07l-15.28 15.47c-.08.05-.1.12-.15.15-.28.4-.2.93.14 1.22l.4.5 7.1 7.12c.36.35.32.95-.03 1.3-.18.15-.4.26-.6.26zM2372.45-206.74l7.08-7.13.42-.5c.35-.4.35-.96 0-1.35l-15.26-15.54c-.3-.32-.3-.78 0-1.07l8.24-8.34c.28-.28.74-.28 1 0l15.5 15.54c.35.36.88.36 1.24 0l.5-.5 7.07-7.12c.32-.4.92-.47 1.3-.15.22.22.33.47.33.8v24.8c0 1.13-.92 2.06-2.05 2.06h-24.75c-.5-.04-.85-.5-.8-1 .02-.2.06-.35.16-.5z" stroke="#000" stroke-opacity="0" fill="#50e6ff"/><path d="M2373.08-205.24h-17.23l2.9-2.92-.92-1.6h-12.12l.75-1.36v-6.28l26.88-5.1 6.6 6.75 1.23.7-1.32.76-7.42 7.56zm-66.45 0h17.32l-2.9-2.92.67-1.6H2334l-.66-.9v-6.76l-26.8-5.22-6.75 6.82-1.08.3 1.32 1.35 7.25 7.36z" stroke="#000" stroke-opacity="0" fill-opacity="0"/><path d="M3113.73-982.7c-1.7-2.05-4.53-2.52-6.72-1.1l-47 35.33v1.47c2.68-.28 5.08 1.62 5.35 4.37.33 2.7-1.58 5.13-4.2 5.46-.4.05-.77.05-1.15 0 1.15 0 2.13-.33 3-1l49.74-37.6c2.02-1.72 2.46-4.7 1-6.94z" stroke="#000" stroke-opacity="0" fill="#669df6"/><path d="M3059.95-937.12c-2.68-.33-4.54-2.8-4.26-5.5.26-2.3 2-4.04 4.25-4.33v-1.52L3013-983.75c-2.25-1.48-5.1-1-6.73 1.1-1.47 2.22-1.03 5.2 1.04 6.83l49.75 37.6c.88.67 1.86 1 2.95 1.05z" stroke="#000" stroke-opacity="0" fill="#aecbfa"/><path d="M3059.95-952.22c-5.46 0-9.9 4.53-9.9 10.1 0 5.6 4.44 10.12 9.9 10.12 5.45 0 9.88-4.53 9.88-10.1 0-5.6-4.43-10.12-9.88-10.12zm0 14.98c-2.67 0-4.85-2.2-4.85-4.93 0-2.75 2.18-4.96 4.85-4.96 2.66 0 4.84 2.2 4.84 4.96v.06c0 2.68-2.15 4.88-4.8 4.88 0 0-.03 0-.05-.02z" stroke="#000" stroke-opacity="0" fill="#4285f4"/><path d="M3019.7-1036.2c-2.8-.04-5-2.3-5.05-5.13v-12.86c-.32-2.85 1.68-5.44 4.5-5.78 2.8-.3 5.32 1.74 5.65 4.6.04.4.04.76 0 1.2v12.85c-.05 2.85-2.32 5.14-5.1 5.14zM3024.66-995.65c0 2.88-2.28 5.22-5.1 5.22s-5.1-2.34-5.1-5.22 2.28-5.2 5.1-5.2 5.1 2.32 5.1 5.2zM3024.66-1010.88c0 2.88-2.28 5.22-5.1 5.22s-5.1-2.34-5.1-5.22 2.28-5.22 5.1-5.22 5.1 2.34 5.1 5.22zM3024.66-1026.1c0 2.87-2.28 5.2-5.1 5.2s-5.1-2.33-5.1-5.2c0-2.9 2.28-5.23 5.1-5.23s5.1 2.34 5.1 5.22z" stroke="#000" stroke-opacity="0" fill="#aecbfa"/><path d="M3100.3-1020.96c-2.78-.05-5.03-2.35-5.03-5.22v-12.93c0-2.85 2.26-5.16 5.04-5.16 2.78 0 5.04 2.3 5.04 5.15v12.92c.04 2.84-2.18 5.17-4.96 5.22h-.07zM3105.48-995.65c0 2.88-2.28 5.22-5.1 5.22s-5.1-2.34-5.1-5.22 2.28-5.2 5.1-5.2 5.1 2.32 5.1 5.2zM3105.48-1011.14c0 2.88-2.28 5.22-5.1 5.22s-5.1-2.34-5.1-5.22 2.28-5.2 5.1-5.2 5.1 2.33 5.1 5.2zM3105.48-1054.2c0 2.9-2.28 5.23-5.1 5.23s-5.1-2.34-5.1-5.22c0-2.87 2.28-5.2 5.1-5.2s5.1 2.34 5.1 5.2z" stroke="#000" stroke-opacity="0" fill="#4285f4"/><path d="M3060.02-975.14c-2.78-.04-5-2.3-5.04-5.15v-13.12c.32-2.86 2.85-4.93 5.66-4.58 2.38.27 4.2 2.13 4.48 4.58v13c.04 2.88-2.22 5.24-5.04 5.28h-.06zM3065.08-965.18c0 2.88-2.3 5.2-5.1 5.2-2.82 0-5.1-2.32-5.1-5.2 0-2.88 2.28-5.22 5.1-5.22 2.8 0 5.1 2.34 5.1 5.22zM3065.08-1008.45c0 2.88-2.3 5.22-5.1 5.22-2.82 0-5.1-2.34-5.1-5.22s2.28-5.2 5.1-5.2c2.8 0 5.1 2.32 5.1 5.2zM3065.08-1023.68c0 2.88-2.3 5.22-5.1 5.22-2.82 0-5.1-2.34-5.1-5.22s2.28-5.22 5.1-5.22c2.8 0 5.1 2.34 5.1 5.22z" stroke="#000" stroke-opacity="0" fill="#669df6"/><path d="M3080.14-1005.73c-2.77-.05-5-2.3-5.04-5.14v-12.86c-.32-2.85 1.68-5.45 4.5-5.78 2.8-.32 5.32 1.73 5.65 4.58.04.4.04.77 0 1.2v12.85c-.04 2.86-2.32 5.14-5.1 5.14zM3085.28-1039.04c0 2.88-2.3 5.22-5.1 5.22-2.82 0-5.1-2.34-5.1-5.22s2.28-5.22 5.1-5.22c2.8 0 5.1 2.34 5.1 5.22zM3085.28-980.67c0 2.88-2.3 5.2-5.1 5.2-2.82 0-5.1-2.32-5.1-5.2 0-2.88 2.28-5.22 5.1-5.22 2.8 0 5.1 2.35 5.1 5.23zM3085.28-995.9c0 2.88-2.3 5.2-5.1 5.2-2.82 0-5.1-2.32-5.1-5.2 0-2.88 2.28-5.22 5.1-5.22 2.8 0 5.1 2.34 5.1 5.22z" stroke="#000" stroke-opacity="0" fill="#4285f4"/><path d="M3044.88-980.67c0 2.88-2.3 5.2-5.1 5.2-2.83 0-5.1-2.32-5.1-5.2 0-2.88 2.27-5.22 5.1-5.22 2.8 0 5.1 2.35 5.1 5.23zM3044.88-1023.68c0 2.88-2.3 5.22-5.1 5.22-2.83 0-5.1-2.34-5.1-5.22s2.27-5.22 5.1-5.22c2.8 0 5.1 2.34 5.1 5.22zM3044.88-1039.04c0 2.88-2.3 5.22-5.1 5.22-2.83 0-5.1-2.34-5.1-5.22s2.27-5.22 5.1-5.22c2.8 0 5.1 2.34 5.1 5.22zM3039.88-990.75c-2.75 0-5-2.2-5.1-5v-13.03c0-2.85 2.25-5.14 5.03-5.14 2.8 0 5.04 2.3 5.04 5.14v13.02c-.07 2.76-2.25 4.96-4.96 5z" stroke="#000" stroke-opacity="0" fill="#aecbfa"/><path d="M3005.4-1060v128h109.2v-128z" stroke="#000" stroke-opacity="0" fill-opacity="0"/><use xlink:href="#U" transform="matrix(1,0,0,1,3005.4,-927) translate(25.206790123456788 13.11111111111111)"/><path d="M2321.35-579.42H2081.9l-.87.07-.84.2-.8.33-.74.45-.66.56-.56.65-.45.73-.34.8-.2.84-.07.88v59.12h-1v-59.16l.07-1 .24-1 .4-.93.53-.87.66-.78.77-.66.87-.53.94-.4 1-.24 1-.08h239.47zm369.27-6.48l-.08 1-.23 1-.4.93-.52.87-.66.78-.78.66-.87.53-.94.4-1 .23-1 .08h-239.46v-1h239.43l.88-.07.84-.2.8-.32.73-.45.66-.56.57-.66.45-.72.33-.8.2-.84.07-.88v-68.62h1z" stroke="#3a414a" stroke-width=".05" fill="#3a414a"/><path d="M2697.76-647.54h-15.27l7.62-12.92z" fill="#3a414a"/><path d="M2698.63-647.04h-17.02l8.52-14.4zm-15.27-1h13.52l-6.76-11.43z" stroke="#3a414a" stroke-width=".05" fill="#3a414a"/><path d="M2075.9-500.02l-4.64-14.26h9.27z" fill="#3a414a"/><path d="M2075.9-498.4l-5.33-16.38h10.64zm-3.96-15.38l3.95 12.14 3.94-12.14z" stroke="#3a414a" stroke-width=".05" fill="#3a414a"/><use xlink:href="#V" transform="matrix(1,0,0,1,2321.3461105835095,-589.25272442054) translate(0 12.444444444444446)"/><use xlink:href="#W" transform="matrix(1,0,0,1,2321.3461105835095,-589.25272442054) translate(75.91975308641976 12.444444444444446)"/><path d="M2749.93-765.52v-74.6a6 6 0 0 1 6-6h270.77a6 6 0 0 0 6-6v-65.08" stroke="#3a414a" fill="none"/><path d="M2749.93-759.63l-7.63-12.9h15.27zM3032.7-931.97l4.64 14.27h-9.28z" stroke="#3a414a" fill="#3a414a"/><path d="M1356.17-692.23H1340V-710h16.17zm-12.76-3.4h9.36v-10.96h-9.35zM1356.17-671.5H1340v-17.75h16.17zm-12.76-3.4h9.36v-10.94h-9.35zM1356.17-650.75H1340v-17.75h16.17zm-12.76-3.4h9.36v-10.94h-9.35zM1356.17-630H1340v-17.77h16.17zm-12.76-3.4h9.36v-10.96h-9.35zM1375.32-692.23h-16.17V-710h16.17zm-12.76-3.4h9.35v-10.96h-9.34zM1375.32-671.5h-16.17v-17.75h16.17zm-12.76-3.4h9.35v-10.94h-9.34zM1375.32-650.75h-16.17v-17.75h16.17zm-12.76-3.4h9.35v-10.94h-9.34zM1375.32-630h-16.17v-17.77h16.17zm-12.76-3.4h9.35v-10.96h-9.34zM1420-692.23h-41.7V-710h41.7zm-38.28-3.4h34.86v-10.96h-34.86zM1420-671.5h-41.7v-17.75h41.7zm-38.28-3.4h34.86v-10.94h-34.86zM1420-650.75h-41.7v-17.75h41.7zm-38.28-3.4h34.86v-10.94h-34.86zM1420-630h-41.7v-17.77h41.7zm-38.28-3.4h34.86v-10.96h-34.86z" stroke="#fff" stroke-opacity="0" fill="#3b48cc"/><path d="M1341.5-708.4h76.77v76.56h-76.77v-76.56z" stroke="#fff" stroke-opacity="0" stroke-width=".4" fill="#fff" fill-opacity="0"/><path d="M1320-617.1a6 6 0 0 1 6-6h108a6 6 0 0 1 6 6v48a6 6 0 0 1-6 6h-108a6 6 0 0 1-6-6z" fill="none"/><use xlink:href="#X" transform="matrix(1,0,0,1,1320,-623.105) translate(31.978395061728392 14.444444444444443)"/><use xlink:href="#Y" transform="matrix(1,0,0,1,1320,-623.105) translate(-0.2993827160493794 33.111111111111114)"/><use xlink:href="#Z" transform="matrix(1,0,0,1,1320,-623.105) translate(39.73456790123457 51.777777777777786)"/><path d="M1942-592c0 6.63-32.23 12-72 12s-72-5.37-72-12v-96c0-6.63 32.23-12 72-12s72 5.37 72 12z" stroke="#3a414a" fill="#fff"/><path d="M1942-688c0 6.63-32.23 12-72 12s-72-5.37-72-12" stroke="#3a414a" fill="none"/><path d="M1780-654a6 6 0 0 1 6-6h168a6 6 0 0 1 6 6v48a6 6 0 0 1-6 6h-168a6 6 0 0 1-6-6z" fill="none"/><use xlink:href="#aa" transform="matrix(1,0,0,1,1780,-660) translate(58.99691358024691 14.444444444444443)"/><use xlink:href="#ab" transform="matrix(1,0,0,1,1780,-660) translate(58.13271604938272 33.111111111111114)"/><use xlink:href="#ac" transform="matrix(1,0,0,1,1780,-660) translate(55.49691358024691 51.777777777777786)"/><path d="M1190.3-669.5h-49.8v-1h49.8zm144.32 0h-43.42v-1h43.42z" stroke="#3a414a" stroke-width=".05" fill="#3a414a"/><path d="M1140.5-669.5h-.5v-1h.5z" fill="#3a414a"/><path d="M1140.54-669.48h-.57v-1.04h.57zm-.5-1v.96h.45v-.96z" stroke="#3a414a" stroke-width=".05" fill="#3a414a"/><path d="M1340.5-670l-12.9 7.64v-15.28z" fill="#3a414a"/><path d="M1341.5-670l-14.4 8.5v-17zm-13.4 6.76l11.43-6.76-11.43-6.76z" stroke="#3a414a" stroke-width=".05" fill="#3a414a"/><use xlink:href="#ad" transform="matrix(1,0,0,1,1190.3008301358025,-679.3333333333334) translate(0 12.444444444444446)"/><use xlink:href="#ae" transform="matrix(1,0,0,1,1190.3008301358025,-679.3333333333334) translate(60.3641975308642 12.444444444444446)"/><path d="M1020-730h120v120h-120v-120z" stroke="#fff" stroke-opacity="0" stroke-width="2" fill="#3b48cc"/><path d="M1084.1-648h-2.1c-.87 0-1.58-.7-1.58-1.6v-35.6c0-.9.7-1.6 1.6-1.6h18.9c.47 0 .87.2 1.18.54l4.8 5.78-2.26 2.06-4.44-5.2h-16.66v32.55h.56z" stroke="#fff" stroke-opacity="0" stroke-width="2" fill="#fff"/><path d="M1113.3-642.2h-25.85c-.87 0-1.6-.7-1.6-1.6v-35.62c0-.9.73-1.6 1.6-1.6h19.95c.43 0 .78.17 1.1.48l5.9 5.97c.3.3.45.66.45 1.1v29.7c-.03.86-.7 1.52-1.54 1.56zm-24.3-3h22.78v-27.66l-5.02-5H1089z" stroke="#fff" stroke-opacity="0" stroke-width="2" fill="#fff"/><path d="M1113.3-670.35h-7.5c-.87 0-1.6-.72-1.6-1.6v-7.52h3.08v5.96h5.97zM1099-650.56h-1c-.82.02-1.52-.3-2.05-.92-.66-.98-.87-2.05-.66-3.22-.1-2.84-1.7-3.3-1.7-3.3-.82-.3-1.24-1.24-.93-2.06.17-.45.48-.76.93-.94.14 0 1.6-.6 1.6-3.4 0-1.68.78-3.55 2.66-3.62h1.05v3.1h-.5c-.02.17-.02.34 0 .52.1 1.87-.4 3.5-1.6 4.92 1.2 1.45 1.7 3.06 1.6 4.92.02.1.02.2 0 .28-.02.25-.02.46 0 .7h.7zM1103.3-650.56v-3.07h.6c.02-.2.02-.33 0-.52-.1-1.86.42-3.5 1.6-4.92-1.18-1.43-1.7-3.06-1.6-4.92v-.27c.03-.24.03-.44 0-.68h-.68v-3.08h1c.82-.02 1.52.3 2.05.92.66.98.87 2.04.66 3.2 0 2.7 1.6 3.2 1.6 3.3.7.22 1.14.87 1.1 1.6 0 .7-.45 1.28-1.13 1.45-.13 0-1.6.6-1.6 3.42 0 1.68-.8 3.55-2.66 3.6zM1071.57-686.48c-12.8 0-26.42-3.94-26.42-11.2s13.58-11.2 26.42-11.2c12.84 0 26.4 3.94 26.4 11.2s-13.62 11.2-26.4 11.2zm0-19.4c-13.74 0-23.35 4.3-23.35 8.18 0 3.85 9.6 8.13 23.35 8.13 13.73 0 23.35-4.28 23.35-8.13 0-3.88-9.62-8.18-23.35-8.18z" stroke="#fff" stroke-opacity="0" stroke-width="2" fill="#fff"/><path d="M1094.9-697.7h3.07v9.68h-3.07v-9.7zM1071.57-631.06c-12.8 0-26.42-3.93-26.42-11.2v-55.45h3.07v55.38c0 3.87 9.6 8.2 23.35 8.2 13.73 0 23.35-4.34 23.35-8.2h3.06c0 7.33-13.63 11.26-26.4 11.26z" stroke="#fff" stroke-opacity="0" stroke-width="2" fill="#fff"/><path d="M1071.6-667.1c-15 0-26.34-4.8-26.34-11.2h3.1c0 3.85 9.6 8.16 23.25 8.16 2.46 0 4.5-.12 6.93-.4l.33 3.06c-2.55.28-4.7.4-7.25.38zM1071.63-648.06c-15.05 0-26.37-4.8-26.37-11.2h3.1c0 3.85 9.6 8.15 23.27 8.15 2.4 0 4.46-.12 6.88-.4l.35 3.1c-2.52.26-4.7.35-7.22.34z" stroke="#fff" stroke-opacity="0" stroke-width="2" fill="#fff"/><path d="M1385.6-840.48l-.46.04-.84.2-.8.33-.73.44-.66.56-.55.66-.45.73-.33.8-.2.83-.07.88v124.5h-1v-124.53l.08-1 .24-1 .4-.93.52-.87.66-.78.78-.67.87-.53.94-.4.98-.23.62-.05zm347.1-6.5l-.07 1-.24.98-.4.94-.53.87-.66.8-.77.65-.87.53-.94.4-1 .23-1 .1H1616.6v-1h109.6l.87-.08.84-.2.8-.33.74-.46.66-.56.56-.66.45-.74.34-.8.2-.83.07-.88v-8.1h1z" stroke="#3a414a" stroke-width=".05" fill="#3a414a"/><path d="M1380.5-710h-1v-.5h1z" fill="#3a414a"/><path d="M1380.53-709.98h-1.06v-.56h1.06zm-1-.5v.46h.94v-.47z" stroke="#3a414a" stroke-width=".05" fill="#3a414a"/><path d="M1739.85-848.12h-15.27l7.63-12.9z" fill="#3a414a"/><path d="M1740.72-847.62h-17.02l8.5-14.4zm-15.27-1h13.52l-6.76-11.43z" stroke="#3a414a" stroke-width=".05" fill="#3a414a"/><g><use xlink:href="#af" transform="matrix(1,0,0,1,1385.59968906145,-850.3450251877605) translate(0 12.444444444444446)"/><use xlink:href="#e" transform="matrix(1,0,0,1,1385.59968906145,-850.3450251877605) translate(55.135802469135804 12.444444444444446)"/><use xlink:href="#ag" transform="matrix(1,0,0,1,1385.59968906145,-850.3450251877605) translate(113.77160493827161 12.444444444444446)"/><use xlink:href="#N" transform="matrix(1,0,0,1,1385.59968906145,-850.3450251877605) translate(149.9814814814815 12.444444444444446)"/><use xlink:href="#ah" transform="matrix(1,0,0,1,1385.59968906145,-850.3450251877605) translate(174.9567901234568 12.444444444444446)"/></g><path d="M1758-646.02l.07.88.2.84.33.8.45.73.56.66.67.55.74.45.8.33.84.2.88.07h27.1v1h-27.14l-1-.08-1-.24-.93-.4-.87-.52-.78-.66-.66-.78-.53-.87-.38-.94-.24-.98-.08-1V-760.8h1zm78.4-200.83l-.08 1-.24 1-.4.93-.52.87-.67.78-.78.66-.87.52-.94.4-1 .23-.98.08h-66.4l-.88.07-.84.2-.8.33-.73.45-.66.56-.55.66-.45.73-.33.8-.2.84-.07.88v55.38h-1v-55.42l.08-1 .24-.98.4-.94.52-.87.66-.77.78-.66.87-.53.94-.4.98-.23 1-.07h66.4l.88-.07.84-.2.8-.33.73-.45.65-.56.57-.66.45-.73.33-.8.2-.84.07-.9v-14.47h1z" stroke="#3a414a" stroke-width=".05" fill="#3a414a"/><path d="M1836.4-861.36h-1v-.32l.62-.24.38-.18z" fill="#3a414a"/><path d="M1836.42-861.33h-1.05v-.36l.64-.24.42-.2zm-.4-.56l-.6.24v.28h.95v-.68z" stroke="#3a414a" stroke-width=".05" fill="#3a414a"/><path d="M1796.52-640l-12.9 7.64v-15.28z" fill="#3a414a"/><path d="M1797.5-640l-14.4 8.5v-17zm-13.4 6.76l11.44-6.76-11.43-6.76z" stroke="#3a414a" stroke-width=".05" fill="#3a414a"/><g><use xlink:href="#ai" transform="matrix(1,0,0,1,1706.1460063633865,-779.4663032164832) translate(0 12.444444444444446)"/></g><path d="M2075.86-381v8.14a6 6 0 0 0 6 6H2334a6 6 0 0 1 6 6v44" stroke="#3a414a" fill="none"/><path d="M2075.86-386.88l7.64 12.9h-15.27zM2340-310.98l-7.64-12.9h15.28z" stroke="#3a414a" fill="#3a414a"/><path d="M1660.5-372.88l.07.88.2.84.33.8.45.73.56.66.67.56.73.44.8.33.84.2.88.07h340.1l.87-.07.83-.2.8-.33.73-.45.66-.57.56-.66.45-.73.33-.8.2-.84.07-.88v-14.46h1v14.5l-.08 1-.24 1-.38.93-.53.86-.68.78-.77.66-.87.53-.94.4-1 .23-1 .08H1666l-1-.08-1-.24-.93-.4-.87-.52-.78-.66-.66-.78-.53-.87-.38-.95-.24-1-.08-1v-70.56h1zm-5.48-297.54l1 .24.93.4.87.52.78.66.66.78.53.87.38.94.24.98.08 1v201.95h-1v-201.9l-.07-.9-.2-.83-.33-.8-.45-.73-.56-.66-.67-.55-.73-.45-.8-.33-.84-.2-.88-.07h-228.84v-1h228.88z" stroke="#3a414a" stroke-width=".05" fill="#3a414a"/><path d="M2012.63-387.54v.2h-1v-.8z" fill="#3a414a"/><path d="M2012.65-387.55v.25h-1.05v-.9zm-1 .2h.95v-.17l-.95-.58z" stroke="#3a414a" stroke-width=".05" fill="#3a414a"/><path d="M1432.16-662.36l-12.9-7.64 12.9-7.64z" fill="#3a414a"/><path d="M1432.66-661.5l-14.4-8.5 14.4-8.5zm-12.42-8.5l11.42 6.76v-13.52z" stroke="#3a414a" stroke-width=".05" fill="#3a414a"/><g><use xlink:href="#aj" transform="matrix(1,0,0,1,1593.6512345679012,-462.0737978239391) translate(0 12.444444444444446)"/><use xlink:href="#ak" transform="matrix(1,0,0,1,1593.6512345679012,-462.0737978239391) translate(80.9753086419753 12.444444444444446)"/></g><path d="M1528.5-390.8l-.08 1-.24 1-.4.94-.52.87-.66.78-.78.67-.87.53-.94.4-.98.23-1 .08h-30.22v-1h30.18l.88-.06.84-.2.8-.34.73-.45.66-.56.55-.65.45-.74.33-.8.2-.83.07-.88v-125.24h1zm-5.48-279.62l1 .24.93.4.87.52.78.66.66.78.53.87.38.94.24.98.08 1v110.62h-1v-110.58l-.07-.88-.2-.84-.33-.8-.45-.73-.56-.66-.67-.55-.73-.45-.8-.33-.84-.2-.88-.07h-103.2v-1H1522z" stroke="#3a414a" stroke-width=".05" fill="#3a414a"/><path d="M1418.78-669.5h-.5v-1h.5z" fill="#3a414a"/><path d="M1418.8-669.48h-.55v-1.04h.56zm-.5-1v.96h.46v-.96z" stroke="#3a414a" stroke-width=".05" fill="#3a414a"/><path d="M1498.82-377.18l-12.9-7.63 12.9-7.65z" fill="#3a414a"/><path d="M1499.32-376.3l-14.4-8.5 14.4-8.53zm-12.43-8.5l11.42 6.74v-13.5z" stroke="#3a414a" stroke-width=".05" fill="#3a414a"/><g><use xlink:href="#al" transform="matrix(1,0,0,1,1449.1203703703704,-553.4029384798297) translate(0.0049999999999954525 12.444444444444446)"/><use xlink:href="#am" transform="matrix(1,0,0,1,1449.1203703703704,-553.4029384798297) translate(65.59759259259259 12.444444444444446)"/><use xlink:href="#an" transform="matrix(1,0,0,1,1449.1203703703704,-553.4029384798297) translate(50.45253086419753 31.111111111111118)"/></g><path d="M1485.43-384.8h39.5-33.13" stroke="#3a414a" fill="none"/><path d="M1485.44-384.3h-.4l-.24-1h.64z" stroke="#3a414a" stroke-width=".05" fill="#3a414a"/><path d="M1485.9-384.8l12.92-7.65v15.27z" stroke="#3a414a" fill="#3a414a"/><path d="M1725.28-867.24l-42.72-55.7c-1.7-2.16-2.56-4.5-2.56-7.05 0-2.52.85-4.87 2.56-7.04l42.56-55.82c1.64-2.2 3.93-3.96 6.84-5.24 2.9-1.27 6.03-1.9 9.4-1.87h85.28c3.35 0 6.5.64 9.38 1.92 2.9 1.27 5.18 3 6.87 5.2l42.54 55.8c1.7 2.18 2.56 4.53 2.56 7.06 0 2.55-.85 4.9-2.56 7.07l-42.56 55.82c-1.68 2.2-3.97 3.9-6.86 5.18-2.9 1.28-6.03 1.9-9.38 1.92h-85.1c-3.36-.07-6.48-.74-9.37-2.03-2.9-1.3-5.18-3.02-6.9-5.2zm0 0" fill="#0e62c2"/><path d="M1825.66-949.2l-41.58-13.98-39.8 16.32-1.6 35.94 67.07 50.67h17.06c3.36-.02 6.5-.65 9.4-1.92 2.88-1.27 5.17-3 6.85-5.2l33.3-43.66z" fill="#0851b0"/><path d="M1824.68-949.68l-38.5-16.8c-.66-.3-1.4-.47-2.18-.47-.8 0-1.52.16-2.18.47l-38.34 16.8c-.66.28-1.2.68-1.58 1.2-.37.5-.56 1.04-.54 1.62v33.5c0 .57.2 1.1.56 1.62.38.5.9.9 1.56 1.2l38.48 16.8c.67.3 1.42.46 2.2.46.8 0 1.52-.15 2.2-.46l38.33-16.7c.65-.27 1.2-.66 1.57-1.16.37-.5.56-1.05.54-1.64v-33.62c0-.57-.2-1.1-.58-1.6-.37-.5-.9-.92-1.54-1.22zm-5.2 33.25l-13.47-5.9v-15.45l-19.82 8.6v17.28l17.73-7.73 13.48 5.9-33.3 14.6-33.3-14.6 13.48-5.9 17.7 7.73v-17.16l-19.8-8.6v15.33l-13.5 5.77v-28.95l33.3-14.5v11.67l-17.7 7.73 19.82 8.58 19.83-8.58-17.72-7.73V-960l33.3 14.5z" fill="#fff"/><path d="M1860-954a6 6 0 0 1 6-6h228a6 6 0 0 1 6 6v48a6 6 0 0 1-6 6h-228a6 6 0 0 1-6-6z" fill="none"/><g><use xlink:href="#ao" transform="matrix(1,0,0,1,1860,-960) translate(34.61728395061728 33.111111111111114)"/><use xlink:href="#ap" transform="matrix(1,0,0,1,1860,-960) translate(95.80246913580245 33.111111111111114)"/><use xlink:href="#aq" transform="matrix(1,0,0,1,1860,-960) translate(141.4753086419753 33.111111111111114)"/><use xlink:href="#ar" transform="matrix(1,0,0,1,1860,-960) translate(156.98765432098764 33.111111111111114)"/></g><defs><path fill="#3a414a" d="M140-251c80 0 125 45 125 126S219 4 139 4C58 4 15-44 15-125s44-126 125-126zm-1 214c52 0 73-35 73-88 0-50-21-86-72-86-52 0-73 35-73 86s22 88 72 88" id="as"/><path fill="#3a414a" d="M175 0L67-191c6 58 2 128 3 191H24v-248h59L193-55c-6-58-2-129-3-193h46V0h-61" id="at"/><path fill="#3a414a" d="M24-248c120-7 223 5 221 122C244-46 201 0 124 0H24v-248zM76-40c74 7 117-18 117-86 0-67-45-88-117-82v168" id="au"/><path fill="#3a414a" d="M67-125c0 53 21 87 73 88 37 1 54-22 65-47l45 17C233-25 199 4 140 4 58 4 20-42 15-125 8-235 124-281 211-232c18 10 29 29 36 50l-46 12c-8-25-30-41-62-41-52 0-71 34-72 86" id="av"/><g id="a"><use transform="matrix(0.04320987654320988,0,0,0.04320987654320988,0,0)" xlink:href="#as"/><use transform="matrix(0.04320987654320988,0,0,0.04320987654320988,12.098765432098766,0)" xlink:href="#at"/><use transform="matrix(0.04320987654320988,0,0,0.04320987654320988,23.290123456790127,0)" xlink:href="#au"/><use transform="matrix(0.04320987654320988,0,0,0.04320987654320988,34.48148148148149,0)" xlink:href="#av"/></g><path fill="#3a414a" d="M199 0l-22-63H83L61 0H9l90-248h61L250 0h-51zm-33-102l-36-108c-10 38-24 72-36 108h72" id="aw"/><path fill="#3a414a" d="M136-208V0H84v-208H4v-40h212v40h-80" id="ax"/><g id="b"><use transform="matrix(0.04320987654320988,0,0,0.04320987654320988,0,0)" xlink:href="#au"/><use transform="matrix(0.04320987654320988,0,0,0.04320987654320988,11.19135802469136,0)" xlink:href="#aw"/><use transform="matrix(0.04320987654320988,0,0,0.04320987654320988,21.21604938271605,0)" xlink:href="#ax"/><use transform="matrix(0.04320987654320988,0,0,0.04320987654320988,29.51234567901235,0)" xlink:href="#aw"/></g><path fill="#3a414a" d="M24-248c93 1 206-16 204 79-1 75-69 88-152 82V0H24v-248zm52 121c47 0 100 7 100-41 0-47-54-39-100-39v80" id="ay"/><path fill="#3a414a" d="M240-174c0 40-23 61-54 70L253 0h-59l-57-94H76V0H24v-248c93 4 217-23 216 74zM76-134c48-2 112 12 112-38 0-48-66-32-112-35v73" id="az"/><path fill="#3a414a" d="M147 0H94L2-248h55l64 206c17-72 42-137 63-206h54" id="aA"/><path fill="#3a414a" d="M24 0v-248h52V0H24" id="aB"/><path fill="#3a414a" d="M24 0v-248h195v40H76v63h132v40H76v65h150V0H24" id="aC"/><g id="c"><use transform="matrix(0.04320987654320988,0,0,0.04320987654320988,0,0)" xlink:href="#ay"/><use transform="matrix(0.04320987654320988,0,0,0.04320987654320988,10.370370370370372,0)" xlink:href="#az"/><use transform="matrix(0.04320987654320988,0,0,0.04320987654320988,21.56172839506173,0)" xlink:href="#as"/><use transform="matrix(0.04320987654320988,0,0,0.04320987654320988,33.660493827160494,0)" xlink:href="#aA"/><use transform="matrix(0.04320987654320988,0,0,0.04320987654320988,44.03086419753087,0)" xlink:href="#aB"/><use transform="matrix(0.04320987654320988,0,0,0.04320987654320988,48.351851851851855,0)" xlink:href="#au"/><use transform="matrix(0.04320987654320988,0,0,0.04320987654320988,59.543209876543216,0)" xlink:href="#aC"/><use transform="matrix(0.04320987654320988,0,0,0.04320987654320988,69.91358024691358,0)" xlink:href="#az"/></g><path fill="#333" d="M169-182c-1-43-94-46-97-3 18 66 151 10 154 114 3 95-165 93-204 36-6-8-10-19-12-30l50-8c3 46 112 56 116 5-17-69-150-10-154-114-4-87 153-88 188-35 5 8 8 18 10 28" id="aD"/><path fill="#333" d="M115-3C79 11 28 4 28-45v-112H4v-33h27l15-45h31v45h36v33H77v99c-1 23 16 31 38 25v30" id="aE"/><path fill="#333" d="M110-194c64 0 96 36 96 99 0 64-35 99-97 99-61 0-95-36-95-99 0-62 34-99 96-99zm-1 164c35 0 45-28 45-65 0-40-10-65-43-65-34 0-45 26-45 65 0 36 10 65 43 65" id="aF"/><path fill="#333" d="M135-150c-39-12-60 13-60 57V0H25l-1-190h47c2 13-1 29 3 40 6-28 27-53 61-41v41" id="aG"/><path fill="#333" d="M185-48c-13 30-37 53-82 52C43 2 14-33 14-96s30-98 90-98c62 0 83 45 84 108H66c0 31 8 55 39 56 18 0 30-7 34-22zm-45-69c5-46-57-63-70-21-2 6-4 13-4 21h74" id="aH"/><g id="d"><use transform="matrix(0.04320987654320988,0,0,0.04320987654320988,0,0)" xlink:href="#aD"/><use transform="matrix(0.04320987654320988,0,0,0.04320987654320988,10.370370370370372,0)" xlink:href="#aE"/><use transform="matrix(0.04320987654320988,0,0,0.04320987654320988,15.512345679012347,0)" xlink:href="#aF"/><use transform="matrix(0.04320987654320988,0,0,0.04320987654320988,24.97530864197531,0)" xlink:href="#aG"/><use transform="matrix(0.04320987654320988,0,0,0.04320987654320988,31.024691358024693,0)" xlink:href="#aH"/></g><path fill="#333" d="M190-63c-7 42-38 67-86 67-59 0-84-38-90-98-12-110 154-137 174-36l-49 2c-2-19-15-32-35-32-30 0-35 28-38 64-6 74 65 87 74 30" id="aI"/><path fill="#333" d="M133-34C117-15 103 5 69 4 32 3 11-16 11-54c-1-60 55-63 116-61 1-26-3-47-28-47-18 1-26 9-28 27l-52-2c7-38 36-58 82-57s74 22 75 68l1 82c-1 14 12 18 25 15v27c-30 8-71 5-69-32zm-48 3c29 0 43-24 42-57-32 0-66-3-65 30 0 17 8 27 23 27" id="aJ"/><path fill="#333" d="M25 0v-261h50V0H25" id="aK"/><path fill="#333" d="M195-6C206 82 75 100 31 46c-4-6-6-13-8-21l49-6c3 16 16 24 34 25 40 0 42-37 40-79-11 22-30 35-61 35-53 0-70-43-70-97 0-56 18-96 73-97 30 0 46 14 59 34l2-30h47zm-90-29c32 0 41-27 41-63 0-35-9-62-40-62-32 0-39 29-40 63 0 36 9 62 39 62" id="aL"/><g id="e"><use transform="matrix(0.04320987654320988,0,0,0.04320987654320988,0,0)" xlink:href="#aI"/><use transform="matrix(0.04320987654320988,0,0,0.04320987654320988,8.641975308641976,0)" xlink:href="#aJ"/><use transform="matrix(0.04320987654320988,0,0,0.04320987654320988,17.283950617283953,0)" xlink:href="#aE"/><use transform="matrix(0.04320987654320988,0,0,0.04320987654320988,22.425925925925927,0)" xlink:href="#aJ"/><use transform="matrix(0.04320987654320988,0,0,0.04320987654320988,31.067901234567906,0)" xlink:href="#aK"/><use transform="matrix(0.04320987654320988,0,0,0.04320987654320988,35.38888888888889,0)" xlink:href="#aF"/><use transform="matrix(0.04320987654320988,0,0,0.04320987654320988,44.851851851851855,0)" xlink:href="#aL"/></g><path fill="#333" d="M88-194c31-1 46 15 58 34l-1-101h50l1 261h-48c-2-10 0-23-3-31C134-8 116 4 84 4 32 4 16-41 15-95c0-56 19-97 73-99zm17 164c33 0 40-30 41-66 1-37-9-64-41-64s-38 30-39 65c0 43 13 65 39 65" id="aM"/><g id="f"><use transform="matrix(0.04320987654320988,0,0,0.04320987654320988,0,0)" xlink:href="#aM"/><use transform="matrix(0.04320987654320988,0,0,0.04320987654320988,9.462962962962964,0)" xlink:href="#aJ"/><use transform="matrix(0.04320987654320988,0,0,0.04320987654320988,18.10493827160494,0)" xlink:href="#aE"/><use transform="matrix(0.04320987654320988,0,0,0.04320987654320988,23.246913580246915,0)" xlink:href="#aJ"/></g><path fill="#333" d="M85 4C-2 5 27-109 22-190h50c7 57-23 150 33 157 60-5 35-97 40-157h50l1 190h-47c-2-12 1-28-3-38-12 25-28 42-61 42" id="aN"/><path fill="#333" d="M135-194c87-1 58 113 63 194h-50c-7-57 23-157-34-157-59 0-34 97-39 157H25l-1-190h47c2 12-1 28 3 38 12-26 28-41 61-42" id="aO"/><path fill="#333" d="M121-226c-27-7-43 5-38 36h38v33H83V0H34v-157H6v-33h28c-9-59 32-81 87-68v32" id="aP"/><path fill="#333" d="M220-157c-53 9-28 100-34 157h-49v-107c1-27-5-49-29-50C55-147 81-57 75 0H25l-1-190h47c2 12-1 28 3 38 10-53 101-56 108 0 13-22 24-43 59-42 82 1 51 116 57 194h-49v-107c-1-25-5-48-29-50" id="aQ"/><g id="g"><use transform="matrix(0.04320987654320988,0,0,0.04320987654320988,0,0)" xlink:href="#aN"/><use transform="matrix(0.04320987654320988,0,0,0.04320987654320988,9.462962962962964,0)" xlink:href="#aO"/><use transform="matrix(0.04320987654320988,0,0,0.04320987654320988,18.925925925925927,0)" xlink:href="#aP"/><use transform="matrix(0.04320987654320988,0,0,0.04320987654320988,24.067901234567906,0)" xlink:href="#aF"/><use transform="matrix(0.04320987654320988,0,0,0.04320987654320988,33.53086419753087,0)" xlink:href="#aG"/><use transform="matrix(0.04320987654320988,0,0,0.04320987654320988,39.580246913580254,0)" xlink:href="#aQ"/><use transform="matrix(0.04320987654320988,0,0,0.04320987654320988,53.407407407407426,0)" xlink:href="#aJ"/><use transform="matrix(0.04320987654320988,0,0,0.04320987654320988,62.04938271604939,0)" xlink:href="#aE"/><use transform="matrix(0.04320987654320988,0,0,0.04320987654320988,67.19135802469137,0)" xlink:href="#aE"/><use transform="matrix(0.04320987654320988,0,0,0.04320987654320988,72.33333333333334,0)" xlink:href="#aH"/><use transform="matrix(0.04320987654320988,0,0,0.04320987654320988,80.97530864197532,0)" xlink:href="#aM"/></g><path d="M416-495c-3 181 88 274 258 274 169 0 257-89 257-266v-969h301v959c3 324-227 517-558 517-328 0-557-188-558-506v-970h300v961" id="aR"/><path d="M529-185c94 0 168-33 168-114 0-35-18-63-53-83s-91-39-168-55C219-491 90-600 90-765c0-208 203-337 432-337 246 0 451 124 453 349H686c-2-91-62-143-165-143-86 0-151 41-153 117 0 32 16 57 46 77 63 43 257 69 335 100 151 60 229 153 229 291C978-13 554 93 282-28 162-81 60-190 56-344h274c5 106 86 159 199 159" id="aS"/><path d="M1031-175C952-60 797 20 609 20 287 20 60-206 72-543c12-330 180-559 505-559 309 0 482 214 477 537v118H365c15 134 115 234 263 234 111 0 198-40 261-121zM770-644c5-139-62-226-194-224-130 1-191 97-208 224h402" id="aT"/><path d="M719-811c-143-24-279 1-319 103V0H111v-1082h273l8 129c74-124 180-175 331-136" id="aU"/><g id="i"><use transform="matrix(0.007595486111111112,0,0,0.007595486111111112,0,0)" xlink:href="#aR"/><use transform="matrix(0.007595486111111112,0,0,0.007595486111111112,10.238715277777779,0)" xlink:href="#aS"/><use transform="matrix(0.007595486111111112,0,0,0.007595486111111112,18.23676215277778,0)" xlink:href="#aT"/><use transform="matrix(0.007595486111111112,0,0,0.007595486111111112,26.64496527777778,0)" xlink:href="#aU"/><use transform="matrix(0.007595486111111112,0,0,0.007595486111111112,32.31879340277778,0)" xlink:href="#aS"/></g><filter id="h" filterUnits="objectBoundingBox" x="-.02" y="0" width="1.03" height="1.02"><feOffset result="offOut" in="SourceAlpha" dy="1"/><feGaussianBlur result="blurOut" in="offOut" stdDeviation=".75"/><feColorMatrix result="colorOut" in="blurOut" values="0 0 0 0 0 0 0 0 0 0 0 0 0 0 0 0 0 0 0.4 0"/><feBlend in="SourceGraphic" in2="colorOut"/></filter><path fill="#3a414a" d="M140-251c80 0 125 45 125 126 0 70-33 111-92 124 6 28 34 38 68 31l-1 36C177 83 129 55 120 2 51-6 15-50 15-125c0-81 44-126 125-126zm-1 214c52 0 73-35 73-88 0-50-21-86-72-86-52 0-73 35-73 86s22 88 72 88" id="aV"/><path fill="#3a414a" d="M85 4C-2 5 27-109 22-190h50c7 57-23 150 33 157 60-5 35-97 40-157h50l1 190h-47c-2-12 1-28-3-38-12 25-28 42-61 42" id="aW"/><path fill="#3a414a" d="M185-48c-13 30-37 53-82 52C43 2 14-33 14-96s30-98 90-98c62 0 83 45 84 108H66c0 31 8 55 39 56 18 0 30-7 34-22zm-45-69c5-46-57-63-70-21-2 6-4 13-4 21h74" id="aX"/><path fill="#3a414a" d="M135-150c-39-12-60 13-60 57V0H25l-1-190h47c2 13-1 29 3 40 6-28 27-53 61-41v41" id="aY"/><path fill="#3a414a" d="M123 10C108 53 80 86 19 72V37c35 8 53-11 59-39L3-190h52l48 148c12-52 28-100 44-148h51" id="aZ"/><g id="j"><use transform="matrix(0.04320987654320988,0,0,0.04320987654320988,0,0)" xlink:href="#aV"/><use transform="matrix(0.04320987654320988,0,0,0.04320987654320988,12.098765432098766,0)" xlink:href="#aW"/><use transform="matrix(0.04320987654320988,0,0,0.04320987654320988,21.561728395061728,0)" xlink:href="#aX"/><use transform="matrix(0.04320987654320988,0,0,0.04320987654320988,30.203703703703702,0)" xlink:href="#aY"/><use transform="matrix(0.04320987654320988,0,0,0.04320987654320988,36.25308641975309,0)" xlink:href="#aZ"/></g><path fill="#3a414a" d="M110-194c64 0 96 36 96 99 0 64-35 99-97 99-61 0-95-36-95-99 0-62 34-99 96-99zm-1 164c35 0 45-28 45-65 0-40-10-65-43-65-34 0-45 26-45 65 0 36 10 65 43 65" id="ba"/><path fill="#3a414a" d="M220-157c-53 9-28 100-34 157h-49v-107c1-27-5-49-29-50C55-147 81-57 75 0H25l-1-190h47c2 12-1 28 3 38 10-53 101-56 108 0 13-22 24-43 59-42 82 1 51 116 57 194h-49v-107c-1-25-5-48-29-50" id="bb"/><path fill="#3a414a" d="M135-194c53 0 70 44 70 98 0 56-19 98-73 100-31 1-45-17-59-34 3 33 2 69 2 105H25l-1-265h48c2 10 0 23 3 31 11-24 29-35 60-35zM114-30c33 0 39-31 40-66 0-38-9-64-40-64-56 0-55 130 0 130" id="bc"/><path fill="#3a414a" d="M115-3C79 11 28 4 28-45v-112H4v-33h27l15-45h31v45h36v33H77v99c-1 23 16 31 38 25v30" id="bd"/><g id="k"><use transform="matrix(0.04320987654320988,0,0,0.04320987654320988,0,0)" xlink:href="#av"/><use transform="matrix(0.04320987654320988,0,0,0.04320987654320988,11.19135802469136,0)" xlink:href="#ba"/><use transform="matrix(0.04320987654320988,0,0,0.04320987654320988,20.654320987654323,0)" xlink:href="#bb"/><use transform="matrix(0.04320987654320988,0,0,0.04320987654320988,34.48148148148148,0)" xlink:href="#bc"/><use transform="matrix(0.04320987654320988,0,0,0.04320987654320988,43.94444444444444,0)" xlink:href="#aW"/><use transform="matrix(0.04320987654320988,0,0,0.04320987654320988,53.407407407407405,0)" xlink:href="#bd"/><use transform="matrix(0.04320987654320988,0,0,0.04320987654320988,58.54938271604938,0)" xlink:href="#aX"/></g><path fill="#3a414a" d="M135-194c87-1 58 113 63 194h-50c-7-57 23-157-34-157-59 0-34 97-39 157H25l-1-190h47c2 12-1 28 3 38 12-26 28-41 61-42" id="be"/><path fill="#3a414a" d="M195-6C206 82 75 100 31 46c-4-6-6-13-8-21l49-6c3 16 16 24 34 25 40 0 42-37 40-79-11 22-30 35-61 35-53 0-70-43-70-97 0-56 18-96 73-97 30 0 46 14 59 34l2-30h47zm-90-29c32 0 41-27 41-63 0-35-9-62-40-62-32 0-39 29-40 63 0 36 9 62 39 62" id="bf"/><path fill="#3a414a" d="M25-224v-37h50v37H25zM25 0v-190h50V0H25" id="bg"/><g id="l"><use transform="matrix(0.04320987654320988,0,0,0.04320987654320988,0,0)" xlink:href="#aC"/><use transform="matrix(0.04320987654320988,0,0,0.04320987654320988,10.370370370370372,0)" xlink:href="#be"/><use transform="matrix(0.04320987654320988,0,0,0.04320987654320988,19.833333333333336,0)" xlink:href="#bf"/><use transform="matrix(0.04320987654320988,0,0,0.04320987654320988,29.296296296296298,0)" xlink:href="#bg"/><use transform="matrix(0.04320987654320988,0,0,0.04320987654320988,33.617283950617285,0)" xlink:href="#be"/><use transform="matrix(0.04320987654320988,0,0,0.04320987654320988,43.08024691358025,0)" xlink:href="#aX"/></g><path fill="#3a414a" d="M133-34C117-15 103 5 69 4 32 3 11-16 11-54c-1-60 55-63 116-61 1-26-3-47-28-47-18 1-26 9-28 27l-52-2c7-38 36-58 82-57s74 22 75 68l1 82c-1 14 12 18 25 15v27c-30 8-71 5-69-32zm-48 3c29 0 43-24 42-57-32 0-66-3-65 30 0 17 8 27 23 27" id="bh"/><path fill="#3a414a" d="M190-63c-7 42-38 67-86 67-59 0-84-38-90-98-12-110 154-137 174-36l-49 2c-2-19-15-32-35-32-30 0-35 28-38 64-6 74 65 87 74 30" id="bi"/><path fill="#3a414a" d="M114-157C55-157 80-60 75 0H25v-261h50l-1 109c12-26 28-41 61-42 86-1 58 113 63 194h-50c-7-57 23-157-34-157" id="bj"/><g id="m"><use transform="matrix(0.04320987654320988,0,0,0.04320987654320988,0,0)" xlink:href="#av"/><use transform="matrix(0.04320987654320988,0,0,0.04320987654320988,11.19135802469136,0)" xlink:href="#bh"/><use transform="matrix(0.04320987654320988,0,0,0.04320987654320988,19.833333333333336,0)" xlink:href="#bi"/><use transform="matrix(0.04320987654320988,0,0,0.04320987654320988,28.47530864197531,0)" xlink:href="#bj"/><use transform="matrix(0.04320987654320988,0,0,0.04320987654320988,37.93827160493827,0)" xlink:href="#aX"/></g><path fill="#3a414a" d="M169-182c-1-43-94-46-97-3 18 66 151 10 154 114 3 95-165 93-204 36-6-8-10-19-12-30l50-8c3 46 112 56 116 5-17-69-150-10-154-114-4-87 153-88 188-35 5 8 8 18 10 28" id="bk"/><path fill="#3a414a" d="M128 0H69L1-190h53L99-40l48-150h52" id="bl"/><g id="n"><use transform="matrix(0.04320987654320988,0,0,0.04320987654320988,0,0)" xlink:href="#bk"/><use transform="matrix(0.04320987654320988,0,0,0.04320987654320988,10.370370370370372,0)" xlink:href="#aX"/><use transform="matrix(0.04320987654320988,0,0,0.04320987654320988,19.01234567901235,0)" xlink:href="#aY"/><use transform="matrix(0.04320987654320988,0,0,0.04320987654320988,25.06172839506173,0)" xlink:href="#bl"/><use transform="matrix(0.04320987654320988,0,0,0.04320987654320988,33.70370370370371,0)" xlink:href="#aX"/><use transform="matrix(0.04320987654320988,0,0,0.04320987654320988,42.345679012345684,0)" xlink:href="#aY"/></g><path fill="#3a414a" d="M238-95c0 69-44 99-111 99C63 4 22-25 22-93v-155h51v151c-1 38 19 59 55 60 90 1 49-130 58-211h52v153" id="bm"/><path fill="#3a414a" d="M137-138c1-29-70-34-71-4 15 46 118 7 119 86 1 83-164 76-172 9l43-7c4 19 20 25 44 25 33 8 57-30 24-41C81-84 22-81 20-136c-2-80 154-74 161-7" id="bn"/><g id="o"><use transform="matrix(0.04320987654320988,0,0,0.04320987654320988,0,0)" xlink:href="#bm"/><use transform="matrix(0.04320987654320988,0,0,0.04320987654320988,11.19135802469136,0)" xlink:href="#be"/><use transform="matrix(0.04320987654320988,0,0,0.04320987654320988,20.654320987654323,0)" xlink:href="#bn"/><use transform="matrix(0.04320987654320988,0,0,0.04320987654320988,29.296296296296298,0)" xlink:href="#bd"/><use transform="matrix(0.04320987654320988,0,0,0.04320987654320988,34.43827160493827,0)" xlink:href="#aY"/><use transform="matrix(0.04320987654320988,0,0,0.04320987654320988,40.48765432098766,0)" xlink:href="#aW"/><use transform="matrix(0.04320987654320988,0,0,0.04320987654320988,49.95061728395062,0)" xlink:href="#bi"/><use transform="matrix(0.04320987654320988,0,0,0.04320987654320988,58.592592592592595,0)" xlink:href="#bd"/><use transform="matrix(0.04320987654320988,0,0,0.04320987654320988,63.73456790123458,0)" xlink:href="#aW"/><use transform="matrix(0.04320987654320988,0,0,0.04320987654320988,73.19753086419753,0)" xlink:href="#aY"/><use transform="matrix(0.04320987654320988,0,0,0.04320987654320988,79.24691358024691,0)" xlink:href="#aX"/></g><path fill="#3a414a" d="M67-93c0 74 22 123 53 168H70C40 30 18-18 18-93s22-123 52-168h50c-32 44-53 94-53 168" id="bo"/><path fill="#3a414a" d="M24 0v-248h52v208h133V0H24" id="bp"/><path fill="#3a414a" d="M230 0l2-204L168 0h-37L68-204 70 0H24v-248h70l56 185 57-185h69V0h-46" id="bq"/><path fill="#3a414a" d="M102-93c0 74-22 123-52 168H0C30 29 54-18 53-93c0-74-22-123-53-168h50c30 45 52 94 52 168" id="br"/><g id="p"><use transform="matrix(0.04320987654320988,0,0,0.04320987654320988,0,0)" xlink:href="#aC"/><use transform="matrix(0.04320987654320988,0,0,0.04320987654320988,10.370370370370372,0)" xlink:href="#be"/><use transform="matrix(0.04320987654320988,0,0,0.04320987654320988,19.833333333333336,0)" xlink:href="#bf"/><use transform="matrix(0.04320987654320988,0,0,0.04320987654320988,29.296296296296298,0)" xlink:href="#bg"/><use transform="matrix(0.04320987654320988,0,0,0.04320987654320988,33.617283950617285,0)" xlink:href="#be"/><use transform="matrix(0.04320987654320988,0,0,0.04320987654320988,43.08024691358025,0)" xlink:href="#aX"/><use transform="matrix(0.04320987654320988,0,0,0.04320987654320988,51.722222222222214,0)" xlink:href="#bo"/><use transform="matrix(0.04320987654320988,0,0,0.04320987654320988,56.864197530864196,0)" xlink:href="#bp"/><use transform="matrix(0.04320987654320988,0,0,0.04320987654320988,66.32716049382717,0)" xlink:href="#bp"/><use transform="matrix(0.04320987654320988,0,0,0.04320987654320988,75.79012345679013,0)" xlink:href="#bq"/><use transform="matrix(0.04320987654320988,0,0,0.04320987654320988,88.70987654320989,0)" xlink:href="#br"/></g><path fill="#3a414a" d="M63-170c30 0 51 21 51 51 0 31-20 52-51 52s-52-21-52-52 21-51 52-51" id="bs"/><use transform="matrix(0.04320987654320988,0,0,0.04320987654320988,0,0)" xlink:href="#bs" id="r"/><path fill="#3a414a" d="M88-194c31-1 46 15 58 34l-1-101h50l1 261h-48c-2-10 0-23-3-31C134-8 116 4 84 4 32 4 16-41 15-95c0-56 19-97 73-99zm17 164c33 0 40-30 41-66 1-37-9-64-41-64s-38 30-39 65c0 43 13 65 39 65" id="bt"/><g id="s"><use transform="matrix(0.04320987654320988,0,0,0.04320987654320988,0,0)" xlink:href="#az"/><use transform="matrix(0.04320987654320988,0,0,0.04320987654320988,11.19135802469136,0)" xlink:href="#aX"/><use transform="matrix(0.04320987654320988,0,0,0.04320987654320988,19.833333333333336,0)" xlink:href="#bh"/><use transform="matrix(0.04320987654320988,0,0,0.04320987654320988,28.47530864197531,0)" xlink:href="#bt"/></g><path fill="#3a414a" d="M25 0v-261h50V0H25" id="bu"/><g id="t"><use transform="matrix(0.04320987654320988,0,0,0.04320987654320988,0,0)" xlink:href="#av"/><use transform="matrix(0.04320987654320988,0,0,0.04320987654320988,11.19135802469136,0)" xlink:href="#bh"/><use transform="matrix(0.04320987654320988,0,0,0.04320987654320988,19.833333333333336,0)" xlink:href="#bd"/><use transform="matrix(0.04320987654320988,0,0,0.04320987654320988,24.97530864197531,0)" xlink:href="#bh"/><use transform="matrix(0.04320987654320988,0,0,0.04320987654320988,33.617283950617285,0)" xlink:href="#bu"/><use transform="matrix(0.04320987654320988,0,0,0.04320987654320988,37.93827160493827,0)" xlink:href="#ba"/><use transform="matrix(0.04320987654320988,0,0,0.04320987654320988,47.40123456790123,0)" xlink:href="#bf"/></g><g id="u"><use transform="matrix(0.04320987654320988,0,0,0.04320987654320988,0,0)" xlink:href="#bk"/><use transform="matrix(0.04320987654320988,0,0,0.04320987654320988,10.370370370370372,0)" xlink:href="#bd"/><use transform="matrix(0.04320987654320988,0,0,0.04320987654320988,15.512345679012347,0)" xlink:href="#ba"/><use transform="matrix(0.04320987654320988,0,0,0.04320987654320988,24.97530864197531,0)" xlink:href="#aY"/><use transform="matrix(0.04320987654320988,0,0,0.04320987654320988,31.024691358024693,0)" xlink:href="#aX"/></g><path fill="#3a414a" d="M144 0l-44-69L55 0H2l70-98-66-92h53l41 62 40-62h54l-67 91 71 99h-54" id="bv"/><g id="v"><use transform="matrix(0.04320987654320988,0,0,0.04320987654320988,0,0)" xlink:href="#aB"/><use transform="matrix(0.04320987654320988,0,0,0.04320987654320988,4.320987654320988,0)" xlink:href="#be"/><use transform="matrix(0.04320987654320988,0,0,0.04320987654320988,13.783950617283953,0)" xlink:href="#bt"/><use transform="matrix(0.04320987654320988,0,0,0.04320987654320988,23.246913580246915,0)" xlink:href="#aX"/><use transform="matrix(0.04320987654320988,0,0,0.04320987654320988,31.888888888888893,0)" xlink:href="#bv"/><use transform="matrix(0.04320987654320988,0,0,0.04320987654320988,40.53086419753087,0)" xlink:href="#bg"/><use transform="matrix(0.04320987654320988,0,0,0.04320987654320988,44.851851851851855,0)" xlink:href="#be"/><use transform="matrix(0.04320987654320988,0,0,0.04320987654320988,54.314814814814824,0)" xlink:href="#bf"/></g><g id="w"><use transform="matrix(0.04320987654320988,0,0,0.04320987654320988,0,0)" xlink:href="#bk"/><use transform="matrix(0.04320987654320988,0,0,0.04320987654320988,10.370370370370372,0)" xlink:href="#bd"/><use transform="matrix(0.04320987654320988,0,0,0.04320987654320988,15.512345679012347,0)" xlink:href="#aY"/><use transform="matrix(0.04320987654320988,0,0,0.04320987654320988,21.56172839506173,0)" xlink:href="#aW"/><use transform="matrix(0.04320987654320988,0,0,0.04320987654320988,31.024691358024693,0)" xlink:href="#bi"/><use transform="matrix(0.04320987654320988,0,0,0.04320987654320988,39.66666666666667,0)" xlink:href="#bd"/><use transform="matrix(0.04320987654320988,0,0,0.04320987654320988,44.808641975308646,0)" xlink:href="#aW"/><use transform="matrix(0.04320987654320988,0,0,0.04320987654320988,54.27160493827161,0)" xlink:href="#aY"/><use transform="matrix(0.04320987654320988,0,0,0.04320987654320988,60.32098765432099,0)" xlink:href="#aX"/></g><g id="x"><use transform="matrix(0.04320987654320988,0,0,0.04320987654320988,0,0)" xlink:href="#aB"/><use transform="matrix(0.04320987654320988,0,0,0.04320987654320988,4.320987654320988,0)" xlink:href="#be"/><use transform="matrix(0.04320987654320988,0,0,0.04320987654320988,13.783950617283953,0)" xlink:href="#bt"/><use transform="matrix(0.04320987654320988,0,0,0.04320987654320988,23.246913580246915,0)" xlink:href="#aX"/><use transform="matrix(0.04320987654320988,0,0,0.04320987654320988,31.888888888888893,0)" xlink:href="#bv"/><use transform="matrix(0.04320987654320988,0,0,0.04320987654320988,40.53086419753087,0)" xlink:href="#aX"/><use transform="matrix(0.04320987654320988,0,0,0.04320987654320988,49.17283950617284,0)" xlink:href="#aY"/></g><g id="y"><use transform="matrix(0.04320987654320988,0,0,0.04320987654320988,0,0)" xlink:href="#aV"/><use transform="matrix(0.04320987654320988,0,0,0.04320987654320988,12.098765432098766,0)" xlink:href="#aW"/><use transform="matrix(0.04320987654320988,0,0,0.04320987654320988,21.561728395061728,0)" xlink:href="#aX"/><use transform="matrix(0.04320987654320988,0,0,0.04320987654320988,30.203703703703702,0)" xlink:href="#aY"/><use transform="matrix(0.04320987654320988,0,0,0.04320987654320988,36.25308641975309,0)" xlink:href="#bg"/><use transform="matrix(0.04320987654320988,0,0,0.04320987654320988,40.574074074074076,0)" xlink:href="#aX"/><use transform="matrix(0.04320987654320988,0,0,0.04320987654320988,49.21604938271606,0)" xlink:href="#bn"/></g><path fill="#333" d="M140-251c80 0 125 45 125 126 0 70-33 111-92 124 6 28 34 38 68 31l-1 36C177 83 129 55 120 2 51-6 15-50 15-125c0-81 44-126 125-126zm-1 214c52 0 73-35 73-88 0-50-21-86-72-86-52 0-73 35-73 86s22 88 72 88" id="bw"/><path fill="#333" d="M123 10C108 53 80 86 19 72V37c35 8 53-11 59-39L3-190h52l48 148c12-52 28-100 44-148h51" id="bx"/><g id="A"><use transform="matrix(0.04320987654320988,0,0,0.04320987654320988,0,0)" xlink:href="#bw"/><use transform="matrix(0.04320987654320988,0,0,0.04320987654320988,12.098765432098766,0)" xlink:href="#aN"/><use transform="matrix(0.04320987654320988,0,0,0.04320987654320988,21.561728395061728,0)" xlink:href="#aH"/><use transform="matrix(0.04320987654320988,0,0,0.04320987654320988,30.203703703703702,0)" xlink:href="#aG"/><use transform="matrix(0.04320987654320988,0,0,0.04320987654320988,36.25308641975309,0)" xlink:href="#bx"/></g><path fill="#3a414a" d="M67-125c0 54 23 88 75 88 28 0 53-7 68-21v-34h-60v-39h108v91C232-14 192 4 140 4 58 4 20-42 15-125 8-236 126-280 215-234c19 10 29 26 37 47l-47 15c-11-23-29-39-63-39-53 1-75 33-75 86" id="by"/><g id="B"><use transform="matrix(0.04320987654320988,0,0,0.04320987654320988,0,0)" xlink:href="#by"/><use transform="matrix(0.04320987654320988,0,0,0.04320987654320988,12.098765432098766,0)" xlink:href="#aX"/><use transform="matrix(0.04320987654320988,0,0,0.04320987654320988,20.74074074074074,0)" xlink:href="#be"/><use transform="matrix(0.04320987654320988,0,0,0.04320987654320988,30.203703703703702,0)" xlink:href="#aY"/><use transform="matrix(0.04320987654320988,0,0,0.04320987654320988,36.25308641975309,0)" xlink:href="#aX"/><use transform="matrix(0.04320987654320988,0,0,0.04320987654320988,44.89506172839506,0)" xlink:href="#bh"/><use transform="matrix(0.04320987654320988,0,0,0.04320987654320988,53.537037037037045,0)" xlink:href="#bd"/><use transform="matrix(0.04320987654320988,0,0,0.04320987654320988,58.679012345679006,0)" xlink:href="#aX"/></g><g id="C"><use transform="matrix(0.04320987654320988,0,0,0.04320987654320988,0,0)" xlink:href="#aB"/><use transform="matrix(0.04320987654320988,0,0,0.04320987654320988,4.320987654320988,0)" xlink:href="#be"/><use transform="matrix(0.04320987654320988,0,0,0.04320987654320988,13.783950617283953,0)" xlink:href="#bt"/><use transform="matrix(0.04320987654320988,0,0,0.04320987654320988,23.246913580246915,0)" xlink:href="#aX"/><use transform="matrix(0.04320987654320988,0,0,0.04320987654320988,31.888888888888893,0)" xlink:href="#bv"/></g><path fill="#3a414a" d="M135-194c52 0 70 43 70 98 0 56-19 99-73 100-30 1-46-15-58-35L72 0H24l1-261h50v104c11-23 29-37 60-37zM114-30c31 0 40-27 40-66 0-37-7-63-39-63s-41 28-41 65c0 36 8 64 40 64" id="bz"/><g id="D"><use transform="matrix(0.04320987654320988,0,0,0.04320987654320988,0,0)" xlink:href="#bz"/><use transform="matrix(0.04320987654320988,0,0,0.04320987654320988,9.462962962962964,0)" xlink:href="#bh"/><use transform="matrix(0.04320987654320988,0,0,0.04320987654320988,18.10493827160494,0)" xlink:href="#bn"/><use transform="matrix(0.04320987654320988,0,0,0.04320987654320988,26.746913580246915,0)" xlink:href="#aX"/><use transform="matrix(0.04320987654320988,0,0,0.04320987654320988,35.38888888888889,0)" xlink:href="#bt"/></g><g id="E"><use transform="matrix(0.04320987654320988,0,0,0.04320987654320988,0,0)" xlink:href="#ba"/><use transform="matrix(0.04320987654320988,0,0,0.04320987654320988,9.462962962962964,0)" xlink:href="#be"/></g><g id="F"><use transform="matrix(0.04320987654320988,0,0,0.04320987654320988,0,0)" xlink:href="#aV"/><use transform="matrix(0.04320987654320988,0,0,0.04320987654320988,12.098765432098766,0)" xlink:href="#aW"/><use transform="matrix(0.04320987654320988,0,0,0.04320987654320988,21.561728395061728,0)" xlink:href="#aX"/><use transform="matrix(0.04320987654320988,0,0,0.04320987654320988,30.203703703703702,0)" xlink:href="#aY"/><use transform="matrix(0.04320987654320988,0,0,0.04320987654320988,36.25308641975309,0)" xlink:href="#aZ"/></g><g id="G"><use transform="matrix(0.04320987654320988,0,0,0.04320987654320988,0,0)" xlink:href="#aI"/><use transform="matrix(0.04320987654320988,0,0,0.04320987654320988,8.641975308641976,0)" xlink:href="#aJ"/><use transform="matrix(0.04320987654320988,0,0,0.04320987654320988,17.283950617283953,0)" xlink:href="#aE"/><use transform="matrix(0.04320987654320988,0,0,0.04320987654320988,22.425925925925927,0)" xlink:href="#aJ"/><use transform="matrix(0.04320987654320988,0,0,0.04320987654320988,31.067901234567906,0)" xlink:href="#aK"/><use transform="matrix(0.04320987654320988,0,0,0.04320987654320988,35.38888888888889,0)" xlink:href="#aF"/><use transform="matrix(0.04320987654320988,0,0,0.04320987654320988,44.851851851851855,0)" xlink:href="#aL"/></g><path fill="#333" d="M114-157C55-157 80-60 75 0H25v-261h50l-1 109c12-26 28-41 61-42 86-1 58 113 63 194h-50c-7-57 23-157-34-157" id="bA"/><g id="H"><use transform="matrix(0.04320987654320988,0,0,0.04320987654320988,0,0)" xlink:href="#aP"/><use transform="matrix(0.04320987654320988,0,0,0.04320987654320988,5.1419753086419755,0)" xlink:href="#aH"/><use transform="matrix(0.04320987654320988,0,0,0.04320987654320988,13.783950617283953,0)" xlink:href="#aE"/><use transform="matrix(0.04320987654320988,0,0,0.04320987654320988,18.925925925925927,0)" xlink:href="#aI"/><use transform="matrix(0.04320987654320988,0,0,0.04320987654320988,27.567901234567906,0)" xlink:href="#bA"/></g><g id="I"><use transform="matrix(0.04320987654320988,0,0,0.04320987654320988,0,0)" xlink:href="#av"/><use transform="matrix(0.04320987654320988,0,0,0.04320987654320988,11.19135802469136,0)" xlink:href="#bu"/><use transform="matrix(0.04320987654320988,0,0,0.04320987654320988,15.512345679012347,0)" xlink:href="#ba"/><use transform="matrix(0.04320987654320988,0,0,0.04320987654320988,24.97530864197531,0)" xlink:href="#aW"/><use transform="matrix(0.04320987654320988,0,0,0.04320987654320988,34.43827160493827,0)" xlink:href="#bt"/></g><g id="J"><use transform="matrix(0.04320987654320988,0,0,0.04320987654320988,0,0)" xlink:href="#aw"/><use transform="matrix(0.04320987654320988,0,0,0.04320987654320988,11.19135802469136,0)" xlink:href="#ay"/><use transform="matrix(0.04320987654320988,0,0,0.04320987654320988,21.56172839506173,0)" xlink:href="#aB"/></g><path fill="#3a414a" d="M231 0h-52l-39-155L100 0H48L-1-190h46L77-45c9-52 24-97 36-145h53l37 145 32-145h46" id="bB"/><g id="K"><use transform="matrix(0.04320987654320988,0,0,0.04320987654320988,0,0)" xlink:href="#by"/><use transform="matrix(0.04320987654320988,0,0,0.04320987654320988,12.098765432098766,0)" xlink:href="#bh"/><use transform="matrix(0.04320987654320988,0,0,0.04320987654320988,20.74074074074074,0)" xlink:href="#bd"/><use transform="matrix(0.04320987654320988,0,0,0.04320987654320988,25.882716049382715,0)" xlink:href="#aX"/><use transform="matrix(0.04320987654320988,0,0,0.04320987654320988,34.52469135802469,0)" xlink:href="#bB"/><use transform="matrix(0.04320987654320988,0,0,0.04320987654320988,46.62345679012345,0)" xlink:href="#bh"/><use transform="matrix(0.04320987654320988,0,0,0.04320987654320988,55.26543209876543,0)" xlink:href="#aZ"/></g><path fill="#333" d="M135-194c52 0 70 43 70 98 0 56-19 99-73 100-30 1-46-15-58-35L72 0H24l1-261h50v104c11-23 29-37 60-37zM114-30c31 0 40-27 40-66 0-37-7-63-39-63s-41 28-41 65c0 36 8 64 40 64" id="bC"/><path fill="#333" d="M137-138c1-29-70-34-71-4 15 46 118 7 119 86 1 83-164 76-172 9l43-7c4 19 20 25 44 25 33 8 57-30 24-41C81-84 22-81 20-136c-2-80 154-74 161-7" id="bD"/><g id="L"><use transform="matrix(0.04320987654320988,0,0,0.04320987654320988,0,0)" xlink:href="#aD"/><use transform="matrix(0.04320987654320988,0,0,0.04320987654320988,10.370370370370372,0)" xlink:href="#aN"/><use transform="matrix(0.04320987654320988,0,0,0.04320987654320988,19.833333333333336,0)" xlink:href="#bC"/><use transform="matrix(0.04320987654320988,0,0,0.04320987654320988,29.296296296296298,0)" xlink:href="#bD"/><use transform="matrix(0.04320987654320988,0,0,0.04320987654320988,37.93827160493827,0)" xlink:href="#aH"/><use transform="matrix(0.04320987654320988,0,0,0.04320987654320988,46.58024691358024,0)" xlink:href="#aE"/></g><g id="M"><use transform="matrix(0.04320987654320988,0,0,0.04320987654320988,0,0)" xlink:href="#aF"/><use transform="matrix(0.04320987654320988,0,0,0.04320987654320988,9.462962962962964,0)" xlink:href="#aP"/></g><g id="N"><use transform="matrix(0.04320987654320988,0,0,0.04320987654320988,0,0)" xlink:href="#aP"/><use transform="matrix(0.04320987654320988,0,0,0.04320987654320988,5.1419753086419755,0)" xlink:href="#aF"/><use transform="matrix(0.04320987654320988,0,0,0.04320987654320988,14.60493827160494,0)" xlink:href="#aG"/></g><g id="O"><use transform="matrix(0.04320987654320988,0,0,0.04320987654320988,0,0)" xlink:href="#aN"/><use transform="matrix(0.04320987654320988,0,0,0.04320987654320988,9.462962962962964,0)" xlink:href="#aO"/><use transform="matrix(0.04320987654320988,0,0,0.04320987654320988,18.925925925925927,0)" xlink:href="#bD"/><use transform="matrix(0.04320987654320988,0,0,0.04320987654320988,27.567901234567906,0)" xlink:href="#aE"/><use transform="matrix(0.04320987654320988,0,0,0.04320987654320988,32.70987654320988,0)" xlink:href="#aG"/><use transform="matrix(0.04320987654320988,0,0,0.04320987654320988,38.75925925925927,0)" xlink:href="#aN"/><use transform="matrix(0.04320987654320988,0,0,0.04320987654320988,48.22222222222223,0)" xlink:href="#aI"/><use transform="matrix(0.04320987654320988,0,0,0.04320987654320988,56.8641975308642,0)" xlink:href="#aE"/><use transform="matrix(0.04320987654320988,0,0,0.04320987654320988,62.00617283950618,0)" xlink:href="#aN"/><use transform="matrix(0.04320987654320988,0,0,0.04320987654320988,71.46913580246914,0)" xlink:href="#aG"/><use transform="matrix(0.04320987654320988,0,0,0.04320987654320988,77.51851851851852,0)" xlink:href="#aH"/></g><path fill="#333" d="M230 0l2-204L168 0h-37L68-204 70 0H24v-248h70l56 185 57-185h69V0h-46" id="bE"/><path fill="#333" d="M25-224v-37h50v37H25zM25 0v-190h50V0H25" id="bF"/><g id="P"><use transform="matrix(0.04320987654320988,0,0,0.04320987654320988,0,0)" xlink:href="#bE"/><use transform="matrix(0.04320987654320988,0,0,0.04320987654320988,12.919753086419755,0)" xlink:href="#aJ"/><use transform="matrix(0.04320987654320988,0,0,0.04320987654320988,21.56172839506173,0)" xlink:href="#aE"/><use transform="matrix(0.04320987654320988,0,0,0.04320987654320988,26.703703703703706,0)" xlink:href="#aI"/><use transform="matrix(0.04320987654320988,0,0,0.04320987654320988,35.345679012345684,0)" xlink:href="#bA"/><use transform="matrix(0.04320987654320988,0,0,0.04320987654320988,44.808641975308646,0)" xlink:href="#bF"/><use transform="matrix(0.04320987654320988,0,0,0.04320987654320988,49.12962962962963,0)" xlink:href="#aO"/><use transform="matrix(0.04320987654320988,0,0,0.04320987654320988,58.592592592592595,0)" xlink:href="#aL"/></g><path fill="#333" d="M240-174c0 40-23 61-54 70L253 0h-59l-57-94H76V0H24v-248c93 4 217-23 216 74zM76-134c48-2 112 12 112-38 0-48-66-32-112-35v73" id="bG"/><g id="Q"><use transform="matrix(0.04320987654320988,0,0,0.04320987654320988,0,0)" xlink:href="#bG"/><use transform="matrix(0.04320987654320988,0,0,0.04320987654320988,11.19135802469136,0)" xlink:href="#aH"/><use transform="matrix(0.04320987654320988,0,0,0.04320987654320988,19.833333333333336,0)" xlink:href="#aJ"/><use transform="matrix(0.04320987654320988,0,0,0.04320987654320988,28.47530864197531,0)" xlink:href="#aM"/></g><path fill="#333" d="M67-125c0 53 21 87 73 88 37 1 54-22 65-47l45 17C233-25 199 4 140 4 58 4 20-42 15-125 8-235 124-281 211-232c18 10 29 29 36 50l-46 12c-8-25-30-41-62-41-52 0-71 34-72 86" id="bH"/><g id="R"><use transform="matrix(0.04320987654320988,0,0,0.04320987654320988,0,0)" xlink:href="#bH"/><use transform="matrix(0.04320987654320988,0,0,0.04320987654320988,11.19135802469136,0)" xlink:href="#aJ"/><use transform="matrix(0.04320987654320988,0,0,0.04320987654320988,19.833333333333336,0)" xlink:href="#aE"/><use transform="matrix(0.04320987654320988,0,0,0.04320987654320988,24.97530864197531,0)" xlink:href="#aJ"/><use transform="matrix(0.04320987654320988,0,0,0.04320987654320988,33.617283950617285,0)" xlink:href="#aK"/><use transform="matrix(0.04320987654320988,0,0,0.04320987654320988,37.93827160493827,0)" xlink:href="#aF"/><use transform="matrix(0.04320987654320988,0,0,0.04320987654320988,47.40123456790123,0)" xlink:href="#aL"/></g><path fill="#333" d="M24-248c120-7 223 5 221 122C244-46 201 0 124 0H24v-248zM76-40c74 7 117-18 117-86 0-67-45-88-117-82v168" id="bI"/><g id="S"><use transform="matrix(0.04320987654320988,0,0,0.04320987654320988,0,0)" xlink:href="#bI"/><use transform="matrix(0.04320987654320988,0,0,0.04320987654320988,11.19135802469136,0)" xlink:href="#aJ"/><use transform="matrix(0.04320987654320988,0,0,0.04320987654320988,19.833333333333336,0)" xlink:href="#aE"/><use transform="matrix(0.04320987654320988,0,0,0.04320987654320988,24.97530864197531,0)" xlink:href="#aJ"/></g><linearGradient gradientUnits="userSpaceOnUse" id="T" x1="2279.91" y1="-250" x2="2399.91" y2="-250"><stop offset="0%" stop-color="#005ba1"/><stop offset="7%" stop-color="#0060a9"/><stop offset="36%" stop-color="#0071c8"/><stop offset="52%" stop-color="#0078d4"/><stop offset="64%" stop-color="#0074cd"/><stop offset="82%" stop-color="#006abb"/><stop offset="100%" stop-color="#005ba1"/></linearGradient><g id="U"><use transform="matrix(0.04320987654320988,0,0,0.04320987654320988,0,0)" xlink:href="#aA"/><use transform="matrix(0.04320987654320988,0,0,0.04320987654320988,9.506172839506174,0)" xlink:href="#aX"/><use transform="matrix(0.04320987654320988,0,0,0.04320987654320988,18.148148148148152,0)" xlink:href="#aY"/><use transform="matrix(0.04320987654320988,0,0,0.04320987654320988,24.19753086419753,0)" xlink:href="#bd"/><use transform="matrix(0.04320987654320988,0,0,0.04320987654320988,29.33950617283951,0)" xlink:href="#aX"/><use transform="matrix(0.04320987654320988,0,0,0.04320987654320988,37.98148148148149,0)" xlink:href="#bv"/><use transform="matrix(0.04320987654320988,0,0,0.04320987654320988,46.62345679012346,0)" xlink:href="#bh"/><use transform="matrix(0.04320987654320988,0,0,0.04320987654320988,55.26543209876544,0)" xlink:href="#bg"/></g><path fill="#333" d="M24 0v-248h52v208h133V0H24" id="bJ"/><g id="V"><use transform="matrix(0.04320987654320988,0,0,0.04320987654320988,0,0)" xlink:href="#bJ"/><use transform="matrix(0.04320987654320988,0,0,0.04320987654320988,9.462962962962964,0)" xlink:href="#aF"/><use transform="matrix(0.04320987654320988,0,0,0.04320987654320988,18.925925925925927,0)" xlink:href="#aI"/><use transform="matrix(0.04320987654320988,0,0,0.04320987654320988,27.567901234567906,0)" xlink:href="#aJ"/><use transform="matrix(0.04320987654320988,0,0,0.04320987654320988,36.20987654320988,0)" xlink:href="#aK"/><use transform="matrix(0.04320987654320988,0,0,0.04320987654320988,40.53086419753087,0)" xlink:href="#bF"/><use transform="matrix(0.04320987654320988,0,0,0.04320987654320988,44.851851851851855,0)" xlink:href="#bD"/><use transform="matrix(0.04320987654320988,0,0,0.04320987654320988,53.49382716049383,0)" xlink:href="#aH"/><use transform="matrix(0.04320987654320988,0,0,0.04320987654320988,62.1358024691358,0)" xlink:href="#aM"/></g><g id="W"><use transform="matrix(0.04320987654320988,0,0,0.04320987654320988,0,0)" xlink:href="#bG"/><use transform="matrix(0.04320987654320988,0,0,0.04320987654320988,11.19135802469136,0)" xlink:href="#aH"/><use transform="matrix(0.04320987654320988,0,0,0.04320987654320988,19.833333333333336,0)" xlink:href="#bD"/><use transform="matrix(0.04320987654320988,0,0,0.04320987654320988,28.47530864197531,0)" xlink:href="#aN"/><use transform="matrix(0.04320987654320988,0,0,0.04320987654320988,37.93827160493827,0)" xlink:href="#aK"/><use transform="matrix(0.04320987654320988,0,0,0.04320987654320988,42.25925925925926,0)" xlink:href="#aE"/></g><g id="X"><use transform="matrix(0.04320987654320988,0,0,0.04320987654320988,0,0)" xlink:href="#aB"/><use transform="matrix(0.04320987654320988,0,0,0.04320987654320988,4.320987654320988,0)" xlink:href="#be"/><use transform="matrix(0.04320987654320988,0,0,0.04320987654320988,13.783950617283953,0)" xlink:href="#bd"/><use transform="matrix(0.04320987654320988,0,0,0.04320987654320988,18.925925925925927,0)" xlink:href="#aX"/><use transform="matrix(0.04320987654320988,0,0,0.04320987654320988,27.567901234567906,0)" xlink:href="#aY"/><use transform="matrix(0.04320987654320988,0,0,0.04320987654320988,33.61728395061729,0)" xlink:href="#be"/><use transform="matrix(0.04320987654320988,0,0,0.04320987654320988,43.080246913580254,0)" xlink:href="#bh"/><use transform="matrix(0.04320987654320988,0,0,0.04320987654320988,51.72222222222223,0)" xlink:href="#bu"/></g><path fill="#3a414a" d="M14-72v-43h91v43H14" id="bK"/><g id="Y"><use transform="matrix(0.04320987654320988,0,0,0.04320987654320988,0,0)" xlink:href="#av"/><use transform="matrix(0.04320987654320988,0,0,0.04320987654320988,11.19135802469136,0)" xlink:href="#bh"/><use transform="matrix(0.04320987654320988,0,0,0.04320987654320988,19.833333333333336,0)" xlink:href="#bd"/><use transform="matrix(0.04320987654320988,0,0,0.04320987654320988,24.97530864197531,0)" xlink:href="#bh"/><use transform="matrix(0.04320987654320988,0,0,0.04320987654320988,33.617283950617285,0)" xlink:href="#bu"/><use transform="matrix(0.04320987654320988,0,0,0.04320987654320988,37.93827160493827,0)" xlink:href="#ba"/><use transform="matrix(0.04320987654320988,0,0,0.04320987654320988,47.40123456790123,0)" xlink:href="#bf"/><use transform="matrix(0.04320987654320988,0,0,0.04320987654320988,56.864197530864196,0)" xlink:href="#bK"/><use transform="matrix(0.04320987654320988,0,0,0.04320987654320988,62.00617283950617,0)" xlink:href="#ay"/><use transform="matrix(0.04320987654320988,0,0,0.04320987654320988,72.37654320987654,0)" xlink:href="#aY"/><use transform="matrix(0.04320987654320988,0,0,0.04320987654320988,78.42592592592592,0)" xlink:href="#ba"/><use transform="matrix(0.04320987654320988,0,0,0.04320987654320988,87.88888888888889,0)" xlink:href="#bt"/><use transform="matrix(0.04320987654320988,0,0,0.04320987654320988,97.35185185185185,0)" xlink:href="#aW"/><use transform="matrix(0.04320987654320988,0,0,0.04320987654320988,106.81481481481481,0)" xlink:href="#bi"/><use transform="matrix(0.04320987654320988,0,0,0.04320987654320988,115.45679012345678,0)" xlink:href="#bd"/></g><g id="Z"><use transform="matrix(0.04320987654320988,0,0,0.04320987654320988,0,0)" xlink:href="#aB"/><use transform="matrix(0.04320987654320988,0,0,0.04320987654320988,4.320987654320988,0)" xlink:href="#be"/><use transform="matrix(0.04320987654320988,0,0,0.04320987654320988,13.783950617283953,0)" xlink:href="#bt"/><use transform="matrix(0.04320987654320988,0,0,0.04320987654320988,23.246913580246915,0)" xlink:href="#aX"/><use transform="matrix(0.04320987654320988,0,0,0.04320987654320988,31.888888888888893,0)" xlink:href="#bv"/></g><g id="aa"><use transform="matrix(0.04320987654320988,0,0,0.04320987654320988,0,0)" xlink:href="#av"/><use transform="matrix(0.04320987654320988,0,0,0.04320987654320988,11.19135802469136,0)" xlink:href="#bh"/><use transform="matrix(0.04320987654320988,0,0,0.04320987654320988,19.833333333333336,0)" xlink:href="#bd"/><use transform="matrix(0.04320987654320988,0,0,0.04320987654320988,24.97530864197531,0)" xlink:href="#bh"/><use transform="matrix(0.04320987654320988,0,0,0.04320987654320988,33.617283950617285,0)" xlink:href="#bu"/><use transform="matrix(0.04320987654320988,0,0,0.04320987654320988,37.93827160493827,0)" xlink:href="#ba"/><use transform="matrix(0.04320987654320988,0,0,0.04320987654320988,47.40123456790123,0)" xlink:href="#bf"/><use transform="matrix(0.04320987654320988,0,0,0.04320987654320988,56.864197530864196,0)" xlink:href="#bK"/></g><g id="ab"><use transform="matrix(0.04320987654320988,0,0,0.04320987654320988,0,0)" xlink:href="#ay"/><use transform="matrix(0.04320987654320988,0,0,0.04320987654320988,10.370370370370372,0)" xlink:href="#aY"/><use transform="matrix(0.04320987654320988,0,0,0.04320987654320988,16.419753086419753,0)" xlink:href="#ba"/><use transform="matrix(0.04320987654320988,0,0,0.04320987654320988,25.882716049382715,0)" xlink:href="#bt"/><use transform="matrix(0.04320987654320988,0,0,0.04320987654320988,35.34567901234568,0)" xlink:href="#aW"/><use transform="matrix(0.04320987654320988,0,0,0.04320987654320988,44.80864197530864,0)" xlink:href="#bi"/><use transform="matrix(0.04320987654320988,0,0,0.04320987654320988,53.45061728395061,0)" xlink:href="#bd"/><use transform="matrix(0.04320987654320988,0,0,0.04320987654320988,58.59259259259259,0)" xlink:href="#bK"/></g><g id="ac"><use transform="matrix(0.04320987654320988,0,0,0.04320987654320988,0,0)" xlink:href="#au"/><use transform="matrix(0.04320987654320988,0,0,0.04320987654320988,11.19135802469136,0)" xlink:href="#bh"/><use transform="matrix(0.04320987654320988,0,0,0.04320987654320988,19.833333333333336,0)" xlink:href="#bd"/><use transform="matrix(0.04320987654320988,0,0,0.04320987654320988,24.97530864197531,0)" xlink:href="#bh"/><use transform="matrix(0.04320987654320988,0,0,0.04320987654320988,33.617283950617285,0)" xlink:href="#bz"/><use transform="matrix(0.04320987654320988,0,0,0.04320987654320988,43.08024691358025,0)" xlink:href="#bh"/><use transform="matrix(0.04320987654320988,0,0,0.04320987654320988,51.722222222222214,0)" xlink:href="#bn"/><use transform="matrix(0.04320987654320988,0,0,0.04320987654320988,60.364197530864196,0)" xlink:href="#aX"/></g><g id="ad"><use transform="matrix(0.04320987654320988,0,0,0.04320987654320988,0,0)" xlink:href="#bF"/><use transform="matrix(0.04320987654320988,0,0,0.04320987654320988,4.320987654320988,0)" xlink:href="#aO"/><use transform="matrix(0.04320987654320988,0,0,0.04320987654320988,13.783950617283953,0)" xlink:href="#aE"/><use transform="matrix(0.04320987654320988,0,0,0.04320987654320988,18.925925925925927,0)" xlink:href="#aH"/><use transform="matrix(0.04320987654320988,0,0,0.04320987654320988,27.567901234567906,0)" xlink:href="#aG"/><use transform="matrix(0.04320987654320988,0,0,0.04320987654320988,33.61728395061729,0)" xlink:href="#aO"/><use transform="matrix(0.04320987654320988,0,0,0.04320987654320988,43.080246913580254,0)" xlink:href="#aJ"/><use transform="matrix(0.04320987654320988,0,0,0.04320987654320988,51.72222222222223,0)" xlink:href="#aK"/></g><path fill="#333" d="M144 0l-44-69L55 0H2l70-98-66-92h53l41 62 40-62h54l-67 91 71 99h-54" id="bL"/><g id="ae"><use transform="matrix(0.04320987654320988,0,0,0.04320987654320988,0,0)" xlink:href="#bF"/><use transform="matrix(0.04320987654320988,0,0,0.04320987654320988,4.320987654320988,0)" xlink:href="#aO"/><use transform="matrix(0.04320987654320988,0,0,0.04320987654320988,13.783950617283953,0)" xlink:href="#aM"/><use transform="matrix(0.04320987654320988,0,0,0.04320987654320988,23.246913580246915,0)" xlink:href="#aH"/><use transform="matrix(0.04320987654320988,0,0,0.04320987654320988,31.888888888888893,0)" xlink:href="#bL"/></g><g id="af"><use transform="matrix(0.04320987654320988,0,0,0.04320987654320988,0,0)" xlink:href="#aE"/><use transform="matrix(0.04320987654320988,0,0,0.04320987654320988,5.1419753086419755,0)" xlink:href="#aJ"/><use transform="matrix(0.04320987654320988,0,0,0.04320987654320988,13.783950617283953,0)" xlink:href="#aL"/><use transform="matrix(0.04320987654320988,0,0,0.04320987654320988,23.246913580246915,0)" xlink:href="#aL"/><use transform="matrix(0.04320987654320988,0,0,0.04320987654320988,32.70987654320988,0)" xlink:href="#aH"/><use transform="matrix(0.04320987654320988,0,0,0.04320987654320988,41.351851851851855,0)" xlink:href="#aM"/></g><g id="ag"><use transform="matrix(0.04320987654320988,0,0,0.04320987654320988,0,0)" xlink:href="#bD"/><use transform="matrix(0.04320987654320988,0,0,0.04320987654320988,8.641975308641976,0)" xlink:href="#aH"/><use transform="matrix(0.04320987654320988,0,0,0.04320987654320988,17.283950617283953,0)" xlink:href="#aO"/><use transform="matrix(0.04320987654320988,0,0,0.04320987654320988,26.746913580246915,0)" xlink:href="#aE"/></g><path fill="#333" d="M135-194c53 0 70 44 70 98 0 56-19 98-73 100-31 1-45-17-59-34 3 33 2 69 2 105H25l-1-265h48c2 10 0 23 3 31 11-24 29-35 60-35zM114-30c33 0 39-31 40-66 0-38-9-64-40-64-56 0-55 130 0 130" id="bM"/><g id="ah"><use transform="matrix(0.04320987654320988,0,0,0.04320987654320988,0,0)" xlink:href="#bM"/><use transform="matrix(0.04320987654320988,0,0,0.04320987654320988,9.462962962962964,0)" xlink:href="#aJ"/><use transform="matrix(0.04320987654320988,0,0,0.04320987654320988,18.10493827160494,0)" xlink:href="#aG"/><use transform="matrix(0.04320987654320988,0,0,0.04320987654320988,24.154320987654323,0)" xlink:href="#bD"/><use transform="matrix(0.04320987654320988,0,0,0.04320987654320988,32.7962962962963,0)" xlink:href="#bF"/><use transform="matrix(0.04320987654320988,0,0,0.04320987654320988,37.117283950617285,0)" xlink:href="#aO"/><use transform="matrix(0.04320987654320988,0,0,0.04320987654320988,46.58024691358024,0)" xlink:href="#aL"/></g><path fill="#333" d="M24-248c93 1 206-16 204 79-1 75-69 88-152 82V0H24v-248zm52 121c47 0 100 7 100-41 0-47-54-39-100-39v80" id="bN"/><g id="ai"><use transform="matrix(0.04320987654320988,0,0,0.04320987654320988,0,0)" xlink:href="#bN"/><use transform="matrix(0.04320987654320988,0,0,0.04320987654320988,10.370370370370372,0)" xlink:href="#aG"/><use transform="matrix(0.04320987654320988,0,0,0.04320987654320988,16.419753086419753,0)" xlink:href="#aH"/><use transform="matrix(0.04320987654320988,0,0,0.04320987654320988,25.061728395061728,0)" xlink:href="#bM"/><use transform="matrix(0.04320987654320988,0,0,0.04320987654320988,34.52469135802469,0)" xlink:href="#aG"/><use transform="matrix(0.04320987654320988,0,0,0.04320987654320988,40.574074074074076,0)" xlink:href="#aF"/><use transform="matrix(0.04320987654320988,0,0,0.04320987654320988,50.037037037037045,0)" xlink:href="#aI"/><use transform="matrix(0.04320987654320988,0,0,0.04320987654320988,58.679012345679006,0)" xlink:href="#aH"/><use transform="matrix(0.04320987654320988,0,0,0.04320987654320988,67.32098765432099,0)" xlink:href="#bD"/><use transform="matrix(0.04320987654320988,0,0,0.04320987654320988,75.96296296296296,0)" xlink:href="#bD"/><use transform="matrix(0.04320987654320988,0,0,0.04320987654320988,84.60493827160494,0)" xlink:href="#aH"/><use transform="matrix(0.04320987654320988,0,0,0.04320987654320988,93.2469135802469,0)" xlink:href="#aM"/></g><g id="aj"><use transform="matrix(0.04320987654320988,0,0,0.04320987654320988,0,0)" xlink:href="#bH"/><use transform="matrix(0.04320987654320988,0,0,0.04320987654320988,11.19135802469136,0)" xlink:href="#aF"/><use transform="matrix(0.04320987654320988,0,0,0.04320987654320988,20.654320987654323,0)" xlink:href="#aQ"/><use transform="matrix(0.04320987654320988,0,0,0.04320987654320988,34.48148148148148,0)" xlink:href="#bM"/><use transform="matrix(0.04320987654320988,0,0,0.04320987654320988,43.94444444444444,0)" xlink:href="#aN"/><use transform="matrix(0.04320987654320988,0,0,0.04320987654320988,53.407407407407405,0)" xlink:href="#aE"/><use transform="matrix(0.04320987654320988,0,0,0.04320987654320988,58.54938271604938,0)" xlink:href="#aH"/><use transform="matrix(0.04320987654320988,0,0,0.04320987654320988,67.19135802469135,0)" xlink:href="#aM"/></g><g id="ak"><use transform="matrix(0.04320987654320988,0,0,0.04320987654320988,0,0)" xlink:href="#bI"/><use transform="matrix(0.04320987654320988,0,0,0.04320987654320988,11.19135802469136,0)" xlink:href="#aF"/><use transform="matrix(0.04320987654320988,0,0,0.04320987654320988,20.654320987654323,0)" xlink:href="#aI"/><use transform="matrix(0.04320987654320988,0,0,0.04320987654320988,29.296296296296298,0)" xlink:href="#bF"/><use transform="matrix(0.04320987654320988,0,0,0.04320987654320988,33.617283950617285,0)" xlink:href="#aM"/><use transform="matrix(0.04320987654320988,0,0,0.04320987654320988,43.08024691358025,0)" xlink:href="#bD"/></g><path fill="#333" d="M128 0H69L1-190h53L99-40l48-150h52" id="bO"/><g id="al"><use transform="matrix(0.04320987654320988,0,0,0.04320987654320988,0,0)" xlink:href="#bG"/><use transform="matrix(0.04320987654320988,0,0,0.04320987654320988,11.19135802469136,0)" xlink:href="#aH"/><use transform="matrix(0.04320987654320988,0,0,0.04320987654320988,19.833333333333336,0)" xlink:href="#aE"/><use transform="matrix(0.04320987654320988,0,0,0.04320987654320988,24.97530864197531,0)" xlink:href="#aG"/><use transform="matrix(0.04320987654320988,0,0,0.04320987654320988,31.024691358024693,0)" xlink:href="#bF"/><use transform="matrix(0.04320987654320988,0,0,0.04320987654320988,35.345679012345684,0)" xlink:href="#aH"/><use transform="matrix(0.04320987654320988,0,0,0.04320987654320988,43.98765432098766,0)" xlink:href="#bO"/><use transform="matrix(0.04320987654320988,0,0,0.04320987654320988,52.62962962962963,0)" xlink:href="#aH"/></g><path fill="#333" d="M238-95c0 69-44 99-111 99C63 4 22-25 22-93v-155h51v151c-1 38 19 59 55 60 90 1 49-130 58-211h52v153" id="bP"/><g id="am"><use transform="matrix(0.04320987654320988,0,0,0.04320987654320988,0,0)" xlink:href="#bP"/><use transform="matrix(0.04320987654320988,0,0,0.04320987654320988,11.19135802469136,0)" xlink:href="#aO"/><use transform="matrix(0.04320987654320988,0,0,0.04320987654320988,20.654320987654323,0)" xlink:href="#aP"/><use transform="matrix(0.04320987654320988,0,0,0.04320987654320988,25.796296296296298,0)" xlink:href="#aF"/><use transform="matrix(0.04320987654320988,0,0,0.04320987654320988,35.25925925925926,0)" xlink:href="#aG"/><use transform="matrix(0.04320987654320988,0,0,0.04320987654320988,41.308641975308646,0)" xlink:href="#aQ"/><use transform="matrix(0.04320987654320988,0,0,0.04320987654320988,55.13580246913581,0)" xlink:href="#aJ"/><use transform="matrix(0.04320987654320988,0,0,0.04320987654320988,63.777777777777786,0)" xlink:href="#aE"/><use transform="matrix(0.04320987654320988,0,0,0.04320987654320988,68.91975308641976,0)" xlink:href="#aE"/><use transform="matrix(0.04320987654320988,0,0,0.04320987654320988,74.06172839506173,0)" xlink:href="#aH"/><use transform="matrix(0.04320987654320988,0,0,0.04320987654320988,82.70370370370371,0)" xlink:href="#aM"/></g><g id="an"><use transform="matrix(0.04320987654320988,0,0,0.04320987654320988,0,0)" xlink:href="#bH"/><use transform="matrix(0.04320987654320988,0,0,0.04320987654320988,11.19135802469136,0)" xlink:href="#aJ"/><use transform="matrix(0.04320987654320988,0,0,0.04320987654320988,19.833333333333336,0)" xlink:href="#aE"/><use transform="matrix(0.04320987654320988,0,0,0.04320987654320988,24.97530864197531,0)" xlink:href="#aJ"/><use transform="matrix(0.04320987654320988,0,0,0.04320987654320988,33.617283950617285,0)" xlink:href="#aK"/><use transform="matrix(0.04320987654320988,0,0,0.04320987654320988,37.93827160493827,0)" xlink:href="#aF"/><use transform="matrix(0.04320987654320988,0,0,0.04320987654320988,47.40123456790123,0)" xlink:href="#aL"/></g><g id="ao"><use transform="matrix(0.04320987654320988,0,0,0.04320987654320988,0,0)" xlink:href="#av"/><use transform="matrix(0.04320987654320988,0,0,0.04320987654320988,11.19135802469136,0)" xlink:href="#bh"/><use transform="matrix(0.04320987654320988,0,0,0.04320987654320988,19.833333333333336,0)" xlink:href="#bd"/><use transform="matrix(0.04320987654320988,0,0,0.04320987654320988,24.97530864197531,0)" xlink:href="#bh"/><use transform="matrix(0.04320987654320988,0,0,0.04320987654320988,33.617283950617285,0)" xlink:href="#bu"/><use transform="matrix(0.04320987654320988,0,0,0.04320987654320988,37.93827160493827,0)" xlink:href="#ba"/><use transform="matrix(0.04320987654320988,0,0,0.04320987654320988,47.40123456790123,0)" xlink:href="#bf"/></g><path fill="#3a414a" d="M76-208v77h127v40H76V0H24v-248h183v40H76" id="bQ"/><g id="ap"><use transform="matrix(0.04320987654320988,0,0,0.04320987654320988,0,0)" xlink:href="#bQ"/><use transform="matrix(0.04320987654320988,0,0,0.04320987654320988,9.462962962962964,0)" xlink:href="#aX"/><use transform="matrix(0.04320987654320988,0,0,0.04320987654320988,18.10493827160494,0)" xlink:href="#bd"/><use transform="matrix(0.04320987654320988,0,0,0.04320987654320988,23.246913580246915,0)" xlink:href="#bi"/><use transform="matrix(0.04320987654320988,0,0,0.04320987654320988,31.888888888888893,0)" xlink:href="#bj"/></g><path fill="#3a414a" d="M168-19C124 19 11 11 16-68c3-43 29-60 59-75-25-44-12-111 53-106 37 3 64 15 64 52 0 43-40 52-69 68 12 22 27 41 43 59 14-19 21-38 28-64l37 13c-8 29-19 52-34 74 12 10 32 16 52 10v35c-28 11-65-2-81-17zm-58-139c19-9 43-14 43-39 0-14-10-22-25-22-34 0-33 41-18 61zM60-68c-3 40 55 47 79 25-18-20-34-42-48-67-18 8-30 20-31 42" id="bR"/><use transform="matrix(0.04320987654320988,0,0,0.04320987654320988,0,0)" xlink:href="#bR" id="aq"/><g id="ar"><use transform="matrix(0.04320987654320988,0,0,0.04320987654320988,0,0)" xlink:href="#ay"/><use transform="matrix(0.04320987654320988,0,0,0.04320987654320988,10.370370370370372,0)" xlink:href="#bh"/><use transform="matrix(0.04320987654320988,0,0,0.04320987654320988,19.01234567901235,0)" xlink:href="#aY"/><use transform="matrix(0.04320987654320988,0,0,0.04320987654320988,25.06172839506173,0)" xlink:href="#bn"/><use transform="matrix(0.04320987654320988,0,0,0.04320987654320988,33.70370370370371,0)" xlink:href="#aX"/><use transform="matrix(0.04320987654320988,0,0,0.04320987654320988,42.345679012345684,0)" xlink:href="#aY"/></g></defs></g></svg>