 <svg  version="1.0" xmlns="http://www.w3.org/2000/svg"  width="1820.000000pt" height="719.000000pt" viewBox="0 0 1820.000000 719.000000"  preserveAspectRatio="xMidYMid meet">  <g transform="translate(0.000000,719.000000) scale(0.100000,-0.100000)" fill="#7797f8" stroke="none"> <path d="M4494 7025 c0 -93 2 -133 3 -88 2 45 2 122 0 170 -1 48 -3 12 -3 -82z"/> <path d="M2154 7045 c0 -60 1 -84 3 -52 2 32 2 81 0 110 -2 29 -3 3 -3 -58z"/> <path d="M4034 7035 c0 -60 1 -84 3 -52 2 32 2 81 0 110 -2 29 -3 3 -3 -58z"/> <path d="M130 7095 c0 -30 3 -35 24 -35 21 0 24 5 24 35 0 30 -3 35 -24 35 -21 0 -24 -5 -24 -35z m40 15 c0 -5 -4 -10 -9 -10 -6 0 -13 5 -16 10 -3 6 1 10 9 10 9 0 16 -4 16 -10z m0 -30 c0 -5 -7 -10 -15 -10 -8 0 -15 5 -15 10 0 6 7 10 15 10 8 0 15 -4 15 -10z"/> <path d="M283 7095 c0 -22 2 -30 4 -17 2 12 2 30 0 40 -3 9 -5 -1 -4 -23z"/> <path d="M340 7121 c0 -5 -9 -11 -21 -14 -28 -7 -21 -41 9 -45 19 -3 22 1 22 32 0 20 -2 36 -5 36 -3 0 -5 -4 -5 -9z m0 -36 c0 -8 -7 -15 -15 -15 -8 0 -15 7 -15 15 0 8 7 15 15 15 8 0 15 -7 15 -15z"/> <path d="M1600 7110 c0 -11 5 -20 11 -20 5 0 8 4 4 9 -3 5 0 13 6 17 7 4 9 3 5 -4 -8 -14 5 -21 40 -22 49 -1 69 2 81 12 7 5 14 5 17 -1 11 -18 64 -10 69 11 4 12 1 18 -6 15 -7 -3 -11 -10 -9 -17 2 -11 0 -11 -13 0 -14 12 -18 11 -26 -1 -7 -11 -9 -11 -9 4 0 11 -5 15 -11 11 -6 -3 -33 -6 -60 -5 -33 0 -49 -3 -49 -12 0 -6 -5 -4 -11 6 -14 23 -39 22 -39 -3z"/> <path d="M1850 7110 c0 -11 5 -20 11 -20 5 0 7 6 4 13 -4 6 0 4 8 -6 14 -16 15 -16 21 -1 4 9 4 19 1 22 -3 3 -5 2 -5 -2 0 -4 -9 -2 -20 4 -17 9 -20 8 -20 -10z"/> <path d="M3000 7117 c0 -9 5 -19 12 -23 6 -4 8 -3 4 4 -3 6 -2 14 4 17 6 4 10 3 9 -2 -3 -20 2 -34 11 -28 6 4 7 11 4 17 -4 6 3 5 16 -2 18 -10 21 -10 14 2 -6 11 -5 11 9 -1 14 -11 17 -11 17 0 0 10 3 10 12 1 16 -16 52 -16 42 1 -6 9 -4 9 8 -1 13 -10 17 -10 21 0 4 10 6 10 6 1 1 -18 21 -16 21 1 0 12 -17 15 -79 15 -43 0 -91 3 -105 7 -20 5 -26 2 -26 -9z"/> <path d="M4131 7108 c0 -13 3 -17 6 -10 2 6 10 9 16 5 18 -11 87 -12 93 -1 3 5 12 4 20 -3 11 -9 18 -8 31 2 11 10 14 10 9 2 -4 -7 -2 -13 3 -13 6 0 11 9 11 21 0 11 -4 18 -9 15 -13 -8 -134 -9 -159 -2 -18 6 -22 4 -21 -16z"/> <path d="M4330 7110 c0 -11 5 -20 11 -20 5 0 7 4 4 10 -3 6 1 7 9 4 9 -3 13 -10 10 -15 -3 -5 -3 -9 0 -9 3 0 11 10 17 23 6 12 8 19 4 15 -4 -4 -18 -3 -31 2 -20 8 -24 6 -24 -10z"/> <path d="M192 7088 c2 -15 11 -24 26 -26 19 -3 22 1 21 25 -2 23 -2 24 -6 6 -5 -28 -23 -30 -23 -3 0 11 -5 20 -11 20 -6 0 -9 -10 -7 -22z"/> <path d="M250 7085 c0 -14 5 -25 10 -25 6 0 10 11 10 25 0 14 -4 25 -10 25 -5 0 -10 -11 -10 -25z"/> <path d="M1170 7087 c0 -7 5 -18 11 -24 17 -17 0 -35 -27 -29 -17 5 -24 2 -24 -9 0 -19 43 -20 60 0 7 9 9 23 4 37 -4 13 -7 26 -6 31 1 4 -2 7 -8 7 -5 0 -10 -6 -10 -13z"/> <path d="M1128 7083 c-13 -3 -18 -13 -17 -36 2 -32 2 -32 6 -4 4 23 9 28 24 24 10 -3 19 -1 19 3 0 12 -12 17 -32 13z"/> <path d="M997 7074 c-13 -13 -7 -52 8 -58 27 -10 46 5 43 33 -3 26 -35 41 -51 25z m41 -27 c2 -10 -3 -17 -12 -17 -18 0 -29 16 -21 31 9 14 29 6 33 -14z"/> <path d="M1061 7043 c1 -25 3 -30 6 -15 3 17 9 22 21 17 13 -5 13 -2 -3 15 -10 11 -20 20 -22 20 -1 0 -2 -17 -2 -37z"/> <path d="M1217 7073 c-4 -3 -7 -16 -7 -29 0 -24 28 -40 44 -24 7 7 3 10 -13 10 -16 0 -21 5 -19 18 2 9 11 16 21 16 9 -1 17 2 17 7 0 10 -34 12 -43 2z"/> <path d="M660 7037 c0 -18 2 -19 10 -7 9 13 10 13 10 0 0 -13 1 -13 10 0 6 10 10 11 10 3 0 -7 5 -13 11 -13 5 0 7 5 4 10 -3 6 1 10 10 10 9 0 13 -4 10 -10 -3 -5 -2 -10 4 -10 16 0 24 20 9 24 -7 2 -30 7 -50 10 -34 4 -38 2 -38 -17z"/> <path d="M790 7050 c-27 -5 -39 -30 -15 -30 8 0 15 6 15 13 0 8 3 7 10 -3 6 -10 13 -11 19 -5 16 16 -2 31 -29 25z"/> <path d="M869 7058 c-6 -21 -5 -38 2 -38 5 0 9 9 9 20 0 16 -7 28 -11 18z"/> <path d="M890 7040 c0 -11 4 -20 9 -20 5 0 16 -3 24 -6 9 -3 16 3 20 16 3 12 3 20 0 17 -3 -3 -16 -2 -29 3 -20 8 -24 6 -24 -10z"/> <path d="M833 7035 c0 -9 4 -14 9 -13 5 2 10 8 10 13 0 5 -5 11 -10 13 -5 1 -9 -4 -9 -13z"/> <path d="M1908 7033 c-3 -10 -3 -24 -1 -30 7 -19 33 -15 34 5 0 14 2 14 9 -3 5 -11 9 -14 9 -7 1 21 21 3 21 -19 0 -12 -7 -19 -20 -19 -11 0 -20 -4 -20 -10 0 -5 11 -10 25 -10 18 0 25 5 25 20 0 12 7 20 18 21 15 0 14 2 -3 10 -15 7 -9 8 23 4 38 -5 42 -3 42 16 0 15 -6 20 -22 19 -36 -3 -44 0 -28 10 13 8 13 10 -2 10 -9 0 -18 -5 -20 -12 -5 -14 -69 -13 -78 2 -5 8 -9 5 -12 -7z m102 -17 c0 -2 -7 -6 -15 -10 -8 -3 -15 -1 -15 4 0 6 7 10 15 10 8 0 15 -2 15 -4z m50 -6 c0 -5 -4 -10 -10 -10 -5 0 -10 5 -10 10 0 6 5 10 10 10 6 0 10 -4 10 -10z"/> <path d="M1609 7036 c0 -1 -2 -10 -4 -22 -3 -13 1 -21 10 -21 8 0 15 4 15 8 0 4 2 14 5 22 4 8 0 14 -10 14 -8 0 -15 -1 -16 -1z"/> <path d="M1688 7035 c-3 -4 -4 -14 -1 -24 4 -14 14 -18 44 -18 25 1 39 5 39 14 0 7 7 13 15 13 8 0 15 -7 15 -16 0 -9 6 -14 13 -11 6 2 22 0 34 -4 25 -9 53 -2 53 13 0 5 -4 6 -10 3 -5 -3 -10 -2 -10 4 0 5 6 12 13 14 6 3 0 6 -15 6 -19 1 -28 -4 -28 -15 0 -8 -5 -12 -10 -9 -6 4 -8 10 -5 15 8 12 -23 16 -77 10 -26 -4 -51 -3 -56 2 -5 5 -11 6 -14 3z m52 -25 c0 -5 -4 -10 -10 -10 -5 0 -10 5 -10 10 0 6 5 10 10 10 6 0 10 -4 10 -10z m127 -12 c-3 -8 -6 -5 -6 6 -1 11 2 17 5 13 3 -3 4 -12 1 -19z"/> <path d="M2830 6995 l0 -45 45 0 45 0 0 45 0 45 -45 0 -45 0 0 -45z m70 -19 c0 -6 -7 -3 -14 7 -13 16 -14 16 -20 1 -4 -9 -9 -14 -12 -11 -3 3 0 15 7 28 11 22 12 22 25 4 8 -10 14 -24 14 -29z"/> <path d="M3288 7015 c-10 -22 -9 -29 9 -46 26 -26 60 -18 69 17 13 52 -56 77 -78 29z m37 5 c-3 -5 -2 -10 4 -10 5 0 12 6 15 13 3 6 3 1 0 -12 -5 -18 -3 -22 7 -15 12 6 12 5 0 -9 -14 -18 -26 -24 -17 -8 3 5 -1 14 -9 21 -13 11 -12 30 1 30 3 0 2 -4 -1 -10z"/> <path d="M4129 7039 c-7 -27 -3 -79 5 -79 12 0 14 66 2 77 -3 3 -6 4 -7 2z"/> <path d="M4180 7020 c0 -19 3 -21 12 -12 9 9 9 15 0 24 -9 9 -12 7 -12 -12z"/> <path d="M4217 7034 c-11 -11 -8 -22 6 -20 6 0 13 -2 15 -6 1 -5 -1 -8 -4 -7 -8 1 -24 -22 -24 -34 0 -4 28 -7 63 -5 45 2 62 7 62 17 0 8 -8 15 -17 17 -9 1 -15 -3 -12 -10 3 -8 -8 -12 -31 -13 -23 -1 -35 3 -32 10 3 7 9 11 15 10 8 -2 8 5 3 20 -8 22 -31 33 -44 21z"/> <path d="M4281 7026 c-8 -10 -9 -16 -1 -21 5 -3 10 -1 10 6 0 7 8 9 21 6 13 -3 19 -1 16 6 -6 18 -32 20 -46 3z"/> <path d="M142 7014 c-9 -17 -4 -64 7 -64 3 0 6 10 7 23 0 12 4 30 8 40 10 22 -10 23 -22 1z"/> <path d="M300 6989 c0 -36 2 -40 23 -37 14 2 22 10 22 23 0 14 -6 19 -17 17 -10 -2 -18 2 -18 9 0 6 8 9 20 6 24 -6 27 8 4 17 -29 11 -34 6 -34 -35z m40 -19 c0 -5 -7 -10 -15 -10 -8 0 -15 5 -15 10 0 6 7 10 15 10 8 0 15 -4 15 -10z"/> <path d="M362 6990 c0 -31 2 -38 6 -22 4 13 12 23 17 23 6 0 13 -10 17 -23 6 -19 7 -18 5 7 -1 19 -7 30 -17 30 -8 0 -18 7 -22 15 -4 8 -6 -5 -6 -30z"/> <path d="M1650 7020 c0 -5 6 -10 13 -10 8 0 7 -4 -3 -10 -8 -5 -10 -10 -4 -10 16 0 23 10 17 26 -6 16 -23 19 -23 4z"/> <path d="M2274 7015 c-14 -35 2 -44 78 -41 84 3 107 -2 86 -16 -10 -8 -10 -9 2 -5 8 2 16 16 18 30 2 15 7 25 12 22 5 -3 7 -12 3 -20 -4 -11 2 -15 23 -14 17 1 22 3 12 6 -10 2 -18 8 -18 13 0 5 7 6 17 3 11 -4 14 -3 9 6 -5 7 -14 10 -22 7 -8 -3 -14 1 -14 9 0 18 -17 20 -22 3 -3 -7 -21 -12 -41 -11 -22 1 -37 -4 -37 -10 0 -9 -2 -9 -8 -1 -4 6 -22 11 -39 10 -34 -1 -43 -10 -20 -19 6 -3 2 -6 -10 -6 -16 -1 -23 5 -23 18 0 12 8 21 23 24 l22 4 -23 2 c-12 0 -25 -6 -28 -14z m86 -25 c0 -5 -4 -10 -10 -10 -5 0 -10 5 -10 10 0 6 5 10 10 10 6 0 10 -4 10 -10z m45 0 c3 -5 1 -10 -4 -10 -6 0 -11 5 -11 10 0 6 2 10 4 10 3 0 8 -4 11 -10z m45 0 c0 -5 -4 -10 -10 -10 -5 0 -10 5 -10 10 0 6 5 10 10 10 6 0 10 -4 10 -10z"/> <path d="M2541 7016 c-16 -19 -3 -46 23 -45 21 0 21 0 -1 9 -15 6 -21 15 -17 25 4 9 13 14 20 11 8 -3 14 -1 14 4 0 15 -26 12 -39 -4z"/> <path d="M2591 7005 c-1 -26 3 -31 24 -33 19 -1 25 3 25 19 0 16 -5 20 -19 16 -13 -3 -21 1 -24 12 -3 9 -5 2 -6 -14z m39 -15 c0 -5 -4 -10 -10 -10 -5 0 -10 5 -10 10 0 6 5 10 10 10 6 0 10 -4 10 -10z"/> <path d="M2720 7020 c0 -5 -7 -10 -15 -10 -8 0 -15 -9 -15 -20 0 -13 7 -20 20 -20 16 0 20 7 20 30 0 17 -2 30 -5 30 -3 0 -5 -4 -5 -10z m0 -30 c0 -5 -4 -10 -10 -10 -5 0 -10 5 -10 10 0 6 5 10 10 10 6 0 10 -4 10 -10z"/> <path d="M3848 7023 c-2 -5 -1 -24 2 -43 l6 -35 5 38 c5 34 -4 59 -13 40z"/> <path d="M573 6989 c3 -42 22 -49 22 -7 0 17 -6 33 -12 35 -9 3 -12 -6 -10 -28z"/> <path d="M2930 6996 c0 -31 6 -34 13 -6 3 11 1 23 -4 26 -5 3 -9 -6 -9 -20z"/> <path d="M2956 7004 c-6 -16 0 -34 12 -34 4 0 8 11 8 25 2 28 -11 34 -20 9z"/> <path d="M2998 6993 c5 -23 7 -25 10 -8 2 11 9 23 16 27 6 5 3 8 -10 8 -18 0 -20 -4 -16 -27z"/> <path d="M3041 6998 c-1 -23 3 -28 22 -27 15 1 17 3 5 6 -9 2 -19 14 -21 26 -4 18 -5 17 -6 -5z"/> <path d="M3090 6995 c0 -20 5 -25 23 -24 19 1 19 2 3 6 -15 4 -16 7 -5 14 12 7 12 9 -1 10 -10 0 -8 3 5 9 19 8 19 9 -2 9 -18 1 -23 -5 -23 -24z"/> <path d="M3141 6993 c0 -16 3 -22 6 -15 3 9 9 10 17 3 8 -7 12 -3 14 15 1 18 -3 24 -18 24 -15 0 -20 -6 -19 -27z"/> <path d="M3385 7011 c-9 -9 -5 -42 5 -36 5 3 8 11 6 18 -1 7 -1 9 1 5 7 -13 33 -9 33 5 0 12 -35 18 -45 8z"/> <path d="M3443 7002 c-3 -7 -2 -16 2 -20 4 -4 10 -1 12 6 3 6 10 9 16 5 22 -14 77 -12 77 2 0 8 -4 17 -10 20 -5 3 -10 1 -10 -6 0 -9 -3 -9 -14 0 -11 10 -17 8 -26 -6 -10 -15 -11 -15 -6 -1 3 12 -1 16 -16 15 -11 -1 -23 -7 -25 -15z"/> <path d="M3560 7007 c0 -8 7 -18 16 -21 11 -4 14 -1 12 11 -4 21 -28 30 -28 10z"/> <path d="M3700 6983 l0 -37 20 22 c11 12 20 28 20 37 0 8 -9 15 -20 15 -16 0 -20 -7 -20 -37z"/> <path d="M3757 7013 c10 -3 9 -8 -2 -20 -22 -21 -18 -33 8 -33 20 0 23 4 19 30 -3 20 -10 30 -21 29 -10 0 -11 -2 -4 -6z"/> <path d="M3790 7005 c0 -9 7 -18 16 -22 12 -4 13 -7 3 -14 -8 -4 -10 -11 -7 -14 13 -14 28 7 27 38 0 27 -2 29 -9 12 -7 -17 -9 -17 -9 -2 -1 21 -21 23 -21 2z"/> <path d="M3881 6983 l2 -38 6 35 c4 21 9 30 14 23 4 -6 4 -18 1 -27 -3 -9 -1 -16 4 -16 6 0 13 12 15 28 4 25 4 24 6 -6 0 -18 5 -31 10 -27 6 3 9 18 8 33 -2 23 -7 28 -35 30 -31 3 -32 2 -31 -35z"/> <path d="M180 6995 c-16 -19 -5 -47 17 -43 11 2 18 12 18 27 0 29 -17 37 -35 16z m30 -21 c0 -9 -5 -14 -12 -12 -18 6 -21 28 -4 28 9 0 16 -7 16 -16z"/> <path d="M243 7003 c-15 -6 -18 -53 -3 -53 6 0 10 9 10 20 0 11 5 20 10 20 6 0 10 5 10 10 0 11 -7 12 -27 3z"/> <path d="M429 7008 c-11 -45 -8 -58 11 -58 17 0 21 5 18 27 -2 14 -9 28 -15 31 -7 2 -13 2 -14 0z m17 -45 c-11 -11 -17 4 -9 23 7 18 8 18 11 1 2 -10 1 -21 -2 -24z"/> <path d="M493 7003 c-7 -3 -12 -17 -12 -31 1 -21 2 -23 6 -7 3 11 10 23 16 27 14 9 6 17 -10 11z"/> <path d="M520 7001 c0 -6 6 -10 13 -8 17 3 15 -25 -2 -31 -8 -3 -11 0 -7 7 4 6 2 11 -4 11 -21 0 -4 -25 19 -28 19 -3 22 0 19 25 -3 26 -38 48 -38 24z"/> <path d="M2651 6993 c-1 -14 5 -23 14 -23 9 0 15 9 14 23 0 21 -1 21 -8 2 -8 -20 -8 -20 -13 0 -5 18 -6 18 -7 -2z"/> <path d="M1018 6993 c18 -2 45 -2 60 0 15 2 0 4 -33 4 -33 0 -45 -2 -27 -4z"/> <path d="M1140 6992 c0 -4 21 -6 48 -4 75 5 82 10 15 11 -35 0 -63 -2 -63 -7z"/> <path d="M4180 6976 c0 -9 5 -16 10 -16 6 0 10 4 10 9 0 6 -4 13 -10 16 -5 3 -10 -1 -10 -9z"/> <path d="M3538 6962 c-21 -2 -38 -7 -38 -12 0 -7 79 -2 88 5 8 7 -16 10 -50 7z"/> <path d="M3381 6955 c8 -7 78 -9 85 -2 4 4 -14 7 -41 7 -27 0 -46 -2 -44 -5z"/> <path d="M2 6875 c6 -7 4470 -7 4476 0 3 3 -1004 5 -2238 5 -1234 0 -2241 -2 -2238 -5z"/> <path d="M1490 6760 c0 -53 4 -90 10 -90 6 0 10 37 10 90 0 53 -4 90 -10 90 -6 0 -10 -37 -10 -90z"/> <path d="M2155 6820 c7 -32 4 -35 -24 -20 -30 16 -61 -14 -61 -60 0 -57 45 -91 78 -58 9 9 12 9 12 0 0 -7 5 -12 10 -12 6 0 10 37 10 90 0 75 -3 90 -16 90 -12 0 -14 -7 -9 -30z m-5 -55 c13 -34 -3 -75 -30 -75 -25 0 -37 42 -21 76 14 31 39 31 51 -1z"/> <path d="M2462 6841 c2 -7 7 -12 11 -12 12 1 9 15 -3 20 -7 2 -11 -2 -8 -8z"/> <path d="M3272 6841 c4 -13 18 -16 19 -4 0 4 -5 9 -11 12 -7 2 -11 -2 -8 -8z"/> <path d="M1013 6825 c-12 -9 -25 -31 -29 -49 -15 -81 67 -136 127 -87 30 24 19 39 -13 17 -29 -21 -51 -20 -71 2 -20 22 -22 83 -5 100 17 17 63 15 78 -3 10 -12 16 -13 24 -5 8 8 6 15 -8 26 -26 18 -76 18 -103 -1z"/> <path d="M1880 6755 c0 -69 3 -85 15 -85 12 0 15 16 15 85 0 69 -3 85 -15 85 -12 0 -15 -16 -15 -85z"/> <path d="M2850 6755 l0 -85 65 0 c45 0 65 4 65 13 0 8 -16 11 -55 9 l-55 -4 0 31 c0 31 1 31 50 31 28 0 50 5 50 10 0 6 -22 10 -50 10 -47 0 -50 2 -50 25 0 24 3 25 55 25 30 0 55 5 55 10 0 6 -28 10 -65 10 l-65 0 0 -85z"/> <path d="M1300 6816 c0 -8 -4 -16 -8 -18 -15 -6 2 -110 20 -122 9 -5 21 -6 25 -2 4 5 2 11 -4 13 -8 3 -13 24 -13 54 0 31 4 48 10 44 6 -3 10 -1 10 4 0 6 -4 11 -10 11 -5 0 -10 7 -10 15 0 8 -4 15 -10 15 -5 0 -10 -6 -10 -14z"/> <path d="M1989 6799 c-8 -5 -22 -6 -31 -3 -16 5 -18 -2 -18 -60 0 -52 3 -66 15 -66 11 0 15 13 15 54 0 40 4 55 16 60 27 10 34 -3 34 -60 0 -41 4 -54 15 -54 11 0 15 12 15 46 0 68 -27 105 -61 83z"/> <path d="M2559 6799 c-8 -5 -22 -6 -31 -3 -16 5 -18 -2 -18 -60 0 -52 3 -66 15 -66 11 0 15 13 15 54 0 40 4 55 16 60 27 10 34 -3 34 -60 0 -41 4 -54 15 -54 11 0 15 12 15 53 0 28 -4 57 -8 63 -11 16 -37 23 -53 13z"/> <path d="M3370 6800 c-6 -4 -21 -5 -31 -3 -17 5 -19 -1 -19 -61 0 -52 3 -66 15 -66 11 0 15 13 15 54 0 40 4 55 16 60 27 10 34 -3 34 -60 0 -41 4 -54 15 -54 11 0 15 12 15 53 0 28 -4 57 -8 63 -11 16 -37 23 -52 14z"/> <path d="M1165 6789 c-11 -17 2 -22 25 -9 16 9 25 9 36 -1 23 -19 16 -29 -19 -29 -36 0 -57 -15 -57 -41 0 -29 28 -44 59 -33 18 7 32 7 43 0 10 -6 21 -6 25 -2 4 5 2 11 -4 13 -8 3 -13 22 -13 47 0 23 -5 47 -12 54 -15 15 -74 16 -83 1z m75 -55 c0 -18 -24 -44 -40 -44 -22 0 -28 35 -7 43 17 7 47 8 47 1z"/> <path d="M1365 6789 c-11 -17 2 -21 23 -8 17 10 23 10 36 0 25 -21 19 -31 -17 -31 -36 0 -57 -15 -57 -41 0 -29 28 -44 59 -33 18 7 32 7 43 0 10 -6 21 -6 25 -2 4 5 2 11 -4 13 -8 3 -13 22 -13 47 0 23 -5 47 -12 54 -15 15 -74 16 -83 1z m75 -55 c0 -18 -23 -44 -40 -44 -27 0 -36 21 -15 37 19 13 55 18 55 7z"/> <path d="M1552 6788 c-19 -19 -15 -82 6 -101 41 -37 92 -7 92 54 0 43 -15 59 -55 59 -17 0 -36 -5 -43 -12z m66 -10 c27 -27 11 -88 -23 -88 -24 0 -35 17 -35 54 0 24 17 46 35 46 6 0 16 -5 23 -12z"/> <path d="M1680 6781 c-15 -29 -12 -77 6 -95 18 -19 28 -20 55 -6 24 13 27 -11 3 -31 -12 -10 -20 -10 -35 -1 -23 15 -29 15 -29 2 0 -6 11 -15 25 -22 19 -9 29 -8 50 6 23 15 25 22 25 90 l0 73 -45 1 c-35 2 -46 -2 -55 -17z m64 -7 c19 -18 20 -38 6 -65 -25 -46 -74 7 -52 56 13 29 24 31 46 9z"/> <path d="M2216 6778 c-9 -12 -16 -33 -16 -45 0 -49 71 -83 100 -48 17 21 7 29 -18 14 -23 -14 -52 -6 -52 16 0 11 11 15 45 15 49 0 56 10 29 48 -10 14 -26 22 -44 22 -18 0 -34 -8 -44 -22z m58 6 c30 -12 18 -34 -19 -34 -40 0 -41 2 -19 24 18 18 17 18 38 10z"/> <path d="M2351 6769 l22 -31 -23 -30 c-28 -38 -15 -52 14 -15 l23 29 21 -29 c11 -15 23 -25 27 -21 4 4 -3 21 -15 37 l-21 31 21 30 c16 22 18 30 7 30 -7 0 -20 -11 -27 -26 l-14 -25 -13 25 c-8 15 -21 26 -29 26 -12 0 -11 -6 7 -31z"/> <path d="M2460 6735 c0 -37 4 -65 10 -65 6 0 10 28 10 65 0 37 -4 65 -10 65 -6 0 -10 -28 -10 -65z"/> <path d="M2650 6781 c-15 -29 -12 -77 6 -95 18 -19 28 -20 55 -6 24 13 27 -11 3 -31 -12 -10 -20 -10 -35 -1 -23 15 -29 15 -29 2 0 -6 11 -15 25 -22 19 -9 29 -8 50 6 23 15 25 22 25 90 l0 73 -45 1 c-35 2 -46 -2 -55 -17z m56 1 c31 -20 22 -92 -12 -92 -23 0 -39 45 -26 75 12 26 20 30 38 17z"/> <path d="M3006 6737 c2 -75 24 -92 24 -19 0 61 23 89 47 57 10 -14 12 -33 8 -62 -5 -35 -3 -43 9 -43 13 0 16 12 16 53 0 28 -4 57 -8 64 -4 7 -27 12 -52 11 l-45 0 1 -61z"/> <path d="M3140 6781 c-15 -30 -12 -66 9 -92 16 -21 22 -22 45 -11 21 9 26 9 26 -2 0 -7 -7 -19 -16 -27 -13 -10 -19 -10 -36 0 -26 16 -39 3 -14 -15 53 -38 86 -3 86 93 l0 70 -45 1 c-35 2 -46 -2 -55 -17z m64 -7 c20 -20 21 -58 1 -74 -25 -21 -45 -4 -45 38 0 54 15 66 44 36z"/> <path d="M3270 6735 c0 -37 4 -65 10 -65 6 0 10 28 10 65 0 37 -4 65 -10 65 -6 0 -10 -28 -10 -65z"/> <path d="M3460 6781 c-26 -49 2 -111 49 -111 16 0 34 7 41 15 16 19 5 34 -12 17 -18 -18 -46 -14 -58 8 -10 19 -8 20 40 20 49 0 51 1 44 23 -11 36 -25 47 -60 47 -23 0 -37 -6 -44 -19z m70 -6 c17 -21 9 -27 -31 -23 -31 3 -32 4 -15 21 21 21 30 21 46 2z"/> <path d="M2056 6564 c-10 -26 -7 -104 4 -104 8 0 16 63 11 93 0 4 4 7 9 7 6 0 10 5 10 10 0 16 -27 11 -34 -6z"/> <path d="M2990 6570 c0 -5 5 -10 10 -10 6 0 10 5 10 10 0 6 -4 10 -10 10 -5 0 -10 -4 -10 -10z"/> <path d="M1355 6560 c3 -5 12 -7 20 -3 12 4 15 -5 15 -46 0 -31 4 -51 11 -51 8 0 10 14 6 39 -5 41 0 55 23 64 8 3 -7 6 -33 6 -28 1 -46 -3 -42 -9z"/> <path d="M1450 6516 c0 -54 0 -55 30 -54 37 1 52 18 16 18 -24 0 -26 3 -26 45 0 25 -4 45 -10 45 -5 0 -10 -24 -10 -54z"/> <path d="M1572 6518 c3 -52 4 -53 36 -54 35 -2 52 17 52 58 0 33 -18 48 -58 48 l-33 0 3 -52z m62 26 c19 -18 19 -20 6 -45 -6 -10 -20 -19 -30 -19 -17 0 -20 7 -20 40 0 44 16 52 44 24z"/> <path d="M1680 6515 c0 -30 5 -55 10 -55 6 0 10 11 10 25 0 14 6 25 13 25 8 0 19 -11 25 -25 6 -14 16 -25 22 -25 14 0 13 13 -2 28 -10 10 -10 17 0 33 18 28 -1 49 -44 49 l-34 0 0 -55z m65 25 c0 -8 -10 -16 -22 -18 -18 -3 -23 2 -23 18 0 16 5 21 23 18 12 -2 22 -10 22 -18z"/> <path d="M1829 6563 c-6 -50 -5 -103 2 -103 4 0 9 10 11 23 2 16 9 21 25 20 29 -3 50 32 32 53 -12 14 -68 20 -70 7z m56 -23 c0 -8 -10 -16 -22 -18 -18 -3 -23 2 -23 18 0 16 5 21 23 18 12 -2 22 -10 22 -18z"/> <path d="M2700 6515 c0 -61 20 -77 21 -17 l0 37 19 -40 c19 -44 16 -46 43 25 3 8 6 -2 6 -23 1 -56 17 -37 19 23 1 63 -19 68 -38 8 l-13 -43 -14 43 c-21 62 -43 56 -43 -13z"/> <path d="M2908 6557 c-3 -7 -3 -31 0 -54 4 -42 14 -54 27 -33 3 6 1 10 -4 10 -13 0 -14 42 -2 56 6 5 4 14 -4 21 -10 9 -14 9 -17 0z"/> <path d="M1530 6541 c0 -6 5 -13 10 -16 6 -3 10 1 10 9 0 9 -4 16 -10 16 -5 0 -10 -4 -10 -9z"/> <path d="M1932 6538 c-28 -28 -2 -88 33 -74 22 8 18 25 -5 19 -11 -3 -20 0 -20 6 0 6 11 11 25 11 14 0 25 6 25 13 0 16 -20 37 -35 37 -6 0 -16 -5 -23 -12z m32 -19 c-3 -5 -10 -7 -15 -3 -5 3 -7 10 -3 15 3 5 10 7 15 3 5 -3 7 -10 3 -15z"/> <path d="M2000 6505 c0 -25 5 -45 10 -45 6 0 10 16 10 35 0 19 5 35 10 35 6 0 10 5 10 10 0 6 -9 10 -20 10 -17 0 -20 -7 -20 -45z"/> <path d="M2102 6538 c-23 -23 -11 -78 17 -78 23 0 41 20 41 45 0 23 -17 45 -35 45 -6 0 -16 -5 -23 -12z m38 -34 c0 -15 -6 -24 -15 -24 -15 0 -21 40 -9 53 12 11 24 -3 24 -29z"/> <path d="M2170 6510 c0 -21 5 -42 10 -45 6 -4 10 8 10 29 0 20 5 36 10 36 19 0 10 16 -10 17 -17 2 -20 -4 -20 -37z"/> <path d="M2220 6504 c0 -54 18 -59 22 -6 4 48 22 48 26 -1 2 -20 8 -35 13 -32 5 4 7 11 3 16 -8 14 4 59 16 59 6 0 10 -19 10 -42 0 -30 3 -39 11 -31 6 6 9 26 7 44 -3 34 -3 34 -55 35 l-53 1 0 -43z"/> <path d="M2355 6539 c-4 -6 -4 -13 -1 -16 3 -3 1 -12 -4 -18 -18 -22 -1 -43 33 -40 33 3 34 5 22 63 -6 23 -38 31 -50 11z m30 -9 c3 -5 -1 -10 -10 -10 -9 0 -13 5 -10 10 3 6 8 10 10 10 2 0 7 -4 10 -10z m5 -35 c0 -8 -7 -15 -15 -15 -16 0 -20 12 -8 23 11 12 23 8 23 -8z"/> <path d="M2431 6501 c1 -25 3 -37 6 -26 2 11 6 30 9 43 8 37 24 25 24 -18 0 -22 5 -40 11 -40 6 0 9 17 7 43 -3 38 -5 42 -30 43 -27 1 -28 -1 -27 -45z"/> <path d="M2510 6529 c-9 -16 -9 -28 -1 -45 12 -27 46 -32 55 -9 4 10 -1 14 -17 12 -16 -1 -23 4 -25 22 -3 21 -1 23 23 17 20 -5 26 -3 23 6 -8 23 -46 21 -58 -3z"/> <path d="M2584 6536 c-9 -24 0 -58 18 -70 14 -8 22 -7 35 7 17 18 17 18 -8 12 -16 -4 -30 -2 -33 4 -5 7 4 11 23 11 19 0 31 5 31 13 0 32 -55 51 -66 23z m41 -6 c3 -5 -3 -10 -15 -10 -12 0 -18 5 -15 10 3 6 10 10 15 10 5 0 12 -4 15 -10z"/> <path d="M2831 6536 c-16 -20 -10 -56 11 -70 14 -8 22 -7 35 7 17 18 17 18 -9 12 -18 -5 -28 -3 -28 4 0 6 12 11 26 11 21 0 25 4 22 23 -4 26 -39 35 -57 13z m39 -6 c0 -5 -7 -10 -16 -10 -8 0 -12 5 -9 10 3 6 10 10 16 10 5 0 9 -4 9 -10z"/> <path d="M2951 6500 c2 -34 3 -37 6 -15 3 17 12 38 20 47 14 15 13 17 -6 15 -18 -1 -21 -7 -20 -47z"/> <path d="M2996 6534 c-10 -25 -7 -74 4 -74 6 0 10 20 10 45 0 47 -4 55 -14 29z"/> <path d="M3031 6528 c-18 -48 16 -86 47 -53 16 16 16 17 -6 10 -25 -7 -39 13 -28 41 5 13 9 14 21 4 17 -14 31 -8 20 9 -11 19 -45 12 -54 -11z"/> <path d="M3104 6536 c-7 -19 3 -36 22 -36 8 0 14 -5 14 -11 0 -7 -9 -9 -21 -6 -13 3 -19 1 -16 -6 2 -7 15 -12 28 -12 36 0 39 40 3 49 -20 5 -24 10 -16 18 8 8 16 7 28 -3 15 -12 17 -12 12 1 -6 21 -47 25 -54 6z"/> <path d="M1539 6488 c-6 -21 -5 -38 2 -38 5 0 9 9 9 20 0 16 -7 28 -11 18z"/> <path d="M2142 6225 c-97 -56 -100 -59 -62 -75 31 -13 31 -13 29 -83 l-2 -70 56 -31 c53 -29 57 -33 57 -69 l0 -38 32 17 c29 15 33 15 60 0 26 -16 30 -16 58 1 l30 17 0 137 0 137 -77 45 c-43 25 -85 48 -93 50 -8 3 -48 -14 -88 -38z m100 13 c14 -14 112 -64 138 -71 10 -3 7 -8 -12 -17 l-28 -13 0 -131 c0 -101 -3 -127 -12 -118 -7 7 -20 12 -30 12 -13 0 -18 8 -18 30 0 28 -2 30 -21 20 -16 -9 -26 -8 -45 5 -24 16 -32 35 -14 35 18 0 10 20 -12 31 -17 7 -23 19 -24 45 -1 39 -1 39 31 18 19 -12 25 -25 25 -50 0 -39 2 -40 35 -18 17 11 25 26 25 45 0 32 -3 34 -31 18 -15 -8 -25 -6 -45 10 l-26 20 26 12 c20 9 29 9 41 -1 8 -7 18 -10 22 -7 3 4 -6 12 -20 18 -21 10 -33 9 -61 -5 -33 -15 -36 -21 -36 -59 0 -24 5 -48 12 -55 15 -15 6 -24 -15 -16 -12 4 -15 20 -14 72 l2 67 48 23 48 23 46 -26 c24 -15 47 -25 49 -22 3 3 -20 19 -50 36 l-55 32 -51 -32 c-49 -30 -52 -31 -68 -14 -10 10 -13 19 -7 21 6 2 37 20 70 39 71 41 61 38 77 23z m134 -182 c-1 -35 -4 -67 -8 -71 -3 -4 -6 25 -5 64 0 39 4 71 7 71 3 0 6 -29 6 -64z m2 -116 c-1 -16 -5 -30 -10 -30 -4 0 -8 14 -8 30 0 17 4 30 9 30 5 0 9 -13 9 -30z"/> <path d="M1060 6064 l0 -154 260 0 261 0 -3 153 -3 152 -257 2 -258 2 0 -155z m510 111 c0 -24 -3 -25 -67 -27 l-68 -2 68 -3 67 -4 0 -54 0 -55 -57 -2 -58 -2 58 -3 57 -4 0 -49 0 -50 -250 0 -250 0 0 30 c0 27 3 30 31 30 26 0 31 -3 26 -20 -3 -11 -1 -20 4 -20 5 0 9 9 9 19 0 31 67 33 103 4 33 -26 107 -31 145 -9 81 44 81 178 0 222 -38 22 -112 17 -145 -8 -34 -28 -99 -27 -106 0 -3 12 -5 11 -6 -5 -1 -20 4 -23 40 -23 38 0 40 -2 32 -22 -4 -13 -8 -36 -8 -53 0 -16 4 -40 8 -52 8 -21 5 -23 -27 -23 -44 0 -50 27 -8 33 25 4 25 4 -5 6 -27 1 -33 -3 -33 -19 0 -14 -7 -20 -24 -20 -19 0 -24 6 -30 38 -10 60 -8 72 13 72 12 0 18 -7 17 -17 -1 -14 7 -18 39 -19 32 -1 34 -1 8 3 -47 6 -44 33 5 35 l37 1 -36 4 c-26 3 -38 10 -42 24 -3 11 -14 19 -26 19 -16 0 -21 6 -21 25 l0 25 250 0 250 0 0 -25z m-178 -33 c12 -12 19 -24 16 -27 -3 -4 -40 -9 -81 -12 -87 -7 -107 6 -65 42 34 30 99 28 130 -3z m-282 -22 c0 -5 -9 -10 -20 -10 -11 0 -20 5 -20 10 0 6 9 10 20 10 11 0 20 -4 20 -10z m126 -38 c-3 -5 20 -7 50 -5 40 2 53 0 48 -9 -4 -6 3 -4 17 5 31 22 49 21 49 -1 0 -10 -7 -19 -15 -19 -8 0 -15 5 -15 11 0 6 -4 5 -9 -2 -7 -12 -61 -16 -128 -10 -18 2 -24 38 -6 38 8 0 12 -4 9 -8z m197 -12 c-3 -11 -9 -20 -14 -20 -5 0 -9 9 -9 20 0 11 6 20 14 20 9 0 12 -7 9 -20z m-24 -62 c-24 -44 -102 -55 -148 -20 -45 33 -36 39 63 38 88 0 94 -1 85 -18z"/> <path d="M1480 6110 c-24 -8 -23 -8 8 -9 20 -1 31 3 27 9 -3 6 -7 10 -8 9 -1 -1 -13 -5 -27 -9z"/> <path d="M1483 6063 c15 -2 37 -2 50 0 12 2 0 4 -28 4 -27 0 -38 -2 -22 -4z"/> <path d="M1453 5983 c9 -2 25 -2 35 0 9 3 1 5 -18 5 -19 0 -27 -2 -17 -5z"/> <path d="M3010 6070 l0 -150 145 0 146 0 -3 148 -3 147 -54 3 c-30 2 -59 -2 -64 -7 -8 -8 7 -11 51 -11 l62 0 0 -66 c0 -41 -4 -63 -10 -59 -5 3 -10 21 -10 39 0 36 -25 66 -56 66 -11 0 -29 7 -40 15 -31 24 -49 18 -103 -34 l-51 -49 0 44 0 44 46 0 c27 0 43 4 39 10 -3 6 -26 10 -51 10 l-44 0 0 -150z m149 111 c11 -7 7 -13 -18 -25 -27 -14 -31 -22 -31 -57 0 -24 -4 -38 -10 -34 -5 3 -10 26 -10 50 0 34 5 47 22 59 26 18 28 19 47 7z m85 -43 c21 -29 14 -33 -23 -14 -28 15 -32 15 -65 -5 -42 -25 -48 -10 -8 20 36 27 77 27 96 -1z m-137 -92 c27 -13 33 -20 23 -26 -8 -5 -26 0 -49 14 -40 25 -52 65 -29 93 11 14 13 11 16 -24 3 -35 8 -42 39 -57z m121 54 c40 -24 48 -43 34 -76 -16 -34 -29 -30 -24 9 3 29 0 35 -32 52 -19 10 -33 23 -30 27 8 12 16 10 52 -12z m-64 -6 c19 -7 21 -35 4 -52 -7 -7 -17 -8 -30 -1 -21 11 -23 30 -6 47 14 14 12 14 32 6z m56 -66 c0 -48 -22 -78 -57 -78 -31 0 -29 12 7 32 27 15 30 22 26 53 -3 26 -1 35 10 35 10 0 14 -12 14 -42z m-184 -11 c2 -35 34 -67 68 -67 11 0 28 -5 36 -10 11 -7 -5 -10 -52 -10 l-68 0 0 67 c0 65 13 82 16 20z m108 -4 c31 20 36 21 36 4 0 -13 -60 -47 -82 -47 -16 0 -48 31 -48 46 0 11 7 10 34 -3 32 -15 37 -15 60 0z m142 -69 c-3 -9 -21 -14 -50 -14 l-45 0 47 48 47 47 3 -34 c2 -18 1 -39 -2 -47z"/> <path d="M3340 6074 l0 -145 122 3 122 3 0 140 0 140 -122 2 -122 2 0 -145z m109 123 c-2 -2 -25 -15 -51 -30 l-48 -26 0 30 c0 28 1 29 52 29 28 0 49 -1 47 -3z m121 -26 l0 -30 -47 26 c-27 15 -50 28 -52 30 -2 2 19 3 47 3 51 0 52 -1 52 -29z m-67 -26 c35 -18 37 -21 37 -69 0 -49 -2 -52 -40 -74 l-40 -23 -40 23 c-38 22 -40 25 -40 73 0 47 2 51 38 71 20 12 39 21 42 20 3 -1 22 -10 43 -21z m-138 -34 c3 -5 1 -12 -5 -16 -5 -3 -10 1 -10 9 0 18 6 21 15 7z m202 -58 c-2 -16 -4 -5 -4 22 0 28 2 40 4 28 2 -13 2 -35 0 -50z m-127 -96 c8 -3 -9 -6 -37 -6 -52 -1 -53 -1 -53 29 l0 30 38 -23 c20 -13 44 -26 52 -30z m130 23 c0 -29 -1 -30 -47 -30 l-48 0 45 30 c25 16 46 29 48 29 1 1 2 -12 2 -29z"/> <path d="M3418 6132 c-22 -13 -28 -24 -28 -54 0 -58 53 -93 102 -67 31 16 38 28 38 69 0 29 -6 39 -30 53 -25 15 -30 16 -30 4 0 -8 11 -18 25 -21 27 -7 35 -40 13 -49 -10 -4 -9 -8 2 -17 13 -10 13 -11 -2 -6 -11 3 -18 0 -18 -8 0 -17 -25 -27 -45 -20 -8 4 -15 12 -15 20 0 8 -7 11 -17 8 -15 -5 -16 -4 -3 5 13 9 13 12 1 20 -18 12 -7 41 18 48 11 3 22 11 25 19 7 18 -3 17 -36 -4z"/> <path d="M3435 6094 c10 -8 22 -14 25 -14 3 0 15 6 25 14 17 12 14 13 -25 13 -39 0 -42 -1 -25 -13z"/> <path d="M3421 6077 c9 -7 19 -21 22 -32 4 -16 5 -14 6 6 1 16 -5 29 -15 33 -25 10 -30 6 -13 -7z"/> <path d="M3483 6083 c-7 -2 -13 -17 -12 -31 0 -16 3 -21 6 -12 3 8 12 23 21 33 15 17 9 20 -15 10z"/> <path d="M1792 6133 c-54 -65 -36 -133 36 -133 58 0 91 62 57 106 -14 18 -15 16 -9 -23 6 -37 3 -43 -20 -58 -24 -16 -28 -16 -51 -1 -37 25 -37 57 2 98 14 14 23 32 21 38 -2 6 -18 -6 -36 -27z"/> <path d="M2048 6059 c-3 -106 -13 -92 107 -158 52 -29 57 -30 35 -9 -14 13 -48 37 -76 52 l-51 28 -1 85 c-1 116 -11 117 -14 2z"/> <path d="M2708 6139 c-22 -12 -24 -33 -3 -25 11 4 15 -2 15 -24 0 -16 4 -31 8 -34 22 -13 51 42 30 56 -8 6 -4 7 12 2 25 -7 25 -7 6 15 -21 23 -41 26 -68 10z m29 -36 c-3 -10 -5 -4 -5 12 0 17 2 24 5 18 2 -7 2 -21 0 -30z"/> <path d="M1840 6130 c0 -5 5 -10 10 -10 6 0 10 5 10 10 0 6 -4 10 -10 10 -5 0 -10 -4 -10 -10z"/> <path d="M4030 6085 c-9 -11 -17 -12 -30 -5 -26 14 -62 12 -85 -4 -11 -7 -38 -13 -61 -13 -50 2 -91 -23 -109 -66 -8 -18 -23 -38 -34 -45 -22 -13 -30 -66 -11 -77 5 -3 7 -19 4 -34 -7 -33 23 -71 55 -71 28 0 35 -17 10 -23 -11 -3 -23 -15 -26 -26 -3 -12 -12 -21 -19 -21 -8 0 -18 -8 -21 -17 -4 -10 -11 -21 -17 -25 -7 -5 -6 -11 3 -20 11 -10 14 -10 18 0 3 6 13 12 23 12 10 0 20 6 23 14 3 8 16 16 29 18 13 2 27 12 32 23 7 17 18 20 65 20 31 0 66 -6 78 -13 36 -20 88 -15 121 13 21 18 42 25 71 25 29 0 46 6 60 21 22 26 41 45 82 82 27 23 30 33 25 60 -3 18 -8 47 -10 66 -3 25 -16 45 -48 72 -50 45 -80 56 -112 41 -14 -6 -28 -7 -37 -1 -22 14 -65 11 -79 -6z m72 -8 c10 -11 16 -11 38 1 35 20 76 9 94 -26 9 -15 15 -23 16 -18 0 5 9 1 20 -9 23 -20 26 -64 8 -85 -11 -12 -10 -12 3 -2 14 10 18 10 23 -4 12 -30 6 -55 -19 -79 -26 -27 -55 -33 -55 -12 0 17 -38 52 -47 44 -3 -4 -1 -7 5 -7 6 0 18 -12 26 -27 16 -33 7 -66 -23 -82 -27 -15 -81 -14 -81 2 0 6 -9 -3 -20 -20 -11 -18 -31 -35 -45 -39 -37 -9 -94 4 -107 25 -10 16 -14 17 -25 5 -8 -8 -23 -14 -34 -14 -28 0 -89 27 -89 39 0 6 -11 11 -23 11 -29 0 -60 32 -55 57 3 12 11 17 26 16 12 -2 22 2 22 7 0 6 -11 10 -24 10 -24 0 -36 16 -36 50 0 19 34 45 48 36 4 -2 8 10 8 27 2 42 35 67 90 67 23 0 46 -4 49 -10 3 -5 11 -10 17 -10 7 0 7 4 -1 14 -9 11 -5 16 17 25 30 12 82 6 82 -10 0 -5 9 0 20 11 23 23 54 26 72 7z m-295 -364 c-6 -13 -17 -23 -25 -23 -9 0 -24 -8 -34 -17 -14 -12 -21 -14 -30 -5 -8 8 -7 13 6 18 10 4 22 17 27 31 7 18 15 23 38 21 26 -2 28 -4 18 -25z"/> <path d="M3837 6008 c-4 -12 -4 -24 -2 -27 3 -2 5 0 5 6 0 5 14 8 30 5 18 -2 30 0 30 7 0 6 -6 8 -14 5 -7 -3 -16 2 -19 10 -9 23 -24 20 -30 -6z"/> <path d="M3937 6017 c-4 -10 -11 -15 -17 -12 -5 3 -10 1 -10 -4 0 -6 6 -11 14 -11 8 0 21 -2 29 -5 8 -4 14 0 14 9 0 8 -4 13 -8 10 -4 -2 -9 4 -11 13 -3 17 -4 17 -11 0z"/> <path d="M4070 6021 c0 -6 -7 -11 -15 -11 -8 0 -15 -4 -15 -10 0 -5 9 -10 19 -10 21 0 36 26 21 35 -6 4 -10 1 -10 -4z"/> <path d="M3988 6008 c-4 -9 -4 -18 -1 -21 7 -8 33 3 33 15 0 5 -4 7 -9 4 -5 -4 -11 -1 -13 6 -3 8 -6 6 -10 -4z"/> <path d="M3843 5953 c-7 -3 -13 -12 -13 -21 0 -15 2 -15 10 -2 6 10 10 11 10 3 0 -15 50 -13 50 2 0 5 4 4 9 -4 6 -9 11 -10 15 -2 7 11 -5 15 -38 11 -10 -1 -22 2 -25 8 -3 5 -12 7 -18 5z"/> <path d="M4071 5941 c-1 -19 3 -22 19 -18 11 3 20 1 20 -5 0 -5 5 -6 10 -3 19 12 10 27 -15 23 -16 -4 -25 0 -28 11 -3 10 -5 7 -6 -8z"/> <path d="M3978 5942 c-23 -2 -38 -8 -38 -16 0 -9 9 -12 26 -8 21 4 25 2 19 -9 -8 -12 -6 -12 8 -1 9 8 21 11 27 7 5 -3 10 -3 10 2 -1 20 -18 28 -52 25z"/> <path d="M4051 5934 c0 -11 3 -14 6 -6 3 7 2 16 -1 19 -3 4 -6 -2 -5 -13z"/> <path d="M3836 5874 c-9 -22 -8 -24 10 -24 11 0 14 6 10 18 -5 14 -4 14 9 -2 11 -14 15 -16 15 -5 0 12 2 12 9 0 5 -7 14 -10 20 -7 15 10 14 23 -2 23 -7 0 -24 3 -39 6 -19 5 -28 3 -32 -9z"/> <path d="M4058 5884 c-7 -6 -34 -12 -62 -13 -26 -1 -13 -13 19 -16 14 -2 25 2 25 8 0 8 3 7 9 -1 6 -11 10 -10 15 4 7 18 3 28 -6 18z"/> <path d="M4098 5879 c-21 -12 -23 -26 -4 -26 7 0 18 9 25 19 12 20 5 23 -21 7z"/> <path d="M3943 5873 c-18 -7 -16 -20 2 -20 8 0 15 6 15 14 0 7 -1 13 -2 12 -2 0 -9 -3 -15 -6z"/> <path d="M3843 5823 c-7 -3 -13 -12 -13 -21 0 -15 2 -15 10 -2 6 10 10 11 10 3 0 -7 9 -13 20 -13 11 0 20 5 20 10 0 6 -6 10 -14 10 -8 0 -16 4 -18 9 -1 4 -9 6 -15 4z"/> <path d="M3978 5820 c-2 -5 -18 -10 -36 -12 -48 -3 -49 -16 -2 -16 22 0 40 3 40 9 0 5 5 9 11 9 5 0 7 -4 4 -10 -3 -5 -1 -10 4 -10 6 0 11 6 11 14 0 16 -27 29 -32 16z"/> <path d="M2577 5996 c4 -18 11 -23 31 -23 15 0 21 2 15 4 -7 3 -13 9 -13 14 0 6 5 7 10 4 6 -3 10 -2 10 3 0 11 -23 22 -44 22 -9 0 -12 -9 -9 -24z m27 -1 c-4 -8 -8 -15 -10 -15 -2 0 -4 7 -4 15 0 8 4 15 10 15 5 0 7 -7 4 -15z"/> <path d="M2763 6013 c-7 -2 -13 -14 -12 -26 0 -21 1 -21 9 -2 8 18 9 18 9 2 1 -15 3 -16 15 -5 10 9 11 15 2 20 -7 5 -5 8 7 8 10 0 17 -7 17 -18 0 -20 27 -26 48 -9 8 6 12 5 12 -4 0 -11 2 -11 10 1 9 13 10 13 10 0 0 -13 1 -13 10 0 5 8 10 20 10 25 0 6 -5 3 -10 -5 -9 -13 -10 -13 -10 0 0 13 -1 13 -10 0 -5 -8 -10 -10 -10 -3 0 6 -11 10 -25 8 -14 -1 -25 2 -25 6 0 10 -37 11 -57 2z m87 -23 c0 -5 -4 -10 -10 -10 -5 0 -10 5 -10 10 0 6 5 10 10 10 6 0 10 -4 10 -10z"/> <path d="M2641 5988 c0 -22 1 -22 8 -3 8 20 8 20 13 0 5 -18 6 -18 7 3 1 13 -5 22 -14 22 -9 0 -15 -9 -14 -22z"/> <path d="M2683 5990 c1 -11 5 -20 9 -20 3 0 6 9 5 20 -1 11 -5 20 -9 20 -3 0 -6 -9 -5 -20z"/> <path d="M2710 5990 c0 -11 7 -20 15 -20 8 0 15 9 15 20 0 11 -7 20 -15 20 -8 0 -15 -9 -15 -20z"/> <path d="M3140 5675 l0 -85 225 0 225 0 0 85 0 85 -225 0 -225 0 0 -85z m430 0 l0 -75 -42 0 -42 0 27 28 27 28 -35 34 c-38 37 -50 22 -13 -17 l21 -23 -23 -25 c-13 -14 -28 -25 -33 -25 -6 0 0 11 13 25 l23 24 -32 36 c-17 20 -31 29 -31 22 0 -8 9 -22 20 -32 19 -17 19 -18 -3 -46 -12 -15 -28 -28 -34 -28 -8 -1 -3 10 10 25 12 14 20 29 18 32 -11 21 -53 64 -57 60 -3 -3 6 -19 20 -34 l24 -29 -24 -28 c-22 -26 -26 -27 -134 -27 l-110 0 0 75 0 75 205 0 205 0 0 -75z"/> <path d="M3170 5691 c0 -8 70 -4 79 4 2 3 -14 5 -37 5 -23 0 -42 -4 -42 -9z"/> <path d="M3215 5671 c-3 -6 -3 -15 0 -21 3 -5 1 -10 -4 -10 -6 0 -11 7 -11 15 0 20 -16 19 -24 -1 -3 -9 -6 -17 -6 -18 0 -1 36 -3 80 -3 44 0 80 3 80 8 0 4 2 14 5 21 4 9 -2 14 -15 15 -11 1 -20 -3 -20 -10 0 -8 -3 -8 -12 1 -18 18 -28 15 -28 -9 0 -23 -21 -22 -28 2 -3 11 -1 11 8 -1 9 -12 11 -12 8 -1 -5 19 -24 25 -33 12z m69 -17 c3 -8 2 -12 -4 -9 -6 3 -10 10 -10 16 0 14 7 11 14 -7z m36 -4 c0 -5 -4 -10 -10 -10 -5 0 -10 5 -10 10 0 6 5 10 10 10 6 0 10 -4 10 -10z"/> <path d="M3370 5672 c-17 -6 -30 -22 -30 -37 0 -5 5 -3 10 5 6 10 10 11 10 3 0 -21 17 -14 23 9 7 26 7 27 -13 20z"/> <path d="M1434 5717 c-3 -8 -4 -72 -2 -143 l3 -129 148 -3 148 -3 -3 143 -3 143 -143 3 c-114 2 -143 0 -148 -11z m276 -137 l0 -130 -130 0 -130 0 0 130 0 130 130 0 130 0 0 -130z"/> <path d="M1505 5677 c-4 -10 -5 -21 -1 -24 10 -10 18 4 13 24 -4 17 -4 17 -12 0z"/> <path d="M1640 5680 c0 -5 5 -10 11 -10 5 0 7 5 4 10 -3 6 -8 10 -11 10 -2 0 -4 -4 -4 -10z"/> <path d="M1540 5649 c0 -5 5 -7 10 -4 6 3 10 8 10 11 0 2 -4 4 -10 4 -5 0 -10 -5 -10 -11z"/> <path d="M1605 5650 c3 -5 8 -10 11 -10 2 0 4 5 4 10 0 6 -5 10 -11 10 -5 0 -7 -4 -4 -10z"/> <path d="M1640 5639 c0 -11 5 -17 10 -14 6 3 10 13 10 21 0 8 -4 14 -10 14 -5 0 -10 -9 -10 -21z"/> <path d="M1575 5630 c-3 -5 -1 -10 4 -10 6 0 11 5 11 10 0 6 -2 10 -4 10 -3 0 -8 -4 -11 -10z"/> <path d="M1600 5621 c0 -6 5 -13 10 -16 6 -3 10 1 10 9 0 9 -4 16 -10 16 -5 0 -10 -4 -10 -9z"/> <path d="M1540 5589 c0 -11 4 -18 10 -14 5 3 7 12 3 20 -7 21 -13 19 -13 -6z"/> <path d="M1570 5600 c0 -5 5 -10 10 -10 6 0 10 5 10 10 0 6 -4 10 -10 10 -5 0 -10 -4 -10 -10z"/> <path d="M1607 5570 c-3 -11 -1 -20 4 -20 5 0 9 9 9 20 0 11 -2 20 -4 20 -2 0 -6 -9 -9 -20z"/> <path d="M1640 5580 c0 -5 5 -10 10 -10 6 0 10 5 10 10 0 6 -4 10 -10 10 -5 0 -10 -4 -10 -10z"/> <path d="M1570 5565 c0 -8 5 -15 10 -15 6 0 10 7 10 15 0 8 -4 15 -10 15 -5 0 -10 -7 -10 -15z"/> <path d="M1530 5520 c25 -21 48 -39 51 -40 4 0 26 18 50 40 49 44 44 54 -7 15 -18 -14 -38 -25 -44 -25 -7 0 -25 11 -42 25 -49 41 -57 28 -8 -15z"/> <path d="M1570 5530 c0 -5 5 -10 10 -10 6 0 10 5 10 10 0 6 -4 10 -10 10 -5 0 -10 -4 -10 -10z"/> <path d="M1780 5575 l0 -145 145 0 145 0 0 145 0 145 -145 0 -145 0 0 -145z m280 70 c0 -36 -4 -65 -8 -65 -4 0 -19 22 -33 49 -23 46 -27 49 -72 55 -26 4 -54 9 -62 12 -8 4 -15 1 -15 -5 0 -11 -68 -111 -76 -111 -2 0 -4 29 -4 65 l0 65 135 0 135 0 0 -65z m-107 24 c28 -8 42 -19 57 -49 25 -49 25 -51 -5 -73 l-25 -18 5 63 4 63 -10 -55 c-15 -79 -15 -78 -52 -93 -72 -30 -78 -31 -73 -5 3 13 8 40 11 61 l6 38 40 -35 c21 -20 42 -36 47 -36 4 1 -12 18 -35 39 -24 21 -43 41 -43 44 0 2 21 12 47 22 26 10 42 20 36 22 -6 2 -30 -6 -54 -17 -36 -19 -41 -19 -35 -5 3 9 6 23 6 31 0 17 21 18 73 3z m-96 -43 c-9 -13 -13 -26 -8 -28 4 -2 5 -25 1 -53 l-6 -50 -17 40 c-17 38 -17 40 -1 52 10 7 14 13 10 13 -4 0 1 13 10 30 10 16 20 27 22 25 3 -2 -3 -15 -11 -29z m-32 -115 c18 -48 22 -51 55 -51 19 0 52 -3 74 -7 l38 -6 -7 32 c-4 20 -2 37 5 46 21 25 33 16 15 -11 -9 -14 -14 -28 -11 -31 2 -3 14 13 25 35 32 63 41 61 41 -12 l0 -66 -135 0 -135 0 0 66 c0 36 3 63 8 61 4 -3 16 -28 27 -56z m145 -27 c0 -20 -4 -25 -16 -20 -9 3 -30 6 -47 7 l-32 0 40 19 c53 25 55 24 55 -6z"/> <path d="M2120 5575 l0 -115 120 0 120 0 0 115 0 115 -120 0 -120 0 0 -115z m219 0 l0 -105 -105 0 -104 0 0 105 0 105 104 0 105 0 0 -105z"/> <path d="M2190 5651 c0 -11 8 -22 18 -24 9 -2 2 -2 -16 0 -26 3 -34 0 -43 -21 -16 -33 -4 -76 20 -76 13 0 21 8 23 23 2 18 11 23 43 27 39 5 40 6 40 45 0 40 0 40 -42 43 -37 3 -43 0 -43 -17z m30 -1 c0 -5 -4 -10 -10 -10 -5 0 -10 5 -10 10 0 6 5 10 10 10 6 0 10 -4 10 -10z m50 -42 c0 -13 -8 -18 -29 -18 -39 0 -61 -9 -61 -26 0 -8 -4 -14 -10 -14 -5 0 -10 11 -10 25 0 19 7 26 28 31 48 10 54 14 49 28 -3 8 -3 17 1 21 9 9 32 -25 32 -47z"/> <path d="M2288 5598 c-2 -18 -11 -24 -42 -28 -34 -4 -41 -10 -47 -34 -11 -39 4 -56 48 -56 26 0 36 5 40 19 3 11 13 21 24 24 10 3 19 13 19 24 0 15 -2 16 -10 3 -5 -8 -10 -11 -10 -6 0 5 -9 1 -20 -9 -10 -9 -26 -15 -35 -12 -8 4 -15 2 -15 -3 0 -6 9 -10 21 -10 11 0 17 -4 14 -10 -3 -5 -17 -10 -31 -10 -14 0 -22 4 -19 10 3 6 1 10 -4 10 -6 0 -11 11 -11 25 0 22 4 25 34 25 18 0 39 7 46 15 7 9 20 13 27 10 10 -3 13 1 11 12 -5 28 -36 28 -40 1z"/> <path d="M2410 5595 l0 -96 138 3 137 3 0 90 0 90 -137 3 -138 3 0 -96z m260 0 l0 -85 -125 0 -125 0 0 85 0 85 125 0 125 0 0 -85z"/> <path d="M2470 5631 c0 -5 6 -12 13 -15 6 -3 2 -3 -10 0 -18 4 -23 1 -23 -15 0 -12 5 -21 10 -21 6 0 10 5 10 10 0 6 10 10 23 9 l22 0 -22 -9 c-13 -5 -23 -14 -23 -20 0 -16 19 -12 41 9 20 18 20 20 3 40 -19 21 -44 28 -44 12z"/> <path d="M2540 5601 c0 -12 27 -17 68 -13 50 6 38 22 -18 22 -27 0 -50 -4 -50 -9z"/> <path d="M2810 5580 l0 -101 93 3 92 3 3 98 3 97 -96 0 -95 0 0 -100z m180 60 c0 -18 -1 -19 -44 -3 -41 15 -48 15 -85 1 -39 -16 -41 -16 -41 3 0 17 8 19 85 19 78 0 85 -2 85 -20z m-70 -4 c0 -11 -19 -15 -25 -6 -3 5 1 10 9 10 9 0 16 -2 16 -4z m-32 -18 c6 -6 26 -11 44 -10 22 0 28 -2 18 -8 -25 -13 -105 4 -94 21 7 12 18 11 32 -3z m40 -38 c46 16 54 4 9 -15 -31 -13 -40 -13 -71 0 -19 8 -37 19 -41 24 -3 6 11 3 32 -5 31 -14 44 -14 71 -4z m-28 -33 c14 0 36 3 50 7 14 4 8 -1 -13 -10 -36 -16 -41 -16 -70 0 -18 9 -23 14 -12 10 11 -4 31 -7 45 -7z m90 -22 c0 -25 -1 -25 -85 -25 -80 0 -85 1 -85 21 0 16 4 19 18 14 64 -26 70 -26 109 -6 21 11 39 20 41 21 1 0 2 -11 2 -25z"/> <path d="M1060 5575 l0 -85 160 0 160 0 0 85 0 85 -160 0 -160 0 0 -85z m310 0 l0 -75 -150 0 -150 0 0 75 0 75 150 0 150 0 0 -75z"/> <path d="M1168 5608 c-20 -29 -20 -31 -4 -65 15 -32 19 -34 57 -31 32 2 44 9 57 31 15 25 15 30 2 55 -11 19 -26 29 -53 33 -34 5 -40 3 -59 -23z m70 -7 c8 -4 12 -19 10 -32 -2 -18 -9 -24 -28 -24 -28 0 -39 27 -20 50 14 17 20 18 38 6z"/> <path d="M1208 5553 c6 -2 18 -2 25 0 6 3 1 5 -13 5 -14 0 -19 -2 -12 -5z"/> <path d="M1122 5413 c621 -2 1635 -2 2255 0 621 1 113 2 -1127 2 -1240 0 -1748 -1 -1128 -2z"/> </g> </svg> 