<svg xmlns="http://www.w3.org/2000/svg" xmlns:xlink="http://www.w3.org/1999/xlink" xmlns:lucid="lucid" width="1841" height="921"><g transform="translate(-2699.4999999978363 -2759.4999999989254)" lucid:page-tab-id="0_0"><path d="M2700 2766a6 6 0 0 1 6-6h1828a6 6 0 0 1 6 6v908a6 6 0 0 1-6 6H2706a6 6 0 0 1-6-6z" stroke="#6f7681" fill="#edf5ff" fill-opacity=".58"/><path d="M2840 3260c22.1 0 40 17.9 40 40s-17.9 40-40 40h-80c-22.1 0-40-17.9-40-40s17.9-40 40-40z" stroke="#3a414a" fill="#fff"/><use xlink:href="#a" transform="matrix(1,0,0,1,2725,3265) translate(11.51734567901236 26.52777777777778)"/><use xlink:href="#b" transform="matrix(1,0,0,1,2725,3265) translate(62.01117283950619 26.52777777777778)"/><use xlink:href="#c" transform="matrix(1,0,0,1,2725,3265) translate(21.949444444444445 53.19444444444445)"/><use xlink:href="#d" transform="matrix(1,0,0,1,2725,3265) translate(65.15932098765433 53.19444444444445)"/><path d="M3514.96 3463.62a7.93 7.93 0 0 1 9.57 0l96.14 72.76a4.54 4.54 0 0 1 0 7.24l-96.14 72.76a7.93 7.93 0 0 1-9.57 0l-96.15-72.76a4.54 4.54 0 0 1 0-7.24z" stroke="#1071e5" stroke-width="3" fill="#fff"/><use xlink:href="#e" transform="matrix(1,0,0,1,3419.0226612096776,3465) translate(53.005 59.96527777777778)"/><use xlink:href="#b" transform="matrix(1,0,0,1,3419.0226612096776,3465) translate(71.52351851851853 59.96527777777778)"/><use xlink:href="#f" transform="matrix(1,0,0,1,3419.0226612096776,3465) translate(22.202530864197538 86.63194444444446)"/><use xlink:href="#g" transform="matrix(1,0,0,1,3419.0226612096776,3465) translate(101.09141975308641 86.63194444444446)"/><use xlink:href="#h" transform="matrix(1,0,0,1,3419.0226612096776,3465) translate(124.48648148148148 86.63194444444446)"/><path d="M3914.54 3426a6 6 0 0 1 6-6h207.43a6 6 0 0 1 6 6v48a6 6 0 0 1-6 6h-207.43a6 6 0 0 1-6-6z" stroke="#3a414a" fill="#fff"/><use xlink:href="#i" transform="matrix(1,0,0,1,3919.5409058432474,3425) translate(19.290123456790127 20.90277777777778)"/><use xlink:href="#j" transform="matrix(1,0,0,1,3919.5409058432474,3425) translate(108.11728395061728 20.90277777777778)"/><use xlink:href="#k" transform="matrix(1,0,0,1,3919.5409058432474,3425) translate(60.58641975308642 47.56944444444444)"/><path d="M2881 3300h141.68" stroke="#3a414a" fill="none"/><path d="M2881 3300.5h-.53l.03-.5-.02-.5h.53z" stroke="#3a414a" stroke-width=".05" fill="#3a414a"/><path d="M3037.45 3300l-14.27 4.64v-9.28z" stroke="#3a414a" fill="#3a414a"/><path d="M3692.24 3534.04l-.08 1.06-.26 1.06-.42 1.02-.57.94-.7.83-.84.72-.94.57-1 .42-1.08.26-1.06.08h-60.3v-2h60.22l.82-.07.76-.18.73-.3.68-.4.6-.52.5-.6.4-.66.3-.73.2-.76.06-.82v-17h2zm47.76-60.47h-42.72l-.82.07-.76.18-.73.3-.67.4-.6.52-.5.6-.4.66-.3.73-.2.76-.06.8v17.02h-2v-17.1l.08-1.05.26-1.06.42-1 .57-.95.72-.83.82-.7.94-.6 1.02-.4 1.07-.27 1.05-.08h42.8z" stroke="#008a0e" stroke-width=".05" fill="#008a0e"/><path d="M3625 3541h-1.1l.08-1-.1-1h1.13z" fill="#008a0e"/><path d="M3625.03 3541.03h-1.17l.1-1.03-.1-1.03h1.17zm-1.1-2l.08.97-.08.97h1.06v-1.94z" stroke="#008a0e" stroke-width=".05" fill="#008a0e"/><path d="M3755.26 3472.57l-14.26 4.64v-9.26z" fill="#008a0e"/><path d="M3758.5 3472.57l-18.5 6v-12zm-16.5 3.26l10.03-3.26-10.03-3.26z" stroke="#008a0e" stroke-width=".05" fill="#008a0e"/><use xlink:href="#l" transform="matrix(1,0,0,1,3675.9321396132686,3495.618734088581) translate(0 14.222222222222223)"/><path d="M3582.54 3355.67h-56.76l-.82.07-.76.18-.73.3-.67.4-.6.52-.5.6-.4.66-.3.73-.2.76-.06.8v98.8h-2v-98.87l.08-1.05.26-1.07.42-1 .57-.94.72-.84.82-.7.94-.6 1.02-.4 1.07-.26 1.05-.1h56.84zm153.93-6.96l-.08 1.07-.27 1.07-.42 1-.57.95-.7.82-.85.72-.93.57-1.02.43-1.07.26-1.05.07h-123.36v-2h123.3l.8-.06.77-.17.74-.3.67-.4.6-.52.5-.6.42-.66.3-.72.18-.77.07-.82v-81.3h2z" stroke="#e81313" stroke-width=".05" fill="#e81313"/><path d="M3520.74 3460.58l-1-.07-1 .08v-1.1h2z" fill="#e81313"/><path d="M3520.77 3460.6l-1.03-.06-1.02.06v-1.14h2.05zm-2-1.1v1.05l.97-.06.98.05v-1.04z" stroke="#e81313" stroke-width=".05" fill="#e81313"/><path d="M3740.1 3266.34h-9.27l4.64-14.27z" fill="#e81313"/><path d="M3741.48 3267.34h-12.02l6-18.5zm-9.27-2h6.53l-3.26-10.04z" stroke="#e81313" stroke-width=".05" fill="#e81313"/><use xlink:href="#m" transform="matrix(1,0,0,1,3582.540447609155,3344.005579291072) translate(0 14.222222222222223)"/><path d="M3133 3223.75a7.5 7.5 0 0 1 9.37 0l90.63 72.5a4.8 4.8 0 0 1 0 7.5l-90.63 72.5a7.5 7.5 0 0 1-9.37 0l-90.63-72.5a4.8 4.8 0 0 1 0-7.5z" stroke="#1071e5" stroke-width="3" fill="#fff"/><use xlink:href="#n" transform="matrix(1,0,0,1,3042.6851995288207,3225) translate(73.31055555555557 42.99305555555556)"/><use xlink:href="#o" transform="matrix(1,0,0,1,3042.6851995288207,3225) translate(58.37228395061729 72.32638888888889)"/><use xlink:href="#p" transform="matrix(1,0,0,1,3042.6851995288207,3225) translate(42.17783950617284 101.65972222222223)"/><path d="M3138.7 3533.96l.05.82.18.76.3.73.4.67.52.6.6.5.67.4.72.3.76.2.82.06h37.26v2h-37.33l-1.06-.08-1.08-.26-1-.42-.95-.57-.84-.72-.7-.83-.6-.94-.4-1.02-.26-1.06-.1-1.06V3380.4h2zm275.8 5.04v2h-202.9v-2z" stroke="#008a0e" stroke-width=".05" fill="#008a0e"/><path d="M3137.7 3379.4l1-.07v1.1h-2v-1.1z" fill="#008a0e"/><path d="M3137.7 3379.37l1-.07v1.15h-2.04v-1.15zm-1 1.03h1.96v-1.04l-.97.06-1-.06z" stroke="#008a0e" stroke-width=".05" fill="#008a0e"/><path d="M3415.5 3540l.1 1h-1.13v-2h1.12z" fill="#008a0e"/><path d="M3415.53 3540l.1 1.03h-1.18v-2.06h1.17zm-1.03-.97v1.94h1.07l-.1-.97.1-.97z" stroke="#008a0e" stroke-width=".05" fill="#008a0e"/><use xlink:href="#l" transform="matrix(1,0,0,1,3180.9834193199954,3529.3333333333335) translate(0 14.222222222222223)"/><path d="M3138.7 3219.6h-2v-127.78h2zm40.3-234.58h-35.28l-.82.07-.76.17-.72.3-.67.4-.6.52-.5.6-.42.66-.3.72-.18.76-.07.82v80.43h-2v-80.52l.1-1.05.24-1.07.43-1.02.57-.93.7-.83.85-.7.94-.6 1.02-.4 1.07-.26 1.05-.08H3179z" stroke="#e81313" stroke-width=".05" fill="#e81313"/><path d="M3138.7 3220.67l-1-.07-1 .07v-1.1h2z" fill="#e81313"/><path d="M3138.7 3220.7l-1-.07-1.04.07v-1.15h2.05zm-2-1.1v1.04l1-.06.96.06v-1.04z" stroke="#e81313" stroke-width=".05" fill="#e81313"/><path d="M3180 2984.02l.05 1h-1.08v-2h1.08z" fill="#e81313"/><path d="M3180.02 2984.02l.05 1.03h-1.12V2983h1.12zm-1.02-.97v1.95h1.02l-.05-.98.05-.97z" stroke="#e81313" stroke-width=".05" fill="#e81313"/><use xlink:href="#m" transform="matrix(1,0,0,1,3125.8827303930184,3070.489165920419) translate(0 14.222222222222223)"/><path d="M3842.2 3184.17h-26.15v-1h26.16zm295.8 0h-70.2v-1h70.2z" stroke="#4c535d" stroke-width=".05" fill="#4c535d"/><path d="M3816.06 3184.17h-.54l.03-.5-.03-.5h.54z" fill="#4c535d"/><path d="M3816.08 3184.2h-.58l.02-.53-.02-.53h.58zm-.53-1l.02.47-.02.47h.48v-.95z" stroke="#4c535d" stroke-width=".05" fill="#4c535d"/><path d="M4138.5 3184.17h-.5v-1h.5z" fill="#4c535d"/><path d="M4138.52 3184.2h-.56v-1.06h.56zm-.5-1v.94h.45v-.95z" stroke="#4c535d" stroke-width=".05" fill="#4c535d"/><use xlink:href="#q" transform="matrix(1,0,0,1,3842.2134495181667,3173) translate(0 14.222222222222223)"/><use xlink:href="#r" transform="matrix(1,0,0,1,3842.2134495181667,3173) translate(47.25925925925926 14.222222222222223)"/><use xlink:href="#s" transform="matrix(1,0,0,1,3842.2134495181667,3173) translate(68.88888888888889 14.222222222222223)"/><use xlink:href="#t" transform="matrix(1,0,0,1,3842.2134495181667,3173) translate(140.8395061728395 14.222222222222223)"/><use xlink:href="#u" transform="matrix(1,0,0,1,3842.2134495181667,3173) translate(182.22222222222223 14.222222222222223)"/><path d="M3684.77 3125.36a9.73 9.73 0 0 1 8.7-5.36h84a9.73 9.73 0 0 1 8.7 5.36l26.6 52.95a11.94 11.94 0 0 1 0 10.73l-26.6 52.94a9.73 9.73 0 0 1-8.7 5.36h-84a9.73 9.73 0 0 1-8.7-5.36l-26.6-52.94a11.94 11.94 0 0 1 0-10.72z" stroke="#9391ff" stroke-width="3" fill="#fff"/><use xlink:href="#v" transform="matrix(1,0,0,1,3660.4679220980506,3125) translate(41.73339506172839 25.15277777777778)"/><use xlink:href="#w" transform="matrix(1,0,0,1,3660.4679220980506,3125) translate(10.251913580246915 51.81944444444445)"/><use xlink:href="#x" transform="matrix(1,0,0,1,3660.4679220980506,3125) translate(60.74574074074074 51.81944444444445)"/><use xlink:href="#y" transform="matrix(1,0,0,1,3660.4679220980506,3125) translate(36.76425925925926 78.48611111111111)"/><use xlink:href="#z" transform="matrix(1,0,0,1,3660.4679220980506,3125) translate(45.40623456790124 105.1527777777778)"/><path d="M4140 3126a6 6 0 0 1 6-6h248a6 6 0 0 1 6 6v115.33a6 6 0 0 1-6 6h-248a6 6 0 0 1-6-6z" stroke="#54c45e" stroke-width="3" fill="#fff"/><path d="M4166 3120v127.33M4374 3120v127.33" stroke="#54c45e" stroke-width="3" fill="none"/><use xlink:href="#A" transform="matrix(1,0,0,1,4177.5,3125) translate(34.851851851851855 49.22222222222222)"/><use xlink:href="#B" transform="matrix(1,0,0,1,4177.5,3125) translate(90.39506172839506 49.22222222222222)"/><use xlink:href="#C" transform="matrix(1,0,0,1,4177.5,3125) translate(0.9691358024691397 78.55555555555556)"/><use xlink:href="#D" transform="matrix(1,0,0,1,4177.5,3125) translate(91.88888888888889 78.55555555555556)"/><path d="M3209.18 2929.32a10 10 0 0 1 8.82-5.3h84a10 10 0 0 1 8.82 5.3l26.36 49.4a11.25 11.25 0 0 1 0 10.6l-26.36 49.4a10 10 0 0 1-8.82 5.3h-84a10 10 0 0 1-8.82-5.3l-26.36-49.4a11.25 11.25 0 0 1 0-10.6z" stroke="#9391ff" stroke-width="3" fill="#fff"/><use xlink:href="#v" transform="matrix(1,0,0,1,3185,2929.0233882870766) translate(41.73339506172839 41.84027777777778)"/><use xlink:href="#E" transform="matrix(1,0,0,1,3185,2929.0233882870766) translate(7.78277777777779 68.50694444444446)"/><use xlink:href="#F" transform="matrix(1,0,0,1,3185,2929.0233882870766) translate(90.4370987654321 68.50694444444446)"/><path d="M3569.14 2901.75a8.4 8.4 0 0 1 9.76 0l110.24 78.78a4.3 4.3 0 0 1 0 6.98l-110.24 78.8a8.4 8.4 0 0 1-9.76 0l-110.24-78.8a4.3 4.3 0 0 1 0-6.97z" stroke="#1071e5" stroke-width="3" fill="#fff"/><use xlink:href="#G" transform="matrix(1,0,0,1,3459.0226612096776,2903.258556305565) translate(83.55438271604937 43.09027777777778)"/><use xlink:href="#H" transform="matrix(1,0,0,1,3459.0226612096776,2903.258556305565) translate(47.78277777777779 69.75694444444446)"/><use xlink:href="#I" transform="matrix(1,0,0,1,3459.0226612096776,2903.258556305565) translate(130.4370987654321 69.75694444444446)"/><use xlink:href="#J" transform="matrix(1,0,0,1,3459.0226612096776,2903.258556305565) translate(78.64697530864198 96.42361111111111)"/><use xlink:href="#K" transform="matrix(1,0,0,1,3459.0226612096776,2903.258556305565) translate(65.09759259259259 123.0902777777778)"/><path d="M3341.5 2984.02h112.6" stroke="#4c535d" stroke-width="3" fill="none"/><path d="M3341.54 2985.52h-1.64l.04-.25.06-1.25-.06-1.24-.04-.26h1.64zM3455.7 2982.93l-.1 1.1.1 1.1.13.4h-1.77v-3h1.77z" stroke="#4c535d" stroke-width=".05" fill="#4c535d"/><path d="M3860 3546a6 6 0 0 1 6-6h248a6 6 0 0 1 6 6v115.33a6 6 0 0 1-6 6h-248a6 6 0 0 1-6-6z" stroke="#54c45e" stroke-width="3" fill="#fff"/><path d="M3886 3540v127.33M4094 3540v127.33" stroke="#54c45e" stroke-width="3" fill="none"/><use xlink:href="#L" transform="matrix(1,0,0,1,3897.5,3545) translate(15.126543209876544 34.55555555555556)"/><use xlink:href="#M" transform="matrix(1,0,0,1,3897.5,3545) translate(65.37345679012346 34.55555555555556)"/><use xlink:href="#N" transform="matrix(1,0,0,1,3897.5,3545) translate(149.50308641975306 34.55555555555556)"/><use xlink:href="#O" transform="matrix(1,0,0,1,3897.5,3545) translate(1.3765432098765586 63.88888888888889)"/><use xlink:href="#P" transform="matrix(1,0,0,1,3897.5,3545) translate(109.1358024691358 63.88888888888889)"/><use xlink:href="#Q" transform="matrix(1,0,0,1,3897.5,3545) translate(47.074074074074076 93.22222222222223)"/><path d="M3760 3446a6 6 0 0 1 6-6h8a6 6 0 0 1 6 6v148a6 6 0 0 1-6 6h-8a6 6 0 0 1-6-6z" stroke="#4c535d" stroke-width="3"/><path d="M3781.5 3480h59.52a6 6 0 0 0 6-6v-18a6 6 0 0 1 6-6h59.52" stroke="#4c535d" stroke-width="3" fill="none"/><path d="M3781.54 3481.5h-.04v-3h.04zM3914.04 3451.5h-1.54v-3h1.54z" stroke="#4c535d" stroke-width=".05" fill="#4c535d"/><path d="M3783 3520h31a6 6 0 0 1 6 6v71.67a6 6 0 0 0 6 6h31" stroke="#4c535d" stroke-width="3" fill="none"/><path d="M3783.04 3521.5h-1.54v-3h1.54zM3858.5 3605.17h-1.54v-3h1.54z" stroke="#4c535d" stroke-width=".05" fill="#4c535d"/><path d="M3679.35 2814.98h-99.3l-.8.06-.77.18-.73.3-.66.4-.6.52-.52.6-.4.67-.3.73-.2.77-.06.82v77.66h-2v-77.74l.1-1.06.24-1.07.42-1 .58-.94.7-.84.85-.7.94-.58 1.02-.42 1.07-.26 1.05-.08h99.37zm219.65 0h-189.03v-2H3899z" stroke="#008a0e" stroke-width=".05" fill="#008a0e"/><path d="M3575.02 2898.74l-1-.06-1 .06v-1.1h2z" fill="#008a0e"/><path d="M3575.05 2898.77l-1.03-.07-1.02.07v-1.14h2.05zm-2-1.1v1.05l.97-.07.98.07v-1.04z" stroke="#008a0e" stroke-width=".05" fill="#008a0e"/><path fill="#008a0e"/><path stroke="#008a0e" stroke-width=".05" fill="#008a0e"/><g><use xlink:href="#l" transform="matrix(1,0,0,1,3679.351116919619,2803.3095847265645) translate(0 14.222222222222223)"/></g><path d="M3736.47 3117.5h-2v-77.08h2zm-5.9-134.4l1.06.26 1.02.42.93.58.84.7.7.85.6.94.4 1.02.27 1.07.07 1.05v29.1h-2v-29.02l-.07-.82-.18-.76-.3-.72-.4-.67-.52-.6-.6-.52-.66-.4-.73-.3-.75-.2-.82-.06h-36v-2h36.08z" stroke="#e81313" stroke-width=".05" fill="#e81313"/><path d="M3693.47 2985.02h-1.12l.1-1-.1-1h1.12z" fill="#e81313"/><path d="M3693.5 2985.05h-1.18l.1-1.03-.1-1.02h1.17zm-1.13-2l.1.97-.1.98h1.07v-1.95z" stroke="#e81313" stroke-width=".05" fill="#e81313"/><path d="M3736.47 3118.5h-2v-1.03h2z" fill="#e81313"/><path d="M3736.5 3118.53h-2.06v-1.08h2.05zm-2-1.03v.97h1.94v-.97z" stroke="#e81313" stroke-width=".05" fill="#e81313"/><g><use xlink:href="#m" transform="matrix(1,0,0,1,3723.6654529622483,3019.08246355394) translate(0 14.222222222222223)"/></g><path d="M3900 2779.98a6 6 0 0 1 6-6h8a6 6 0 0 1 6 6v148a6 6 0 0 1-6 6h-8a6 6 0 0 1-6-6z" stroke="#4c535d" stroke-width="3"/><path d="M3921.5 2813.98h71.75a6 6 0 0 1 6 6v19.82a6 6 0 0 0 6 6H4077" stroke="#4c535d" stroke-width="3" fill="none"/><path d="M3921.54 2815.48h-.04v-3h.04zM4078.5 2847.3h-1.54v-3h1.54z" stroke="#4c535d" stroke-width=".05" fill="#4c535d"/><path d="M4080 2819.95a6 6 0 0 1 6-6h386.48a6 6 0 0 1 6 6v51.7a6 6 0 0 1-6 6H4086a6 6 0 0 1-6-6z" stroke="#54c45e" stroke-width="3" fill="#fff"/><path d="M4119.85 2813.95v63.7m318.78-63.7v63.7" stroke="#54c45e" stroke-width="3" fill="none"/><g><use xlink:href="#A" transform="matrix(1,0,0,1,4134.810182232176,2818.9496826150835) translate(41.391975308641975 19.555555555555557)"/><use xlink:href="#R" transform="matrix(1,0,0,1,4134.810182232176,2818.9496826150835) translate(96.93518518518518 19.555555555555557)"/><use xlink:href="#S" transform="matrix(1,0,0,1,4134.810182232176,2818.9496826150835) translate(163.4783950617284 19.555555555555557)"/><use xlink:href="#D" transform="matrix(1,0,0,1,4134.810182232176,2818.9496826150835) translate(98.42901234567901 48.88888888888889)"/></g><path d="M3921.5 2893.98h142.25a6 6 0 0 1 6 6v83.67a6 6 0 0 0 6 6h132.64" stroke="#4c535d" stroke-width="3" fill="none"/><path d="M3921.54 2895.48h-.04v-3h.04z" stroke="#4c535d" stroke-width=".05" fill="#4c535d"/><path d="M4216.55 2989.65l-12.9 7.63V2982z" stroke="#4c535d" stroke-width="3" fill="#4c535d"/><path d="M4220 2949.06a6 6 0 0 1 6-6h286.48a6 6 0 0 1 6 6v81.17a6 6 0 0 1-6 6H4226a6 6 0 0 1-6-6z" stroke="#3a414a" fill="#fff"/><g><use xlink:href="#i" transform="matrix(1,0,0,1,4225,2948.0593279260474) translate(11.290123456790155 33.52777777777778)"/><use xlink:href="#T" transform="matrix(1,0,0,1,4225,2948.0593279260474) translate(100.1172839506173 33.52777777777778)"/><use xlink:href="#H" transform="matrix(1,0,0,1,4225,2948.0593279260474) translate(176.53703703703704 33.52777777777778)"/><use xlink:href="#U" transform="matrix(1,0,0,1,4225,2948.0593279260474) translate(259.19135802469134 33.52777777777778)"/><use xlink:href="#V" transform="matrix(1,0,0,1,4225,2948.0593279260474) translate(21.75308641975309 60.19444444444445)"/><use xlink:href="#W" transform="matrix(1,0,0,1,4225,2948.0593279260474) translate(105.58024691358025 60.19444444444445)"/><use xlink:href="#X" transform="matrix(1,0,0,1,4225,2948.0593279260474) translate(190.76543209876544 60.19444444444445)"/></g><defs><path fill="#3a414a" d="M190 0L58-211 59 0H30v-248h39L202-35l-2-213h31V0h-41" id="Y"/><path fill="#3a414a" d="M100-194c63 0 86 42 84 106H49c0 40 14 67 53 68 26 1 43-12 49-29l28 8c-11 28-37 45-77 45C44 4 14-33 15-96c1-61 26-98 85-98zm52 81c6-60-76-77-97-28-3 7-6 17-6 28h103" id="Z"/><path fill="#3a414a" d="M206 0h-36l-40-164L89 0H53L-1-190h32L70-26l43-164h34l41 164 42-164h31" id="aa"/><g id="a"><use transform="matrix(0.06172839506172839,0,0,0.06172839506172839,0,0)" xlink:href="#Y"/><use transform="matrix(0.06172839506172839,0,0,0.06172839506172839,15.987654320987653,0)" xlink:href="#Z"/><use transform="matrix(0.06172839506172839,0,0,0.06172839506172839,28.333333333333332,0)" xlink:href="#aa"/></g><path fill="#3a414a" d="M30-248c87 1 191-15 191 75 0 78-77 80-158 76V0H30v-248zm33 125c57 0 124 11 124-50 0-59-68-47-124-48v98" id="ab"/><path fill="#3a414a" d="M114-163C36-179 61-72 57 0H25l-1-190h30c1 12-1 29 2 39 6-27 23-49 58-41v29" id="ac"/><path fill="#3a414a" d="M100-194c62-1 85 37 85 99 1 63-27 99-86 99S16-35 15-95c0-66 28-99 85-99zM99-20c44 1 53-31 53-75 0-43-8-75-51-75s-53 32-53 75 10 74 51 75" id="ad"/><path fill="#3a414a" d="M85-194c31 0 48 13 60 33l-1-100h32l1 261h-30c-2-10 0-23-3-31C134-8 116 4 85 4 32 4 16-35 15-94c0-66 23-100 70-100zm9 24c-40 0-46 34-46 75 0 40 6 74 45 74 42 0 51-32 51-76 0-42-9-74-50-73" id="ae"/><path fill="#3a414a" d="M84 4C-5 8 30-112 23-190h32v120c0 31 7 50 39 49 72-2 45-101 50-169h31l1 190h-30c-1-10 1-25-2-33-11 22-28 36-60 37" id="af"/><path fill="#3a414a" d="M96-169c-40 0-48 33-48 73s9 75 48 75c24 0 41-14 43-38l32 2c-6 37-31 61-74 61-59 0-76-41-82-99-10-93 101-131 147-64 4 7 5 14 7 22l-32 3c-4-21-16-35-41-35" id="ag"/><path fill="#3a414a" d="M59-47c-2 24 18 29 38 22v24C64 9 27 4 27-40v-127H5v-23h24l9-43h21v43h35v23H59v120" id="ah"/><g id="b"><use transform="matrix(0.06172839506172839,0,0,0.06172839506172839,0,0)" xlink:href="#ab"/><use transform="matrix(0.06172839506172839,0,0,0.06172839506172839,14.814814814814813,0)" xlink:href="#ac"/><use transform="matrix(0.06172839506172839,0,0,0.06172839506172839,22.160493827160494,0)" xlink:href="#ad"/><use transform="matrix(0.06172839506172839,0,0,0.06172839506172839,34.50617283950617,0)" xlink:href="#ae"/><use transform="matrix(0.06172839506172839,0,0,0.06172839506172839,46.85185185185185,0)" xlink:href="#af"/><use transform="matrix(0.06172839506172839,0,0,0.06172839506172839,59.197530864197525,0)" xlink:href="#ag"/><use transform="matrix(0.06172839506172839,0,0,0.06172839506172839,70.30864197530863,0)" xlink:href="#ah"/></g><path fill="#3a414a" d="M33 0v-248h34V0H33" id="ai"/><path fill="#3a414a" d="M117-194c89-4 53 116 60 194h-32v-121c0-31-8-49-39-48C34-167 62-67 57 0H25l-1-190h30c1 10-1 24 2 32 11-22 29-35 61-36" id="aj"/><path fill="#3a414a" d="M101-234c-31-9-42 10-38 44h38v23H63V0H32v-167H5v-23h27c-7-52 17-82 69-68v24" id="ak"/><g id="c"><use transform="matrix(0.06172839506172839,0,0,0.06172839506172839,0,0)" xlink:href="#ai"/><use transform="matrix(0.06172839506172839,0,0,0.06172839506172839,6.172839506172839,0)" xlink:href="#aj"/><use transform="matrix(0.06172839506172839,0,0,0.06172839506172839,18.51851851851852,0)" xlink:href="#ak"/><use transform="matrix(0.06172839506172839,0,0,0.06172839506172839,24.691358024691358,0)" xlink:href="#ad"/></g><path fill="#3a414a" d="M63-220v92h138v28H63V0H30v-248h175v28H63" id="al"/><g id="d"><use transform="matrix(0.06172839506172839,0,0,0.06172839506172839,0,0)" xlink:href="#al"/><use transform="matrix(0.06172839506172839,0,0,0.06172839506172839,13.518518518518517,0)" xlink:href="#ad"/><use transform="matrix(0.06172839506172839,0,0,0.06172839506172839,25.864197530864196,0)" xlink:href="#af"/><use transform="matrix(0.06172839506172839,0,0,0.06172839506172839,38.20987654320987,0)" xlink:href="#aj"/><use transform="matrix(0.06172839506172839,0,0,0.06172839506172839,50.55555555555555,0)" xlink:href="#ae"/></g><g id="e"><use transform="matrix(0.06172839506172839,0,0,0.06172839506172839,0,0)" xlink:href="#ai"/><use transform="matrix(0.06172839506172839,0,0,0.06172839506172839,6.172839506172839,0)" xlink:href="#ak"/></g><path fill="#3a414a" d="M141-36C126-15 110 5 73 4 37 3 15-17 15-53c-1-64 63-63 125-63 3-35-9-54-41-54-24 1-41 7-42 31l-33-3c5-37 33-52 76-52 45 0 72 20 72 64v82c-1 20 7 32 28 27v20c-31 9-61-2-59-35zM48-53c0 20 12 33 32 33 41-3 63-29 60-74-43 2-92-5-92 41" id="am"/><path fill="#3a414a" d="M24 0v-261h32V0H24" id="an"/><path fill="#3a414a" d="M179-190L93 31C79 59 56 82 12 73V49c39 6 53-20 64-50L1-190h34L92-34l54-156h33" id="ao"/><g id="f"><use transform="matrix(0.06172839506172839,0,0,0.06172839506172839,0,0)" xlink:href="#am"/><use transform="matrix(0.06172839506172839,0,0,0.06172839506172839,12.345679012345679,0)" xlink:href="#an"/><use transform="matrix(0.06172839506172839,0,0,0.06172839506172839,17.22222222222222,0)" xlink:href="#ac"/><use transform="matrix(0.06172839506172839,0,0,0.06172839506172839,24.5679012345679,0)" xlink:href="#Z"/><use transform="matrix(0.06172839506172839,0,0,0.06172839506172839,36.913580246913575,0)" xlink:href="#am"/><use transform="matrix(0.06172839506172839,0,0,0.06172839506172839,49.25925925925925,0)" xlink:href="#ae"/><use transform="matrix(0.06172839506172839,0,0,0.06172839506172839,61.60493827160493,0)" xlink:href="#ao"/></g><path fill="#3a414a" d="M24-231v-30h32v30H24zM24 0v-190h32V0H24" id="ap"/><g id="g"><use transform="matrix(0.06172839506172839,0,0,0.06172839506172839,0,0)" xlink:href="#ap"/><use transform="matrix(0.06172839506172839,0,0,0.06172839506172839,4.876543209876543,0)" xlink:href="#aj"/></g><path fill="#3a414a" d="M141 0L90-78 38 0H4l68-98-65-92h35l48 74 47-74h35l-64 92 68 98h-35" id="aq"/><g id="h"><use transform="matrix(0.06172839506172839,0,0,0.06172839506172839,0,0)" xlink:href="#ai"/><use transform="matrix(0.06172839506172839,0,0,0.06172839506172839,6.172839506172839,0)" xlink:href="#aj"/><use transform="matrix(0.06172839506172839,0,0,0.06172839506172839,18.51851851851852,0)" xlink:href="#ae"/><use transform="matrix(0.06172839506172839,0,0,0.06172839506172839,30.864197530864196,0)" xlink:href="#Z"/><use transform="matrix(0.06172839506172839,0,0,0.06172839506172839,43.20987654320987,0)" xlink:href="#aq"/></g><path fill="#3a414a" d="M115-194c55 1 70 41 70 98S169 2 115 4C84 4 66-9 55-30l1 105H24l-1-265h31l2 30c10-21 28-34 59-34zm-8 174c40 0 45-34 45-75s-6-73-45-74c-42 0-51 32-51 76 0 43 10 73 51 73" id="ar"/><path fill="#3a414a" d="M135-143c-3-34-86-38-87 0 15 53 115 12 119 90S17 21 10-45l28-5c4 36 97 45 98 0-10-56-113-15-118-90-4-57 82-63 122-42 12 7 21 19 24 35" id="as"/><g id="i"><use transform="matrix(0.06172839506172839,0,0,0.06172839506172839,0,0)" xlink:href="#ab"/><use transform="matrix(0.06172839506172839,0,0,0.06172839506172839,14.814814814814813,0)" xlink:href="#ac"/><use transform="matrix(0.06172839506172839,0,0,0.06172839506172839,22.160493827160494,0)" xlink:href="#ad"/><use transform="matrix(0.06172839506172839,0,0,0.06172839506172839,34.50617283950617,0)" xlink:href="#ar"/><use transform="matrix(0.06172839506172839,0,0,0.06172839506172839,46.85185185185185,0)" xlink:href="#ad"/><use transform="matrix(0.06172839506172839,0,0,0.06172839506172839,59.197530864197525,0)" xlink:href="#as"/><use transform="matrix(0.06172839506172839,0,0,0.06172839506172839,70.30864197530863,0)" xlink:href="#Z"/></g><path fill="#3a414a" d="M205 0l-28-72H64L36 0H1l101-248h38L239 0h-34zm-38-99l-47-123c-12 45-31 82-46 123h93" id="at"/><path fill="#3a414a" d="M115-194c53 0 69 39 70 98 0 66-23 100-70 100C84 3 66-7 56-30L54 0H23l1-261h32v101c10-23 28-34 59-34zm-8 174c40 0 45-34 45-75 0-40-5-75-45-74-42 0-51 32-51 76 0 43 10 73 51 73" id="au"/><g id="j"><use transform="matrix(0.06172839506172839,0,0,0.06172839506172839,0,0)" xlink:href="#at"/><use transform="matrix(0.06172839506172839,0,0,0.06172839506172839,14.814814814814813,0)" xlink:href="#ah"/><use transform="matrix(0.06172839506172839,0,0,0.06172839506172839,20.98765432098765,0)" xlink:href="#ah"/><use transform="matrix(0.06172839506172839,0,0,0.06172839506172839,27.16049382716049,0)" xlink:href="#ac"/><use transform="matrix(0.06172839506172839,0,0,0.06172839506172839,34.50617283950617,0)" xlink:href="#ap"/><use transform="matrix(0.06172839506172839,0,0,0.06172839506172839,39.382716049382715,0)" xlink:href="#au"/><use transform="matrix(0.06172839506172839,0,0,0.06172839506172839,51.72839506172839,0)" xlink:href="#af"/><use transform="matrix(0.06172839506172839,0,0,0.06172839506172839,64.07407407407408,0)" xlink:href="#ah"/><use transform="matrix(0.06172839506172839,0,0,0.06172839506172839,70.24691358024691,0)" xlink:href="#Z"/></g><path fill="#3a414a" d="M212-179c-10-28-35-45-73-45-59 0-87 40-87 99 0 60 29 101 89 101 43 0 62-24 78-52l27 14C228-24 195 4 139 4 59 4 22-46 18-125c-6-104 99-153 187-111 19 9 31 26 39 46" id="av"/><path fill="#3a414a" d="M106-169C34-169 62-67 57 0H25v-261h32l-1 103c12-21 28-36 61-36 89 0 53 116 60 194h-32v-121c2-32-8-49-39-48" id="aw"/><path fill="#3a414a" d="M177-190C167-65 218 103 67 71c-23-6-38-20-44-43l32-5c15 47 100 32 89-28v-30C133-14 115 1 83 1 29 1 15-40 15-95c0-56 16-97 71-98 29-1 48 16 59 35 1-10 0-23 2-32h30zM94-22c36 0 50-32 50-73 0-42-14-75-50-75-39 0-46 34-46 75s6 73 46 73" id="ax"/><g id="k"><use transform="matrix(0.06172839506172839,0,0,0.06172839506172839,0,0)" xlink:href="#av"/><use transform="matrix(0.06172839506172839,0,0,0.06172839506172839,15.987654320987653,0)" xlink:href="#aw"/><use transform="matrix(0.06172839506172839,0,0,0.06172839506172839,28.333333333333332,0)" xlink:href="#am"/><use transform="matrix(0.06172839506172839,0,0,0.06172839506172839,40.67901234567901,0)" xlink:href="#aj"/><use transform="matrix(0.06172839506172839,0,0,0.06172839506172839,53.02469135802469,0)" xlink:href="#ax"/><use transform="matrix(0.06172839506172839,0,0,0.06172839506172839,65.37037037037037,0)" xlink:href="#Z"/><use transform="matrix(0.06172839506172839,0,0,0.06172839506172839,77.71604938271605,0)" xlink:href="#as"/></g><path fill="#333" d="M146-102V0H94v-102L6-248h54l60 105 60-105h54" id="ay"/><path fill="#333" d="M185-48c-13 30-37 53-82 52C43 2 14-33 14-96s30-98 90-98c62 0 83 45 84 108H66c0 31 8 55 39 56 18 0 30-7 34-22zm-45-69c5-46-57-63-70-21-2 6-4 13-4 21h74" id="az"/><path fill="#333" d="M137-138c1-29-70-34-71-4 15 46 118 7 119 86 1 83-164 76-172 9l43-7c4 19 20 25 44 25 33 8 57-30 24-41C81-84 22-81 20-136c-2-80 154-74 161-7" id="aA"/><g id="l"><use transform="matrix(0.04938271604938272,0,0,0.04938271604938272,0,0)" xlink:href="#ay"/><use transform="matrix(0.04938271604938272,0,0,0.04938271604938272,10.864197530864198,0)" xlink:href="#az"/><use transform="matrix(0.04938271604938272,0,0,0.04938271604938272,20.74074074074074,0)" xlink:href="#aA"/></g><path fill="#333" d="M175 0L67-191c6 58 2 128 3 191H24v-248h59L193-55c-6-58-2-129-3-193h46V0h-61" id="aB"/><path fill="#333" d="M110-194c64 0 96 36 96 99 0 64-35 99-97 99-61 0-95-36-95-99 0-62 34-99 96-99zm-1 164c35 0 45-28 45-65 0-40-10-65-43-65-34 0-45 26-45 65 0 36 10 65 43 65" id="aC"/><g id="m"><use transform="matrix(0.04938271604938272,0,0,0.04938271604938272,0,0)" xlink:href="#aB"/><use transform="matrix(0.04938271604938272,0,0,0.04938271604938272,12.790123456790125,0)" xlink:href="#aC"/></g><path fill="#282c33" d="M197 0v-115H63V0H30v-248h33v105h134v-105h34V0h-34" id="aD"/><path fill="#282c33" d="M141-36C126-15 110 5 73 4 37 3 15-17 15-53c-1-64 63-63 125-63 3-35-9-54-41-54-24 1-41 7-42 31l-33-3c5-37 33-52 76-52 45 0 72 20 72 64v82c-1 20 7 32 28 27v20c-31 9-61-2-59-35zM48-53c0 20 12 33 32 33 41-3 63-29 60-74-43 2-92-5-92 41" id="aE"/><path fill="#282c33" d="M135-143c-3-34-86-38-87 0 15 53 115 12 119 90S17 21 10-45l28-5c4 36 97 45 98 0-10-56-113-15-118-90-4-57 82-63 122-42 12 7 21 19 24 35" id="aF"/><g id="n"><use transform="matrix(0.06790123456790123,0,0,0.06790123456790123,0,0)" xlink:href="#aD"/><use transform="matrix(0.06790123456790123,0,0,0.06790123456790123,17.586419753086417,0)" xlink:href="#aE"/><use transform="matrix(0.06790123456790123,0,0,0.06790123456790123,31.166666666666664,0)" xlink:href="#aF"/></g><path fill="#282c33" d="M84 4C-5 8 30-112 23-190h32v120c0 31 7 50 39 49 72-2 45-101 50-169h31l1 190h-30c-1-10 1-25-2-33-11 22-28 36-60 37" id="aG"/><path fill="#282c33" d="M117-194c89-4 53 116 60 194h-32v-121c0-31-8-49-39-48C34-167 62-67 57 0H25l-1-190h30c1 10-1 24 2 32 11-22 29-35 61-36" id="aH"/><path fill="#282c33" d="M24-231v-30h32v30H24zM24 0v-190h32V0H24" id="aI"/><path fill="#282c33" d="M145-31C134-9 116 4 85 4 32 4 16-35 15-94c0-59 17-99 70-100 32-1 48 14 60 33 0-11-1-24 2-32h30l-1 268h-32zM93-21c41 0 51-33 51-76s-8-73-50-73c-40 0-46 35-46 75s5 74 45 74" id="aJ"/><path fill="#282c33" d="M100-194c63 0 86 42 84 106H49c0 40 14 67 53 68 26 1 43-12 49-29l28 8c-11 28-37 45-77 45C44 4 14-33 15-96c1-61 26-98 85-98zm52 81c6-60-76-77-97-28-3 7-6 17-6 28h103" id="aK"/><g id="o"><use transform="matrix(0.06790123456790123,0,0,0.06790123456790123,0,0)" xlink:href="#aG"/><use transform="matrix(0.06790123456790123,0,0,0.06790123456790123,13.580246913580247,0)" xlink:href="#aH"/><use transform="matrix(0.06790123456790123,0,0,0.06790123456790123,27.160493827160494,0)" xlink:href="#aI"/><use transform="matrix(0.06790123456790123,0,0,0.06790123456790123,32.52469135802469,0)" xlink:href="#aJ"/><use transform="matrix(0.06790123456790123,0,0,0.06790123456790123,46.10493827160494,0)" xlink:href="#aG"/><use transform="matrix(0.06790123456790123,0,0,0.06790123456790123,59.68518518518518,0)" xlink:href="#aK"/></g><path fill="#282c33" d="M85-194c31 0 48 13 60 33l-1-100h32l1 261h-30c-2-10 0-23-3-31C134-8 116 4 85 4 32 4 16-35 15-94c0-66 23-100 70-100zm9 24c-40 0-46 34-46 75 0 40 6 74 45 74 42 0 51-32 51-76 0-42-9-74-50-73" id="aL"/><path fill="#282c33" d="M59-47c-2 24 18 29 38 22v24C64 9 27 4 27-40v-127H5v-23h24l9-43h21v43h35v23H59v120" id="aM"/><path fill="#282c33" d="M101-234c-31-9-42 10-38 44h38v23H63V0H32v-167H5v-23h27c-7-52 17-82 69-68v24" id="aN"/><path fill="#282c33" d="M114-163C36-179 61-72 57 0H25l-1-190h30c1 12-1 29 2 39 6-27 23-49 58-41v29" id="aO"/><path fill="#282c33" d="M103-251c84 0 111 97 45 133-19 10-37 24-39 52H78c0-63 77-55 77-114 0-30-21-42-52-43-32 0-53 17-56 46l-32-2c7-45 34-72 88-72zM77 0v-35h34V0H77" id="aP"/><g id="p"><use transform="matrix(0.06790123456790123,0,0,0.06790123456790123,0,0)" xlink:href="#aI"/><use transform="matrix(0.06790123456790123,0,0,0.06790123456790123,5.364197530864197,0)" xlink:href="#aL"/><use transform="matrix(0.06790123456790123,0,0,0.06790123456790123,18.944444444444443,0)" xlink:href="#aK"/><use transform="matrix(0.06790123456790123,0,0,0.06790123456790123,32.52469135802469,0)" xlink:href="#aH"/><use transform="matrix(0.06790123456790123,0,0,0.06790123456790123,46.10493827160494,0)" xlink:href="#aM"/><use transform="matrix(0.06790123456790123,0,0,0.06790123456790123,52.89506172839506,0)" xlink:href="#aI"/><use transform="matrix(0.06790123456790123,0,0,0.06790123456790123,58.25925925925926,0)" xlink:href="#aN"/><use transform="matrix(0.06790123456790123,0,0,0.06790123456790123,65.04938271604938,0)" xlink:href="#aI"/><use transform="matrix(0.06790123456790123,0,0,0.06790123456790123,70.41358024691358,0)" xlink:href="#aK"/><use transform="matrix(0.06790123456790123,0,0,0.06790123456790123,83.99382716049382,0)" xlink:href="#aO"/><use transform="matrix(0.06790123456790123,0,0,0.06790123456790123,92.07407407407406,0)" xlink:href="#aP"/></g><path fill="#333" d="M135-194c53 0 70 44 70 98 0 56-19 98-73 100-31 1-45-17-59-34 3 33 2 69 2 105H25l-1-265h48c2 10 0 23 3 31 11-24 29-35 60-35zM114-30c33 0 39-31 40-66 0-38-9-64-40-64-56 0-55 130 0 130" id="aQ"/><path fill="#333" d="M85 4C-2 5 27-109 22-190h50c7 57-23 150 33 157 60-5 35-97 40-157h50l1 190h-47c-2-12 1-28-3-38-12 25-28 42-61 42" id="aR"/><path fill="#333" d="M114-157C55-157 80-60 75 0H25v-261h50l-1 109c12-26 28-41 61-42 86-1 58 113 63 194h-50c-7-57 23-157-34-157" id="aS"/><g id="q"><use transform="matrix(0.04938271604938272,0,0,0.04938271604938272,0,0)" xlink:href="#aQ"/><use transform="matrix(0.04938271604938272,0,0,0.04938271604938272,10.814814814814815,0)" xlink:href="#aR"/><use transform="matrix(0.04938271604938272,0,0,0.04938271604938272,21.62962962962963,0)" xlink:href="#aA"/><use transform="matrix(0.04938271604938272,0,0,0.04938271604938272,31.506172839506174,0)" xlink:href="#aS"/></g><path fill="#333" d="M115-3C79 11 28 4 28-45v-112H4v-33h27l15-45h31v45h36v33H77v99c-1 23 16 31 38 25v30" id="aT"/><g id="r"><use transform="matrix(0.04938271604938272,0,0,0.04938271604938272,0,0)" xlink:href="#aT"/><use transform="matrix(0.04938271604938272,0,0,0.04938271604938272,5.8765432098765435,0)" xlink:href="#aC"/></g><path fill="#333" d="M25-224v-37h50v37H25zM25 0v-190h50V0H25" id="aU"/><path fill="#333" d="M135-194c87-1 58 113 63 194h-50c-7-57 23-157-34-157-59 0-34 97-39 157H25l-1-190h47c2 12-1 28 3 38 12-26 28-41 61-42" id="aV"/><path fill="#333" d="M88-194c31-1 46 15 58 34l-1-101h50l1 261h-48c-2-10 0-23-3-31C134-8 116 4 84 4 32 4 16-41 15-95c0-56 19-97 73-99zm17 164c33 0 40-30 41-66 1-37-9-64-41-64s-38 30-39 65c0 43 13 65 39 65" id="aW"/><path fill="#333" d="M144 0l-44-69L55 0H2l70-98-66-92h53l41 62 40-62h54l-67 91 71 99h-54" id="aX"/><g id="s"><use transform="matrix(0.04938271604938272,0,0,0.04938271604938272,0,0)" xlink:href="#aU"/><use transform="matrix(0.04938271604938272,0,0,0.04938271604938272,4.938271604938272,0)" xlink:href="#aV"/><use transform="matrix(0.04938271604938272,0,0,0.04938271604938272,15.753086419753087,0)" xlink:href="#aW"/><use transform="matrix(0.04938271604938272,0,0,0.04938271604938272,26.567901234567902,0)" xlink:href="#az"/><use transform="matrix(0.04938271604938272,0,0,0.04938271604938272,36.44444444444444,0)" xlink:href="#aX"/><use transform="matrix(0.04938271604938272,0,0,0.04938271604938272,46.32098765432099,0)" xlink:href="#az"/><use transform="matrix(0.04938271604938272,0,0,0.04938271604938272,56.19753086419754,0)" xlink:href="#aW"/></g><path fill="#333" d="M133-34C117-15 103 5 69 4 32 3 11-16 11-54c-1-60 55-63 116-61 1-26-3-47-28-47-18 1-26 9-28 27l-52-2c7-38 36-58 82-57s74 22 75 68l1 82c-1 14 12 18 25 15v27c-30 8-71 5-69-32zm-48 3c29 0 43-24 42-57-32 0-66-3-65 30 0 17 8 27 23 27" id="aY"/><g id="t"><use transform="matrix(0.04938271604938272,0,0,0.04938271604938272,0,0)" xlink:href="#aW"/><use transform="matrix(0.04938271604938272,0,0,0.04938271604938272,10.814814814814815,0)" xlink:href="#aY"/><use transform="matrix(0.04938271604938272,0,0,0.04938271604938272,20.69135802469136,0)" xlink:href="#aT"/><use transform="matrix(0.04938271604938272,0,0,0.04938271604938272,26.567901234567902,0)" xlink:href="#aY"/></g><path fill="#333" d="M135-150c-39-12-60 13-60 57V0H25l-1-190h47c2 13-1 29 3 40 6-28 27-53 61-41v41" id="aZ"/><g id="u"><use transform="matrix(0.04938271604938272,0,0,0.04938271604938272,0,0)" xlink:href="#aA"/><use transform="matrix(0.04938271604938272,0,0,0.04938271604938272,9.876543209876544,0)" xlink:href="#aT"/><use transform="matrix(0.04938271604938272,0,0,0.04938271604938272,15.753086419753087,0)" xlink:href="#aC"/><use transform="matrix(0.04938271604938272,0,0,0.04938271604938272,26.567901234567902,0)" xlink:href="#aZ"/><use transform="matrix(0.04938271604938272,0,0,0.04938271604938272,33.48148148148149,0)" xlink:href="#az"/></g><path d="M212-179c-10-28-35-45-73-45-59 0-87 40-87 99 0 60 29 101 89 101 43 0 62-24 78-52l27 14C228-24 195 4 139 4 59 4 22-46 18-125c-6-104 99-153 187-111 19 9 31 26 39 46" id="ba"/><path d="M114-163C36-179 61-72 57 0H25l-1-190h30c1 12-1 29 2 39 6-27 23-49 58-41v29" id="bb"/><path d="M100-194c63 0 86 42 84 106H49c0 40 14 67 53 68 26 1 43-12 49-29l28 8c-11 28-37 45-77 45C44 4 14-33 15-96c1-61 26-98 85-98zm52 81c6-60-76-77-97-28-3 7-6 17-6 28h103" id="bc"/><path d="M141-36C126-15 110 5 73 4 37 3 15-17 15-53c-1-64 63-63 125-63 3-35-9-54-41-54-24 1-41 7-42 31l-33-3c5-37 33-52 76-52 45 0 72 20 72 64v82c-1 20 7 32 28 27v20c-31 9-61-2-59-35zM48-53c0 20 12 33 32 33 41-3 63-29 60-74-43 2-92-5-92 41" id="bd"/><path d="M59-47c-2 24 18 29 38 22v24C64 9 27 4 27-40v-127H5v-23h24l9-43h21v43h35v23H59v120" id="be"/><g id="v"><use transform="matrix(0.06172839506172839,0,0,0.06172839506172839,0,0)" xlink:href="#ba"/><use transform="matrix(0.06172839506172839,0,0,0.06172839506172839,15.987654320987653,0)" xlink:href="#bb"/><use transform="matrix(0.06172839506172839,0,0,0.06172839506172839,23.333333333333332,0)" xlink:href="#bc"/><use transform="matrix(0.06172839506172839,0,0,0.06172839506172839,35.67901234567901,0)" xlink:href="#bd"/><use transform="matrix(0.06172839506172839,0,0,0.06172839506172839,48.02469135802469,0)" xlink:href="#be"/><use transform="matrix(0.06172839506172839,0,0,0.06172839506172839,54.19753086419753,0)" xlink:href="#bc"/></g><path d="M190 0L58-211 59 0H30v-248h39L202-35l-2-213h31V0h-41" id="bf"/><path d="M206 0h-36l-40-164L89 0H53L-1-190h32L70-26l43-164h34l41 164 42-164h31" id="bg"/><g id="w"><use transform="matrix(0.06172839506172839,0,0,0.06172839506172839,0,0)" xlink:href="#bf"/><use transform="matrix(0.06172839506172839,0,0,0.06172839506172839,15.987654320987653,0)" xlink:href="#bc"/><use transform="matrix(0.06172839506172839,0,0,0.06172839506172839,28.333333333333332,0)" xlink:href="#bg"/></g><path d="M33 0v-248h34V0H33" id="bh"/><path d="M117-194c89-4 53 116 60 194h-32v-121c0-31-8-49-39-48C34-167 62-67 57 0H25l-1-190h30c1 10-1 24 2 32 11-22 29-35 61-36" id="bi"/><path d="M85-194c31 0 48 13 60 33l-1-100h32l1 261h-30c-2-10 0-23-3-31C134-8 116 4 85 4 32 4 16-35 15-94c0-66 23-100 70-100zm9 24c-40 0-46 34-46 75 0 40 6 74 45 74 42 0 51-32 51-76 0-42-9-74-50-73" id="bj"/><path d="M141 0L90-78 38 0H4l68-98-65-92h35l48 74 47-74h35l-64 92 68 98h-35" id="bk"/><g id="x"><use transform="matrix(0.06172839506172839,0,0,0.06172839506172839,0,0)" xlink:href="#bh"/><use transform="matrix(0.06172839506172839,0,0,0.06172839506172839,6.172839506172839,0)" xlink:href="#bi"/><use transform="matrix(0.06172839506172839,0,0,0.06172839506172839,18.51851851851852,0)" xlink:href="#bj"/><use transform="matrix(0.06172839506172839,0,0,0.06172839506172839,30.864197530864196,0)" xlink:href="#bc"/><use transform="matrix(0.06172839506172839,0,0,0.06172839506172839,43.20987654320987,0)" xlink:href="#bk"/><use transform="matrix(0.06172839506172839,0,0,0.06172839506172839,54.32098765432099,0)" xlink:href="#bc"/><use transform="matrix(0.06172839506172839,0,0,0.06172839506172839,66.66666666666667,0)" xlink:href="#bj"/></g><path d="M30-248c87 1 191-15 191 75 0 78-77 80-158 76V0H30v-248zm33 125c57 0 124 11 124-50 0-59-68-47-124-48v98" id="bl"/><path d="M100-194c62-1 85 37 85 99 1 63-27 99-86 99S16-35 15-95c0-66 28-99 85-99zM99-20c44 1 53-31 53-75 0-43-8-75-51-75s-53 32-53 75 10 74 51 75" id="bm"/><path d="M84 4C-5 8 30-112 23-190h32v120c0 31 7 50 39 49 72-2 45-101 50-169h31l1 190h-30c-1-10 1-25-2-33-11 22-28 36-60 37" id="bn"/><path d="M96-169c-40 0-48 33-48 73s9 75 48 75c24 0 41-14 43-38l32 2c-6 37-31 61-74 61-59 0-76-41-82-99-10-93 101-131 147-64 4 7 5 14 7 22l-32 3c-4-21-16-35-41-35" id="bo"/><g id="y"><use transform="matrix(0.06172839506172839,0,0,0.06172839506172839,0,0)" xlink:href="#bl"/><use transform="matrix(0.06172839506172839,0,0,0.06172839506172839,14.814814814814813,0)" xlink:href="#bb"/><use transform="matrix(0.06172839506172839,0,0,0.06172839506172839,22.160493827160494,0)" xlink:href="#bm"/><use transform="matrix(0.06172839506172839,0,0,0.06172839506172839,34.50617283950617,0)" xlink:href="#bj"/><use transform="matrix(0.06172839506172839,0,0,0.06172839506172839,46.85185185185185,0)" xlink:href="#bn"/><use transform="matrix(0.06172839506172839,0,0,0.06172839506172839,59.197530864197525,0)" xlink:href="#bo"/><use transform="matrix(0.06172839506172839,0,0,0.06172839506172839,70.30864197530863,0)" xlink:href="#be"/></g><path d="M115-194c53 0 69 39 70 98 0 66-23 100-70 100C84 3 66-7 56-30L54 0H23l1-261h32v101c10-23 28-34 59-34zm-8 174c40 0 45-34 45-75 0-40-5-75-45-74-42 0-51 32-51 76 0 43 10 73 51 73" id="bp"/><path d="M24-231v-30h32v30H24zM-9 49c24 4 33-6 33-30v-209h32V24c2 40-23 58-65 49V49" id="bq"/><g id="z"><use transform="matrix(0.06172839506172839,0,0,0.06172839506172839,0,0)" xlink:href="#bm"/><use transform="matrix(0.06172839506172839,0,0,0.06172839506172839,12.345679012345679,0)" xlink:href="#bp"/><use transform="matrix(0.06172839506172839,0,0,0.06172839506172839,24.691358024691358,0)" xlink:href="#bq"/><use transform="matrix(0.06172839506172839,0,0,0.06172839506172839,29.5679012345679,0)" xlink:href="#bc"/><use transform="matrix(0.06172839506172839,0,0,0.06172839506172839,41.913580246913575,0)" xlink:href="#bo"/><use transform="matrix(0.06172839506172839,0,0,0.06172839506172839,53.02469135802468,0)" xlink:href="#be"/></g><g id="A"><use transform="matrix(0.06790123456790123,0,0,0.06790123456790123,0,0)" xlink:href="#Y"/><use transform="matrix(0.06790123456790123,0,0,0.06790123456790123,17.586419753086417,0)" xlink:href="#Z"/><use transform="matrix(0.06790123456790123,0,0,0.06790123456790123,31.166666666666664,0)" xlink:href="#aa"/></g><g id="B"><use transform="matrix(0.06790123456790123,0,0,0.06790123456790123,0,0)" xlink:href="#ai"/><use transform="matrix(0.06790123456790123,0,0,0.06790123456790123,6.790123456790123,0)" xlink:href="#aj"/><use transform="matrix(0.06790123456790123,0,0,0.06790123456790123,20.37037037037037,0)" xlink:href="#ae"/><use transform="matrix(0.06790123456790123,0,0,0.06790123456790123,33.95061728395062,0)" xlink:href="#Z"/><use transform="matrix(0.06790123456790123,0,0,0.06790123456790123,47.53086419753087,0)" xlink:href="#aq"/></g><g id="C"><use transform="matrix(0.06790123456790123,0,0,0.06790123456790123,0,0)" xlink:href="#ab"/><use transform="matrix(0.06790123456790123,0,0,0.06790123456790123,16.296296296296294,0)" xlink:href="#ac"/><use transform="matrix(0.06790123456790123,0,0,0.06790123456790123,24.37654320987654,0)" xlink:href="#ad"/><use transform="matrix(0.06790123456790123,0,0,0.06790123456790123,37.95679012345679,0)" xlink:href="#ae"/><use transform="matrix(0.06790123456790123,0,0,0.06790123456790123,51.53703703703703,0)" xlink:href="#af"/><use transform="matrix(0.06790123456790123,0,0,0.06790123456790123,65.11728395061728,0)" xlink:href="#ag"/><use transform="matrix(0.06790123456790123,0,0,0.06790123456790123,77.33950617283949,0)" xlink:href="#ah"/></g><g id="D"><use transform="matrix(0.06790123456790123,0,0,0.06790123456790123,0,0)" xlink:href="#av"/><use transform="matrix(0.06790123456790123,0,0,0.06790123456790123,17.586419753086417,0)" xlink:href="#ac"/><use transform="matrix(0.06790123456790123,0,0,0.06790123456790123,25.666666666666664,0)" xlink:href="#Z"/><use transform="matrix(0.06790123456790123,0,0,0.06790123456790123,39.24691358024691,0)" xlink:href="#am"/><use transform="matrix(0.06790123456790123,0,0,0.06790123456790123,52.82716049382716,0)" xlink:href="#ah"/><use transform="matrix(0.06790123456790123,0,0,0.06790123456790123,59.61728395061728,0)" xlink:href="#ap"/><use transform="matrix(0.06790123456790123,0,0,0.06790123456790123,64.98148148148148,0)" xlink:href="#ad"/><use transform="matrix(0.06790123456790123,0,0,0.06790123456790123,78.56172839506172,0)" xlink:href="#aj"/></g><g id="E"><use transform="matrix(0.06172839506172839,0,0,0.06172839506172839,0,0)" xlink:href="#bl"/><use transform="matrix(0.06172839506172839,0,0,0.06172839506172839,14.814814814814813,0)" xlink:href="#bb"/><use transform="matrix(0.06172839506172839,0,0,0.06172839506172839,22.160493827160494,0)" xlink:href="#bm"/><use transform="matrix(0.06172839506172839,0,0,0.06172839506172839,34.50617283950617,0)" xlink:href="#bj"/><use transform="matrix(0.06172839506172839,0,0,0.06172839506172839,46.85185185185185,0)" xlink:href="#bn"/><use transform="matrix(0.06172839506172839,0,0,0.06172839506172839,59.197530864197525,0)" xlink:href="#bo"/><use transform="matrix(0.06172839506172839,0,0,0.06172839506172839,70.30864197530863,0)" xlink:href="#be"/></g><path d="M197 0v-115H63V0H30v-248h33v105h134v-105h34V0h-34" id="br"/><path d="M135-143c-3-34-86-38-87 0 15 53 115 12 119 90S17 21 10-45l28-5c4 36 97 45 98 0-10-56-113-15-118-90-4-57 82-63 122-42 12 7 21 19 24 35" id="bs"/><path d="M106-169C34-169 62-67 57 0H25v-261h32l-1 103c12-21 28-36 61-36 89 0 53 116 60 194h-32v-121c2-32-8-49-39-48" id="bt"/><g id="F"><use transform="matrix(0.06172839506172839,0,0,0.06172839506172839,0,0)" xlink:href="#br"/><use transform="matrix(0.06172839506172839,0,0,0.06172839506172839,15.987654320987653,0)" xlink:href="#bd"/><use transform="matrix(0.06172839506172839,0,0,0.06172839506172839,28.333333333333332,0)" xlink:href="#bs"/><use transform="matrix(0.06172839506172839,0,0,0.06172839506172839,39.44444444444444,0)" xlink:href="#bt"/></g><path fill="#3a414a" d="M143 0L79-87 56-68V0H24v-261h32v163l83-92h37l-77 82L181 0h-38" id="bu"/><g id="G"><use transform="matrix(0.06172839506172839,0,0,0.06172839506172839,0,0)" xlink:href="#av"/><use transform="matrix(0.06172839506172839,0,0,0.06172839506172839,15.987654320987653,0)" xlink:href="#aw"/><use transform="matrix(0.06172839506172839,0,0,0.06172839506172839,28.333333333333332,0)" xlink:href="#Z"/><use transform="matrix(0.06172839506172839,0,0,0.06172839506172839,40.67901234567901,0)" xlink:href="#ag"/><use transform="matrix(0.06172839506172839,0,0,0.06172839506172839,51.79012345679013,0)" xlink:href="#bu"/></g><g id="H"><use transform="matrix(0.06172839506172839,0,0,0.06172839506172839,0,0)" xlink:href="#ab"/><use transform="matrix(0.06172839506172839,0,0,0.06172839506172839,14.814814814814813,0)" xlink:href="#ac"/><use transform="matrix(0.06172839506172839,0,0,0.06172839506172839,22.160493827160494,0)" xlink:href="#ad"/><use transform="matrix(0.06172839506172839,0,0,0.06172839506172839,34.50617283950617,0)" xlink:href="#ae"/><use transform="matrix(0.06172839506172839,0,0,0.06172839506172839,46.85185185185185,0)" xlink:href="#af"/><use transform="matrix(0.06172839506172839,0,0,0.06172839506172839,59.197530864197525,0)" xlink:href="#ag"/><use transform="matrix(0.06172839506172839,0,0,0.06172839506172839,70.30864197530863,0)" xlink:href="#ah"/></g><path fill="#3a414a" d="M197 0v-115H63V0H30v-248h33v105h134v-105h34V0h-34" id="bv"/><g id="I"><use transform="matrix(0.06172839506172839,0,0,0.06172839506172839,0,0)" xlink:href="#bv"/><use transform="matrix(0.06172839506172839,0,0,0.06172839506172839,15.987654320987653,0)" xlink:href="#am"/><use transform="matrix(0.06172839506172839,0,0,0.06172839506172839,28.333333333333332,0)" xlink:href="#as"/><use transform="matrix(0.06172839506172839,0,0,0.06172839506172839,39.44444444444444,0)" xlink:href="#aw"/></g><g id="J"><use transform="matrix(0.06172839506172839,0,0,0.06172839506172839,0,0)" xlink:href="#am"/><use transform="matrix(0.06172839506172839,0,0,0.06172839506172839,12.345679012345679,0)" xlink:href="#an"/><use transform="matrix(0.06172839506172839,0,0,0.06172839506172839,17.22222222222222,0)" xlink:href="#ac"/><use transform="matrix(0.06172839506172839,0,0,0.06172839506172839,24.5679012345679,0)" xlink:href="#Z"/><use transform="matrix(0.06172839506172839,0,0,0.06172839506172839,36.913580246913575,0)" xlink:href="#am"/><use transform="matrix(0.06172839506172839,0,0,0.06172839506172839,49.25925925925925,0)" xlink:href="#ae"/><use transform="matrix(0.06172839506172839,0,0,0.06172839506172839,61.60493827160493,0)" xlink:href="#ao"/></g><path fill="#3a414a" d="M108 0H70L1-190h34L89-25l56-165h34" id="bw"/><path fill="#3a414a" d="M103-251c84 0 111 97 45 133-19 10-37 24-39 52H78c0-63 77-55 77-114 0-30-21-42-52-43-32 0-53 17-56 46l-32-2c7-45 34-72 88-72zM77 0v-35h34V0H77" id="bx"/><g id="K"><use transform="matrix(0.06172839506172839,0,0,0.06172839506172839,0,0)" xlink:href="#am"/><use transform="matrix(0.06172839506172839,0,0,0.06172839506172839,12.345679012345679,0)" xlink:href="#bw"/><use transform="matrix(0.06172839506172839,0,0,0.06172839506172839,23.45679012345679,0)" xlink:href="#am"/><use transform="matrix(0.06172839506172839,0,0,0.06172839506172839,35.80246913580247,0)" xlink:href="#ap"/><use transform="matrix(0.06172839506172839,0,0,0.06172839506172839,40.67901234567901,0)" xlink:href="#an"/><use transform="matrix(0.06172839506172839,0,0,0.06172839506172839,45.55555555555556,0)" xlink:href="#am"/><use transform="matrix(0.06172839506172839,0,0,0.06172839506172839,57.901234567901234,0)" xlink:href="#au"/><use transform="matrix(0.06172839506172839,0,0,0.06172839506172839,70.24691358024691,0)" xlink:href="#an"/><use transform="matrix(0.06172839506172839,0,0,0.06172839506172839,75.12345679012346,0)" xlink:href="#Z"/><use transform="matrix(0.06172839506172839,0,0,0.06172839506172839,87.46913580246914,0)" xlink:href="#bx"/></g><g id="L"><use transform="matrix(0.06790123456790123,0,0,0.06790123456790123,0,0)" xlink:href="#at"/><use transform="matrix(0.06790123456790123,0,0,0.06790123456790123,16.296296296296294,0)" xlink:href="#ae"/><use transform="matrix(0.06790123456790123,0,0,0.06790123456790123,29.87654320987654,0)" xlink:href="#ae"/></g><path fill="#3a414a" d="M137 0h-34L2-248h35l83 218 83-218h36" id="by"/><g id="M"><use transform="matrix(0.06790123456790123,0,0,0.06790123456790123,0,0)" xlink:href="#by"/><use transform="matrix(0.06790123456790123,0,0,0.06790123456790123,14.938271604938269,0)" xlink:href="#Z"/><use transform="matrix(0.06790123456790123,0,0,0.06790123456790123,28.518518518518515,0)" xlink:href="#aj"/><use transform="matrix(0.06790123456790123,0,0,0.06790123456790123,42.09876543209876,0)" xlink:href="#ae"/><use transform="matrix(0.06790123456790123,0,0,0.06790123456790123,55.67901234567901,0)" xlink:href="#ad"/><use transform="matrix(0.06790123456790123,0,0,0.06790123456790123,69.25925925925925,0)" xlink:href="#ac"/></g><g id="N"><use transform="matrix(0.06790123456790123,0,0,0.06790123456790123,0,0)" xlink:href="#ah"/><use transform="matrix(0.06790123456790123,0,0,0.06790123456790123,6.790123456790123,0)" xlink:href="#ad"/></g><path fill="#3a414a" d="M47-170H22l-4-78h33" id="bz"/><g id="O"><use transform="matrix(0.06790123456790123,0,0,0.06790123456790123,0,0)" xlink:href="#ab"/><use transform="matrix(0.06790123456790123,0,0,0.06790123456790123,16.296296296296294,0)" xlink:href="#ac"/><use transform="matrix(0.06790123456790123,0,0,0.06790123456790123,24.37654320987654,0)" xlink:href="#ad"/><use transform="matrix(0.06790123456790123,0,0,0.06790123456790123,37.95679012345679,0)" xlink:href="#ae"/><use transform="matrix(0.06790123456790123,0,0,0.06790123456790123,51.53703703703703,0)" xlink:href="#af"/><use transform="matrix(0.06790123456790123,0,0,0.06790123456790123,65.11728395061728,0)" xlink:href="#ag"/><use transform="matrix(0.06790123456790123,0,0,0.06790123456790123,77.33950617283949,0)" xlink:href="#ah"/><use transform="matrix(0.06790123456790123,0,0,0.06790123456790123,84.12962962962962,0)" xlink:href="#bz"/><use transform="matrix(0.06790123456790123,0,0,0.06790123456790123,88.7469135802469,0)" xlink:href="#as"/></g><path fill="#3a414a" d="M185-189c-5-48-123-54-124 2 14 75 158 14 163 119 3 78-121 87-175 55-17-10-28-26-33-46l33-7c5 56 141 63 141-1 0-78-155-14-162-118-5-82 145-84 179-34 5 7 8 16 11 25" id="bA"/><g id="P"><use transform="matrix(0.06790123456790123,0,0,0.06790123456790123,0,0)" xlink:href="#bA"/><use transform="matrix(0.06790123456790123,0,0,0.06790123456790123,16.296296296296294,0)" xlink:href="#Z"/><use transform="matrix(0.06790123456790123,0,0,0.06790123456790123,29.87654320987654,0)" xlink:href="#an"/><use transform="matrix(0.06790123456790123,0,0,0.06790123456790123,35.24074074074074,0)" xlink:href="#an"/><use transform="matrix(0.06790123456790123,0,0,0.06790123456790123,40.60493827160494,0)" xlink:href="#Z"/><use transform="matrix(0.06790123456790123,0,0,0.06790123456790123,54.18518518518518,0)" xlink:href="#ac"/><use transform="matrix(0.06790123456790123,0,0,0.06790123456790123,62.26543209876543,0)" xlink:href="#as"/></g><g id="Q"><use transform="matrix(0.06790123456790123,0,0,0.06790123456790123,0,0)" xlink:href="#at"/><use transform="matrix(0.06790123456790123,0,0,0.06790123456790123,16.296296296296294,0)" xlink:href="#ah"/><use transform="matrix(0.06790123456790123,0,0,0.06790123456790123,23.086419753086417,0)" xlink:href="#ah"/><use transform="matrix(0.06790123456790123,0,0,0.06790123456790123,29.87654320987654,0)" xlink:href="#ac"/><use transform="matrix(0.06790123456790123,0,0,0.06790123456790123,37.95679012345679,0)" xlink:href="#ap"/><use transform="matrix(0.06790123456790123,0,0,0.06790123456790123,43.32098765432098,0)" xlink:href="#au"/><use transform="matrix(0.06790123456790123,0,0,0.06790123456790123,56.90123456790123,0)" xlink:href="#af"/><use transform="matrix(0.06790123456790123,0,0,0.06790123456790123,70.48148148148147,0)" xlink:href="#ah"/><use transform="matrix(0.06790123456790123,0,0,0.06790123456790123,77.2716049382716,0)" xlink:href="#Z"/></g><g id="R"><use transform="matrix(0.06790123456790123,0,0,0.06790123456790123,0,0)" xlink:href="#ai"/><use transform="matrix(0.06790123456790123,0,0,0.06790123456790123,6.790123456790123,0)" xlink:href="#aj"/><use transform="matrix(0.06790123456790123,0,0,0.06790123456790123,20.37037037037037,0)" xlink:href="#ae"/><use transform="matrix(0.06790123456790123,0,0,0.06790123456790123,33.95061728395062,0)" xlink:href="#Z"/><use transform="matrix(0.06790123456790123,0,0,0.06790123456790123,47.53086419753087,0)" xlink:href="#aq"/></g><g id="S"><use transform="matrix(0.06790123456790123,0,0,0.06790123456790123,0,0)" xlink:href="#ab"/><use transform="matrix(0.06790123456790123,0,0,0.06790123456790123,16.296296296296294,0)" xlink:href="#ac"/><use transform="matrix(0.06790123456790123,0,0,0.06790123456790123,24.37654320987654,0)" xlink:href="#ad"/><use transform="matrix(0.06790123456790123,0,0,0.06790123456790123,37.95679012345679,0)" xlink:href="#ae"/><use transform="matrix(0.06790123456790123,0,0,0.06790123456790123,51.53703703703703,0)" xlink:href="#af"/><use transform="matrix(0.06790123456790123,0,0,0.06790123456790123,65.11728395061728,0)" xlink:href="#ag"/><use transform="matrix(0.06790123456790123,0,0,0.06790123456790123,77.33950617283949,0)" xlink:href="#ah"/></g><path fill="#3a414a" d="M30 0v-248h33v221h125V0H30" id="bB"/><g id="T"><use transform="matrix(0.06172839506172839,0,0,0.06172839506172839,0,0)" xlink:href="#bB"/><use transform="matrix(0.06172839506172839,0,0,0.06172839506172839,12.345679012345679,0)" xlink:href="#ap"/><use transform="matrix(0.06172839506172839,0,0,0.06172839506172839,17.22222222222222,0)" xlink:href="#aj"/><use transform="matrix(0.06172839506172839,0,0,0.06172839506172839,29.5679012345679,0)" xlink:href="#bu"/><use transform="matrix(0.06172839506172839,0,0,0.06172839506172839,40.67901234567901,0)" xlink:href="#ap"/><use transform="matrix(0.06172839506172839,0,0,0.06172839506172839,45.55555555555556,0)" xlink:href="#aj"/><use transform="matrix(0.06172839506172839,0,0,0.06172839506172839,57.901234567901234,0)" xlink:href="#ax"/></g><g id="U"><use transform="matrix(0.06172839506172839,0,0,0.06172839506172839,0,0)" xlink:href="#ah"/><use transform="matrix(0.06172839506172839,0,0,0.06172839506172839,6.172839506172839,0)" xlink:href="#ad"/></g><path fill="#3a414a" d="M30 0v-248h187v28H63v79h144v27H63v87h162V0H30" id="bC"/><g id="V"><use transform="matrix(0.06172839506172839,0,0,0.06172839506172839,0,0)" xlink:href="#bC"/><use transform="matrix(0.06172839506172839,0,0,0.06172839506172839,14.814814814814813,0)" xlink:href="#aq"/><use transform="matrix(0.06172839506172839,0,0,0.06172839506172839,25.925925925925924,0)" xlink:href="#ap"/><use transform="matrix(0.06172839506172839,0,0,0.06172839506172839,30.80246913580247,0)" xlink:href="#as"/><use transform="matrix(0.06172839506172839,0,0,0.06172839506172839,41.91358024691358,0)" xlink:href="#ah"/><use transform="matrix(0.06172839506172839,0,0,0.06172839506172839,48.086419753086425,0)" xlink:href="#ap"/><use transform="matrix(0.06172839506172839,0,0,0.06172839506172839,52.96296296296297,0)" xlink:href="#aj"/><use transform="matrix(0.06172839506172839,0,0,0.06172839506172839,65.30864197530865,0)" xlink:href="#ax"/></g><g id="W"><use transform="matrix(0.06172839506172839,0,0,0.06172839506172839,0,0)" xlink:href="#ai"/><use transform="matrix(0.06172839506172839,0,0,0.06172839506172839,6.172839506172839,0)" xlink:href="#aj"/><use transform="matrix(0.06172839506172839,0,0,0.06172839506172839,18.51851851851852,0)" xlink:href="#ae"/><use transform="matrix(0.06172839506172839,0,0,0.06172839506172839,30.864197530864196,0)" xlink:href="#Z"/><use transform="matrix(0.06172839506172839,0,0,0.06172839506172839,43.20987654320987,0)" xlink:href="#aq"/><use transform="matrix(0.06172839506172839,0,0,0.06172839506172839,54.32098765432099,0)" xlink:href="#Z"/><use transform="matrix(0.06172839506172839,0,0,0.06172839506172839,66.66666666666667,0)" xlink:href="#ae"/></g><g id="X"><use transform="matrix(0.06172839506172839,0,0,0.06172839506172839,0,0)" xlink:href="#ab"/><use transform="matrix(0.06172839506172839,0,0,0.06172839506172839,14.814814814814813,0)" xlink:href="#ac"/><use transform="matrix(0.06172839506172839,0,0,0.06172839506172839,22.160493827160494,0)" xlink:href="#ad"/><use transform="matrix(0.06172839506172839,0,0,0.06172839506172839,34.50617283950617,0)" xlink:href="#ae"/><use transform="matrix(0.06172839506172839,0,0,0.06172839506172839,46.85185185185185,0)" xlink:href="#af"/><use transform="matrix(0.06172839506172839,0,0,0.06172839506172839,59.197530864197525,0)" xlink:href="#ag"/><use transform="matrix(0.06172839506172839,0,0,0.06172839506172839,70.30864197530863,0)" xlink:href="#ah"/></g></defs></g></svg>