<svg xmlns="http://www.w3.org/2000/svg" xmlns:xlink="http://www.w3.org/1999/xlink" xmlns:lucid="lucid" width="1608.8" height="1278.02"><g transform="translate(-1327.6526656343187 -22.47954689978093)" lucid:page-tab-id="m-5o7ONTd-nK"><path d="M1328.15 28.98a6 6 0 0 1 6-6h1595.8a6 6 0 0 1 6 6V1294a6 6 0 0 1-6 6h-1595.8a6 6 0 0 1-6-6z" stroke="#6f7681" fill="#edf5ff" fill-opacity=".58"/><path d="M1445 1084.86a8.57 8.57 0 0 1 7.98-8.55l564.04-38.73a7.47 7.47 0 0 1 7.98 7.45v224a8 8 0 0 1-8 8h-564a8 8 0 0 1-8-8z" stroke="#3a414a" fill="#fff"/><use xlink:href="#a" transform="matrix(1,0,0,1,1450,1082.0204530989881) translate(261.025 97.525)"/><path d="M1328.15 342.98v-314a6 6 0 0 1 6-6h35.67v320z" stroke="#3a414a" fill="#6db1ff"/><path d="M1328.15 342.98h41.67V660h-41.67z" stroke="#3a414a" fill="#00c2a8"/><path d="M1328.15 660h41.67v320h-41.67z" stroke="#3a414a" fill="#9391ff"/><path d="M1369.82 1300h-35.67a6 6 0 0 1-6-6V980h41.67z" stroke="#3a414a" fill="#ff80df"/><path d="M1369.82 22.98h1560.13a6 6 0 0 1 6 6v314H1369.82zM1369.82 342.98h1566.13V660H1369.82zM1369.82 660h1566.13v320H1369.82zM2935.95 980v314a6 6 0 0 1-6 6H1369.82V980z" stroke="#3a414a" fill="none"/><use xlink:href="#b" transform="matrix(-1.8369701987210297e-16,-1,1,-1.8369701987210297e-16,1328.1526656358715,342.9795469010119) translate(66.97530864197532 25.444444444444443)"/><use xlink:href="#c" transform="matrix(-1.8369701987210297e-16,-1,1,-1.8369701987210297e-16,1328.1526656358715,342.9795469010119) translate(165.61728395061726 25.444444444444443)"/><use xlink:href="#d" transform="matrix(-1.8369701987210297e-16,-1,1,-1.8369701987210297e-16,1328.1526656358715,660) translate(19.06172839506175 25.444444444444443)"/><use xlink:href="#e" transform="matrix(-1.8369701987210297e-16,-1,1,-1.8369701987210297e-16,1328.1526656358715,660) translate(127.58024691358025 25.444444444444443)"/><use xlink:href="#f" transform="matrix(-1.8369701987210297e-16,-1,1,-1.8369701987210297e-16,1328.1526656358715,660) translate(194.1851851851852 25.444444444444443)"/><use xlink:href="#g" transform="matrix(-1.8369701987210297e-16,-1,1,-1.8369701987210297e-16,1328.1526656358715,979.9999999999998) translate(89.10493827160495 25.444444444444443)"/><use xlink:href="#h" transform="matrix(-1.8369701987210297e-16,-1,1,-1.8369701987210297e-16,1328.1526656358715,1299.9999999999998) translate(98.3641975308642 25.444444444444443)"/><use xlink:href="#i" transform="matrix(-1.8369701987210297e-16,-1,1,-1.8369701987210297e-16,1328.1526656358715,1299.9999999999998) translate(151.32716049382714 25.444444444444443)"/><path d="M1548 1219.42c0 5.52 4.48 10 10 10h155c5.52 0 10 4.48 10 10 0-5.52 4.48-10 10-10h155c5.52 0 10-4.48 10-10m0-120c0-5.52-4.48-10-10-10h-155c-5.52 0-10-4.48-10-10 0 5.52-4.48 10-10 10h-155c-5.52 0-10 4.48-10 10" stroke="#3a414a" fill="none"/><path d="M1480 1105.02a8 8 0 0 1 8-8h144a8 8 0 0 1 8 8v104a8 8 0 0 1-8 8h-144a8 8 0 0 1-8-8z" stroke="#3a414a" fill="#fff"/><use xlink:href="#j" transform="matrix(1,0,0,1,1480,1097.0204530989881) translate(11.579999999999993 63.15)"/><use xlink:href="#k" transform="matrix(1,0,0,1,1480,1097.0204530989881) translate(99.48 63.15)"/><path d="M1820 1105.02a8 8 0 0 1 8-8h144a8 8 0 0 1 8 8v104a8 8 0 0 1-8 8h-144a8 8 0 0 1-8-8z" stroke="#3a414a" fill="#fff"/><use xlink:href="#l" transform="matrix(1,0,0,1,1820,1097.0204530989881) translate(28.57999999999999 51.9)"/><use xlink:href="#m" transform="matrix(1,0,0,1,1820,1097.0204530989881) translate(55.529999999999994 73.5)"/><path d="M1673.98 730.27a9.14 9.14 0 0 1 12.04 0l47.96 41.96a7 7 0 0 1 0 10.54l-47.96 41.96a9.14 9.14 0 0 1-12.04 0l-47.96-41.96a7 7 0 0 1 0-10.54z" stroke="#3a414a" fill-opacity="0"/><path d="M1635 753.2a8 8 0 0 1 8-8h74a8 8 0 0 1 8 8v48.6a8 8 0 0 1-8 8h-74a8 8 0 0 1-8-8z" fill="none"/><use xlink:href="#n" transform="matrix(1,0,0,1,1635,745.1923076923077) translate(18.769444444444446 16.72222222222222)"/><use xlink:href="#o" transform="matrix(1,0,0,1,1635,745.1923076923077) translate(3.451851851851856 35.65555555555556)"/><use xlink:href="#p" transform="matrix(1,0,0,1,1635,745.1923076923077) translate(16.600000000000005 35.65555555555556)"/><use xlink:href="#q" transform="matrix(1,0,0,1,1635,745.1923076923077) translate(75.19691358024691 35.65555555555556)"/><use xlink:href="#r" transform="matrix(1,0,0,1,1635,745.1923076923077) translate(31.85185185185185 54.58888888888889)"/><path d="M1680 859v-15.12" stroke="#3a414a" fill="none"/><path d="M1680.5 859.5h-1v-.5h1z" stroke="#3a414a" stroke-width=".05" fill="#3a414a"/><path d="M1680 829.1l4.63 14.28h-9.27z" stroke="#3a414a" fill="#3a414a"/><path d="M1560 1096.02v-63a12 12 0 0 1 12-12h96a12 12 0 0 0 12-12v-47.14" stroke="#3a414a" fill="none"/><path d="M1560.5 1096.52h-1v-.5h1z" stroke="#3a414a" stroke-width=".05" fill="#3a414a"/><path d="M1680 947.12l4.63 14.26h-9.27z" stroke="#3a414a" fill="#3a414a"/><path d="M2200 748a8 8 0 0 1 8-8h144a8 8 0 0 1 8 8v104a8 8 0 0 1-8 8h-144a8 8 0 0 1-8-8z" stroke="#3a414a" fill="#fff"/><use xlink:href="#s" transform="matrix(1,0,0,1,2212,752) translate(16.574999999999996 50.4)"/><path d="M1900 1096.02V1092a12 12 0 0 1 12-12h155.1" stroke="#3a414a" fill="none"/><path d="M1900.5 1096.52h-1v-.5h1z" stroke="#3a414a" stroke-width=".05" fill="#3a414a"/><path d="M2081.88 1080l-14.27 4.63v-9.27z" stroke="#3a414a" fill="#3a414a"/><path d="M2237 1080h1.94m3.87 0h3.9m3.86 0h3.88m3.87 0h3.9m3.86 0h1.94l1.88-.15.45-.1m4.32-1.8l.4-.24 1.43-1.22 1.23-1.43.25-.4m1.8-4.32l.1-.45.15-1.88v-2m0-3.97v-3.98m0-4v-3.97m0-3.98v-3.98m0-3.98v-3.98m0-4v-3.97m0-4v-3.97m0-3.98v-3.98m0-4v-3.97m0-3.98v-3.98m0-3.98v-3.98m0-3.98v-4m0-3.97v-3.98m0-3.98v-3.98m0-4v-3.98m0-3.98v-3.98m0-3.98v-3.98m0-3.98v-4m0-3.97v-3.98m0-3.98v-4m0-3.97v-3.98m0-4v-3.97m0-3.98v-3.98m0-3.98v-3.98m0-4v-1.98" stroke="#3a414a" fill="none"/><path d="M2237 1080.5h-.54l.04-.5-.04-.5h.55z" stroke="#3a414a" stroke-width=".05" fill="#3a414a"/><path d="M2280 862.12l4.64 14.26h-9.28z" stroke="#3a414a" fill="#3a414a"/><path d="M1668.04 705.5l2 .16 1.98.48 1.88.78 1.74 1.07 1.55 1.3 1.32 1.56 1.07 1.74.77 1.9.47 1.97.16 2v8.03h-2v-7.96l-.14-1.76-.4-1.67-.66-1.6-.9-1.46-1.12-1.3-1.32-1.13-1.47-.9-1.6-.65-1.68-.4-1.76-.14h-56.5v-2zm-79.5 2h-26.32v-2h26.3zM1551 694.48l.1 1.24h-2l-.1-1.16V639h2z" stroke="#e81313" stroke-width=".05" fill="#e81313"/><path d="M1681 727.58l-1-.08-1 .08v-1.1h2z" fill="#e81313"/><path d="M1681.03 727.6l-1.03-.07-1.03.07v-1.15h2.06zm-2-1.1v1.05l.97-.07.97.07v-1.05z" stroke="#e81313" stroke-width=".05" fill="#e81313"/><path d="M1554.63 638h-9.27l4.64-14.26z" fill="#e81313"/><path d="M1556 639h-12l6-18.5zm-9.26-2h6.52l-3.26-10.03z" stroke="#e81313" stroke-width=".05" fill="#e81313"/><use xlink:href="#t" transform="matrix(1,0,0,1,1542.220858940984,695.704612361877) translate(0.005000000000000782 14.4)"/><use xlink:href="#u" transform="matrix(1,0,0,1,1588.525,695.704612361877) translate(0.005000000000000782 14.4)"/><path d="M1470 508a8 8 0 0 1 8-8h144a8 8 0 0 1 8 8v104a8 8 0 0 1-8 8h-144a8 8 0 0 1-8-8z" stroke="#3a414a" fill="#fff"/><use xlink:href="#v" transform="matrix(1,0,0,1,1482,512) translate(24.574999999999996 41.4)"/><use xlink:href="#w" transform="matrix(1,0,0,1,1482,512) translate(49.574999999999996 41.4)"/><use xlink:href="#x" transform="matrix(1,0,0,1,1482,512) translate(25.574999999999996 63)"/><path d="M1720 508a8 8 0 0 1 8-8h144a8 8 0 0 1 8 8v104a8 8 0 0 1-8 8h-144a8 8 0 0 1-8-8z" stroke="#3a414a" fill="#fff"/><use xlink:href="#y" transform="matrix(1,0,0,1,1732,512) translate(24.574999999999996 41.4)"/><use xlink:href="#w" transform="matrix(1,0,0,1,1732,512) translate(49.574999999999996 41.4)"/><use xlink:href="#x" transform="matrix(1,0,0,1,1732,512) translate(25.574999999999996 63)"/><path d="M1724.53 707.5h-32.5l-1.75.14-1.68.4-1.6.67-1.46.9-1.32 1.13-1.12 1.3-.9 1.48-.66 1.6-.4 1.68-.14 1.76v7.97h-2v-8.03l.16-2 .47-1.98.78-1.9 1.08-1.74 1.33-1.55 1.56-1.3 1.74-1.08 1.88-.78 2-.48 1.98-.15h32.57zm59.45 0h-36.5v-2h36.5zm17.02-12.96l-.1 1.17h-2l.1-1.24V639h2z" stroke="#e81313" stroke-width=".05" fill="#e81313"/><path d="M1681 727.58l-1-.08-1 .08v-1.1h2z" fill="#e81313"/><path d="M1681.03 727.6l-1.03-.07-1.03.07v-1.15h2.06zm-2-1.1v1.05l.97-.07.97.07v-1.05z" stroke="#e81313" stroke-width=".05" fill="#e81313"/><path d="M1804.63 638h-9.27l4.64-14.26z" fill="#e81313"/><path d="M1806 639h-12l6-18.5zm-9.26-2h6.52l-3.26-10.03z" stroke="#e81313" stroke-width=".05" fill="#e81313"/><use xlink:href="#z" transform="matrix(1,0,0,1,1783.9777313991326,695.704612361877) translate(0.005000000000000782 14.4)"/><use xlink:href="#u" transform="matrix(1,0,0,1,1724.525,695.704612361877) translate(0.005000000000000782 14.4)"/><path d="M1901.18 560.5H1881v-1h20.18zm21.97-20l-.37.03-.32.08-.3.13-.3.17-.24.22-.2.25-.2.3-.12.3-.07.3-.03.37v6.56h-1v-6.6l.04-.47.1-.48.2-.45.25-.42.3-.37.38-.3.42-.26.45-.2.48-.1.45-.04z" stroke="#3a414a" stroke-width=".05" fill="#3a414a"/><path d="M1881 560.5h-.5v-1h.5z" fill="#3a414a"/><path d="M1881.04 560.52h-.57v-1.04h.57zm-.5-1v.96h.45v-.96z" stroke="#3a414a" stroke-width=".05" fill="#3a414a"/><path d="M1937.88 540l-14.26 4.63v-9.26z" fill="#3a414a"/><path d="M1939.5 540l-16.38 5.32v-10.64zm-15.38 3.95l12.14-3.95-12.14-3.95z" stroke="#3a414a" stroke-width=".05" fill="#3a414a"/><use xlink:href="#A" transform="matrix(1,0,0,1,1901.1832391784199,549.2) translate(0.005000000000000782 14.4)"/><path d="M1638.5 460h-76.48l-1.82.14-1.75.42-1.67.7-1.54.94-1.37 1.17-1.17 1.37-.94 1.54-.7 1.67-.42 1.75-.14 1.82V499h-1v-27.52l.15-1.94.46-1.9.76-1.82 1.03-1.67 1.26-1.5 1.5-1.26 1.66-1.04 1.82-.75 1.9-.45 1.94-.15h76.52zm151.46-.85l1.9.46 1.82.76 1.67 1.03 1.5 1.26 1.26 1.5 1.04 1.66.75 1.82.45 1.9.15 1.94v11.64h-1v-11.6l-.14-1.82-.42-1.75-.7-1.67-.94-1.54-1.17-1.37-1.37-1.17-1.54-.94-1.67-.7-1.75-.42-1.82-.14H1658.5v-1h129.52z" stroke="#3a414a" stroke-width=".05" fill="#3a414a"/><path d="M1550.5 499.5h-1v-.5h1z" fill="#3a414a"/><path d="M1550.53 499.52h-1.06v-.56h1.06zm-1-.5v.46h.94V499z" stroke="#3a414a" stroke-width=".05" fill="#3a414a"/><path d="M1800 497.88l-4.63-14.26h9.27z" fill="#3a414a"/><path d="M1800 499.5l-5.32-16.38h10.64zm-3.95-15.38l3.95 12.14 3.95-12.14z" stroke="#3a414a" stroke-width=".05" fill="#3a414a"/><use xlink:href="#B" transform="matrix(1,0,0,1,1638.5032251321213,448.70004999999986) translate(0.005000000000000782 14.4)"/><path d="M1947.06 591.77A13.33 13.33 0 0 1 1940 580v-80a13.33 13.33 0 0 1 7.06-11.76l45.88-24.48a15 15 0 0 1 14.12 0l45.88 24.48A13.33 13.33 0 0 1 2060 500v80a13.33 13.33 0 0 1-7.06 11.77l-45.88 24.46a15 15 0 0 1-14.12 0z" stroke="#3a414a" fill="#fff"/><use xlink:href="#C" transform="matrix(1,0,0,1,1945,465) translate(9.524999999999999 65.9625)"/><use xlink:href="#D" transform="matrix(1,0,0,1,1945,465) translate(56.475 65.9625)"/><use xlink:href="#E" transform="matrix(1,0,0,1,1945,465) translate(81.475 65.9625)"/><use xlink:href="#F" transform="matrix(1,0,0,1,1945,465) translate(9.049999999999997 87.5625)"/><path d="M1630 868a8 8 0 0 1 8-8h84a8 8 0 0 1 8 8v69a8 8 0 0 1-8 8h-84a8 8 0 0 1-8-8z" stroke="#3a414a" fill="#fff"/><use xlink:href="#s" transform="matrix(1,0,0,1,1642,872) translate(-13.425000000000004 34.1)"/><path d="M2120 368a8 8 0 0 1 8-8h144a8 8 0 0 1 8 8v104a8 8 0 0 1-8 8h-144a8 8 0 0 1-8-8z" stroke="#3a414a" fill="#fff"/><use xlink:href="#G" transform="matrix(1,0,0,1,2132,372) translate(30.525 20.4)"/><use xlink:href="#H" transform="matrix(1,0,0,1,2132,372) translate(38.574999999999996 42)"/><use xlink:href="#I" transform="matrix(1,0,0,1,2132,372) translate(9.599999999999994 63.6)"/><use xlink:href="#J" transform="matrix(1,0,0,1,2132,372) translate(106.4 63.6)"/><use xlink:href="#K" transform="matrix(1,0,0,1,2132,372) translate(38.025 85.20000000000002)"/><path d="M2061 540h17a12 12 0 0 0 12-12v-96a12 12 0 0 1 12-12h1.12" stroke="#3a414a" fill="none"/><path d="M2061 540.5h-.5v-1h.5z" stroke="#3a414a" stroke-width=".05" fill="#3a414a"/><path d="M2117.88 420l-14.26 4.63v-9.26z" stroke="#3a414a" fill="#3a414a"/><path d="M2280 520c-8.84 0-16 26.86-16 60s7.16 60 16 60h-144c-8.84 0-16-26.86-16-60s7.16-60 16-60z" stroke="#3a414a" fill="#fff"/><use xlink:href="#L" transform="matrix(1,0,0,1,2125,525) translate(23.025 59.0875)"/><use xlink:href="#M" transform="matrix(1,0,0,1,2125,525) translate(80.975 59.0875)"/><path d="M2200 481v22.12" stroke="#3a414a" fill="none"/><path d="M2200.5 481h-1v-.5h1z" stroke="#3a414a" stroke-width=".05" fill="#3a414a"/><path d="M2200 517.88l-4.64-14.26h9.28z" stroke="#3a414a" fill="#3a414a"/><path d="M2265 580h45a12 12 0 0 0 12-12V433.5a12 12 0 0 1 12-12h29.12" stroke="#3a414a" fill="none"/><path d="M2265 580.5h-.48l-.02-.5.02-.5h.5z" stroke="#3a414a" stroke-width=".05" fill="#3a414a"/><path d="M2377.88 421.5l-14.26 4.63v-9.28z" stroke="#3a414a" fill="#3a414a"/><path d="M2500 469.5c0 6.62-26.86 12-60 12s-60-5.38-60-12v-96c0-6.64 26.86-12 60-12s60 5.36 60 12z" stroke="#3a414a" fill="#fff"/><path d="M2500 373.5c0 6.62-26.86 12-60 12s-60-5.38-60-12" stroke="#3a414a" fill="none"/><use xlink:href="#N" transform="matrix(1,0,0,1,2385,390.489773450506) translate(24.049999999999997 25.15)"/><use xlink:href="#O" transform="matrix(1,0,0,1,2385,390.489773450506) translate(26.525 46.75)"/><use xlink:href="#P" transform="matrix(1,0,0,1,2385,390.489773450506) translate(29.5 68.35000000000001)"/><path d="M2600 500h11M2645 500h5" stroke="#3a414a" fill="none"/><path d="M2625 486c7.73 0 14 6.27 14 14s-6.27 14-14 14-14-6.27-14-14 6.27-14 14-14z" stroke="#3a414a" fill="#fff"/><path d="M2625 520c11.05 0 20-8.95 20-20s-8.95-20-20-20" stroke="#3a414a" fill="none"/><path d="M2600 500a.8.8 0 0 1 .8-.8h9.4a.8.8 0 0 1 .8.8.8.8 0 0 1-.8.8h-9.4a.8.8 0 0 1-.8-.8z" fill="none"/><path d="M2501 421.5h37.25a12 12 0 0 1 12 12V488a12 12 0 0 0 12 12h21.37" stroke="#3a414a" fill="none"/><path d="M2501 422h-.5v-1h.5z" stroke="#3a414a" stroke-width=".05" fill="#3a414a"/><path d="M2598.38 500l-14.26 4.63v-9.26z" stroke="#3a414a" fill="#3a414a"/><path d="M2361 800h256.25a12 12 0 0 0 12-12V536.36" stroke="#3a414a" fill="none"/><path d="M2361 800.5h-.5v-1h.5z" stroke="#3a414a" stroke-width=".05" fill="#3a414a"/><path d="M2629.25 521.6l4.64 14.26h-9.3z" stroke="#3a414a" fill="#3a414a"/><path d="M2153.6 1024.8a10.67 10.67 0 0 1 12.8 0l67.2 50.4a6 6 0 0 1 0 9.6l-67.2 50.4a10.67 10.67 0 0 1-12.8 0l-67.2-50.4a6 6 0 0 1 0-9.6z" stroke="#3a414a" fill="#fff"/><use xlink:href="#Q" transform="matrix(1,0,0,1,2085,1025) translate(70.005 38.4625)"/><use xlink:href="#R" transform="matrix(1,0,0,1,2085,1025) translate(23.57999999999999 60.0625)"/><use xlink:href="#S" transform="matrix(1,0,0,1,2085,1025) translate(51.029999999999994 81.66250000000001)"/><path d="M2601 1068.04l-.16 2-.47 1.98-.78 1.88-1.08 1.74-1.32 1.55-1.56 1.32-1.74 1.07-1.88.77-2 .47-1.98.16H2237.5v-2h350.46l1.76-.14 1.68-.4 1.6-.66 1.46-.9 1.32-1.12 1.12-1.32.9-1.47.66-1.6.4-1.68.14-1.76v-85.4h2zm0-107.1h-2V518.5h2z" stroke="#e81313" stroke-width=".05" fill="#e81313"/><path d="M2237.53 1081h-1.12l.1-1-.1-1h1.13z" fill="#e81313"/><path d="M2237.55 1081.03h-1.17l.1-1.03-.1-1.03h1.17zm-1.1-2l.08.97-.1.97h1.07v-1.94z" stroke="#e81313" stroke-width=".05" fill="#e81313"/><path d="M2604.64 517.5h-9.28l4.64-14.26z" fill="#e81313"/><path d="M2606 518.5h-12l6-18.5zm-9.26-2h6.52l-3.26-10.03z" stroke="#e81313" stroke-width=".05" fill="#e81313"/><use xlink:href="#u" transform="matrix(1,0,0,1,2588.525,960.948942566421) translate(0.005000000000000782 14.4)"/><path d="M2650.5 500h4.24a12 12 0 0 0 12-12v-80.78a.35.35 0 0 1 .35-.36" stroke="#3a414a" fill="none"/><path d="M2650.5 500.5h-.5v-1h-3 3.5z" stroke="#3a414a" stroke-width=".05" fill="#3a414a"/><path d="M2681.86 406.86l-14.27 4.64v-9.27z" stroke="#3a414a" fill="#3a414a"/><path d="M2733.62 366.3a10.58 10.58 0 0 1 12.76 0l47.24 35.74a6.05 6.05 0 0 1 0 9.65l-47.24 35.7a10.58 10.58 0 0 1-12.76 0l-47.24-35.7a6.05 6.05 0 0 1 0-9.66z" stroke="#3a414a" fill="#fff"/><use xlink:href="#T" transform="matrix(1,0,0,1,2685,366.489773450506) translate(14.054999999999994 44.775)"/><path d="M2821 481h-2v-28.76h2zm-10.97-74.98l2 .48 1.87.78 1.74 1.06 1.56 1.33 1.32 1.55 1.07 1.74.77 1.88.47 2 .16 1.98v11.82h-2V418.9l-.14-1.76-.4-1.68-.66-1.6-.9-1.46-1.12-1.3-1.32-1.13-1.47-.9-1.6-.67-1.68-.4-1.76-.14h-10.44v-2h10.52z" stroke="#e81313" stroke-width=".05" fill="#e81313"/><path d="M2797.55 407.86h-1.12l.1-1-.1-1h1.12z" fill="#e81313"/><path d="M2797.57 407.9h-1.17l.1-1.04-.1-1.02h1.17zm-1.1-2l.08.96-.1.98h1.07v-1.95z" stroke="#e81313" stroke-width=".05" fill="#e81313"/><path d="M2820 496.26l-4.64-14.26h9.28z" fill="#e81313"/><path d="M2820 499.5l-6-18.5h12zm-3.26-16.5l3.26 10.03 3.26-10.03z" stroke="#e81313" stroke-width=".05" fill="#e81313"/><use xlink:href="#u" transform="matrix(1,0,0,1,2808.525,430.64190294943035) translate(0.005000000000000782 14.4)"/><path d="M2880 608c0 6.63-26.86 12-60 12s-60-5.37-60-12v-96c0-6.63 26.86-12 60-12s60 5.37 60 12z" stroke="#3a414a" fill="#fff"/><path d="M2880 512c0 6.63-26.86 12-60 12s-60-5.37-60-12" stroke="#3a414a" fill="none"/><use xlink:href="#U" transform="matrix(1,0,0,1,2765,529) translate(21.574999999999996 25.15)"/><use xlink:href="#V" transform="matrix(1,0,0,1,2765,529) translate(5.574999999999996 46.75)"/><use xlink:href="#W" transform="matrix(1,0,0,1,2765,529) translate(24.049999999999997 68.35000000000001)"/><path d="M2820 621v227.5a10 10 0 0 1-10 10 10 10 0 0 0-10 10v211.64" stroke="#3a414a" fill="none"/><path d="M2820 620.5l.5-.02v.53h-1v-.52z" stroke="#3a414a" stroke-width=".05" fill="#3a414a"/><path d="M2800 1094.9l-4.64-14.26h9.28z" stroke="#3a414a" fill="#3a414a"/><path d="M2749.94 1104.75a10.4 10.4 0 0 1 10.06-7.73h112a6.15 6.15 0 0 1 5.94 7.73l-27.88 104.54A10.4 10.4 0 0 1 2840 1217h-112a6.15 6.15 0 0 1-5.94-7.73z" stroke="#3a414a" fill="#fff"/><use xlink:href="#X" transform="matrix(1,0,0,1,2725,1102.0204530989881) translate(56.029999999999994 59.0875)"/><path d="M2040 36.88a8 8 0 0 1 8-8h144a8 8 0 0 1 8 8v104a8 8 0 0 1-8 8h-144a8 8 0 0 1-8-8z" stroke="#3a414a" fill="#fff"/><use xlink:href="#Y" transform="matrix(1,0,0,1,2040.002691991644,28.879841485463174) translate(29.07999999999999 63.15)"/><use xlink:href="#Z" transform="matrix(1,0,0,1,2040.002691991644,28.879841485463174) translate(95.98 63.15)"/><path d="M2728.04 334.75l2 .16 1.98.5 1.88.77 1.74 1.06 1.56 1.33 1.32 1.55 1.07 1.75.77 1.9.47 1.97.16 2v14.95h-2V347.8l-.14-1.77-.4-1.67-.66-1.6-.9-1.47-1.12-1.32-1.32-1.12-1.47-.9-1.6-.66-1.68-.4-1.76-.15h-513.28v-2zm-1066.63-5.8l.52 1.2.7 1.13.85 1 1 .86 1.13.7 1.22.5 1.28.3 1.36.1h515.86v2h-515.94l-1.6-.1-1.58-.4-1.5-.62-1.4-.85-1.25-1.06-1.06-1.24-.87-1.4-.62-1.5-.38-1.6-.12-1.54 2-.16.1 1.4z" stroke="#008a0e" stroke-width=".05" fill="#008a0e"/><path d="M2741 363.74l-1-.07-1 .07v-1.1h2z" fill="#008a0e"/><path d="M2741.03 363.76l-1.03-.06-1.03.06v-1.14h2.06zm-2-1.1v1.05l.97-.05.97.06v-1.03z" stroke="#008a0e" stroke-width=".05" fill="#008a0e"/><path d="M1664.63 325.34h-9.27l4.64-14.27z" fill="#008a0e"/><path d="M1666 326.34h-12l6-18.5zm-9.26-2h6.52L1660 314.3z" stroke="#008a0e" stroke-width=".05" fill="#008a0e"/><use xlink:href="#aa" transform="matrix(1,0,0,1,2185.325,324.9536883099976) translate(0.005000000000000782 14.4)"/><path d="M1680 45.8a8 8 0 0 1 8-8h144a8 8 0 0 1 8 8v104a8 8 0 0 1-8 8h-144a8 8 0 0 1-8-8z" stroke="#3a414a" fill="#fff"/><path d="M1696 37.8v120m128-120v120" stroke="#3a414a" fill="none"/><use xlink:href="#ab" transform="matrix(1,0,0,1,1705,42.799075326645664) translate(29.074999999999996 47.8)"/><use xlink:href="#ac" transform="matrix(1,0,0,1,1705,42.799075326645664) translate(26.525 69.4)"/><path d="M2200 190c-8.84 0-16 26.86-16 60s7.16 60 16 60h-144c-8.84 0-16-26.86-16-60s7.16-60 16-60z" stroke="#3a414a" fill="#fff"/><use xlink:href="#ad" transform="matrix(1,0,0,1,2045,195) translate(43.525 59.0875)"/><path d="M1653.6 194.8a10.67 10.67 0 0 1 12.8 0l67.2 50.4a6 6 0 0 1 0 9.6l-67.2 50.4a10.67 10.67 0 0 1-12.8 0l-67.2-50.4a6 6 0 0 1 0-9.6z" stroke="#3a414a" fill="#fff"/><g><use xlink:href="#ae" transform="matrix(1,0,0,1,1585,195) translate(29.079999999999995 48.775)"/><use xlink:href="#af" transform="matrix(1,0,0,1,1585,195) translate(85.03 48.775)"/><use xlink:href="#ag" transform="matrix(1,0,0,1,1585,195) translate(49.03 70.375)"/></g><path d="M1873.33 251H1737.5v-2h135.83zm147.67 0h-118.32v-2H2021z" stroke="#008a0e" stroke-width=".05" fill="#008a0e"/><path d="M1737.53 251h-1.12l.1-1-.1-1h1.13z" fill="#008a0e"/><path d="M1737.55 251.03h-1.17l.1-1.03-.1-1.03h1.17zm-1.1-2l.08.97-.1.97h1.07v-1.94z" stroke="#008a0e" stroke-width=".05" fill="#008a0e"/><path d="M2036.26 250l-14.26 4.63v-9.26z" fill="#008a0e"/><path d="M2039.5 250l-18.5 6v-12zm-16.5 3.26l10.03-3.26-10.03-3.26z" stroke="#008a0e" stroke-width=".05" fill="#008a0e"/><g><use xlink:href="#aa" transform="matrix(1,0,0,1,1873.3259073648578,239.2) translate(0.005000000000000782 14.4)"/></g><path d="M1698.53 176.23h-26.5l-1.75.14-1.68.4-1.6.66-1.46.9-1.32 1.13-1.12 1.3-.9 1.48-.66 1.6-.4 1.67-.14 1.77v3.9h-2v-3.98l.16-2 .47-2 .78-1.87 1.08-1.74 1.33-1.56 1.56-1.33 1.74-1.05 1.88-.78 2-.48 1.98-.17h26.57zm59.9 0h-36.96v-2h36.96z" stroke="#e81313" stroke-width=".05" fill="#e81313"/><path d="M1661 192.23l-1-.06-1 .06v-1.1h2z" fill="#e81313"/><path d="M1661.03 192.26l-1.03-.07-1.03.06v-1.14h2.06zm-2-1.1v1.04l.97-.06.97.06v-1.03z" stroke="#e81313" stroke-width=".05" fill="#e81313"/><path d="M1763 176.15l-9.23-.85 5.93-13.78z" fill="#e81313"/><path d="M1764.28 177.28l-11.97-1.1 7.7-17.88zm-9.05-2.85l6.5.6-2.33-10.3z" stroke="#e81313" stroke-width=".05" fill="#e81313"/><g><use xlink:href="#u" transform="matrix(1,0,0,1,1698.525,164.43233796637088) translate(0.005000000000000782 14.4)"/></g><path d="M1841 97.8h94.54a4.46 4.46 0 0 0 4.46-4.46 4.46 4.46 0 0 1 4.46-4.46h78.66" stroke="#3a414a" fill="none"/><path d="M1841 98.3h-.5v-1h.5z" stroke="#3a414a" stroke-width=".05" fill="#3a414a"/><path d="M2037.88 88.88l-14.26 4.64v-9.27z" stroke="#3a414a" fill="#3a414a"/><path d="M2120 189v-3.87m0-3.88v-7.74m0-3.86v-3.88" stroke="#3a414a" fill="none"/><path d="M2120.5 189.5h-1v-.5h1z" stroke="#3a414a" stroke-width=".05" fill="#3a414a"/><path d="M2120 151l4.64 14.26h-9.27z" stroke="#3a414a" fill="#3a414a"/><path d="M2589.94 156.6a10.4 10.4 0 0 1 10.06-7.72h112a6.15 6.15 0 0 1 5.94 7.73l-27.88 104.55a10.4 10.4 0 0 1-10.06 7.73h-112a6.15 6.15 0 0 1-5.94-7.73z" stroke="#3a414a" fill="#fff"/><g><use xlink:href="#ah" transform="matrix(1,0,0,1,2565,153.87984148546317) translate(49.53 38.4625)"/><use xlink:href="#ai" transform="matrix(1,0,0,1,2565,153.87984148546317) translate(29.60499999999999 60.0625)"/><use xlink:href="#aj" transform="matrix(1,0,0,1,2565,153.87984148546317) translate(105.405 60.0625)"/><use xlink:href="#ak" transform="matrix(1,0,0,1,2565,153.87984148546317) translate(23.529999999999994 81.66250000000001)"/><use xlink:href="#al" transform="matrix(1,0,0,1,2565,153.87984148546317) translate(90.48 81.66250000000001)"/></g><path d="M2201 88.88h175a12 12 0 0 1 12 12v96a12 12 0 0 0 12 12h159.1" stroke="#3a414a" fill="none"/><path d="M2201 89.38h-.5v-1h.5z" stroke="#3a414a" stroke-width=".05" fill="#3a414a"/><path d="M2573.86 208.88l-14.26 4.63v-9.25z" stroke="#3a414a" fill="#3a414a"/><path d="M2910.46 208.53l1.9.46 1.82.74 1.67 1.03 1.5 1.27 1.26 1.5 1.04 1.66.75 1.82.45 1.9.15 1.94v327.16l-.15 1.94-.46 1.9-.76 1.82-1.03 1.67-1.26 1.5-1.5 1.26-1.66 1.04-1.82.75-1.9.45-1.94.15h-11.64v-1h11.6l1.82-.14 1.75-.42 1.67-.7 1.54-.94 1.37-1.17 1.17-1.37.94-1.54.7-1.67.42-1.75.14-1.82V220.9l-.14-1.82-.42-1.75-.7-1.67-.94-1.54-1.17-1.37-1.37-1.17-1.54-.95-1.67-.7-1.75-.4-1.82-.15h-203.46v-1h203.5z" stroke="#3a414a" stroke-width=".05" fill="#3a414a"/><path d="M2705.03 209.38h-.65l.27-1h.38z" fill="#3a414a"/><path d="M2705.05 209.4h-.7l.28-1.05h.42zm-.38-1l-.25.95h.6v-.94z" stroke="#3a414a" stroke-width=".05" fill="#3a414a"/><path d="M2896.38 564.63l-14.26-4.63 14.26-4.63z" fill="#3a414a"/><path d="M2896.88 565.32L2880.5 560l16.38-5.32zm-13.14-5.32l12.14 3.95v-7.9z" stroke="#3a414a" stroke-width=".05" fill="#3a414a"/><defs><path fill="#3a414a" d="M140-251c81 0 123 46 123 126C263-53 228-8 163 1c7 30 30 48 69 40v23c-55 16-95-15-103-61C56-3 17-48 17-125c0-80 42-126 123-126zm0 227c63 0 89-41 89-101s-29-99-89-99c-61 0-89 39-89 99S79-25 140-24" id="am"/><path fill="#3a414a" d="M84 4C-5 8 30-112 23-190h32v120c0 31 7 50 39 49 72-2 45-101 50-169h31l1 190h-30c-1-10 1-25-2-33-11 22-28 36-60 37" id="an"/><path fill="#3a414a" d="M100-194c63 0 86 42 84 106H49c0 40 14 67 53 68 26 1 43-12 49-29l28 8c-11 28-37 45-77 45C44 4 14-33 15-96c1-61 26-98 85-98zm52 81c6-60-76-77-97-28-3 7-6 17-6 28h103" id="ao"/><path fill="#3a414a" d="M114-163C36-179 61-72 57 0H25l-1-190h30c1 12-1 29 2 39 6-27 23-49 58-41v29" id="ap"/><path fill="#3a414a" d="M179-190L93 31C79 59 56 82 12 73V49c39 6 53-20 64-50L1-190h34L92-34l54-156h33" id="aq"/><g id="a"><use transform="matrix(0.05,0,0,0.05,0,0)" xlink:href="#am"/><use transform="matrix(0.05,0,0,0.05,14,0)" xlink:href="#an"/><use transform="matrix(0.05,0,0,0.05,24,0)" xlink:href="#ao"/><use transform="matrix(0.05,0,0,0.05,34,0)" xlink:href="#ap"/><use transform="matrix(0.05,0,0,0.05,39.95,0)" xlink:href="#aq"/></g><path fill="#333" d="M185-189c-5-48-123-54-124 2 14 75 158 14 163 119 3 78-121 87-175 55-17-10-28-26-33-46l33-7c5 56 141 63 141-1 0-78-155-14-162-118-5-82 145-84 179-34 5 7 8 16 11 25" id="ar"/><path fill="#333" d="M100-194c63 0 86 42 84 106H49c0 40 14 67 53 68 26 1 43-12 49-29l28 8c-11 28-37 45-77 45C44 4 14-33 15-96c1-61 26-98 85-98zm52 81c6-60-76-77-97-28-3 7-6 17-6 28h103" id="as"/><path fill="#333" d="M210-169c-67 3-38 105-44 169h-31v-121c0-29-5-50-35-48C34-165 62-65 56 0H25l-1-190h30c1 10-1 24 2 32 10-44 99-50 107 0 11-21 27-35 58-36 85-2 47 119 55 194h-31v-121c0-29-5-49-35-48" id="at"/><path fill="#333" d="M141-36C126-15 110 5 73 4 37 3 15-17 15-53c-1-64 63-63 125-63 3-35-9-54-41-54-24 1-41 7-42 31l-33-3c5-37 33-52 76-52 45 0 72 20 72 64v82c-1 20 7 32 28 27v20c-31 9-61-2-59-35zM48-53c0 20 12 33 32 33 41-3 63-29 60-74-43 2-92-5-92 41" id="au"/><path fill="#333" d="M117-194c89-4 53 116 60 194h-32v-121c0-31-8-49-39-48C34-167 62-67 57 0H25l-1-190h30c1 10-1 24 2 32 11-22 29-35 61-36" id="av"/><path fill="#333" d="M59-47c-2 24 18 29 38 22v24C64 9 27 4 27-40v-127H5v-23h24l9-43h21v43h35v23H59v120" id="aw"/><path fill="#333" d="M24-231v-30h32v30H24zM24 0v-190h32V0H24" id="ax"/><path fill="#333" d="M96-169c-40 0-48 33-48 73s9 75 48 75c24 0 41-14 43-38l32 2c-6 37-31 61-74 61-59 0-76-41-82-99-10-93 101-131 147-64 4 7 5 14 7 22l-32 3c-4-21-16-35-41-35" id="ay"/><g id="b"><use transform="matrix(0.061728395061728385,0,0,0.061728395061728385,0,0)" xlink:href="#ar"/><use transform="matrix(0.061728395061728385,0,0,0.061728395061728385,14.814814814814813,0)" xlink:href="#as"/><use transform="matrix(0.061728395061728385,0,0,0.061728395061728385,27.16049382716049,0)" xlink:href="#at"/><use transform="matrix(0.061728395061728385,0,0,0.061728395061728385,45.61728395061728,0)" xlink:href="#au"/><use transform="matrix(0.061728395061728385,0,0,0.061728395061728385,57.962962962962955,0)" xlink:href="#av"/><use transform="matrix(0.061728395061728385,0,0,0.061728395061728385,70.30864197530863,0)" xlink:href="#aw"/><use transform="matrix(0.061728395061728385,0,0,0.061728395061728385,76.48148148148147,0)" xlink:href="#ax"/><use transform="matrix(0.061728395061728385,0,0,0.061728395061728385,81.35802469135801,0)" xlink:href="#ay"/></g><path fill="#333" d="M233-177c-1 41-23 64-60 70L243 0h-38l-65-103H63V0H30v-248c88 3 205-21 203 71zM63-129c60-2 137 13 137-47 0-61-80-42-137-45v92" id="az"/><path fill="#333" d="M114-163C36-179 61-72 57 0H25l-1-190h30c1 12-1 29 2 39 6-27 23-49 58-41v29" id="aA"/><path fill="#333" d="M108 0H70L1-190h34L89-25l56-165h34" id="aB"/><path fill="#333" d="M24 0v-261h32V0H24" id="aC"/><g id="c"><use transform="matrix(0.061728395061728385,0,0,0.061728395061728385,0,0)" xlink:href="#az"/><use transform="matrix(0.061728395061728385,0,0,0.061728395061728385,15.987654320987652,0)" xlink:href="#as"/><use transform="matrix(0.061728395061728385,0,0,0.061728395061728385,28.33333333333333,0)" xlink:href="#aw"/><use transform="matrix(0.061728395061728385,0,0,0.061728395061728385,34.50617283950616,0)" xlink:href="#aA"/><use transform="matrix(0.061728395061728385,0,0,0.061728395061728385,41.85185185185184,0)" xlink:href="#ax"/><use transform="matrix(0.061728395061728385,0,0,0.061728395061728385,46.728395061728385,0)" xlink:href="#as"/><use transform="matrix(0.061728395061728385,0,0,0.061728395061728385,59.07407407407406,0)" xlink:href="#aB"/><use transform="matrix(0.061728395061728385,0,0,0.061728395061728385,70.18518518518518,0)" xlink:href="#au"/><use transform="matrix(0.061728395061728385,0,0,0.061728395061728385,82.53086419753086,0)" xlink:href="#aC"/></g><path fill="#333" d="M84 4C-5 8 30-112 23-190h32v120c0 31 7 50 39 49 72-2 45-101 50-169h31l1 190h-30c-1-10 1-25-2-33-11 22-28 36-60 37" id="aD"/><path fill="#333" d="M85-194c31 0 48 13 60 33l-1-100h32l1 261h-30c-2-10 0-23-3-31C134-8 116 4 85 4 32 4 16-35 15-94c0-66 23-100 70-100zm9 24c-40 0-46 34-46 75 0 40 6 74 45 74 42 0 51-32 51-76 0-42-9-74-50-73" id="aE"/><g id="d"><use transform="matrix(0.061728395061728385,0,0,0.061728395061728385,0,0)" xlink:href="#ar"/><use transform="matrix(0.061728395061728385,0,0,0.061728395061728385,14.814814814814813,0)" xlink:href="#aw"/><use transform="matrix(0.061728395061728385,0,0,0.061728395061728385,20.98765432098765,0)" xlink:href="#aA"/><use transform="matrix(0.061728395061728385,0,0,0.061728395061728385,28.33333333333333,0)" xlink:href="#aD"/><use transform="matrix(0.061728395061728385,0,0,0.061728395061728385,40.679012345679006,0)" xlink:href="#ay"/><use transform="matrix(0.061728395061728385,0,0,0.061728395061728385,51.79012345679011,0)" xlink:href="#aw"/><use transform="matrix(0.061728395061728385,0,0,0.061728395061728385,57.96296296296295,0)" xlink:href="#aD"/><use transform="matrix(0.061728395061728385,0,0,0.061728395061728385,70.30864197530863,0)" xlink:href="#aA"/><use transform="matrix(0.061728395061728385,0,0,0.061728395061728385,77.65432098765432,0)" xlink:href="#as"/><use transform="matrix(0.061728395061728385,0,0,0.061728395061728385,90,0)" xlink:href="#aE"/></g><path fill="#333" d="M140-251c81 0 123 46 123 126C263-53 228-8 163 1c7 30 30 48 69 40v23c-55 16-95-15-103-61C56-3 17-48 17-125c0-80 42-126 123-126zm0 227c63 0 89-41 89-101s-29-99-89-99c-61 0-89 39-89 99S79-25 140-24" id="aF"/><path fill="#333" d="M179-190L93 31C79 59 56 82 12 73V49c39 6 53-20 64-50L1-190h34L92-34l54-156h33" id="aG"/><g id="e"><use transform="matrix(0.061728395061728385,0,0,0.061728395061728385,0,0)" xlink:href="#aF"/><use transform="matrix(0.061728395061728385,0,0,0.061728395061728385,17.28395061728395,0)" xlink:href="#aD"/><use transform="matrix(0.061728395061728385,0,0,0.061728395061728385,29.629629629629626,0)" xlink:href="#as"/><use transform="matrix(0.061728395061728385,0,0,0.061728395061728385,41.9753086419753,0)" xlink:href="#aA"/><use transform="matrix(0.061728395061728385,0,0,0.061728395061728385,49.32098765432098,0)" xlink:href="#aG"/></g><path fill="#333" d="M135-143c-3-34-86-38-87 0 15 53 115 12 119 90S17 21 10-45l28-5c4 36 97 45 98 0-10-56-113-15-118-90-4-57 82-63 122-42 12 7 21 19 24 35" id="aH"/><path fill="#333" d="M100-194c62-1 85 37 85 99 1 63-27 99-86 99S16-35 15-95c0-66 28-99 85-99zM99-20c44 1 53-31 53-75 0-43-8-75-51-75s-53 32-53 75 10 74 51 75" id="aI"/><g id="f"><use transform="matrix(0.061728395061728385,0,0,0.061728395061728385,0,0)" xlink:href="#az"/><use transform="matrix(0.061728395061728385,0,0,0.061728395061728385,15.987654320987652,0)" xlink:href="#as"/><use transform="matrix(0.061728395061728385,0,0,0.061728395061728385,28.33333333333333,0)" xlink:href="#aH"/><use transform="matrix(0.061728395061728385,0,0,0.061728395061728385,39.444444444444436,0)" xlink:href="#aI"/><use transform="matrix(0.061728395061728385,0,0,0.061728395061728385,51.79012345679011,0)" xlink:href="#aC"/><use transform="matrix(0.061728395061728385,0,0,0.061728395061728385,56.66666666666666,0)" xlink:href="#aD"/><use transform="matrix(0.061728395061728385,0,0,0.061728395061728385,69.01234567901233,0)" xlink:href="#aw"/><use transform="matrix(0.061728395061728385,0,0,0.061728395061728385,75.18518518518516,0)" xlink:href="#ax"/><use transform="matrix(0.061728395061728385,0,0,0.061728395061728385,80.0617283950617,0)" xlink:href="#aI"/><use transform="matrix(0.061728395061728385,0,0,0.061728395061728385,92.40740740740739,0)" xlink:href="#av"/></g><path fill="#333" d="M30-248c87 1 191-15 191 75 0 78-77 80-158 76V0H30v-248zm33 125c57 0 124 11 124-50 0-59-68-47-124-48v98" id="aJ"/><path fill="#333" d="M115-194c55 1 70 41 70 98S169 2 115 4C84 4 66-9 55-30l1 105H24l-1-265h31l2 30c10-21 28-34 59-34zm-8 174c40 0 45-34 45-75s-6-73-45-74c-42 0-51 32-51 76 0 43 10 73 51 73" id="aK"/><path fill="#333" d="M177-190C167-65 218 103 67 71c-23-6-38-20-44-43l32-5c15 47 100 32 89-28v-30C133-14 115 1 83 1 29 1 15-40 15-95c0-56 16-97 71-98 29-1 48 16 59 35 1-10 0-23 2-32h30zM94-22c36 0 50-32 50-73 0-42-14-75-50-75-39 0-46 34-46 75s6 73 46 73" id="aL"/><g id="g"><use transform="matrix(0.061728395061728385,0,0,0.061728395061728385,0,0)" xlink:href="#aJ"/><use transform="matrix(0.061728395061728385,0,0,0.061728395061728385,14.814814814814813,0)" xlink:href="#aA"/><use transform="matrix(0.061728395061728385,0,0,0.061728395061728385,22.16049382716049,0)" xlink:href="#as"/><use transform="matrix(0.061728395061728385,0,0,0.061728395061728385,34.50617283950616,0)" xlink:href="#aK"/><use transform="matrix(0.061728395061728385,0,0,0.061728395061728385,46.85185185185184,0)" xlink:href="#aA"/><use transform="matrix(0.061728395061728385,0,0,0.061728395061728385,54.19753086419752,0)" xlink:href="#aI"/><use transform="matrix(0.061728395061728385,0,0,0.061728395061728385,66.54320987654319,0)" xlink:href="#ay"/><use transform="matrix(0.061728395061728385,0,0,0.061728395061728385,77.6543209876543,0)" xlink:href="#as"/><use transform="matrix(0.061728395061728385,0,0,0.061728395061728385,89.99999999999997,0)" xlink:href="#aH"/><use transform="matrix(0.061728395061728385,0,0,0.061728395061728385,101.11111111111109,0)" xlink:href="#aH"/><use transform="matrix(0.061728395061728385,0,0,0.061728395061728385,112.2222222222222,0)" xlink:href="#ax"/><use transform="matrix(0.061728395061728385,0,0,0.061728395061728385,117.09876543209874,0)" xlink:href="#av"/><use transform="matrix(0.061728395061728385,0,0,0.061728395061728385,129.44444444444443,0)" xlink:href="#aL"/></g><path fill="#333" d="M232-93c-1 65-40 97-104 97C67 4 28-28 28-90v-158h33c8 89-33 224 67 224 102 0 64-133 71-224h33v155" id="aM"/><g id="h"><use transform="matrix(0.061728395061728385,0,0,0.061728395061728385,0,0)" xlink:href="#aM"/><use transform="matrix(0.061728395061728385,0,0,0.061728395061728385,15.987654320987652,0)" xlink:href="#aH"/><use transform="matrix(0.061728395061728385,0,0,0.061728395061728385,27.09876543209876,0)" xlink:href="#as"/><use transform="matrix(0.061728395061728385,0,0,0.061728395061728385,39.444444444444436,0)" xlink:href="#aA"/></g><path fill="#333" d="M106-169C34-169 62-67 57 0H25v-261h32l-1 103c12-21 28-36 61-36 89 0 53 116 60 194h-32v-121c2-32-8-49-39-48" id="aN"/><g id="i"><use transform="matrix(0.061728395061728385,0,0,0.061728395061728385,0,0)" xlink:href="#ar"/><use transform="matrix(0.061728395061728385,0,0,0.061728395061728385,14.814814814814813,0)" xlink:href="#as"/><use transform="matrix(0.061728395061728385,0,0,0.061728395061728385,27.16049382716049,0)" xlink:href="#au"/><use transform="matrix(0.061728395061728385,0,0,0.061728395061728385,39.50617283950616,0)" xlink:href="#aA"/><use transform="matrix(0.061728395061728385,0,0,0.061728395061728385,46.85185185185184,0)" xlink:href="#ay"/><use transform="matrix(0.061728395061728385,0,0,0.061728395061728385,57.96296296296295,0)" xlink:href="#aN"/></g><path fill="#3a414a" d="M185-189c-5-48-123-54-124 2 14 75 158 14 163 119 3 78-121 87-175 55-17-10-28-26-33-46l33-7c5 56 141 63 141-1 0-78-155-14-162-118-5-82 145-84 179-34 5 7 8 16 11 25" id="aO"/><path fill="#3a414a" d="M59-47c-2 24 18 29 38 22v24C64 9 27 4 27-40v-127H5v-23h24l9-43h21v43h35v23H59v120" id="aP"/><path fill="#3a414a" d="M96-169c-40 0-48 33-48 73s9 75 48 75c24 0 41-14 43-38l32 2c-6 37-31 61-74 61-59 0-76-41-82-99-10-93 101-131 147-64 4 7 5 14 7 22l-32 3c-4-21-16-35-41-35" id="aQ"/><path fill="#3a414a" d="M85-194c31 0 48 13 60 33l-1-100h32l1 261h-30c-2-10 0-23-3-31C134-8 116 4 85 4 32 4 16-35 15-94c0-66 23-100 70-100zm9 24c-40 0-46 34-46 75 0 40 6 74 45 74 42 0 51-32 51-76 0-42-9-74-50-73" id="aR"/><g id="j"><use transform="matrix(0.05,0,0,0.05,0,0)" xlink:href="#aO"/><use transform="matrix(0.05,0,0,0.05,12,0)" xlink:href="#aP"/><use transform="matrix(0.05,0,0,0.05,17,0)" xlink:href="#ap"/><use transform="matrix(0.05,0,0,0.05,22.95,0)" xlink:href="#an"/><use transform="matrix(0.05,0,0,0.05,32.95,0)" xlink:href="#aQ"/><use transform="matrix(0.05,0,0,0.05,41.95,0)" xlink:href="#aP"/><use transform="matrix(0.05,0,0,0.05,46.95,0)" xlink:href="#an"/><use transform="matrix(0.05,0,0,0.05,56.95,0)" xlink:href="#ap"/><use transform="matrix(0.05,0,0,0.05,62.900000000000006,0)" xlink:href="#ao"/><use transform="matrix(0.05,0,0,0.05,72.9,0)" xlink:href="#aR"/></g><g id="k"><use transform="matrix(0.05,0,0,0.05,0,0)" xlink:href="#am"/><use transform="matrix(0.05,0,0,0.05,14,0)" xlink:href="#an"/><use transform="matrix(0.05,0,0,0.05,24,0)" xlink:href="#ao"/><use transform="matrix(0.05,0,0,0.05,34,0)" xlink:href="#ap"/><use transform="matrix(0.05,0,0,0.05,39.95,0)" xlink:href="#aq"/></g><path fill="#3a414a" d="M232-93c-1 65-40 97-104 97C67 4 28-28 28-90v-158h33c8 89-33 224 67 224 102 0 64-133 71-224h33v155" id="aS"/><path fill="#3a414a" d="M117-194c89-4 53 116 60 194h-32v-121c0-31-8-49-39-48C34-167 62-67 57 0H25l-1-190h30c1 10-1 24 2 32 11-22 29-35 61-36" id="aT"/><path fill="#3a414a" d="M135-143c-3-34-86-38-87 0 15 53 115 12 119 90S17 21 10-45l28-5c4 36 97 45 98 0-10-56-113-15-118-90-4-57 82-63 122-42 12 7 21 19 24 35" id="aU"/><g id="l"><use transform="matrix(0.05,0,0,0.05,0,0)" xlink:href="#aS"/><use transform="matrix(0.05,0,0,0.05,12.950000000000001,0)" xlink:href="#aT"/><use transform="matrix(0.05,0,0,0.05,22.950000000000003,0)" xlink:href="#aU"/><use transform="matrix(0.05,0,0,0.05,31.950000000000003,0)" xlink:href="#aP"/><use transform="matrix(0.05,0,0,0.05,36.95,0)" xlink:href="#ap"/><use transform="matrix(0.05,0,0,0.05,42.900000000000006,0)" xlink:href="#an"/><use transform="matrix(0.05,0,0,0.05,52.900000000000006,0)" xlink:href="#aQ"/><use transform="matrix(0.05,0,0,0.05,61.900000000000006,0)" xlink:href="#aP"/><use transform="matrix(0.05,0,0,0.05,66.9,0)" xlink:href="#an"/><use transform="matrix(0.05,0,0,0.05,76.9,0)" xlink:href="#ap"/><use transform="matrix(0.05,0,0,0.05,82.85000000000001,0)" xlink:href="#ao"/><use transform="matrix(0.05,0,0,0.05,92.85000000000001,0)" xlink:href="#aR"/></g><path d="M114-163C36-179 61-72 57 0H25l-1-190h30c1 12-1 29 2 39 6-27 23-49 58-41v29" id="aV"/><path d="M179-190L93 31C79 59 56 82 12 73V49c39 6 53-20 64-50L1-190h34L92-34l54-156h33" id="aW"/><g id="m"><use transform="matrix(0.05,0,0,0.05,0,0)" xlink:href="#am"/><use transform="matrix(0.05,0,0,0.05,14,0)" xlink:href="#an"/><use transform="matrix(0.05,0,0,0.05,24,0)" xlink:href="#ao"/><use transform="matrix(0.05,0,0,0.05,34,0)" xlink:href="#aV"/><use transform="matrix(0.05,0,0,0.05,39.95,0)" xlink:href="#aW"/></g><path fill="#3a414a" d="M67-125c0 53 21 87 73 88 37 1 54-22 65-47l45 17C233-25 199 4 140 4 58 4 20-42 15-125 8-235 124-281 211-232c18 10 29 29 36 50l-46 12c-8-25-30-41-62-41-52 0-71 34-72 86" id="aX"/><path fill="#3a414a" d="M114-157C55-157 80-60 75 0H25v-261h50l-1 109c12-26 28-41 61-42 86-1 58 113 63 194h-50c-7-57 23-157-34-157" id="aY"/><path fill="#3a414a" d="M185-48c-13 30-37 53-82 52C43 2 14-33 14-96s30-98 90-98c62 0 83 45 84 108H66c0 31 8 55 39 56 18 0 30-7 34-22zm-45-69c5-46-57-63-70-21-2 6-4 13-4 21h74" id="aZ"/><path fill="#3a414a" d="M190-63c-7 42-38 67-86 67-59 0-84-38-90-98-12-110 154-137 174-36l-49 2c-2-19-15-32-35-32-30 0-35 28-38 64-6 74 65 87 74 30" id="ba"/><path fill="#3a414a" d="M147 0L96-86 75-71V0H25v-261h50v150l67-79h53l-66 74L201 0h-54" id="bb"/><path fill="#3a414a" d="M35-132v-50h50v50H35zM35 0v-49h50V0H35" id="bc"/><g id="n"><use transform="matrix(0.043827160493827164,0,0,0.043827160493827164,0,0)" xlink:href="#aX"/><use transform="matrix(0.043827160493827164,0,0,0.043827160493827164,11.351234567901235,0)" xlink:href="#aY"/><use transform="matrix(0.043827160493827164,0,0,0.043827160493827164,20.949382716049385,0)" xlink:href="#aZ"/><use transform="matrix(0.043827160493827164,0,0,0.043827160493827164,29.714814814814815,0)" xlink:href="#ba"/><use transform="matrix(0.043827160493827164,0,0,0.043827160493827164,38.480246913580245,0)" xlink:href="#bb"/><use transform="matrix(0.043827160493827164,0,0,0.043827160493827164,47.245679012345676,0)" xlink:href="#bc"/></g><path fill="#3a414a" d="M33 0v-248h34V0H33" id="bd"/><path fill="#3a414a" d="M101-234c-31-9-42 10-38 44h38v23H63V0H32v-167H5v-23h27c-7-52 17-82 69-68v24" id="be"/><g id="o"><use transform="matrix(0.043827160493827164,0,0,0.043827160493827164,0,0)" xlink:href="#bd"/><use transform="matrix(0.043827160493827164,0,0,0.043827160493827164,4.382716049382716,0)" xlink:href="#be"/></g><path fill="#3a414a" d="M30-248c118-7 216 8 213 122C240-48 200 0 122 0H30v-248zM63-27c89 8 146-16 146-99s-60-101-146-95v194" id="bf"/><path fill="#3a414a" d="M100-194c62-1 85 37 85 99 1 63-27 99-86 99S16-35 15-95c0-66 28-99 85-99zM99-20c44 1 53-31 53-75 0-43-8-75-51-75s-53 32-53 75 10 74 51 75" id="bg"/><path fill="#3a414a" d="M210-169c-67 3-38 105-44 169h-31v-121c0-29-5-50-35-48C34-165 62-65 56 0H25l-1-190h30c1 10-1 24 2 32 10-44 99-50 107 0 11-21 27-35 58-36 85-2 47 119 55 194h-31v-121c0-29-5-49-35-48" id="bh"/><path fill="#3a414a" d="M141-36C126-15 110 5 73 4 37 3 15-17 15-53c-1-64 63-63 125-63 3-35-9-54-41-54-24 1-41 7-42 31l-33-3c5-37 33-52 76-52 45 0 72 20 72 64v82c-1 20 7 32 28 27v20c-31 9-61-2-59-35zM48-53c0 20 12 33 32 33 41-3 63-29 60-74-43 2-92-5-92 41" id="bi"/><path fill="#3a414a" d="M24-231v-30h32v30H24zM24 0v-190h32V0H24" id="bj"/><g id="p"><use transform="matrix(0.043827160493827164,0,0,0.043827160493827164,0,0)" xlink:href="#bf"/><use transform="matrix(0.043827160493827164,0,0,0.043827160493827164,11.351234567901235,0)" xlink:href="#bg"/><use transform="matrix(0.043827160493827164,0,0,0.043827160493827164,20.116666666666667,0)" xlink:href="#bh"/><use transform="matrix(0.043827160493827164,0,0,0.043827160493827164,33.22098765432099,0)" xlink:href="#bi"/><use transform="matrix(0.043827160493827164,0,0,0.043827160493827164,41.98641975308642,0)" xlink:href="#bj"/><use transform="matrix(0.043827160493827164,0,0,0.043827160493827164,45.44876543209877,0)" xlink:href="#aT"/></g><g id="q"><use transform="matrix(0.043827160493827164,0,0,0.043827160493827164,0,0)" xlink:href="#bj"/><use transform="matrix(0.043827160493827164,0,0,0.043827160493827164,3.462345679012346,0)" xlink:href="#aU"/></g><path fill="#3a414a" d="M30 0v-248h33v221h125V0H30" id="bk"/><path fill="#3a414a" d="M155-56V0h-30v-56H8v-25l114-167h33v167h35v25h-35zm-30-156c-27 46-58 90-88 131h88v-131" id="bl"/><path fill="#3a414a" d="M103-251c84 0 111 97 45 133-19 10-37 24-39 52H78c0-63 77-55 77-114 0-30-21-42-52-43-32 0-53 17-56 46l-32-2c7-45 34-72 88-72zM77 0v-35h34V0H77" id="bm"/><g id="r"><use transform="matrix(0.043827160493827164,0,0,0.043827160493827164,0,0)" xlink:href="#bk"/><use transform="matrix(0.043827160493827164,0,0,0.043827160493827164,8.765432098765432,0)" xlink:href="#bl"/><use transform="matrix(0.043827160493827164,0,0,0.043827160493827164,17.530864197530864,0)" xlink:href="#bm"/></g><path fill="#3a414a" d="M137 0h-34L2-248h35l83 218 83-218h36" id="bn"/><path d="M9 0v-24l116-142H16v-24h144v24L44-24h123V0H9" id="bo"/><path d="M141-36C126-15 110 5 73 4 37 3 15-17 15-53c-1-64 63-63 125-63 3-35-9-54-41-54-24 1-41 7-42 31l-33-3c5-37 33-52 76-52 45 0 72 20 72 64v82c-1 20 7 32 28 27v20c-31 9-61-2-59-35zM48-53c0 20 12 33 32 33 41-3 63-29 60-74-43 2-92-5-92 41" id="bp"/><path d="M59-47c-2 24 18 29 38 22v24C64 9 27 4 27-40v-127H5v-23h24l9-43h21v43h35v23H59v120" id="bq"/><path d="M24-231v-30h32v30H24zM24 0v-190h32V0H24" id="br"/><path d="M100-194c62-1 85 37 85 99 1 63-27 99-86 99S16-35 15-95c0-66 28-99 85-99zM99-20c44 1 53-31 53-75 0-43-8-75-51-75s-53 32-53 75 10 74 51 75" id="bs"/><path d="M117-194c89-4 53 116 60 194h-32v-121c0-31-8-49-39-48C34-167 62-67 57 0H25l-1-190h30c1 10-1 24 2 32 11-22 29-35 61-36" id="bt"/><g id="s"><use transform="matrix(0.05,0,0,0.05,0,0)" xlink:href="#bn"/><use transform="matrix(0.05,0,0,0.05,11,0)" xlink:href="#ao"/><use transform="matrix(0.05,0,0,0.05,21,0)" xlink:href="#aQ"/><use transform="matrix(0.05,0,0,0.05,30,0)" xlink:href="#aP"/><use transform="matrix(0.05,0,0,0.05,35,0)" xlink:href="#bg"/><use transform="matrix(0.05,0,0,0.05,45,0)" xlink:href="#ap"/><use transform="matrix(0.05,0,0,0.05,50.95,0)" xlink:href="#bj"/><use transform="matrix(0.05,0,0,0.05,54.900000000000006,0)" xlink:href="#bo"/><use transform="matrix(0.05,0,0,0.05,63.900000000000006,0)" xlink:href="#bp"/><use transform="matrix(0.05,0,0,0.05,73.9,0)" xlink:href="#bq"/><use transform="matrix(0.05,0,0,0.05,78.9,0)" xlink:href="#br"/><use transform="matrix(0.05,0,0,0.05,82.85000000000001,0)" xlink:href="#bs"/><use transform="matrix(0.05,0,0,0.05,92.85000000000001,0)" xlink:href="#bt"/></g><path fill="#3a414a" d="M101-251c82-7 93 87 43 132L82-64C71-53 59-42 53-27h129V0H18c2-99 128-94 128-182 0-28-16-43-45-43s-46 15-49 41l-32-3c6-41 34-60 81-64" id="bu"/><g id="t"><use transform="matrix(0.05,0,0,0.05,0,0)" xlink:href="#bk"/><use transform="matrix(0.05,0,0,0.05,10,0)" xlink:href="#bu"/></g><path fill="#3a414a" d="M190 0L58-211 59 0H30v-248h39L202-35l-2-213h31V0h-41" id="bv"/><g id="u"><use transform="matrix(0.05,0,0,0.05,0,0)" xlink:href="#bv"/><use transform="matrix(0.05,0,0,0.05,12.950000000000001,0)" xlink:href="#bg"/></g><g id="v"><use transform="matrix(0.05,0,0,0.05,0,0)" xlink:href="#bk"/><use transform="matrix(0.05,0,0,0.05,10,0)" xlink:href="#bu"/></g><path d="M210-169c-67 3-38 105-44 169h-31v-121c0-29-5-50-35-48C34-165 62-65 56 0H25l-1-190h30c1 10-1 24 2 32 10-44 99-50 107 0 11-21 27-35 58-36 85-2 47 119 55 194h-31v-121c0-29-5-49-35-48" id="bw"/><g id="w"><use transform="matrix(0.05,0,0,0.05,0,0)" xlink:href="#bf"/><use transform="matrix(0.05,0,0,0.05,12.950000000000001,0)" xlink:href="#bg"/><use transform="matrix(0.05,0,0,0.05,22.950000000000003,0)" xlink:href="#bw"/><use transform="matrix(0.05,0,0,0.05,37.900000000000006,0)" xlink:href="#bp"/><use transform="matrix(0.05,0,0,0.05,47.900000000000006,0)" xlink:href="#br"/><use transform="matrix(0.05,0,0,0.05,51.85,0)" xlink:href="#bt"/></g><path d="M233-177c-1 41-23 64-60 70L243 0h-38l-65-103H63V0H30v-248c88 3 205-21 203 71zM63-129c60-2 137 13 137-47 0-61-80-42-137-45v92" id="bx"/><path d="M100-194c63 0 86 42 84 106H49c0 40 14 67 53 68 26 1 43-12 49-29l28 8c-11 28-37 45-77 45C44 4 14-33 15-96c1-61 26-98 85-98zm52 81c6-60-76-77-97-28-3 7-6 17-6 28h103" id="by"/><path d="M135-143c-3-34-86-38-87 0 15 53 115 12 119 90S17 21 10-45l28-5c4 36 97 45 98 0-10-56-113-15-118-90-4-57 82-63 122-42 12 7 21 19 24 35" id="bz"/><path d="M24 0v-261h32V0H24" id="bA"/><path d="M84 4C-5 8 30-112 23-190h32v120c0 31 7 50 39 49 72-2 45-101 50-169h31l1 190h-30c-1-10 1-25-2-33-11 22-28 36-60 37" id="bB"/><g id="x"><use transform="matrix(0.05,0,0,0.05,0,0)" xlink:href="#bx"/><use transform="matrix(0.05,0,0,0.05,12.950000000000001,0)" xlink:href="#by"/><use transform="matrix(0.05,0,0,0.05,22.950000000000003,0)" xlink:href="#bz"/><use transform="matrix(0.05,0,0,0.05,31.950000000000003,0)" xlink:href="#bs"/><use transform="matrix(0.05,0,0,0.05,41.95,0)" xlink:href="#bA"/><use transform="matrix(0.05,0,0,0.05,45.900000000000006,0)" xlink:href="#bB"/><use transform="matrix(0.05,0,0,0.05,55.900000000000006,0)" xlink:href="#bq"/><use transform="matrix(0.05,0,0,0.05,60.900000000000006,0)" xlink:href="#br"/><use transform="matrix(0.05,0,0,0.05,64.85000000000001,0)" xlink:href="#bs"/><use transform="matrix(0.05,0,0,0.05,74.85000000000001,0)" xlink:href="#bt"/></g><path fill="#3a414a" d="M126-127c33 6 58 20 58 59 0 88-139 92-164 29-3-8-5-16-6-25l32-3c6 27 21 44 54 44 32 0 52-15 52-46 0-38-36-46-79-43v-28c39 1 72-4 72-42 0-27-17-43-46-43-28 0-47 15-49 41l-32-3c6-42 35-63 81-64 48-1 79 21 79 65 0 36-21 52-52 59" id="bC"/><g id="y"><use transform="matrix(0.05,0,0,0.05,0,0)" xlink:href="#bk"/><use transform="matrix(0.05,0,0,0.05,10,0)" xlink:href="#bC"/></g><g id="z"><use transform="matrix(0.05,0,0,0.05,0,0)" xlink:href="#bk"/><use transform="matrix(0.05,0,0,0.05,10,0)" xlink:href="#bC"/></g><g id="A"><use transform="matrix(0.05,0,0,0.05,0,0)" xlink:href="#bk"/><use transform="matrix(0.05,0,0,0.05,10,0)" xlink:href="#bl"/></g><path d="M101-251c82-7 93 87 43 132L82-64C71-53 59-42 53-27h129V0H18c2-99 128-94 128-182 0-28-16-43-45-43s-46 15-49 41l-32-3c6-41 34-60 81-64" id="bD"/><g id="B"><use transform="matrix(0.05,0,0,0.05,0,0)" xlink:href="#bk"/><use transform="matrix(0.05,0,0,0.05,10,0)" xlink:href="#bD"/></g><path fill="#3a414a" d="M233-177c-1 41-23 64-60 70L243 0h-38l-65-103H63V0H30v-248c88 3 205-21 203 71zM63-129c60-2 137 13 137-47 0-61-80-42-137-45v92" id="bE"/><path fill="#3a414a" d="M143 0L79-87 56-68V0H24v-261h32v163l83-92h37l-77 82L181 0h-38" id="bF"/><g id="C"><use transform="matrix(0.05,0,0,0.05,0,0)" xlink:href="#bE"/><use transform="matrix(0.05,0,0,0.05,12.950000000000001,0)" xlink:href="#bi"/><use transform="matrix(0.05,0,0,0.05,22.950000000000003,0)" xlink:href="#aT"/><use transform="matrix(0.05,0,0,0.05,32.95,0)" xlink:href="#bF"/></g><path d="M30 0v-248h33v221h125V0H30" id="bG"/><path d="M155-56V0h-30v-56H8v-25l114-167h33v167h35v25h-35zm-30-156c-27 46-58 90-88 131h88v-131" id="bH"/><g id="D"><use transform="matrix(0.05,0,0,0.05,0,0)" xlink:href="#bG"/><use transform="matrix(0.05,0,0,0.05,10,0)" xlink:href="#bH"/></g><path d="M115-194c53 0 69 39 70 98 0 66-23 100-70 100C84 3 66-7 56-30L54 0H23l1-261h32v101c10-23 28-34 59-34zm-8 174c40 0 45-34 45-75 0-40-5-75-45-74-42 0-51 32-51 76 0 43 10 73 51 73" id="bI"/><g id="E"><use transform="matrix(0.05,0,0,0.05,0,0)" xlink:href="#bI"/><use transform="matrix(0.05,0,0,0.05,10,0)" xlink:href="#aW"/></g><path d="M205 0l-28-72H64L36 0H1l101-248h38L239 0h-34zm-38-99l-47-123c-12 45-31 82-46 123h93" id="bJ"/><path d="M96-169c-40 0-48 33-48 73s9 75 48 75c24 0 41-14 43-38l32 2c-6 37-31 61-74 61-59 0-76-41-82-99-10-93 101-131 147-64 4 7 5 14 7 22l-32 3c-4-21-16-35-41-35" id="bK"/><g id="F"><use transform="matrix(0.05,0,0,0.05,0,0)" xlink:href="#bJ"/><use transform="matrix(0.05,0,0,0.05,12,0)" xlink:href="#bz"/><use transform="matrix(0.05,0,0,0.05,21,0)" xlink:href="#bz"/><use transform="matrix(0.05,0,0,0.05,30,0)" xlink:href="#bs"/><use transform="matrix(0.05,0,0,0.05,40,0)" xlink:href="#bK"/><use transform="matrix(0.05,0,0,0.05,49,0)" xlink:href="#br"/><use transform="matrix(0.05,0,0,0.05,52.95,0)" xlink:href="#bp"/><use transform="matrix(0.05,0,0,0.05,62.95,0)" xlink:href="#bq"/><use transform="matrix(0.05,0,0,0.05,67.95,0)" xlink:href="#br"/><use transform="matrix(0.05,0,0,0.05,71.9,0)" xlink:href="#bs"/><use transform="matrix(0.05,0,0,0.05,81.9,0)" xlink:href="#bt"/></g><path fill="#3a414a" d="M143 4C61 4 22-44 18-125c-5-107 100-154 193-111 17 8 29 25 37 43l-32 9c-13-25-37-40-76-40-61 0-88 39-88 99 0 61 29 100 91 101 35 0 62-11 79-27v-45h-74v-28h105v86C228-13 192 4 143 4" id="bL"/><g id="G"><use transform="matrix(0.05,0,0,0.05,0,0)" xlink:href="#bL"/><use transform="matrix(0.05,0,0,0.05,14,0)" xlink:href="#ao"/><use transform="matrix(0.05,0,0,0.05,24,0)" xlink:href="#aT"/><use transform="matrix(0.05,0,0,0.05,34,0)" xlink:href="#ao"/><use transform="matrix(0.05,0,0,0.05,44,0)" xlink:href="#ap"/><use transform="matrix(0.05,0,0,0.05,49.95,0)" xlink:href="#bi"/><use transform="matrix(0.05,0,0,0.05,59.95,0)" xlink:href="#aP"/><use transform="matrix(0.05,0,0,0.05,64.95,0)" xlink:href="#ao"/></g><path fill="#3a414a" d="M212-179c-10-28-35-45-73-45-59 0-87 40-87 99 0 60 29 101 89 101 43 0 62-24 78-52l27 14C228-24 195 4 139 4 59 4 22-46 18-125c-6-104 99-153 187-111 19 9 31 26 39 46" id="bM"/><path fill="#3a414a" d="M24 0v-261h32V0H24" id="bN"/><g id="H"><use transform="matrix(0.05,0,0,0.05,0,0)" xlink:href="#bM"/><use transform="matrix(0.05,0,0,0.05,12.950000000000001,0)" xlink:href="#bN"/><use transform="matrix(0.05,0,0,0.05,16.900000000000002,0)" xlink:href="#bg"/><use transform="matrix(0.05,0,0,0.05,26.900000000000002,0)" xlink:href="#aU"/><use transform="matrix(0.05,0,0,0.05,35.900000000000006,0)" xlink:href="#ao"/><use transform="matrix(0.05,0,0,0.05,45.900000000000006,0)" xlink:href="#bA"/><use transform="matrix(0.05,0,0,0.05,49.85000000000001,0)" xlink:href="#aW"/></g><path d="M85-194c31 0 48 13 60 33l-1-100h32l1 261h-30c-2-10 0-23-3-31C134-8 116 4 85 4 32 4 16-35 15-94c0-66 23-100 70-100zm9 24c-40 0-46 34-46 75 0 40 6 74 45 74 42 0 51-32 51-76 0-42-9-74-50-73" id="bO"/><g id="I"><use transform="matrix(0.05,0,0,0.05,0,0)" xlink:href="#bJ"/><use transform="matrix(0.05,0,0,0.05,12,0)" xlink:href="#bz"/><use transform="matrix(0.05,0,0,0.05,21,0)" xlink:href="#bz"/><use transform="matrix(0.05,0,0,0.05,30,0)" xlink:href="#br"/><use transform="matrix(0.05,0,0,0.05,33.95,0)" xlink:href="#bw"/><use transform="matrix(0.05,0,0,0.05,48.900000000000006,0)" xlink:href="#br"/><use transform="matrix(0.05,0,0,0.05,52.85,0)" xlink:href="#bA"/><use transform="matrix(0.05,0,0,0.05,56.80000000000001,0)" xlink:href="#bp"/><use transform="matrix(0.05,0,0,0.05,66.80000000000001,0)" xlink:href="#bq"/><use transform="matrix(0.05,0,0,0.05,71.80000000000001,0)" xlink:href="#by"/><use transform="matrix(0.05,0,0,0.05,81.80000000000001,0)" xlink:href="#bO"/></g><g id="J"><use transform="matrix(0.05,0,0,0.05,0,0)" xlink:href="#bG"/><use transform="matrix(0.05,0,0,0.05,10,0)" xlink:href="#bH"/></g><path d="M137 0h-34L2-248h35l83 218 83-218h36" id="bP"/><g id="K"><use transform="matrix(0.05,0,0,0.05,0,0)" xlink:href="#bP"/><use transform="matrix(0.05,0,0,0.05,11,0)" xlink:href="#by"/><use transform="matrix(0.05,0,0,0.05,21,0)" xlink:href="#bK"/><use transform="matrix(0.05,0,0,0.05,30,0)" xlink:href="#bq"/><use transform="matrix(0.05,0,0,0.05,35,0)" xlink:href="#bs"/><use transform="matrix(0.05,0,0,0.05,45,0)" xlink:href="#aV"/><use transform="matrix(0.05,0,0,0.05,50.95,0)" xlink:href="#bz"/></g><g id="L"><use transform="matrix(0.05,0,0,0.05,0,0)" xlink:href="#aO"/><use transform="matrix(0.05,0,0,0.05,12,0)" xlink:href="#aP"/><use transform="matrix(0.05,0,0,0.05,17,0)" xlink:href="#bg"/><use transform="matrix(0.05,0,0,0.05,27,0)" xlink:href="#ap"/><use transform="matrix(0.05,0,0,0.05,32.95,0)" xlink:href="#ao"/><use transform="matrix(0.05,0,0,0.05,42.95,0)" xlink:href="#aR"/></g><g id="M"><use transform="matrix(0.05,0,0,0.05,0,0)" xlink:href="#aR"/><use transform="matrix(0.05,0,0,0.05,10,0)" xlink:href="#bi"/><use transform="matrix(0.05,0,0,0.05,20,0)" xlink:href="#aP"/><use transform="matrix(0.05,0,0,0.05,25,0)" xlink:href="#bi"/></g><g id="N"><use transform="matrix(0.05,0,0,0.05,0,0)" xlink:href="#bE"/><use transform="matrix(0.05,0,0,0.05,12.950000000000001,0)" xlink:href="#ao"/><use transform="matrix(0.05,0,0,0.05,22.950000000000003,0)" xlink:href="#be"/><use transform="matrix(0.05,0,0,0.05,27.950000000000003,0)" xlink:href="#bj"/><use transform="matrix(0.05,0,0,0.05,31.900000000000002,0)" xlink:href="#aT"/><use transform="matrix(0.05,0,0,0.05,41.900000000000006,0)" xlink:href="#ao"/><use transform="matrix(0.05,0,0,0.05,51.900000000000006,0)" xlink:href="#bO"/></g><path d="M185-189c-5-48-123-54-124 2 14 75 158 14 163 119 3 78-121 87-175 55-17-10-28-26-33-46l33-7c5 56 141 63 141-1 0-78-155-14-162-118-5-82 145-84 179-34 5 7 8 16 11 25" id="bQ"/><path d="M106-169C34-169 62-67 57 0H25v-261h32l-1 103c12-21 28-36 61-36 89 0 53 116 60 194h-32v-121c2-32-8-49-39-48" id="bR"/><g id="O"><use transform="matrix(0.05,0,0,0.05,0,0)" xlink:href="#bQ"/><use transform="matrix(0.05,0,0,0.05,12,0)" xlink:href="#by"/><use transform="matrix(0.05,0,0,0.05,22,0)" xlink:href="#bp"/><use transform="matrix(0.05,0,0,0.05,32,0)" xlink:href="#aV"/><use transform="matrix(0.05,0,0,0.05,37.95,0)" xlink:href="#bK"/><use transform="matrix(0.05,0,0,0.05,46.95,0)" xlink:href="#bR"/></g><path d="M115-194c55 1 70 41 70 98S169 2 115 4C84 4 66-9 55-30l1 105H24l-1-265h31l2 30c10-21 28-34 59-34zm-8 174c40 0 45-34 45-75s-6-73-45-74c-42 0-51 32-51 76 0 43 10 73 51 73" id="bS"/><g id="P"><use transform="matrix(0.05,0,0,0.05,0,0)" xlink:href="#bQ"/><use transform="matrix(0.05,0,0,0.05,12,0)" xlink:href="#bS"/><use transform="matrix(0.05,0,0,0.05,22,0)" xlink:href="#bp"/><use transform="matrix(0.05,0,0,0.05,32,0)" xlink:href="#bK"/><use transform="matrix(0.05,0,0,0.05,41,0)" xlink:href="#by"/></g><g id="Q"><use transform="matrix(0.05,0,0,0.05,0,0)" xlink:href="#bd"/><use transform="matrix(0.05,0,0,0.05,5,0)" xlink:href="#be"/></g><g id="R"><use transform="matrix(0.05,0,0,0.05,0,0)" xlink:href="#aS"/><use transform="matrix(0.05,0,0,0.05,12.950000000000001,0)" xlink:href="#aT"/><use transform="matrix(0.05,0,0,0.05,22.950000000000003,0)" xlink:href="#aU"/><use transform="matrix(0.05,0,0,0.05,31.950000000000003,0)" xlink:href="#aP"/><use transform="matrix(0.05,0,0,0.05,36.95,0)" xlink:href="#ap"/><use transform="matrix(0.05,0,0,0.05,42.900000000000006,0)" xlink:href="#an"/><use transform="matrix(0.05,0,0,0.05,52.900000000000006,0)" xlink:href="#aQ"/><use transform="matrix(0.05,0,0,0.05,61.900000000000006,0)" xlink:href="#aP"/><use transform="matrix(0.05,0,0,0.05,66.9,0)" xlink:href="#bB"/><use transform="matrix(0.05,0,0,0.05,76.9,0)" xlink:href="#aV"/><use transform="matrix(0.05,0,0,0.05,82.85000000000001,0)" xlink:href="#by"/><use transform="matrix(0.05,0,0,0.05,92.85000000000001,0)" xlink:href="#bO"/></g><path d="M30 0v-248h187v28H63v79h144v27H63v87h162V0H30" id="bT"/><path d="M141 0L90-78 38 0H4l68-98-65-92h35l48 74 47-74h35l-64 92 68 98h-35" id="bU"/><g id="S"><use transform="matrix(0.05,0,0,0.05,0,0)" xlink:href="#bT"/><use transform="matrix(0.05,0,0,0.05,12,0)" xlink:href="#bU"/><use transform="matrix(0.05,0,0,0.05,21,0)" xlink:href="#br"/><use transform="matrix(0.05,0,0,0.05,24.95,0)" xlink:href="#bz"/><use transform="matrix(0.05,0,0,0.05,33.95,0)" xlink:href="#bq"/><use transform="matrix(0.05,0,0,0.05,38.95,0)" xlink:href="#bz"/></g><path d="M103-251c84 0 111 97 45 133-19 10-37 24-39 52H78c0-63 77-55 77-114 0-30-21-42-52-43-32 0-53 17-56 46l-32-2c7-45 34-72 88-72zM77 0v-35h34V0H77" id="bV"/><g id="T"><use transform="matrix(0.05,0,0,0.05,0,0)" xlink:href="#bM"/><use transform="matrix(0.05,0,0,0.05,12.950000000000001,0)" xlink:href="#bg"/><use transform="matrix(0.05,0,0,0.05,22.950000000000003,0)" xlink:href="#aT"/><use transform="matrix(0.05,0,0,0.05,32.95,0)" xlink:href="#aP"/><use transform="matrix(0.05,0,0,0.05,37.95,0)" xlink:href="#bj"/><use transform="matrix(0.05,0,0,0.05,41.900000000000006,0)" xlink:href="#bt"/><use transform="matrix(0.05,0,0,0.05,51.900000000000006,0)" xlink:href="#bB"/><use transform="matrix(0.05,0,0,0.05,61.900000000000006,0)" xlink:href="#by"/><use transform="matrix(0.05,0,0,0.05,71.9,0)" xlink:href="#bV"/></g><path d="M108 0H70L1-190h34L89-25l56-165h34" id="bW"/><g id="U"><use transform="matrix(0.05,0,0,0.05,0,0)" xlink:href="#bE"/><use transform="matrix(0.05,0,0,0.05,12.950000000000001,0)" xlink:href="#ao"/><use transform="matrix(0.05,0,0,0.05,22.950000000000003,0)" xlink:href="#aP"/><use transform="matrix(0.05,0,0,0.05,27.950000000000003,0)" xlink:href="#ap"/><use transform="matrix(0.05,0,0,0.05,33.900000000000006,0)" xlink:href="#bj"/><use transform="matrix(0.05,0,0,0.05,37.85000000000001,0)" xlink:href="#by"/><use transform="matrix(0.05,0,0,0.05,47.85000000000001,0)" xlink:href="#bW"/><use transform="matrix(0.05,0,0,0.05,56.85,0)" xlink:href="#by"/></g><path d="M232-93c-1 65-40 97-104 97C67 4 28-28 28-90v-158h33c8 89-33 224 67 224 102 0 64-133 71-224h33v155" id="bX"/><path d="M101-234c-31-9-42 10-38 44h38v23H63V0H32v-167H5v-23h27c-7-52 17-82 69-68v24" id="bY"/><g id="V"><use transform="matrix(0.05,0,0,0.05,0,0)" xlink:href="#bX"/><use transform="matrix(0.05,0,0,0.05,12.950000000000001,0)" xlink:href="#bt"/><use transform="matrix(0.05,0,0,0.05,22.950000000000003,0)" xlink:href="#bY"/><use transform="matrix(0.05,0,0,0.05,27.950000000000003,0)" xlink:href="#bs"/><use transform="matrix(0.05,0,0,0.05,37.95,0)" xlink:href="#aV"/><use transform="matrix(0.05,0,0,0.05,43.900000000000006,0)" xlink:href="#bw"/><use transform="matrix(0.05,0,0,0.05,58.85,0)" xlink:href="#bp"/><use transform="matrix(0.05,0,0,0.05,68.85000000000001,0)" xlink:href="#bq"/><use transform="matrix(0.05,0,0,0.05,73.85000000000001,0)" xlink:href="#bq"/><use transform="matrix(0.05,0,0,0.05,78.85000000000001,0)" xlink:href="#by"/><use transform="matrix(0.05,0,0,0.05,88.85000000000001,0)" xlink:href="#bO"/></g><path d="M212-179c-10-28-35-45-73-45-59 0-87 40-87 99 0 60 29 101 89 101 43 0 62-24 78-52l27 14C228-24 195 4 139 4 59 4 22-46 18-125c-6-104 99-153 187-111 19 9 31 26 39 46" id="bZ"/><path d="M177-190C167-65 218 103 67 71c-23-6-38-20-44-43l32-5c15 47 100 32 89-28v-30C133-14 115 1 83 1 29 1 15-40 15-95c0-56 16-97 71-98 29-1 48 16 59 35 1-10 0-23 2-32h30zM94-22c36 0 50-32 50-73 0-42-14-75-50-75-39 0-46 34-46 75s6 73 46 73" id="ca"/><g id="W"><use transform="matrix(0.05,0,0,0.05,0,0)" xlink:href="#bZ"/><use transform="matrix(0.05,0,0,0.05,12.950000000000001,0)" xlink:href="#bp"/><use transform="matrix(0.05,0,0,0.05,22.950000000000003,0)" xlink:href="#bq"/><use transform="matrix(0.05,0,0,0.05,27.950000000000003,0)" xlink:href="#bp"/><use transform="matrix(0.05,0,0,0.05,37.95,0)" xlink:href="#bA"/><use transform="matrix(0.05,0,0,0.05,41.900000000000006,0)" xlink:href="#bs"/><use transform="matrix(0.05,0,0,0.05,51.900000000000006,0)" xlink:href="#ca"/></g><g id="X"><use transform="matrix(0.05,0,0,0.05,0,0)" xlink:href="#bf"/><use transform="matrix(0.05,0,0,0.05,12.950000000000001,0)" xlink:href="#bi"/><use transform="matrix(0.05,0,0,0.05,22.950000000000003,0)" xlink:href="#aP"/><use transform="matrix(0.05,0,0,0.05,27.950000000000003,0)" xlink:href="#bi"/></g><g id="Y"><use transform="matrix(0.05,0,0,0.05,0,0)" xlink:href="#bM"/><use transform="matrix(0.05,0,0,0.05,12.950000000000001,0)" xlink:href="#bi"/><use transform="matrix(0.05,0,0,0.05,22.950000000000003,0)" xlink:href="#aP"/><use transform="matrix(0.05,0,0,0.05,27.950000000000003,0)" xlink:href="#bi"/><use transform="matrix(0.05,0,0,0.05,37.95,0)" xlink:href="#bN"/><use transform="matrix(0.05,0,0,0.05,41.900000000000006,0)" xlink:href="#bg"/><use transform="matrix(0.05,0,0,0.05,51.900000000000006,0)" xlink:href="#ca"/></g><path d="M240 0l2-218c-23 76-54 145-80 218h-23L58-218 59 0H30v-248h44l77 211c21-75 51-140 76-211h43V0h-30" id="cb"/><g id="Z"><use transform="matrix(0.05,0,0,0.05,0,0)" xlink:href="#bG"/><use transform="matrix(0.05,0,0,0.05,10,0)" xlink:href="#bG"/><use transform="matrix(0.05,0,0,0.05,20,0)" xlink:href="#cb"/></g><path fill="#3a414a" d="M137-103V0h-34v-103L8-248h37l75 118 75-118h37" id="cc"/><g id="aa"><use transform="matrix(0.05,0,0,0.05,0,0)" xlink:href="#cc"/><use transform="matrix(0.05,0,0,0.05,10.35,0)" xlink:href="#ao"/><use transform="matrix(0.05,0,0,0.05,20.35,0)" xlink:href="#aU"/></g><path fill="#3a414a" d="M197 0v-115H63V0H30v-248h33v105h134v-105h34V0h-34" id="cd"/><path fill="#3a414a" d="M115-194c53 0 69 39 70 98 0 66-23 100-70 100C84 3 66-7 56-30L54 0H23l1-261h32v101c10-23 28-34 59-34zm-8 174c40 0 45-34 45-75 0-40-5-75-45-74-42 0-51 32-51 76 0 43 10 73 51 73" id="ce"/><g id="ab"><use transform="matrix(0.05,0,0,0.05,0,0)" xlink:href="#cd"/><use transform="matrix(0.05,0,0,0.05,12.950000000000001,0)" xlink:href="#aq"/><use transform="matrix(0.05,0,0,0.05,21.950000000000003,0)" xlink:href="#ce"/><use transform="matrix(0.05,0,0,0.05,31.950000000000003,0)" xlink:href="#ap"/><use transform="matrix(0.05,0,0,0.05,37.900000000000006,0)" xlink:href="#bj"/><use transform="matrix(0.05,0,0,0.05,41.85000000000001,0)" xlink:href="#aR"/></g><path fill="#3a414a" d="M106-169C34-169 62-67 57 0H25v-261h32l-1 103c12-21 28-36 61-36 89 0 53 116 60 194h-32v-121c2-32-8-49-39-48" id="cf"/><g id="ac"><use transform="matrix(0.05,0,0,0.05,0,0)" xlink:href="#aO"/><use transform="matrix(0.05,0,0,0.05,12,0)" xlink:href="#ao"/><use transform="matrix(0.05,0,0,0.05,22,0)" xlink:href="#bi"/><use transform="matrix(0.05,0,0,0.05,32,0)" xlink:href="#ap"/><use transform="matrix(0.05,0,0,0.05,37.95,0)" xlink:href="#aQ"/><use transform="matrix(0.05,0,0,0.05,46.95,0)" xlink:href="#cf"/></g><g id="ad"><use transform="matrix(0.05,0,0,0.05,0,0)" xlink:href="#bM"/><use transform="matrix(0.05,0,0,0.05,12.950000000000001,0)" xlink:href="#bi"/><use transform="matrix(0.05,0,0,0.05,22.950000000000003,0)" xlink:href="#aQ"/><use transform="matrix(0.05,0,0,0.05,31.950000000000003,0)" xlink:href="#cf"/><use transform="matrix(0.05,0,0,0.05,41.95,0)" xlink:href="#ao"/></g><g id="ae"><use transform="matrix(0.05,0,0,0.05,0,0)" xlink:href="#bM"/><use transform="matrix(0.05,0,0,0.05,12.950000000000001,0)" xlink:href="#cf"/><use transform="matrix(0.05,0,0,0.05,22.950000000000003,0)" xlink:href="#ao"/><use transform="matrix(0.05,0,0,0.05,32.95,0)" xlink:href="#aQ"/><use transform="matrix(0.05,0,0,0.05,41.95,0)" xlink:href="#bF"/></g><path d="M266 0h-40l-56-210L115 0H75L2-248h35L96-30l15-64 43-154h32l59 218 59-218h35" id="cg"/><g id="af"><use transform="matrix(0.05,0,0,0.05,0,0)" xlink:href="#cg"/><use transform="matrix(0.05,0,0,0.05,16.95,0)" xlink:href="#br"/><use transform="matrix(0.05,0,0,0.05,20.9,0)" xlink:href="#bq"/><use transform="matrix(0.05,0,0,0.05,25.899999999999995,0)" xlink:href="#bR"/></g><g id="ag"><use transform="matrix(0.05,0,0,0.05,0,0)" xlink:href="#bZ"/><use transform="matrix(0.05,0,0,0.05,12.950000000000001,0)" xlink:href="#bp"/><use transform="matrix(0.05,0,0,0.05,22.950000000000003,0)" xlink:href="#bK"/><use transform="matrix(0.05,0,0,0.05,31.950000000000003,0)" xlink:href="#bR"/><use transform="matrix(0.05,0,0,0.05,41.95,0)" xlink:href="#by"/></g><g id="ah"><use transform="matrix(0.05,0,0,0.05,0,0)" xlink:href="#bE"/><use transform="matrix(0.05,0,0,0.05,12.950000000000001,0)" xlink:href="#bi"/><use transform="matrix(0.05,0,0,0.05,22.950000000000003,0)" xlink:href="#aT"/><use transform="matrix(0.05,0,0,0.05,32.95,0)" xlink:href="#bF"/><use transform="matrix(0.05,0,0,0.05,41.95,0)" xlink:href="#ao"/><use transform="matrix(0.05,0,0,0.05,51.95,0)" xlink:href="#aR"/></g><g id="ai"><use transform="matrix(0.05,0,0,0.05,0,0)" xlink:href="#bE"/><use transform="matrix(0.05,0,0,0.05,12.950000000000001,0)" xlink:href="#ao"/><use transform="matrix(0.05,0,0,0.05,22.950000000000003,0)" xlink:href="#aP"/><use transform="matrix(0.05,0,0,0.05,27.950000000000003,0)" xlink:href="#ap"/><use transform="matrix(0.05,0,0,0.05,33.900000000000006,0)" xlink:href="#bj"/><use transform="matrix(0.05,0,0,0.05,37.85000000000001,0)" xlink:href="#by"/><use transform="matrix(0.05,0,0,0.05,47.85000000000001,0)" xlink:href="#bW"/><use transform="matrix(0.05,0,0,0.05,56.85,0)" xlink:href="#bp"/><use transform="matrix(0.05,0,0,0.05,66.85000000000001,0)" xlink:href="#bA"/></g><g id="aj"><use transform="matrix(0.05,0,0,0.05,0,0)" xlink:href="#bs"/><use transform="matrix(0.05,0,0,0.05,10,0)" xlink:href="#bY"/></g><path d="M30-248c87 1 191-15 191 75 0 78-77 80-158 76V0H30v-248zm33 125c57 0 124 11 124-50 0-59-68-47-124-48v98" id="ch"/><g id="ak"><use transform="matrix(0.05,0,0,0.05,0,0)" xlink:href="#ch"/><use transform="matrix(0.05,0,0,0.05,12,0)" xlink:href="#aV"/><use transform="matrix(0.05,0,0,0.05,17.95,0)" xlink:href="#bs"/><use transform="matrix(0.05,0,0,0.05,27.950000000000003,0)" xlink:href="#bO"/><use transform="matrix(0.05,0,0,0.05,37.95,0)" xlink:href="#bB"/><use transform="matrix(0.05,0,0,0.05,47.95,0)" xlink:href="#bK"/><use transform="matrix(0.05,0,0,0.05,56.95,0)" xlink:href="#bq"/></g><path d="M33 0v-248h34V0H33" id="ci"/><g id="al"><use transform="matrix(0.05,0,0,0.05,0,0)" xlink:href="#ci"/><use transform="matrix(0.05,0,0,0.05,5,0)" xlink:href="#bO"/><use transform="matrix(0.05,0,0,0.05,15,0)" xlink:href="#bz"/></g></defs></g></svg>